%TF.GenerationSoftware,KiCad,Pcbnew,10.0.1*%
%TF.CreationDate,2026-07-30T14:49:08+07:00*%
%TF.ProjectId,Drone,44726f6e-652e-46b6-9963-61645f706362,v01*%
%TF.SameCoordinates,Original*%
%TF.FileFunction,Paste,Top*%
%TF.FilePolarity,Positive*%
%FSLAX46Y46*%
G04 Gerber Fmt 4.6, Leading zero omitted, Abs format (unit mm)*
G04 Created by KiCad (PCBNEW 10.0.1) date 2026-07-30 14:49:08*
%MOMM*%
%LPD*%
G01*
G04 APERTURE LIST*
G04 Aperture macros list*
%AMRoundRect*
0 Rectangle with rounded corners*
0 $1 Rounding radius*
0 $2 $3 $4 $5 $6 $7 $8 $9 X,Y pos of 4 corners*
0 Add a 4 corners polygon primitive as box body*
4,1,4,$2,$3,$4,$5,$6,$7,$8,$9,$2,$3,0*
0 Add four circle primitives for the rounded corners*
1,1,$1+$1,$2,$3*
1,1,$1+$1,$4,$5*
1,1,$1+$1,$6,$7*
1,1,$1+$1,$8,$9*
0 Add four rect primitives between the rounded corners*
20,1,$1+$1,$2,$3,$4,$5,0*
20,1,$1+$1,$4,$5,$6,$7,0*
20,1,$1+$1,$6,$7,$8,$9,0*
20,1,$1+$1,$8,$9,$2,$3,0*%
G04 Aperture macros list end*
%ADD10RoundRect,0.150000X0.150000X-0.587500X0.150000X0.587500X-0.150000X0.587500X-0.150000X-0.587500X0*%
%ADD11RoundRect,0.140000X0.170000X-0.140000X0.170000X0.140000X-0.170000X0.140000X-0.170000X-0.140000X0*%
%ADD12RoundRect,0.135000X-0.135000X-0.185000X0.135000X-0.185000X0.135000X0.185000X-0.135000X0.185000X0*%
%ADD13RoundRect,0.135000X-0.185000X0.135000X-0.185000X-0.135000X0.185000X-0.135000X0.185000X0.135000X0*%
%ADD14RoundRect,0.250000X-0.475000X0.250000X-0.475000X-0.250000X0.475000X-0.250000X0.475000X0.250000X0*%
%ADD15RoundRect,0.135000X0.135000X0.185000X-0.135000X0.185000X-0.135000X-0.185000X0.135000X-0.185000X0*%
%ADD16RoundRect,0.250000X-0.475000X-0.250000X0.475000X-0.250000X0.475000X0.250000X-0.475000X0.250000X0*%
%ADD17RoundRect,0.315000X-0.735000X-1.185000X0.735000X-1.185000X0.735000X1.185000X-0.735000X1.185000X0*%
%ADD18RoundRect,0.120000X-0.280000X-0.680000X0.280000X-0.680000X0.280000X0.680000X-0.280000X0.680000X0*%
%ADD19RoundRect,0.150000X-0.512500X-0.150000X0.512500X-0.150000X0.512500X0.150000X-0.512500X0.150000X0*%
%ADD20R,1.500000X2.000000*%
%ADD21RoundRect,0.140000X0.140000X0.170000X-0.140000X0.170000X-0.140000X-0.170000X0.140000X-0.170000X0*%
%ADD22R,0.900000X0.900000*%
%ADD23R,1.500000X0.900000*%
%ADD24R,0.900000X1.500000*%
%ADD25RoundRect,0.250000X0.445000X-0.457500X0.445000X0.457500X-0.445000X0.457500X-0.445000X-0.457500X0*%
%ADD26RoundRect,0.140000X-0.170000X0.140000X-0.170000X-0.140000X0.170000X-0.140000X0.170000X0.140000X0*%
%ADD27RoundRect,0.315000X0.735000X1.185000X-0.735000X1.185000X-0.735000X-1.185000X0.735000X-1.185000X0*%
%ADD28RoundRect,0.120000X0.280000X0.680000X-0.280000X0.680000X-0.280000X-0.680000X0.280000X-0.680000X0*%
%ADD29RoundRect,0.243750X0.243750X0.456250X-0.243750X0.456250X-0.243750X-0.456250X0.243750X-0.456250X0*%
%ADD30R,1.600000X0.700000*%
%ADD31R,2.200000X1.200000*%
%ADD32R,1.400000X1.600000*%
%ADD33R,1.400000X1.200000*%
%ADD34RoundRect,0.207500X0.207500X-0.207500X0.207500X0.207500X-0.207500X0.207500X-0.207500X-0.207500X0*%
%ADD35RoundRect,0.062500X0.062500X-0.412500X0.062500X0.412500X-0.062500X0.412500X-0.062500X-0.412500X0*%
%ADD36RoundRect,0.062500X0.412500X-0.062500X0.412500X0.062500X-0.412500X0.062500X-0.412500X-0.062500X0*%
%ADD37RoundRect,0.315000X-1.185000X0.735000X-1.185000X-0.735000X1.185000X-0.735000X1.185000X0.735000X0*%
%ADD38RoundRect,0.120000X-0.680000X0.280000X-0.680000X-0.280000X0.680000X-0.280000X0.680000X0.280000X0*%
%ADD39RoundRect,0.225000X0.375000X-0.225000X0.375000X0.225000X-0.375000X0.225000X-0.375000X-0.225000X0*%
%ADD40RoundRect,0.140000X-0.140000X-0.170000X0.140000X-0.170000X0.140000X0.170000X-0.140000X0.170000X0*%
%ADD41RoundRect,0.315000X1.185000X-0.735000X1.185000X0.735000X-1.185000X0.735000X-1.185000X-0.735000X0*%
%ADD42RoundRect,0.120000X0.680000X-0.280000X0.680000X0.280000X-0.680000X0.280000X-0.680000X-0.280000X0*%
%ADD43RoundRect,0.250000X0.475000X-0.250000X0.475000X0.250000X-0.475000X0.250000X-0.475000X-0.250000X0*%
%ADD44RoundRect,0.150000X0.512500X0.150000X-0.512500X0.150000X-0.512500X-0.150000X0.512500X-0.150000X0*%
%ADD45RoundRect,0.135000X0.185000X-0.135000X0.185000X0.135000X-0.185000X0.135000X-0.185000X-0.135000X0*%
%ADD46R,0.400000X0.900000*%
%ADD47RoundRect,0.150000X-0.150000X0.587500X-0.150000X-0.587500X0.150000X-0.587500X0.150000X0.587500X0*%
%ADD48R,0.700000X0.700000*%
%ADD49RoundRect,0.150000X-0.425000X0.150000X-0.425000X-0.150000X0.425000X-0.150000X0.425000X0.150000X0*%
%ADD50RoundRect,0.075000X-0.500000X0.075000X-0.500000X-0.075000X0.500000X-0.075000X0.500000X0.075000X0*%
%ADD51O,2.100000X1.000000*%
%ADD52O,1.800000X1.000000*%
G04 APERTURE END LIST*
D10*
%TO.C,Q2*%
X128950001Y-76837500D03*
X130850001Y-76837500D03*
X129900001Y-74962500D03*
%TD*%
D11*
%TO.C,C17*%
X133900001Y-71700000D03*
X133900001Y-70740000D03*
%TD*%
D12*
%TO.C,R3*%
X119890001Y-84700000D03*
X120910001Y-84700000D03*
%TD*%
D13*
%TO.C,R13*%
X122037501Y-103986251D03*
X122037501Y-105006251D03*
%TD*%
D14*
%TO.C,C7*%
X123200001Y-93500001D03*
X123200001Y-95400001D03*
%TD*%
D15*
%TO.C,R11*%
X119900002Y-101800000D03*
X118880002Y-101800000D03*
%TD*%
D16*
%TO.C,SW1*%
X165900001Y-70950000D03*
X171050001Y-70950000D03*
X165900001Y-72650000D03*
X171050001Y-72650000D03*
%TD*%
D10*
%TO.C,Q1*%
X125445001Y-76902500D03*
X127345001Y-76902500D03*
X126395001Y-75027500D03*
%TD*%
D17*
%TO.C,J4*%
X163800001Y-136500000D03*
X171400001Y-136500000D03*
D18*
X166350001Y-133600000D03*
X167600001Y-133600000D03*
X168850001Y-133600000D03*
%TD*%
D12*
%TO.C,R23*%
X137720000Y-90100000D03*
X138740000Y-90100000D03*
%TD*%
D19*
%TO.C,U1*%
X120025001Y-81200000D03*
X120025001Y-82150000D03*
X120025001Y-83100000D03*
X122300001Y-83100000D03*
X122300001Y-82150000D03*
X122300001Y-81200000D03*
%TD*%
D14*
%TO.C,C4*%
X162900001Y-123000001D03*
X162900001Y-124900001D03*
%TD*%
D15*
%TO.C,R1*%
X126520000Y-78542501D03*
X125500000Y-78542501D03*
%TD*%
D20*
%TO.C,U8*%
X113000001Y-127500000D03*
X115000001Y-127500000D03*
X117000001Y-127500000D03*
X119000001Y-127500000D03*
X121000001Y-127500000D03*
X123000001Y-127500000D03*
X125000001Y-127500000D03*
X127000001Y-127500000D03*
X127000001Y-111500000D03*
X125000001Y-111500000D03*
X123000001Y-111500000D03*
X121000001Y-111500000D03*
X119000001Y-111500000D03*
X117000001Y-111500000D03*
X115000001Y-111500000D03*
X113000001Y-111500000D03*
%TD*%
D12*
%TO.C,R24*%
X163845001Y-126300000D03*
X164865001Y-126300000D03*
%TD*%
D14*
%TO.C,C8*%
X123200001Y-98500001D03*
X123200001Y-100400001D03*
%TD*%
D21*
%TO.C,C14*%
X116780000Y-129800000D03*
X115820000Y-129800000D03*
%TD*%
D11*
%TO.C,C20*%
X157224265Y-89559999D03*
X157224265Y-88599999D03*
%TD*%
D22*
%TO.C,U9*%
X142700001Y-74310000D03*
X142700001Y-75710000D03*
X142700001Y-77110000D03*
X144100001Y-74310000D03*
X144100001Y-75710000D03*
X144100001Y-77110000D03*
X145500001Y-74310000D03*
X145500001Y-75710000D03*
X145500001Y-77110000D03*
D23*
X136850001Y-67990000D03*
X136850001Y-69260000D03*
X136850001Y-70530000D03*
X136850001Y-71800000D03*
X136850001Y-73070000D03*
X136850001Y-74340000D03*
X136850001Y-75610000D03*
X136850001Y-76880000D03*
X136850001Y-78150000D03*
X136850001Y-79420000D03*
X136850001Y-80690000D03*
X136850001Y-81960000D03*
X136850001Y-83230000D03*
X136850001Y-84500000D03*
D24*
X138615001Y-85750000D03*
X139885001Y-85750000D03*
X141155001Y-85750000D03*
X142425001Y-85750000D03*
X143695001Y-85750000D03*
X144965001Y-85750000D03*
X146235001Y-85750000D03*
X147505001Y-85750000D03*
X148775001Y-85750000D03*
X150045001Y-85750000D03*
X151315001Y-85750000D03*
X152585001Y-85750000D03*
D23*
X154350001Y-84500000D03*
X154350001Y-83230000D03*
X154350001Y-81960000D03*
X154350001Y-80690000D03*
X154350001Y-79420000D03*
X154350001Y-78150000D03*
X154350001Y-76880000D03*
X154350001Y-75610000D03*
X154350001Y-74340000D03*
X154350001Y-73070000D03*
X154350001Y-71800000D03*
X154350001Y-70530000D03*
X154350001Y-69260000D03*
X154350001Y-67990000D03*
%TD*%
D25*
%TO.C,C15*%
X132100001Y-70852500D03*
X132100001Y-68147500D03*
%TD*%
D26*
%TO.C,C6*%
X122037501Y-105926250D03*
X122037501Y-106886250D03*
%TD*%
D27*
%TO.C,J2*%
X127400001Y-68700000D03*
X119800001Y-68700000D03*
D28*
X124850001Y-71600000D03*
X123600001Y-71600000D03*
X122350001Y-71600000D03*
%TD*%
D15*
%TO.C,R20*%
X149720001Y-90100000D03*
X148700001Y-90100000D03*
%TD*%
D19*
%TO.C,U6*%
X125650001Y-98600000D03*
X125650001Y-99550000D03*
X125650001Y-100500000D03*
X127925001Y-100500000D03*
X127925001Y-98600000D03*
%TD*%
D29*
%TO.C,D4*%
X132937501Y-102600000D03*
X131062501Y-102600000D03*
%TD*%
D30*
%TO.C,J14*%
X166778146Y-118984968D03*
X166778146Y-120084968D03*
X166778146Y-121184968D03*
X166778146Y-122284968D03*
X166778146Y-123384968D03*
X166778146Y-124484968D03*
X166778146Y-125584968D03*
X166778146Y-126684968D03*
X166778146Y-127784968D03*
D31*
X176878146Y-113484968D03*
D32*
X167278146Y-114384968D03*
D31*
X176878146Y-128984968D03*
D33*
X167278146Y-128984968D03*
%TD*%
D13*
%TO.C,R7*%
X132800001Y-82999999D03*
X132800001Y-84019999D03*
%TD*%
D26*
%TO.C,C12*%
X132000000Y-98720000D03*
X132000000Y-99680000D03*
%TD*%
D34*
%TO.C,U2*%
X127970001Y-83555000D03*
X129000001Y-83555000D03*
X130030001Y-83555000D03*
X127970001Y-82525000D03*
X129000001Y-82525000D03*
X130030001Y-82525000D03*
X127970001Y-81495000D03*
X129000001Y-81495000D03*
X130030001Y-81495000D03*
D35*
X127500001Y-84900000D03*
X128000001Y-84900000D03*
X128500001Y-84900000D03*
X129000001Y-84900000D03*
X129500001Y-84900000D03*
X130000001Y-84900000D03*
X130500001Y-84900000D03*
D36*
X131375001Y-84025000D03*
X131375001Y-83525000D03*
X131375001Y-83025000D03*
X131375001Y-82525000D03*
X131375001Y-82025000D03*
X131375001Y-81525000D03*
X131375001Y-81025000D03*
D35*
X130500001Y-80150000D03*
X130000001Y-80150000D03*
X129500001Y-80150000D03*
X129000001Y-80150000D03*
X128500001Y-80150000D03*
X128000001Y-80150000D03*
X127500001Y-80150000D03*
D36*
X126625001Y-81025000D03*
X126625001Y-81525000D03*
X126625001Y-82025000D03*
X126625001Y-82525000D03*
X126625001Y-83025000D03*
X126625001Y-83525000D03*
X126625001Y-84025000D03*
%TD*%
D37*
%TO.C,J3*%
X111700001Y-100900000D03*
X111700001Y-108500000D03*
D38*
X114600001Y-103450000D03*
X114600001Y-104700000D03*
X114600001Y-105950000D03*
%TD*%
D16*
%TO.C,SW2*%
X158125001Y-78550000D03*
X163275001Y-78550000D03*
X158125001Y-80250000D03*
X163275001Y-80250000D03*
%TD*%
D15*
%TO.C,R10*%
X165210001Y-119300000D03*
X164190001Y-119300000D03*
%TD*%
D39*
%TO.C,D2*%
X122600001Y-89950000D03*
X122600001Y-86650000D03*
%TD*%
D21*
%TO.C,C3*%
X150480000Y-114900000D03*
X149520000Y-114900000D03*
%TD*%
D40*
%TO.C,C1*%
X130440001Y-86300000D03*
X131400001Y-86300000D03*
%TD*%
D15*
%TO.C,R9*%
X165210001Y-121300000D03*
X164190001Y-121300000D03*
%TD*%
D12*
%TO.C,R21*%
X150900001Y-90100000D03*
X151920001Y-90100000D03*
%TD*%
D15*
%TO.C,R14*%
X123010001Y-102100000D03*
X121990001Y-102100000D03*
%TD*%
D41*
%TO.C,J5*%
X179500001Y-111200000D03*
X179500001Y-103600000D03*
D42*
X176600001Y-108650000D03*
X176600001Y-107400000D03*
X176600001Y-106150000D03*
%TD*%
D15*
%TO.C,R22*%
X136800002Y-90100000D03*
X135780002Y-90100000D03*
%TD*%
D17*
%TO.C,J6*%
X136725001Y-136500000D03*
X145575001Y-136500000D03*
D18*
X139275001Y-133600000D03*
X140525001Y-133600000D03*
X141775001Y-133600000D03*
X143025001Y-133600000D03*
%TD*%
D17*
%TO.C,J12*%
X148675001Y-136500000D03*
X157525001Y-136500000D03*
D18*
X151225001Y-133600000D03*
X152475001Y-133600000D03*
X153725001Y-133600000D03*
X154975001Y-133600000D03*
%TD*%
D40*
%TO.C,C2*%
X132400001Y-85200000D03*
X133360001Y-85200000D03*
%TD*%
D19*
%TO.C,U7*%
X125650001Y-93600000D03*
X125650001Y-94550000D03*
X125650001Y-95500000D03*
X127925001Y-95500000D03*
X127925001Y-93600000D03*
%TD*%
D15*
%TO.C,R2*%
X129920000Y-78552500D03*
X128900000Y-78552500D03*
%TD*%
D43*
%TO.C,C13*%
X119900001Y-131650000D03*
X119900001Y-129750000D03*
%TD*%
D44*
%TO.C,U4*%
X126025000Y-106236250D03*
X126025000Y-105286250D03*
X126025000Y-104336250D03*
X123750000Y-104336250D03*
X123750000Y-105286250D03*
X123750000Y-106236250D03*
%TD*%
D10*
%TO.C,Q3*%
X118900001Y-100075001D03*
X120800001Y-100075001D03*
X119850001Y-98200001D03*
%TD*%
D13*
%TO.C,R18*%
X143650001Y-87530001D03*
X143650001Y-88550001D03*
%TD*%
D12*
%TO.C,R15*%
X124890001Y-103036250D03*
X125910001Y-103036250D03*
%TD*%
D45*
%TO.C,R8*%
X132800001Y-81919999D03*
X132800001Y-80899999D03*
%TD*%
D46*
%TO.C,RN1*%
X169700001Y-112950000D03*
X170500001Y-112950000D03*
X171300001Y-112950000D03*
X172100001Y-112950000D03*
X172100001Y-111250000D03*
X171300001Y-111250000D03*
X170500001Y-111250000D03*
X169700001Y-111250000D03*
%TD*%
D45*
%TO.C,R26*%
X156100001Y-74210000D03*
X156100001Y-73190000D03*
%TD*%
D15*
%TO.C,R16*%
X122650002Y-109550000D03*
X121630002Y-109550000D03*
%TD*%
D47*
%TO.C,D1*%
X120750001Y-93862500D03*
X118850001Y-93862500D03*
X119800001Y-95737500D03*
%TD*%
D12*
%TO.C,R5*%
X131380002Y-88000000D03*
X132400002Y-88000000D03*
%TD*%
D37*
%TO.C,J13*%
X111700001Y-89575000D03*
X111700001Y-95875000D03*
D38*
X114600001Y-92075000D03*
X114600001Y-93325000D03*
%TD*%
D45*
%TO.C,R17*%
X132100001Y-74119999D03*
X132100001Y-73099999D03*
%TD*%
D48*
%TO.C,D5*%
X160584265Y-89680000D03*
X160584265Y-88580000D03*
X158754265Y-88580000D03*
X158754265Y-89680000D03*
%TD*%
D11*
%TO.C,C16*%
X135100001Y-69200000D03*
X135100001Y-68240000D03*
%TD*%
D40*
%TO.C,C19*%
X158120001Y-82200000D03*
X159080001Y-82200000D03*
%TD*%
D14*
%TO.C,C10*%
X130200001Y-98500001D03*
X130200001Y-100400001D03*
%TD*%
D11*
%TO.C,C18*%
X156100001Y-84520000D03*
X156100001Y-83560000D03*
%TD*%
D16*
%TO.C,SW3*%
X158125001Y-70950000D03*
X163275001Y-70950000D03*
X158125001Y-72650000D03*
X163275001Y-72650000D03*
%TD*%
D39*
%TO.C,D3*%
X125000001Y-89950000D03*
X125000001Y-86650000D03*
%TD*%
D15*
%TO.C,R6*%
X132400002Y-89100000D03*
X131380002Y-89100000D03*
%TD*%
D17*
%TO.C,J8*%
X119875001Y-136500000D03*
X133725001Y-136500000D03*
D18*
X122425001Y-133600000D03*
X123675001Y-133600000D03*
X124925001Y-133600000D03*
X126175001Y-133600000D03*
X127425001Y-133600000D03*
X128675001Y-133600000D03*
X129925001Y-133600000D03*
X131175001Y-133600000D03*
%TD*%
D12*
%TO.C,R4*%
X119890001Y-79500000D03*
X120910001Y-79500000D03*
%TD*%
D13*
%TO.C,R19*%
X144900001Y-87530000D03*
X144900001Y-88550000D03*
%TD*%
D14*
%TO.C,C9*%
X130200001Y-93500001D03*
X130200001Y-95400001D03*
%TD*%
D26*
%TO.C,C5*%
X164900000Y-123000000D03*
X164900000Y-123960000D03*
%TD*%
%TO.C,C21*%
X135000001Y-70760000D03*
X135000001Y-71720000D03*
%TD*%
D13*
%TO.C,R25*%
X156100001Y-70790000D03*
X156100001Y-71810000D03*
%TD*%
D26*
%TO.C,C11*%
X132000000Y-93720000D03*
X132000000Y-94680000D03*
%TD*%
D44*
%TO.C,U5*%
X130175001Y-106236250D03*
X130175001Y-105286250D03*
X130175001Y-104336250D03*
X127900001Y-104336250D03*
X127900001Y-105286250D03*
X127900001Y-106236250D03*
%TD*%
D49*
%TO.C,J1*%
X117390001Y-78800000D03*
X117390001Y-79600000D03*
D50*
X117390001Y-80750000D03*
X117390001Y-81750000D03*
X117390001Y-82250000D03*
X117390001Y-83250000D03*
D49*
X117390001Y-84400000D03*
X117390001Y-85200000D03*
X117390001Y-85200000D03*
X117390001Y-84400000D03*
D50*
X117390001Y-83750000D03*
X117390001Y-82750000D03*
X117390001Y-81250000D03*
X117390001Y-80250000D03*
D49*
X117390001Y-79600000D03*
X117390001Y-78800000D03*
D51*
X116815001Y-77680000D03*
D52*
X112635001Y-77680000D03*
D51*
X116815001Y-86320000D03*
D52*
X112635001Y-86320000D03*
%TD*%
M02*
