M48
; DRILL file KiCad 10.0.1 date 2026-07-30T14:49:06
; FORMAT={-:-/ absolute / metric / decimal}
; #@! TF.CreationDate,2026-07-30T14:49:06+07:00
; #@! TF.GenerationSoftware,Kicad,Pcbnew,10.0.1
; #@! TF.FileFunction,Plated,1,4,PTH
FMAT,2
METRIC
; #@! TA.AperFunction,Plated,PTH,ComponentDrill
T1C0.200
; #@! TA.AperFunction,Plated,PTH,ViaDrill
T2C0.300
; #@! TA.AperFunction,Plated,PTH,ViaDrill
T3C0.400
; #@! TA.AperFunction,Plated,PTH,ComponentDrill
T4C0.600
; #@! TA.AperFunction,Plated,PTH,ComponentDrill
T5C1.000
; #@! TA.AperFunction,Plated,PTH,ComponentDrill
T6C1.200
; #@! TA.AperFunction,Plated,PTH,ComponentDrill
T7C3.200
%
G90
G05
T1
X142.7Y-75.01
X142.7Y-76.41
X143.4Y-74.31
X143.4Y-75.71
X143.4Y-77.11
X144.1Y-75.01
X144.1Y-76.41
X144.8Y-74.31
X144.8Y-75.71
X144.8Y-77.11
X145.5Y-75.01
X145.5Y-76.41
T2
X115.0Y-111.5
X117.0Y-111.5
X119.0Y-127.5
X120.65Y-106.55
X121.0Y-111.5
X122.3Y-81.2
X122.3Y-83.1
X122.65Y-109.55
X124.7Y-80.6
X124.925Y-133.6
X125.35Y-80.6
X126.175Y-133.6
X127.544Y-130.875
X128.1Y-131.3
X128.325Y-86.7
X128.675Y-133.6
X129.1Y-86.7
X129.3Y-88.9
X129.925Y-133.6
X132.9Y-73.05
X132.914Y-73.956
X133.9Y-70.74
X136.85Y-74.34
X136.85Y-75.61
X136.85Y-76.88
X136.85Y-78.15
X136.85Y-79.42
X136.85Y-80.69
X136.85Y-81.96
X136.85Y-83.23
X136.85Y-84.5
X136.85Y-90.1
X137.7Y-90.1
X141.775Y-133.6
X143.025Y-133.6
X143.65Y-88.55
X144.9Y-88.55
X146.235Y-85.75
X146.5Y-82.5
X146.5Y-83.3
X146.5Y-84.1
X149.72Y-90.1
X150.9Y-90.1
X153.725Y-133.6
X154.975Y-133.6
X156.1Y-70.79
X156.1Y-74.21
X158.15Y-72.65
X163.5Y-121.875
X163.542Y-118.725
X164.19Y-119.3
X164.19Y-121.3
X165.575Y-129.175
X166.778Y-121.185
X167.4Y-123.385
X168.85Y-133.6
X170.3Y-97.9
X170.5Y-112.95
X172.1Y-112.95
T3
X113.0Y-111.5
X114.5Y-129.7
X114.6Y-92.075
X114.6Y-93.325
X114.6Y-103.45
X115.8Y-129.8
X118.3Y-85.6
X118.342Y-79.615
X118.4Y-84.475
X118.5Y-78.4
X118.85Y-93.862
X119.85Y-98.2
X119.9Y-131.7
X120.025Y-82.15
X120.75Y-93.862
X120.91Y-79.5
X120.91Y-84.7
X121.1Y-102.6
X122.038Y-103.986
X122.3Y-82.15
X122.5Y-94.9
X122.6Y-86.65
X123.0Y-102.1
X123.2Y-93.3
X123.2Y-98.5
X123.3Y-97.5
X123.5Y-99.9
X123.5Y-101.1
X123.6Y-71.6
X123.675Y-133.6
X124.4Y-96.2
X124.85Y-71.6
X125.0Y-86.65
X125.648Y-98.45
X125.65Y-94.55
X125.65Y-99.55
X125.7Y-93.3
X125.7Y-97.5
X126.65Y-103.275
X126.8Y-96.2
X126.8Y-101.2
X127.0Y-111.5
X127.3Y-86.3
X130.2Y-94.8
X130.2Y-96.1
X130.2Y-99.8
X130.2Y-101.2
X130.2Y-104.236
X130.44Y-86.3
X131.062Y-102.6
X131.4Y-89.1
X131.44Y-86.3
X131.5Y-122.9
X132.0Y-94.68
X132.0Y-99.68
X132.1Y-68.1
X132.1Y-70.852
X132.1Y-74.2
X132.8Y-80.9
X132.8Y-84.02
X132.9Y-98.7
X133.0Y-102.6
X133.4Y-85.2
X133.65Y-68.05
X133.9Y-71.7
X135.0Y-71.72
X135.1Y-68.2
X136.867Y-73.087
X140.525Y-133.6
X148.7Y-90.1
X148.975Y-93.75
X149.1Y-114.9
X150.45Y-114.9
X151.92Y-90.1
X152.475Y-133.6
X154.35Y-67.99
X156.1Y-82.9
X156.1Y-84.48
X157.2Y-88.6
X158.125Y-78.55
X158.15Y-70.95
X159.1Y-82.2
X160.6Y-88.6
X162.9Y-124.9
X163.275Y-70.95
X163.275Y-78.55
X164.9Y-123.96
X165.9Y-70.95
X165.9Y-72.55
X166.35Y-133.6
X167.278Y-114.385
X167.278Y-128.985
X171.05Y-70.95
X176.6Y-108.65
X176.878Y-113.485
X176.878Y-128.985
T5
X157.1Y-96.36
X157.1Y-98.9
X157.1Y-101.44
X157.1Y-103.98
X157.1Y-106.52
X157.1Y-109.06
X157.1Y-111.6
X172.92Y-80.68
X172.92Y-83.22
X172.92Y-85.76
X172.92Y-88.3
X172.92Y-90.84
X172.92Y-93.38
X172.92Y-95.92
X175.46Y-80.68
X175.46Y-83.22
X175.46Y-85.76
X175.46Y-88.3
X175.46Y-90.84
X175.46Y-93.38
X175.46Y-95.92
X178.0Y-80.68
X178.0Y-83.22
X178.0Y-85.76
X178.0Y-88.3
X178.0Y-90.84
X178.0Y-93.38
X178.0Y-95.92
T6
X152.6Y-93.82
X152.6Y-96.36
X152.6Y-98.9
X152.6Y-101.44
X152.6Y-103.98
X152.6Y-106.52
X152.6Y-109.06
X152.6Y-111.6
T7
X114.1Y-71.1
X114.1Y-134.1
X177.1Y-71.1
X177.1Y-134.1
T4
G00X113.035Y-77.68
M15
G01X112.235Y-77.68
M16
G05
G00X113.035Y-86.32
M15
G01X112.235Y-86.32
M16
G05
G00X117.365Y-77.68
M15
G01X116.265Y-77.68
M16
G05
G00X117.365Y-86.32
M15
G01X116.265Y-86.32
M16
G05
M30
