ISO-10303-21;
HEADER;
/* Generated by software containing ST-Developer
 * from STEP Tools, Inc. (www.steptools.com) 
 */

FILE_DESCRIPTION(
/* description */ (''),
/* implementation_level */ '2;1');

FILE_NAME(
/* name */ 'Design 2.step',
/* time_stamp */ '2026-07-16T01:37:08+07:00',
/* author */ (''),
/* organization */ (''),
/* preprocessor_version */ 'ST-DEVELOPER v20.1',
/* originating_system */ 'Autodesk Translation Framework v15.8.0.0',
/* authorisation */ '');

FILE_SCHEMA (('AUTOMOTIVE_DESIGN { 1 0 10303 214 3 1 1 }'));
ENDSEC;

DATA;
#10=MECHANICAL_DESIGN_GEOMETRIC_PRESENTATION_REPRESENTATION('',(#13),#1831);
#11=SHAPE_REPRESENTATION_RELATIONSHIP('SRR','None',#1838,#12);
#12=ADVANCED_BREP_SHAPE_REPRESENTATION('',(#14),#1830);
#13=STYLED_ITEM('',(#1847),#14);
#14=MANIFOLD_SOLID_BREP('Body1',#1111);
#15=FACE_BOUND('',#139,.T.);
#16=FACE_BOUND('',#140,.T.);
#17=FACE_BOUND('',#141,.T.);
#18=FACE_BOUND('',#142,.T.);
#19=FACE_BOUND('',#143,.T.);
#20=FACE_BOUND('',#144,.T.);
#21=FACE_BOUND('',#145,.T.);
#22=FACE_BOUND('',#146,.T.);
#23=FACE_BOUND('',#147,.T.);
#24=FACE_BOUND('',#148,.T.);
#25=FACE_BOUND('',#149,.T.);
#26=FACE_BOUND('',#172,.T.);
#27=FACE_BOUND('',#180,.T.);
#28=FACE_BOUND('',#188,.T.);
#29=FACE_BOUND('',#189,.T.);
#30=FACE_BOUND('',#197,.T.);
#31=FACE_BOUND('',#199,.T.);
#32=FACE_BOUND('',#200,.T.);
#33=FACE_BOUND('',#201,.T.);
#34=FACE_BOUND('',#202,.T.);
#35=FACE_BOUND('',#203,.T.);
#36=FACE_BOUND('',#204,.T.);
#37=FACE_BOUND('',#205,.T.);
#38=FACE_BOUND('',#206,.T.);
#39=FACE_BOUND('',#207,.T.);
#40=FACE_BOUND('',#208,.T.);
#41=FACE_BOUND('',#209,.T.);
#42=FACE_BOUND('',#210,.T.);
#43=FACE_BOUND('',#211,.T.);
#44=FACE_BOUND('',#213,.T.);
#45=PLANE('',#1128);
#46=PLANE('',#1129);
#47=PLANE('',#1134);
#48=PLANE('',#1135);
#49=PLANE('',#1151);
#50=PLANE('',#1155);
#51=PLANE('',#1156);
#52=PLANE('',#1172);
#53=PLANE('',#1175);
#54=PLANE('',#1176);
#55=PLANE('',#1177);
#56=PLANE('',#1178);
#57=PLANE('',#1179);
#58=PLANE('',#1180);
#59=PLANE('',#1181);
#60=PLANE('',#1182);
#61=PLANE('',#1184);
#62=PLANE('',#1185);
#63=PLANE('',#1186);
#64=PLANE('',#1187);
#65=PLANE('',#1188);
#66=PLANE('',#1189);
#67=PLANE('',#1190);
#68=PLANE('',#1204);
#69=PLANE('',#1205);
#70=PLANE('',#1206);
#71=PLANE('',#1207);
#72=PLANE('',#1212);
#73=PLANE('',#1213);
#74=PLANE('',#1214);
#75=PLANE('',#1215);
#76=PLANE('',#1216);
#77=PLANE('',#1217);
#78=PLANE('',#1218);
#79=FACE_OUTER_BOUND('',#133,.T.);
#80=FACE_OUTER_BOUND('',#134,.T.);
#81=FACE_OUTER_BOUND('',#135,.T.);
#82=FACE_OUTER_BOUND('',#136,.T.);
#83=FACE_OUTER_BOUND('',#137,.T.);
#84=FACE_OUTER_BOUND('',#138,.T.);
#85=FACE_OUTER_BOUND('',#150,.T.);
#86=FACE_OUTER_BOUND('',#151,.T.);
#87=FACE_OUTER_BOUND('',#152,.T.);
#88=FACE_OUTER_BOUND('',#153,.T.);
#89=FACE_OUTER_BOUND('',#154,.T.);
#90=FACE_OUTER_BOUND('',#155,.T.);
#91=FACE_OUTER_BOUND('',#156,.T.);
#92=FACE_OUTER_BOUND('',#157,.T.);
#93=FACE_OUTER_BOUND('',#158,.T.);
#94=FACE_OUTER_BOUND('',#159,.T.);
#95=FACE_OUTER_BOUND('',#160,.T.);
#96=FACE_OUTER_BOUND('',#161,.T.);
#97=FACE_OUTER_BOUND('',#162,.T.);
#98=FACE_OUTER_BOUND('',#163,.T.);
#99=FACE_OUTER_BOUND('',#164,.T.);
#100=FACE_OUTER_BOUND('',#165,.T.);
#101=FACE_OUTER_BOUND('',#166,.T.);
#102=FACE_OUTER_BOUND('',#167,.T.);
#103=FACE_OUTER_BOUND('',#168,.T.);
#104=FACE_OUTER_BOUND('',#169,.T.);
#105=FACE_OUTER_BOUND('',#170,.T.);
#106=FACE_OUTER_BOUND('',#171,.T.);
#107=FACE_OUTER_BOUND('',#173,.T.);
#108=FACE_OUTER_BOUND('',#174,.T.);
#109=FACE_OUTER_BOUND('',#175,.T.);
#110=FACE_OUTER_BOUND('',#176,.T.);
#111=FACE_OUTER_BOUND('',#177,.T.);
#112=FACE_OUTER_BOUND('',#178,.T.);
#113=FACE_OUTER_BOUND('',#179,.T.);
#114=FACE_OUTER_BOUND('',#181,.T.);
#115=FACE_OUTER_BOUND('',#182,.T.);
#116=FACE_OUTER_BOUND('',#183,.T.);
#117=FACE_OUTER_BOUND('',#184,.T.);
#118=FACE_OUTER_BOUND('',#185,.T.);
#119=FACE_OUTER_BOUND('',#186,.T.);
#120=FACE_OUTER_BOUND('',#187,.T.);
#121=FACE_OUTER_BOUND('',#190,.T.);
#122=FACE_OUTER_BOUND('',#191,.T.);
#123=FACE_OUTER_BOUND('',#192,.T.);
#124=FACE_OUTER_BOUND('',#193,.T.);
#125=FACE_OUTER_BOUND('',#194,.T.);
#126=FACE_OUTER_BOUND('',#195,.T.);
#127=FACE_OUTER_BOUND('',#196,.T.);
#128=FACE_OUTER_BOUND('',#198,.T.);
#129=FACE_OUTER_BOUND('',#212,.T.);
#130=FACE_OUTER_BOUND('',#214,.T.);
#131=FACE_OUTER_BOUND('',#215,.T.);
#132=FACE_OUTER_BOUND('',#216,.T.);
#133=EDGE_LOOP('',(#733,#734,#735,#736));
#134=EDGE_LOOP('',(#737,#738,#739));
#135=EDGE_LOOP('',(#740,#741,#742,#743,#744,#745,#746,#747,#748,#749));
#136=EDGE_LOOP('',(#750,#751,#752,#753));
#137=EDGE_LOOP('',(#754,#755,#756));
#138=EDGE_LOOP('',(#757,#758,#759,#760,#761,#762,#763,#764,#765,#766,#767,
#768,#769,#770,#771,#772,#773,#774,#775,#776));
#139=EDGE_LOOP('',(#777));
#140=EDGE_LOOP('',(#778));
#141=EDGE_LOOP('',(#779));
#142=EDGE_LOOP('',(#780));
#143=EDGE_LOOP('',(#781,#782,#783,#784));
#144=EDGE_LOOP('',(#785));
#145=EDGE_LOOP('',(#786));
#146=EDGE_LOOP('',(#787));
#147=EDGE_LOOP('',(#788));
#148=EDGE_LOOP('',(#789));
#149=EDGE_LOOP('',(#790));
#150=EDGE_LOOP('',(#791,#792,#793,#794));
#151=EDGE_LOOP('',(#795,#796,#797));
#152=EDGE_LOOP('',(#798,#799,#800,#801));
#153=EDGE_LOOP('',(#802,#803,#804));
#154=EDGE_LOOP('',(#805,#806,#807,#808,#809,#810));
#155=EDGE_LOOP('',(#811,#812,#813,#814));
#156=EDGE_LOOP('',(#815,#816,#817,#818));
#157=EDGE_LOOP('',(#819,#820,#821,#822));
#158=EDGE_LOOP('',(#823,#824,#825,#826));
#159=EDGE_LOOP('',(#827,#828,#829,#830));
#160=EDGE_LOOP('',(#831,#832,#833,#834));
#161=EDGE_LOOP('',(#835,#836,#837,#838));
#162=EDGE_LOOP('',(#839,#840,#841,#842));
#163=EDGE_LOOP('',(#843,#844,#845,#846));
#164=EDGE_LOOP('',(#847,#848,#849,#850));
#165=EDGE_LOOP('',(#851,#852,#853,#854));
#166=EDGE_LOOP('',(#855,#856,#857,#858));
#167=EDGE_LOOP('',(#859,#860,#861,#862));
#168=EDGE_LOOP('',(#863,#864,#865,#866));
#169=EDGE_LOOP('',(#867,#868,#869,#870));
#170=EDGE_LOOP('',(#871,#872,#873,#874));
#171=EDGE_LOOP('',(#875,#876,#877,#878,#879,#880));
#172=EDGE_LOOP('',(#881));
#173=EDGE_LOOP('',(#882,#883,#884,#885));
#174=EDGE_LOOP('',(#886,#887,#888,#889));
#175=EDGE_LOOP('',(#890,#891,#892,#893));
#176=EDGE_LOOP('',(#894,#895,#896,#897));
#177=EDGE_LOOP('',(#898,#899,#900,#901));
#178=EDGE_LOOP('',(#902,#903,#904,#905));
#179=EDGE_LOOP('',(#906,#907,#908,#909,#910,#911));
#180=EDGE_LOOP('',(#912));
#181=EDGE_LOOP('',(#913,#914,#915,#916));
#182=EDGE_LOOP('',(#917,#918,#919,#920));
#183=EDGE_LOOP('',(#921,#922,#923,#924));
#184=EDGE_LOOP('',(#925,#926,#927,#928));
#185=EDGE_LOOP('',(#929,#930,#931,#932));
#186=EDGE_LOOP('',(#933,#934,#935,#936));
#187=EDGE_LOOP('',(#937,#938,#939,#940,#941,#942,#943,#944));
#188=EDGE_LOOP('',(#945));
#189=EDGE_LOOP('',(#946));
#190=EDGE_LOOP('',(#947,#948,#949,#950));
#191=EDGE_LOOP('',(#951,#952,#953,#954));
#192=EDGE_LOOP('',(#955,#956,#957,#958));
#193=EDGE_LOOP('',(#959,#960,#961,#962));
#194=EDGE_LOOP('',(#963,#964,#965,#966));
#195=EDGE_LOOP('',(#967,#968,#969,#970,#971,#972,#973,#974));
#196=EDGE_LOOP('',(#975,#976,#977,#978));
#197=EDGE_LOOP('',(#979,#980));
#198=EDGE_LOOP('',(#981,#982,#983,#984));
#199=EDGE_LOOP('',(#985,#986,#987,#988,#989,#990));
#200=EDGE_LOOP('',(#991,#992,#993,#994,#995,#996));
#201=EDGE_LOOP('',(#997));
#202=EDGE_LOOP('',(#998));
#203=EDGE_LOOP('',(#999));
#204=EDGE_LOOP('',(#1000));
#205=EDGE_LOOP('',(#1001,#1002,#1003,#1004));
#206=EDGE_LOOP('',(#1005));
#207=EDGE_LOOP('',(#1006));
#208=EDGE_LOOP('',(#1007));
#209=EDGE_LOOP('',(#1008));
#210=EDGE_LOOP('',(#1009));
#211=EDGE_LOOP('',(#1010));
#212=EDGE_LOOP('',(#1011,#1012,#1013,#1014));
#213=EDGE_LOOP('',(#1015,#1016));
#214=EDGE_LOOP('',(#1017,#1018,#1019,#1020,#1021,#1022));
#215=EDGE_LOOP('',(#1023,#1024,#1025,#1026,#1027,#1028));
#216=EDGE_LOOP('',(#1029,#1030,#1031,#1032,#1033,#1034,#1035,#1036));
#217=LINE('',#1527,#329);
#218=LINE('',#1530,#330);
#219=LINE('',#1533,#331);
#220=LINE('',#1534,#332);
#221=LINE('',#1537,#333);
#222=LINE('',#1539,#334);
#223=LINE('',#1541,#335);
#224=LINE('',#1545,#336);
#225=LINE('',#1547,#337);
#226=LINE('',#1549,#338);
#227=LINE('',#1551,#339);
#228=LINE('',#1552,#340);
#229=LINE('',#1558,#341);
#230=LINE('',#1561,#342);
#231=LINE('',#1564,#343);
#232=LINE('',#1565,#344);
#233=LINE('',#1567,#345);
#234=LINE('',#1569,#346);
#235=LINE('',#1571,#347);
#236=LINE('',#1573,#348);
#237=LINE('',#1575,#349);
#238=LINE('',#1577,#350);
#239=LINE('',#1579,#351);
#240=LINE('',#1581,#352);
#241=LINE('',#1583,#353);
#242=LINE('',#1585,#354);
#243=LINE('',#1586,#355);
#244=LINE('',#1588,#356);
#245=LINE('',#1590,#357);
#246=LINE('',#1591,#358);
#247=LINE('',#1602,#359);
#248=LINE('',#1606,#360);
#249=LINE('',#1624,#361);
#250=LINE('',#1630,#362);
#251=LINE('',#1633,#363);
#252=LINE('',#1635,#364);
#253=LINE('',#1639,#365);
#254=LINE('',#1643,#366);
#255=LINE('',#1647,#367);
#256=LINE('',#1651,#368);
#257=LINE('',#1655,#369);
#258=LINE('',#1659,#370);
#259=LINE('',#1663,#371);
#260=LINE('',#1666,#372);
#261=LINE('',#1669,#373);
#262=LINE('',#1670,#374);
#263=LINE('',#1673,#375);
#264=LINE('',#1676,#376);
#265=LINE('',#1680,#377);
#266=LINE('',#1682,#378);
#267=LINE('',#1684,#379);
#268=LINE('',#1685,#380);
#269=LINE('',#1688,#381);
#270=LINE('',#1690,#382);
#271=LINE('',#1691,#383);
#272=LINE('',#1694,#384);
#273=LINE('',#1696,#385);
#274=LINE('',#1697,#386);
#275=LINE('',#1700,#387);
#276=LINE('',#1702,#388);
#277=LINE('',#1703,#389);
#278=LINE('',#1706,#390);
#279=LINE('',#1708,#391);
#280=LINE('',#1709,#392);
#281=LINE('',#1711,#393);
#282=LINE('',#1712,#394);
#283=LINE('',#1719,#395);
#284=LINE('',#1721,#396);
#285=LINE('',#1723,#397);
#286=LINE('',#1724,#398);
#287=LINE('',#1727,#399);
#288=LINE('',#1729,#400);
#289=LINE('',#1730,#401);
#290=LINE('',#1733,#402);
#291=LINE('',#1735,#403);
#292=LINE('',#1736,#404);
#293=LINE('',#1739,#405);
#294=LINE('',#1741,#406);
#295=LINE('',#1742,#407);
#296=LINE('',#1745,#408);
#297=LINE('',#1747,#409);
#298=LINE('',#1748,#410);
#299=LINE('',#1750,#411);
#300=LINE('',#1751,#412);
#301=LINE('',#1758,#413);
#302=LINE('',#1762,#414);
#303=LINE('',#1765,#415);
#304=LINE('',#1769,#416);
#305=LINE('',#1773,#417);
#306=LINE('',#1777,#418);
#307=LINE('',#1781,#419);
#308=LINE('',#1783,#420);
#309=LINE('',#1784,#421);
#310=LINE('',#1786,#422);
#311=LINE('',#1788,#423);
#312=LINE('',#1789,#424);
#313=LINE('',#1791,#425);
#314=LINE('',#1793,#426);
#315=LINE('',#1801,#427);
#316=LINE('',#1803,#428);
#317=LINE('',#1805,#429);
#318=LINE('',#1807,#430);
#319=LINE('',#1808,#431);
#320=LINE('',#1811,#432);
#321=LINE('',#1813,#433);
#322=LINE('',#1814,#434);
#323=LINE('',#1817,#435);
#324=LINE('',#1818,#436);
#325=LINE('',#1821,#437);
#326=LINE('',#1822,#438);
#327=LINE('',#1824,#439);
#328=LINE('',#1826,#440);
#329=VECTOR('',#1225,10.);
#330=VECTOR('',#1228,10.);
#331=VECTOR('',#1231,10.);
#332=VECTOR('',#1232,10.);
#333=VECTOR('',#1235,10.);
#334=VECTOR('',#1236,10.);
#335=VECTOR('',#1237,10.);
#336=VECTOR('',#1240,10.);
#337=VECTOR('',#1241,10.);
#338=VECTOR('',#1242,10.);
#339=VECTOR('',#1243,10.);
#340=VECTOR('',#1244,10.);
#341=VECTOR('',#1249,10.);
#342=VECTOR('',#1252,10.);
#343=VECTOR('',#1255,10.);
#344=VECTOR('',#1256,10.);
#345=VECTOR('',#1259,10.);
#346=VECTOR('',#1260,10.);
#347=VECTOR('',#1261,10.);
#348=VECTOR('',#1262,10.);
#349=VECTOR('',#1263,10.);
#350=VECTOR('',#1264,10.);
#351=VECTOR('',#1265,10.);
#352=VECTOR('',#1266,10.);
#353=VECTOR('',#1267,10.);
#354=VECTOR('',#1268,10.);
#355=VECTOR('',#1269,10.);
#356=VECTOR('',#1270,10.);
#357=VECTOR('',#1271,10.);
#358=VECTOR('',#1272,10.);
#359=VECTOR('',#1281,10.);
#360=VECTOR('',#1284,10.);
#361=VECTOR('',#1305,10.);
#362=VECTOR('',#1312,10.);
#363=VECTOR('',#1317,10.);
#364=VECTOR('',#1320,10.);
#365=VECTOR('',#1325,1.625);
#366=VECTOR('',#1330,1.625);
#367=VECTOR('',#1335,1.625);
#368=VECTOR('',#1340,1.625);
#369=VECTOR('',#1345,1.625);
#370=VECTOR('',#1350,1.625);
#371=VECTOR('',#1355,10.);
#372=VECTOR('',#1358,10.);
#373=VECTOR('',#1361,10.);
#374=VECTOR('',#1362,10.);
#375=VECTOR('',#1365,10.);
#376=VECTOR('',#1370,10.);
#377=VECTOR('',#1373,10.);
#378=VECTOR('',#1374,10.);
#379=VECTOR('',#1375,10.);
#380=VECTOR('',#1376,10.);
#381=VECTOR('',#1379,10.);
#382=VECTOR('',#1380,10.);
#383=VECTOR('',#1381,10.);
#384=VECTOR('',#1384,10.);
#385=VECTOR('',#1385,10.);
#386=VECTOR('',#1386,10.);
#387=VECTOR('',#1389,10.);
#388=VECTOR('',#1390,10.);
#389=VECTOR('',#1391,10.);
#390=VECTOR('',#1394,10.);
#391=VECTOR('',#1395,10.);
#392=VECTOR('',#1396,10.);
#393=VECTOR('',#1399,10.);
#394=VECTOR('',#1400,10.);
#395=VECTOR('',#1407,10.);
#396=VECTOR('',#1408,10.);
#397=VECTOR('',#1409,10.);
#398=VECTOR('',#1410,10.);
#399=VECTOR('',#1413,10.);
#400=VECTOR('',#1414,10.);
#401=VECTOR('',#1415,10.);
#402=VECTOR('',#1418,10.);
#403=VECTOR('',#1419,10.);
#404=VECTOR('',#1420,10.);
#405=VECTOR('',#1423,10.);
#406=VECTOR('',#1424,10.);
#407=VECTOR('',#1425,10.);
#408=VECTOR('',#1428,10.);
#409=VECTOR('',#1429,10.);
#410=VECTOR('',#1430,10.);
#411=VECTOR('',#1433,10.);
#412=VECTOR('',#1434,10.);
#413=VECTOR('',#1443,2.125);
#414=VECTOR('',#1448,2.125);
#415=VECTOR('',#1451,1.625);
#416=VECTOR('',#1456,1.625);
#417=VECTOR('',#1461,1.625);
#418=VECTOR('',#1466,1.625);
#419=VECTOR('',#1471,10.);
#420=VECTOR('',#1472,10.);
#421=VECTOR('',#1473,10.);
#422=VECTOR('',#1474,10.);
#423=VECTOR('',#1475,10.);
#424=VECTOR('',#1476,10.);
#425=VECTOR('',#1479,10.);
#426=VECTOR('',#1482,10.);
#427=VECTOR('',#1495,10.);
#428=VECTOR('',#1496,10.);
#429=VECTOR('',#1497,10.);
#430=VECTOR('',#1498,10.);
#431=VECTOR('',#1499,10.);
#432=VECTOR('',#1502,10.);
#433=VECTOR('',#1503,10.);
#434=VECTOR('',#1504,10.);
#435=VECTOR('',#1507,10.);
#436=VECTOR('',#1508,10.);
#437=VECTOR('',#1511,10.);
#438=VECTOR('',#1512,10.);
#439=VECTOR('',#1515,10.);
#440=VECTOR('',#1518,10.);
#441=CIRCLE('',#1126,76.6032346285426);
#442=CIRCLE('',#1127,76.6032346285426);
#443=CIRCLE('',#1130,30.);
#444=CIRCLE('',#1132,76.6032346285427);
#445=CIRCLE('',#1133,76.6032346285427);
#446=CIRCLE('',#1136,1.625);
#447=CIRCLE('',#1137,1.625);
#448=CIRCLE('',#1138,1.625);
#449=CIRCLE('',#1139,1.625);
#450=CIRCLE('',#1140,6.5);
#451=CIRCLE('',#1141,6.5);
#452=CIRCLE('',#1142,1.625);
#453=CIRCLE('',#1143,1.625);
#454=CIRCLE('',#1144,1.625);
#455=CIRCLE('',#1145,1.625);
#456=CIRCLE('',#1146,1.625);
#457=CIRCLE('',#1147,1.625);
#458=CIRCLE('',#1149,76.6032346285426);
#459=CIRCLE('',#1150,76.6032346285426);
#460=CIRCLE('',#1153,76.6032346285427);
#461=CIRCLE('',#1154,76.6032346285427);
#462=CIRCLE('',#1157,30.);
#463=CIRCLE('',#1159,1.625);
#464=CIRCLE('',#1161,1.625);
#465=CIRCLE('',#1163,1.625);
#466=CIRCLE('',#1165,1.625);
#467=CIRCLE('',#1167,1.625);
#468=CIRCLE('',#1169,1.625);
#469=CIRCLE('',#1171,6.5);
#470=CIRCLE('',#1174,6.5);
#471=CIRCLE('',#1183,2.125);
#472=CIRCLE('',#1191,2.125);
#473=CIRCLE('',#1193,2.125);
#474=CIRCLE('',#1195,2.125);
#475=CIRCLE('',#1197,1.625);
#476=CIRCLE('',#1199,1.625);
#477=CIRCLE('',#1201,1.625);
#478=CIRCLE('',#1203,1.625);
#479=CIRCLE('',#1209,30.);
#480=CIRCLE('',#1211,30.);
#481=VERTEX_POINT('',#1523);
#482=VERTEX_POINT('',#1524);
#483=VERTEX_POINT('',#1526);
#484=VERTEX_POINT('',#1528);
#485=VERTEX_POINT('',#1532);
#486=VERTEX_POINT('',#1536);
#487=VERTEX_POINT('',#1538);
#488=VERTEX_POINT('',#1540);
#489=VERTEX_POINT('',#1542);
#490=VERTEX_POINT('',#1544);
#491=VERTEX_POINT('',#1546);
#492=VERTEX_POINT('',#1548);
#493=VERTEX_POINT('',#1550);
#494=VERTEX_POINT('',#1554);
#495=VERTEX_POINT('',#1555);
#496=VERTEX_POINT('',#1557);
#497=VERTEX_POINT('',#1559);
#498=VERTEX_POINT('',#1563);
#499=VERTEX_POINT('',#1568);
#500=VERTEX_POINT('',#1570);
#501=VERTEX_POINT('',#1572);
#502=VERTEX_POINT('',#1574);
#503=VERTEX_POINT('',#1576);
#504=VERTEX_POINT('',#1578);
#505=VERTEX_POINT('',#1580);
#506=VERTEX_POINT('',#1582);
#507=VERTEX_POINT('',#1584);
#508=VERTEX_POINT('',#1587);
#509=VERTEX_POINT('',#1589);
#510=VERTEX_POINT('',#1592);
#511=VERTEX_POINT('',#1594);
#512=VERTEX_POINT('',#1596);
#513=VERTEX_POINT('',#1598);
#514=VERTEX_POINT('',#1600);
#515=VERTEX_POINT('',#1601);
#516=VERTEX_POINT('',#1603);
#517=VERTEX_POINT('',#1605);
#518=VERTEX_POINT('',#1608);
#519=VERTEX_POINT('',#1610);
#520=VERTEX_POINT('',#1612);
#521=VERTEX_POINT('',#1614);
#522=VERTEX_POINT('',#1616);
#523=VERTEX_POINT('',#1618);
#524=VERTEX_POINT('',#1622);
#525=VERTEX_POINT('',#1627);
#526=VERTEX_POINT('',#1629);
#527=VERTEX_POINT('',#1638);
#528=VERTEX_POINT('',#1642);
#529=VERTEX_POINT('',#1646);
#530=VERTEX_POINT('',#1650);
#531=VERTEX_POINT('',#1654);
#532=VERTEX_POINT('',#1658);
#533=VERTEX_POINT('',#1662);
#534=VERTEX_POINT('',#1664);
#535=VERTEX_POINT('',#1668);
#536=VERTEX_POINT('',#1672);
#537=VERTEX_POINT('',#1678);
#538=VERTEX_POINT('',#1679);
#539=VERTEX_POINT('',#1681);
#540=VERTEX_POINT('',#1683);
#541=VERTEX_POINT('',#1687);
#542=VERTEX_POINT('',#1689);
#543=VERTEX_POINT('',#1693);
#544=VERTEX_POINT('',#1695);
#545=VERTEX_POINT('',#1699);
#546=VERTEX_POINT('',#1701);
#547=VERTEX_POINT('',#1705);
#548=VERTEX_POINT('',#1707);
#549=VERTEX_POINT('',#1714);
#550=VERTEX_POINT('',#1717);
#551=VERTEX_POINT('',#1718);
#552=VERTEX_POINT('',#1720);
#553=VERTEX_POINT('',#1722);
#554=VERTEX_POINT('',#1726);
#555=VERTEX_POINT('',#1728);
#556=VERTEX_POINT('',#1732);
#557=VERTEX_POINT('',#1734);
#558=VERTEX_POINT('',#1738);
#559=VERTEX_POINT('',#1740);
#560=VERTEX_POINT('',#1744);
#561=VERTEX_POINT('',#1746);
#562=VERTEX_POINT('',#1753);
#563=VERTEX_POINT('',#1756);
#564=VERTEX_POINT('',#1760);
#565=VERTEX_POINT('',#1764);
#566=VERTEX_POINT('',#1768);
#567=VERTEX_POINT('',#1772);
#568=VERTEX_POINT('',#1776);
#569=VERTEX_POINT('',#1780);
#570=VERTEX_POINT('',#1782);
#571=VERTEX_POINT('',#1785);
#572=VERTEX_POINT('',#1787);
#573=VERTEX_POINT('',#1800);
#574=VERTEX_POINT('',#1802);
#575=VERTEX_POINT('',#1804);
#576=VERTEX_POINT('',#1806);
#577=VERTEX_POINT('',#1810);
#578=VERTEX_POINT('',#1812);
#579=VERTEX_POINT('',#1816);
#580=VERTEX_POINT('',#1820);
#581=EDGE_CURVE('',#481,#482,#441,.T.);
#582=EDGE_CURVE('',#483,#481,#217,.T.);
#583=EDGE_CURVE('',#484,#483,#442,.T.);
#584=EDGE_CURVE('',#482,#484,#218,.T.);
#585=EDGE_CURVE('',#485,#483,#219,.T.);
#586=EDGE_CURVE('',#484,#485,#220,.T.);
#587=EDGE_CURVE('',#485,#486,#221,.T.);
#588=EDGE_CURVE('',#486,#487,#222,.T.);
#589=EDGE_CURVE('',#487,#488,#223,.T.);
#590=EDGE_CURVE('',#488,#489,#443,.T.);
#591=EDGE_CURVE('',#489,#490,#224,.T.);
#592=EDGE_CURVE('',#490,#491,#225,.T.);
#593=EDGE_CURVE('',#491,#492,#226,.T.);
#594=EDGE_CURVE('',#492,#493,#227,.T.);
#595=EDGE_CURVE('',#484,#493,#228,.T.);
#596=EDGE_CURVE('',#494,#495,#444,.T.);
#597=EDGE_CURVE('',#494,#496,#229,.T.);
#598=EDGE_CURVE('',#497,#496,#445,.T.);
#599=EDGE_CURVE('',#495,#497,#230,.T.);
#600=EDGE_CURVE('',#498,#496,#231,.T.);
#601=EDGE_CURVE('',#497,#498,#232,.T.);
#602=EDGE_CURVE('',#495,#481,#233,.T.);
#603=EDGE_CURVE('',#498,#499,#234,.T.);
#604=EDGE_CURVE('',#500,#499,#235,.T.);
#605=EDGE_CURVE('',#501,#500,#236,.T.);
#606=EDGE_CURVE('',#502,#501,#237,.T.);
#607=EDGE_CURVE('',#502,#503,#238,.T.);
#608=EDGE_CURVE('',#503,#504,#239,.T.);
#609=EDGE_CURVE('',#504,#505,#240,.T.);
#610=EDGE_CURVE('',#506,#505,#241,.T.);
#611=EDGE_CURVE('',#506,#507,#242,.T.);
#612=EDGE_CURVE('',#507,#492,#243,.T.);
#613=EDGE_CURVE('',#491,#508,#244,.T.);
#614=EDGE_CURVE('',#508,#509,#245,.T.);
#615=EDGE_CURVE('',#509,#486,#246,.T.);
#616=EDGE_CURVE('',#510,#510,#446,.T.);
#617=EDGE_CURVE('',#511,#511,#447,.T.);
#618=EDGE_CURVE('',#512,#512,#448,.T.);
#619=EDGE_CURVE('',#513,#513,#449,.T.);
#620=EDGE_CURVE('',#514,#515,#247,.T.);
#621=EDGE_CURVE('',#516,#515,#450,.T.);
#622=EDGE_CURVE('',#516,#517,#248,.T.);
#623=EDGE_CURVE('',#514,#517,#451,.T.);
#624=EDGE_CURVE('',#518,#518,#452,.T.);
#625=EDGE_CURVE('',#519,#519,#453,.T.);
#626=EDGE_CURVE('',#520,#520,#454,.T.);
#627=EDGE_CURVE('',#521,#521,#455,.T.);
#628=EDGE_CURVE('',#522,#522,#456,.T.);
#629=EDGE_CURVE('',#523,#523,#457,.T.);
#630=EDGE_CURVE('',#507,#493,#458,.T.);
#631=EDGE_CURVE('',#524,#506,#459,.T.);
#632=EDGE_CURVE('',#493,#524,#249,.T.);
#633=EDGE_CURVE('',#525,#504,#460,.T.);
#634=EDGE_CURVE('',#525,#526,#250,.T.);
#635=EDGE_CURVE('',#505,#526,#461,.T.);
#636=EDGE_CURVE('',#525,#503,#251,.T.);
#637=EDGE_CURVE('',#496,#525,#252,.T.);
#638=EDGE_CURVE('',#502,#499,#462,.T.);
#639=EDGE_CURVE('',#523,#527,#253,.T.);
#640=EDGE_CURVE('',#527,#527,#463,.T.);
#641=EDGE_CURVE('',#522,#528,#254,.T.);
#642=EDGE_CURVE('',#528,#528,#464,.T.);
#643=EDGE_CURVE('',#521,#529,#255,.T.);
#644=EDGE_CURVE('',#529,#529,#465,.T.);
#645=EDGE_CURVE('',#520,#530,#256,.T.);
#646=EDGE_CURVE('',#530,#530,#466,.T.);
#647=EDGE_CURVE('',#519,#531,#257,.T.);
#648=EDGE_CURVE('',#531,#531,#467,.T.);
#649=EDGE_CURVE('',#518,#532,#258,.T.);
#650=EDGE_CURVE('',#532,#532,#468,.T.);
#651=EDGE_CURVE('',#517,#533,#259,.T.);
#652=EDGE_CURVE('',#533,#534,#469,.T.);
#653=EDGE_CURVE('',#534,#514,#260,.T.);
#654=EDGE_CURVE('',#535,#516,#261,.T.);
#655=EDGE_CURVE('',#533,#535,#262,.T.);
#656=EDGE_CURVE('',#515,#536,#263,.T.);
#657=EDGE_CURVE('',#536,#535,#470,.T.);
#658=EDGE_CURVE('',#536,#534,#264,.T.);
#659=EDGE_CURVE('',#537,#538,#265,.T.);
#660=EDGE_CURVE('',#537,#539,#266,.T.);
#661=EDGE_CURVE('',#539,#540,#267,.T.);
#662=EDGE_CURVE('',#538,#540,#268,.T.);
#663=EDGE_CURVE('',#538,#541,#269,.T.);
#664=EDGE_CURVE('',#540,#542,#270,.T.);
#665=EDGE_CURVE('',#541,#542,#271,.T.);
#666=EDGE_CURVE('',#541,#543,#272,.T.);
#667=EDGE_CURVE('',#542,#544,#273,.T.);
#668=EDGE_CURVE('',#543,#544,#274,.T.);
#669=EDGE_CURVE('',#543,#545,#275,.T.);
#670=EDGE_CURVE('',#544,#546,#276,.T.);
#671=EDGE_CURVE('',#546,#545,#277,.T.);
#672=EDGE_CURVE('',#547,#537,#278,.T.);
#673=EDGE_CURVE('',#547,#548,#279,.T.);
#674=EDGE_CURVE('',#548,#539,#280,.T.);
#675=EDGE_CURVE('',#545,#547,#281,.T.);
#676=EDGE_CURVE('',#546,#548,#282,.T.);
#677=EDGE_CURVE('',#549,#549,#471,.T.);
#678=EDGE_CURVE('',#550,#551,#283,.T.);
#679=EDGE_CURVE('',#550,#552,#284,.T.);
#680=EDGE_CURVE('',#552,#553,#285,.T.);
#681=EDGE_CURVE('',#551,#553,#286,.T.);
#682=EDGE_CURVE('',#551,#554,#287,.T.);
#683=EDGE_CURVE('',#553,#555,#288,.T.);
#684=EDGE_CURVE('',#554,#555,#289,.T.);
#685=EDGE_CURVE('',#554,#556,#290,.T.);
#686=EDGE_CURVE('',#555,#557,#291,.T.);
#687=EDGE_CURVE('',#556,#557,#292,.T.);
#688=EDGE_CURVE('',#556,#558,#293,.T.);
#689=EDGE_CURVE('',#557,#559,#294,.T.);
#690=EDGE_CURVE('',#559,#558,#295,.T.);
#691=EDGE_CURVE('',#560,#550,#296,.T.);
#692=EDGE_CURVE('',#560,#561,#297,.T.);
#693=EDGE_CURVE('',#561,#552,#298,.T.);
#694=EDGE_CURVE('',#558,#560,#299,.T.);
#695=EDGE_CURVE('',#559,#561,#300,.T.);
#696=EDGE_CURVE('',#562,#562,#472,.T.);
#697=EDGE_CURVE('',#563,#563,#473,.T.);
#698=EDGE_CURVE('',#563,#562,#301,.T.);
#699=EDGE_CURVE('',#564,#564,#474,.T.);
#700=EDGE_CURVE('',#564,#549,#302,.T.);
#701=EDGE_CURVE('',#513,#565,#303,.T.);
#702=EDGE_CURVE('',#565,#565,#475,.T.);
#703=EDGE_CURVE('',#512,#566,#304,.T.);
#704=EDGE_CURVE('',#566,#566,#476,.T.);
#705=EDGE_CURVE('',#511,#567,#305,.T.);
#706=EDGE_CURVE('',#567,#567,#477,.T.);
#707=EDGE_CURVE('',#510,#568,#306,.T.);
#708=EDGE_CURVE('',#568,#568,#478,.T.);
#709=EDGE_CURVE('',#569,#489,#307,.T.);
#710=EDGE_CURVE('',#569,#570,#308,.T.);
#711=EDGE_CURVE('',#488,#570,#309,.T.);
#712=EDGE_CURVE('',#571,#487,#310,.T.);
#713=EDGE_CURVE('',#571,#572,#311,.T.);
#714=EDGE_CURVE('',#490,#572,#312,.T.);
#715=EDGE_CURVE('',#509,#571,#313,.T.);
#716=EDGE_CURVE('',#572,#508,#314,.T.);
#717=EDGE_CURVE('',#500,#501,#479,.T.);
#718=EDGE_CURVE('',#569,#570,#480,.T.);
#719=EDGE_CURVE('',#482,#573,#315,.T.);
#720=EDGE_CURVE('',#573,#574,#316,.T.);
#721=EDGE_CURVE('',#574,#575,#317,.T.);
#722=EDGE_CURVE('',#575,#576,#318,.T.);
#723=EDGE_CURVE('',#576,#494,#319,.T.);
#724=EDGE_CURVE('',#577,#573,#320,.T.);
#725=EDGE_CURVE('',#578,#577,#321,.T.);
#726=EDGE_CURVE('',#574,#578,#322,.T.);
#727=EDGE_CURVE('',#579,#578,#323,.T.);
#728=EDGE_CURVE('',#575,#579,#324,.T.);
#729=EDGE_CURVE('',#580,#579,#325,.T.);
#730=EDGE_CURVE('',#576,#580,#326,.T.);
#731=EDGE_CURVE('',#526,#580,#327,.T.);
#732=EDGE_CURVE('',#577,#524,#328,.T.);
#733=ORIENTED_EDGE('',*,*,#581,.F.);
#734=ORIENTED_EDGE('',*,*,#582,.F.);
#735=ORIENTED_EDGE('',*,*,#583,.F.);
#736=ORIENTED_EDGE('',*,*,#584,.F.);
#737=ORIENTED_EDGE('',*,*,#583,.T.);
#738=ORIENTED_EDGE('',*,*,#585,.F.);
#739=ORIENTED_EDGE('',*,*,#586,.F.);
#740=ORIENTED_EDGE('',*,*,#586,.T.);
#741=ORIENTED_EDGE('',*,*,#587,.T.);
#742=ORIENTED_EDGE('',*,*,#588,.T.);
#743=ORIENTED_EDGE('',*,*,#589,.T.);
#744=ORIENTED_EDGE('',*,*,#590,.T.);
#745=ORIENTED_EDGE('',*,*,#591,.T.);
#746=ORIENTED_EDGE('',*,*,#592,.T.);
#747=ORIENTED_EDGE('',*,*,#593,.T.);
#748=ORIENTED_EDGE('',*,*,#594,.T.);
#749=ORIENTED_EDGE('',*,*,#595,.F.);
#750=ORIENTED_EDGE('',*,*,#596,.F.);
#751=ORIENTED_EDGE('',*,*,#597,.T.);
#752=ORIENTED_EDGE('',*,*,#598,.F.);
#753=ORIENTED_EDGE('',*,*,#599,.F.);
#754=ORIENTED_EDGE('',*,*,#600,.F.);
#755=ORIENTED_EDGE('',*,*,#601,.F.);
#756=ORIENTED_EDGE('',*,*,#598,.T.);
#757=ORIENTED_EDGE('',*,*,#582,.T.);
#758=ORIENTED_EDGE('',*,*,#602,.F.);
#759=ORIENTED_EDGE('',*,*,#599,.T.);
#760=ORIENTED_EDGE('',*,*,#601,.T.);
#761=ORIENTED_EDGE('',*,*,#603,.T.);
#762=ORIENTED_EDGE('',*,*,#604,.F.);
#763=ORIENTED_EDGE('',*,*,#605,.F.);
#764=ORIENTED_EDGE('',*,*,#606,.F.);
#765=ORIENTED_EDGE('',*,*,#607,.T.);
#766=ORIENTED_EDGE('',*,*,#608,.T.);
#767=ORIENTED_EDGE('',*,*,#609,.T.);
#768=ORIENTED_EDGE('',*,*,#610,.F.);
#769=ORIENTED_EDGE('',*,*,#611,.T.);
#770=ORIENTED_EDGE('',*,*,#612,.T.);
#771=ORIENTED_EDGE('',*,*,#593,.F.);
#772=ORIENTED_EDGE('',*,*,#613,.T.);
#773=ORIENTED_EDGE('',*,*,#614,.T.);
#774=ORIENTED_EDGE('',*,*,#615,.T.);
#775=ORIENTED_EDGE('',*,*,#587,.F.);
#776=ORIENTED_EDGE('',*,*,#585,.T.);
#777=ORIENTED_EDGE('',*,*,#616,.T.);
#778=ORIENTED_EDGE('',*,*,#617,.T.);
#779=ORIENTED_EDGE('',*,*,#618,.T.);
#780=ORIENTED_EDGE('',*,*,#619,.T.);
#781=ORIENTED_EDGE('',*,*,#620,.T.);
#782=ORIENTED_EDGE('',*,*,#621,.F.);
#783=ORIENTED_EDGE('',*,*,#622,.T.);
#784=ORIENTED_EDGE('',*,*,#623,.F.);
#785=ORIENTED_EDGE('',*,*,#624,.T.);
#786=ORIENTED_EDGE('',*,*,#625,.T.);
#787=ORIENTED_EDGE('',*,*,#626,.T.);
#788=ORIENTED_EDGE('',*,*,#627,.T.);
#789=ORIENTED_EDGE('',*,*,#628,.T.);
#790=ORIENTED_EDGE('',*,*,#629,.T.);
#791=ORIENTED_EDGE('',*,*,#630,.F.);
#792=ORIENTED_EDGE('',*,*,#611,.F.);
#793=ORIENTED_EDGE('',*,*,#631,.F.);
#794=ORIENTED_EDGE('',*,*,#632,.F.);
#795=ORIENTED_EDGE('',*,*,#630,.T.);
#796=ORIENTED_EDGE('',*,*,#594,.F.);
#797=ORIENTED_EDGE('',*,*,#612,.F.);
#798=ORIENTED_EDGE('',*,*,#633,.F.);
#799=ORIENTED_EDGE('',*,*,#634,.T.);
#800=ORIENTED_EDGE('',*,*,#635,.F.);
#801=ORIENTED_EDGE('',*,*,#609,.F.);
#802=ORIENTED_EDGE('',*,*,#636,.F.);
#803=ORIENTED_EDGE('',*,*,#633,.T.);
#804=ORIENTED_EDGE('',*,*,#608,.F.);
#805=ORIENTED_EDGE('',*,*,#600,.T.);
#806=ORIENTED_EDGE('',*,*,#637,.T.);
#807=ORIENTED_EDGE('',*,*,#636,.T.);
#808=ORIENTED_EDGE('',*,*,#607,.F.);
#809=ORIENTED_EDGE('',*,*,#638,.T.);
#810=ORIENTED_EDGE('',*,*,#603,.F.);
#811=ORIENTED_EDGE('',*,*,#629,.F.);
#812=ORIENTED_EDGE('',*,*,#639,.T.);
#813=ORIENTED_EDGE('',*,*,#640,.F.);
#814=ORIENTED_EDGE('',*,*,#639,.F.);
#815=ORIENTED_EDGE('',*,*,#628,.F.);
#816=ORIENTED_EDGE('',*,*,#641,.T.);
#817=ORIENTED_EDGE('',*,*,#642,.F.);
#818=ORIENTED_EDGE('',*,*,#641,.F.);
#819=ORIENTED_EDGE('',*,*,#627,.F.);
#820=ORIENTED_EDGE('',*,*,#643,.T.);
#821=ORIENTED_EDGE('',*,*,#644,.F.);
#822=ORIENTED_EDGE('',*,*,#643,.F.);
#823=ORIENTED_EDGE('',*,*,#626,.F.);
#824=ORIENTED_EDGE('',*,*,#645,.T.);
#825=ORIENTED_EDGE('',*,*,#646,.F.);
#826=ORIENTED_EDGE('',*,*,#645,.F.);
#827=ORIENTED_EDGE('',*,*,#625,.F.);
#828=ORIENTED_EDGE('',*,*,#647,.T.);
#829=ORIENTED_EDGE('',*,*,#648,.F.);
#830=ORIENTED_EDGE('',*,*,#647,.F.);
#831=ORIENTED_EDGE('',*,*,#624,.F.);
#832=ORIENTED_EDGE('',*,*,#649,.T.);
#833=ORIENTED_EDGE('',*,*,#650,.F.);
#834=ORIENTED_EDGE('',*,*,#649,.F.);
#835=ORIENTED_EDGE('',*,*,#623,.T.);
#836=ORIENTED_EDGE('',*,*,#651,.T.);
#837=ORIENTED_EDGE('',*,*,#652,.T.);
#838=ORIENTED_EDGE('',*,*,#653,.T.);
#839=ORIENTED_EDGE('',*,*,#651,.F.);
#840=ORIENTED_EDGE('',*,*,#622,.F.);
#841=ORIENTED_EDGE('',*,*,#654,.F.);
#842=ORIENTED_EDGE('',*,*,#655,.F.);
#843=ORIENTED_EDGE('',*,*,#621,.T.);
#844=ORIENTED_EDGE('',*,*,#656,.T.);
#845=ORIENTED_EDGE('',*,*,#657,.T.);
#846=ORIENTED_EDGE('',*,*,#654,.T.);
#847=ORIENTED_EDGE('',*,*,#653,.F.);
#848=ORIENTED_EDGE('',*,*,#658,.F.);
#849=ORIENTED_EDGE('',*,*,#656,.F.);
#850=ORIENTED_EDGE('',*,*,#620,.F.);
#851=ORIENTED_EDGE('',*,*,#659,.F.);
#852=ORIENTED_EDGE('',*,*,#660,.T.);
#853=ORIENTED_EDGE('',*,*,#661,.T.);
#854=ORIENTED_EDGE('',*,*,#662,.F.);
#855=ORIENTED_EDGE('',*,*,#663,.F.);
#856=ORIENTED_EDGE('',*,*,#662,.T.);
#857=ORIENTED_EDGE('',*,*,#664,.T.);
#858=ORIENTED_EDGE('',*,*,#665,.F.);
#859=ORIENTED_EDGE('',*,*,#666,.F.);
#860=ORIENTED_EDGE('',*,*,#665,.T.);
#861=ORIENTED_EDGE('',*,*,#667,.T.);
#862=ORIENTED_EDGE('',*,*,#668,.F.);
#863=ORIENTED_EDGE('',*,*,#669,.F.);
#864=ORIENTED_EDGE('',*,*,#668,.T.);
#865=ORIENTED_EDGE('',*,*,#670,.T.);
#866=ORIENTED_EDGE('',*,*,#671,.T.);
#867=ORIENTED_EDGE('',*,*,#672,.F.);
#868=ORIENTED_EDGE('',*,*,#673,.T.);
#869=ORIENTED_EDGE('',*,*,#674,.T.);
#870=ORIENTED_EDGE('',*,*,#660,.F.);
#871=ORIENTED_EDGE('',*,*,#675,.F.);
#872=ORIENTED_EDGE('',*,*,#671,.F.);
#873=ORIENTED_EDGE('',*,*,#676,.T.);
#874=ORIENTED_EDGE('',*,*,#673,.F.);
#875=ORIENTED_EDGE('',*,*,#676,.F.);
#876=ORIENTED_EDGE('',*,*,#670,.F.);
#877=ORIENTED_EDGE('',*,*,#667,.F.);
#878=ORIENTED_EDGE('',*,*,#664,.F.);
#879=ORIENTED_EDGE('',*,*,#661,.F.);
#880=ORIENTED_EDGE('',*,*,#674,.F.);
#881=ORIENTED_EDGE('',*,*,#677,.F.);
#882=ORIENTED_EDGE('',*,*,#678,.F.);
#883=ORIENTED_EDGE('',*,*,#679,.T.);
#884=ORIENTED_EDGE('',*,*,#680,.T.);
#885=ORIENTED_EDGE('',*,*,#681,.F.);
#886=ORIENTED_EDGE('',*,*,#682,.F.);
#887=ORIENTED_EDGE('',*,*,#681,.T.);
#888=ORIENTED_EDGE('',*,*,#683,.T.);
#889=ORIENTED_EDGE('',*,*,#684,.F.);
#890=ORIENTED_EDGE('',*,*,#685,.F.);
#891=ORIENTED_EDGE('',*,*,#684,.T.);
#892=ORIENTED_EDGE('',*,*,#686,.T.);
#893=ORIENTED_EDGE('',*,*,#687,.F.);
#894=ORIENTED_EDGE('',*,*,#688,.F.);
#895=ORIENTED_EDGE('',*,*,#687,.T.);
#896=ORIENTED_EDGE('',*,*,#689,.T.);
#897=ORIENTED_EDGE('',*,*,#690,.T.);
#898=ORIENTED_EDGE('',*,*,#691,.F.);
#899=ORIENTED_EDGE('',*,*,#692,.T.);
#900=ORIENTED_EDGE('',*,*,#693,.T.);
#901=ORIENTED_EDGE('',*,*,#679,.F.);
#902=ORIENTED_EDGE('',*,*,#694,.F.);
#903=ORIENTED_EDGE('',*,*,#690,.F.);
#904=ORIENTED_EDGE('',*,*,#695,.T.);
#905=ORIENTED_EDGE('',*,*,#692,.F.);
#906=ORIENTED_EDGE('',*,*,#695,.F.);
#907=ORIENTED_EDGE('',*,*,#689,.F.);
#908=ORIENTED_EDGE('',*,*,#686,.F.);
#909=ORIENTED_EDGE('',*,*,#683,.F.);
#910=ORIENTED_EDGE('',*,*,#680,.F.);
#911=ORIENTED_EDGE('',*,*,#693,.F.);
#912=ORIENTED_EDGE('',*,*,#696,.F.);
#913=ORIENTED_EDGE('',*,*,#697,.F.);
#914=ORIENTED_EDGE('',*,*,#698,.T.);
#915=ORIENTED_EDGE('',*,*,#696,.T.);
#916=ORIENTED_EDGE('',*,*,#698,.F.);
#917=ORIENTED_EDGE('',*,*,#699,.F.);
#918=ORIENTED_EDGE('',*,*,#700,.T.);
#919=ORIENTED_EDGE('',*,*,#677,.T.);
#920=ORIENTED_EDGE('',*,*,#700,.F.);
#921=ORIENTED_EDGE('',*,*,#619,.F.);
#922=ORIENTED_EDGE('',*,*,#701,.T.);
#923=ORIENTED_EDGE('',*,*,#702,.F.);
#924=ORIENTED_EDGE('',*,*,#701,.F.);
#925=ORIENTED_EDGE('',*,*,#618,.F.);
#926=ORIENTED_EDGE('',*,*,#703,.T.);
#927=ORIENTED_EDGE('',*,*,#704,.F.);
#928=ORIENTED_EDGE('',*,*,#703,.F.);
#929=ORIENTED_EDGE('',*,*,#617,.F.);
#930=ORIENTED_EDGE('',*,*,#705,.T.);
#931=ORIENTED_EDGE('',*,*,#706,.F.);
#932=ORIENTED_EDGE('',*,*,#705,.F.);
#933=ORIENTED_EDGE('',*,*,#616,.F.);
#934=ORIENTED_EDGE('',*,*,#707,.T.);
#935=ORIENTED_EDGE('',*,*,#708,.F.);
#936=ORIENTED_EDGE('',*,*,#707,.F.);
#937=ORIENTED_EDGE('',*,*,#591,.F.);
#938=ORIENTED_EDGE('',*,*,#709,.F.);
#939=ORIENTED_EDGE('',*,*,#710,.T.);
#940=ORIENTED_EDGE('',*,*,#711,.F.);
#941=ORIENTED_EDGE('',*,*,#589,.F.);
#942=ORIENTED_EDGE('',*,*,#712,.F.);
#943=ORIENTED_EDGE('',*,*,#713,.T.);
#944=ORIENTED_EDGE('',*,*,#714,.F.);
#945=ORIENTED_EDGE('',*,*,#697,.T.);
#946=ORIENTED_EDGE('',*,*,#699,.T.);
#947=ORIENTED_EDGE('',*,*,#588,.F.);
#948=ORIENTED_EDGE('',*,*,#615,.F.);
#949=ORIENTED_EDGE('',*,*,#715,.T.);
#950=ORIENTED_EDGE('',*,*,#712,.T.);
#951=ORIENTED_EDGE('',*,*,#614,.F.);
#952=ORIENTED_EDGE('',*,*,#716,.F.);
#953=ORIENTED_EDGE('',*,*,#713,.F.);
#954=ORIENTED_EDGE('',*,*,#715,.F.);
#955=ORIENTED_EDGE('',*,*,#592,.F.);
#956=ORIENTED_EDGE('',*,*,#714,.T.);
#957=ORIENTED_EDGE('',*,*,#716,.T.);
#958=ORIENTED_EDGE('',*,*,#613,.F.);
#959=ORIENTED_EDGE('',*,*,#638,.F.);
#960=ORIENTED_EDGE('',*,*,#606,.T.);
#961=ORIENTED_EDGE('',*,*,#717,.F.);
#962=ORIENTED_EDGE('',*,*,#604,.T.);
#963=ORIENTED_EDGE('',*,*,#709,.T.);
#964=ORIENTED_EDGE('',*,*,#590,.F.);
#965=ORIENTED_EDGE('',*,*,#711,.T.);
#966=ORIENTED_EDGE('',*,*,#718,.F.);
#967=ORIENTED_EDGE('',*,*,#719,.T.);
#968=ORIENTED_EDGE('',*,*,#720,.T.);
#969=ORIENTED_EDGE('',*,*,#721,.T.);
#970=ORIENTED_EDGE('',*,*,#722,.T.);
#971=ORIENTED_EDGE('',*,*,#723,.T.);
#972=ORIENTED_EDGE('',*,*,#596,.T.);
#973=ORIENTED_EDGE('',*,*,#602,.T.);
#974=ORIENTED_EDGE('',*,*,#581,.T.);
#975=ORIENTED_EDGE('',*,*,#724,.F.);
#976=ORIENTED_EDGE('',*,*,#725,.F.);
#977=ORIENTED_EDGE('',*,*,#726,.F.);
#978=ORIENTED_EDGE('',*,*,#720,.F.);
#979=ORIENTED_EDGE('',*,*,#718,.T.);
#980=ORIENTED_EDGE('',*,*,#710,.F.);
#981=ORIENTED_EDGE('',*,*,#726,.T.);
#982=ORIENTED_EDGE('',*,*,#727,.F.);
#983=ORIENTED_EDGE('',*,*,#728,.F.);
#984=ORIENTED_EDGE('',*,*,#721,.F.);
#985=ORIENTED_EDGE('',*,*,#669,.T.);
#986=ORIENTED_EDGE('',*,*,#675,.T.);
#987=ORIENTED_EDGE('',*,*,#672,.T.);
#988=ORIENTED_EDGE('',*,*,#659,.T.);
#989=ORIENTED_EDGE('',*,*,#663,.T.);
#990=ORIENTED_EDGE('',*,*,#666,.T.);
#991=ORIENTED_EDGE('',*,*,#688,.T.);
#992=ORIENTED_EDGE('',*,*,#694,.T.);
#993=ORIENTED_EDGE('',*,*,#691,.T.);
#994=ORIENTED_EDGE('',*,*,#678,.T.);
#995=ORIENTED_EDGE('',*,*,#682,.T.);
#996=ORIENTED_EDGE('',*,*,#685,.T.);
#997=ORIENTED_EDGE('',*,*,#702,.T.);
#998=ORIENTED_EDGE('',*,*,#704,.T.);
#999=ORIENTED_EDGE('',*,*,#706,.T.);
#1000=ORIENTED_EDGE('',*,*,#708,.T.);
#1001=ORIENTED_EDGE('',*,*,#658,.T.);
#1002=ORIENTED_EDGE('',*,*,#652,.F.);
#1003=ORIENTED_EDGE('',*,*,#655,.T.);
#1004=ORIENTED_EDGE('',*,*,#657,.F.);
#1005=ORIENTED_EDGE('',*,*,#650,.T.);
#1006=ORIENTED_EDGE('',*,*,#648,.T.);
#1007=ORIENTED_EDGE('',*,*,#646,.T.);
#1008=ORIENTED_EDGE('',*,*,#644,.T.);
#1009=ORIENTED_EDGE('',*,*,#642,.T.);
#1010=ORIENTED_EDGE('',*,*,#640,.T.);
#1011=ORIENTED_EDGE('',*,*,#728,.T.);
#1012=ORIENTED_EDGE('',*,*,#729,.F.);
#1013=ORIENTED_EDGE('',*,*,#730,.F.);
#1014=ORIENTED_EDGE('',*,*,#722,.F.);
#1015=ORIENTED_EDGE('',*,*,#717,.T.);
#1016=ORIENTED_EDGE('',*,*,#605,.T.);
#1017=ORIENTED_EDGE('',*,*,#730,.T.);
#1018=ORIENTED_EDGE('',*,*,#731,.F.);
#1019=ORIENTED_EDGE('',*,*,#634,.F.);
#1020=ORIENTED_EDGE('',*,*,#637,.F.);
#1021=ORIENTED_EDGE('',*,*,#597,.F.);
#1022=ORIENTED_EDGE('',*,*,#723,.F.);
#1023=ORIENTED_EDGE('',*,*,#584,.T.);
#1024=ORIENTED_EDGE('',*,*,#595,.T.);
#1025=ORIENTED_EDGE('',*,*,#632,.T.);
#1026=ORIENTED_EDGE('',*,*,#732,.F.);
#1027=ORIENTED_EDGE('',*,*,#724,.T.);
#1028=ORIENTED_EDGE('',*,*,#719,.F.);
#1029=ORIENTED_EDGE('',*,*,#732,.T.);
#1030=ORIENTED_EDGE('',*,*,#631,.T.);
#1031=ORIENTED_EDGE('',*,*,#610,.T.);
#1032=ORIENTED_EDGE('',*,*,#635,.T.);
#1033=ORIENTED_EDGE('',*,*,#731,.T.);
#1034=ORIENTED_EDGE('',*,*,#729,.T.);
#1035=ORIENTED_EDGE('',*,*,#727,.T.);
#1036=ORIENTED_EDGE('',*,*,#725,.T.);
#1037=CYLINDRICAL_SURFACE('',#1125,76.6032346285426);
#1038=CYLINDRICAL_SURFACE('',#1131,76.6032346285427);
#1039=CYLINDRICAL_SURFACE('',#1148,76.6032346285426);
#1040=CYLINDRICAL_SURFACE('',#1152,76.6032346285427);
#1041=CYLINDRICAL_SURFACE('',#1158,1.625);
#1042=CYLINDRICAL_SURFACE('',#1160,1.625);
#1043=CYLINDRICAL_SURFACE('',#1162,1.625);
#1044=CYLINDRICAL_SURFACE('',#1164,1.625);
#1045=CYLINDRICAL_SURFACE('',#1166,1.625);
#1046=CYLINDRICAL_SURFACE('',#1168,1.625);
#1047=CYLINDRICAL_SURFACE('',#1170,6.5);
#1048=CYLINDRICAL_SURFACE('',#1173,6.5);
#1049=CYLINDRICAL_SURFACE('',#1192,2.125);
#1050=CYLINDRICAL_SURFACE('',#1194,2.125);
#1051=CYLINDRICAL_SURFACE('',#1196,1.625);
#1052=CYLINDRICAL_SURFACE('',#1198,1.625);
#1053=CYLINDRICAL_SURFACE('',#1200,1.625);
#1054=CYLINDRICAL_SURFACE('',#1202,1.625);
#1055=CYLINDRICAL_SURFACE('',#1208,30.);
#1056=CYLINDRICAL_SURFACE('',#1210,30.);
#1057=ADVANCED_FACE('',(#79),#1037,.F.);
#1058=ADVANCED_FACE('',(#80),#45,.T.);
#1059=ADVANCED_FACE('',(#81),#46,.T.);
#1060=ADVANCED_FACE('',(#82),#1038,.F.);
#1061=ADVANCED_FACE('',(#83),#47,.T.);
#1062=ADVANCED_FACE('',(#84,#15,#16,#17,#18,#19,#20,#21,#22,#23,#24,#25),
#48,.T.);
#1063=ADVANCED_FACE('',(#85),#1039,.F.);
#1064=ADVANCED_FACE('',(#86),#49,.F.);
#1065=ADVANCED_FACE('',(#87),#1040,.F.);
#1066=ADVANCED_FACE('',(#88),#50,.F.);
#1067=ADVANCED_FACE('',(#89),#51,.T.);
#1068=ADVANCED_FACE('',(#90),#1041,.F.);
#1069=ADVANCED_FACE('',(#91),#1042,.F.);
#1070=ADVANCED_FACE('',(#92),#1043,.F.);
#1071=ADVANCED_FACE('',(#93),#1044,.F.);
#1072=ADVANCED_FACE('',(#94),#1045,.F.);
#1073=ADVANCED_FACE('',(#95),#1046,.F.);
#1074=ADVANCED_FACE('',(#96),#1047,.F.);
#1075=ADVANCED_FACE('',(#97),#52,.F.);
#1076=ADVANCED_FACE('',(#98),#1048,.F.);
#1077=ADVANCED_FACE('',(#99),#53,.F.);
#1078=ADVANCED_FACE('',(#100),#54,.F.);
#1079=ADVANCED_FACE('',(#101),#55,.F.);
#1080=ADVANCED_FACE('',(#102),#56,.F.);
#1081=ADVANCED_FACE('',(#103),#57,.F.);
#1082=ADVANCED_FACE('',(#104),#58,.F.);
#1083=ADVANCED_FACE('',(#105),#59,.F.);
#1084=ADVANCED_FACE('',(#106,#26),#60,.F.);
#1085=ADVANCED_FACE('',(#107),#61,.F.);
#1086=ADVANCED_FACE('',(#108),#62,.F.);
#1087=ADVANCED_FACE('',(#109),#63,.F.);
#1088=ADVANCED_FACE('',(#110),#64,.F.);
#1089=ADVANCED_FACE('',(#111),#65,.F.);
#1090=ADVANCED_FACE('',(#112),#66,.F.);
#1091=ADVANCED_FACE('',(#113,#27),#67,.F.);
#1092=ADVANCED_FACE('',(#114),#1049,.F.);
#1093=ADVANCED_FACE('',(#115),#1050,.F.);
#1094=ADVANCED_FACE('',(#116),#1051,.F.);
#1095=ADVANCED_FACE('',(#117),#1052,.F.);
#1096=ADVANCED_FACE('',(#118),#1053,.F.);
#1097=ADVANCED_FACE('',(#119),#1054,.F.);
#1098=ADVANCED_FACE('',(#120,#28,#29),#68,.T.);
#1099=ADVANCED_FACE('',(#121),#69,.T.);
#1100=ADVANCED_FACE('',(#122),#70,.T.);
#1101=ADVANCED_FACE('',(#123),#71,.T.);
#1102=ADVANCED_FACE('',(#124),#1055,.F.);
#1103=ADVANCED_FACE('',(#125),#1056,.F.);
#1104=ADVANCED_FACE('',(#126),#72,.T.);
#1105=ADVANCED_FACE('',(#127,#30),#73,.T.);
#1106=ADVANCED_FACE('',(#128,#31,#32,#33,#34,#35,#36,#37,#38,#39,#40,#41,
#42,#43),#74,.T.);
#1107=ADVANCED_FACE('',(#129,#44),#75,.T.);
#1108=ADVANCED_FACE('',(#130),#76,.T.);
#1109=ADVANCED_FACE('',(#131),#77,.T.);
#1110=ADVANCED_FACE('',(#132),#78,.T.);
#1111=CLOSED_SHELL('',(#1057,#1058,#1059,#1060,#1061,#1062,#1063,#1064,
#1065,#1066,#1067,#1068,#1069,#1070,#1071,#1072,#1073,#1074,#1075,#1076,
#1077,#1078,#1079,#1080,#1081,#1082,#1083,#1084,#1085,#1086,#1087,#1088,
#1089,#1090,#1091,#1092,#1093,#1094,#1095,#1096,#1097,#1098,#1099,#1100,
#1101,#1102,#1103,#1104,#1105,#1106,#1107,#1108,#1109,#1110));
#1112=DERIVED_UNIT_ELEMENT(#1114,1.);
#1113=DERIVED_UNIT_ELEMENT(#1833,-3.);
#1114=(
MASS_UNIT()
NAMED_UNIT(*)
SI_UNIT(.KILO.,.GRAM.)
);
#1115=DERIVED_UNIT((#1112,#1113));
#1116=MEASURE_REPRESENTATION_ITEM('density measure',
POSITIVE_RATIO_MEASURE(7850.),#1115);
#1117=PROPERTY_DEFINITION_REPRESENTATION(#1122,#1119);
#1118=PROPERTY_DEFINITION_REPRESENTATION(#1123,#1120);
#1119=REPRESENTATION('material name',(#1121),#1830);
#1120=REPRESENTATION('density',(#1116),#1830);
#1121=DESCRIPTIVE_REPRESENTATION_ITEM('Steel','Steel');
#1122=PROPERTY_DEFINITION('material property','material name',#1840);
#1123=PROPERTY_DEFINITION('material property','density of part',#1840);
#1124=AXIS2_PLACEMENT_3D('',#1521,#1219,#1220);
#1125=AXIS2_PLACEMENT_3D('',#1522,#1221,#1222);
#1126=AXIS2_PLACEMENT_3D('',#1525,#1223,#1224);
#1127=AXIS2_PLACEMENT_3D('',#1529,#1226,#1227);
#1128=AXIS2_PLACEMENT_3D('',#1531,#1229,#1230);
#1129=AXIS2_PLACEMENT_3D('',#1535,#1233,#1234);
#1130=AXIS2_PLACEMENT_3D('',#1543,#1238,#1239);
#1131=AXIS2_PLACEMENT_3D('',#1553,#1245,#1246);
#1132=AXIS2_PLACEMENT_3D('',#1556,#1247,#1248);
#1133=AXIS2_PLACEMENT_3D('',#1560,#1250,#1251);
#1134=AXIS2_PLACEMENT_3D('',#1562,#1253,#1254);
#1135=AXIS2_PLACEMENT_3D('',#1566,#1257,#1258);
#1136=AXIS2_PLACEMENT_3D('',#1593,#1273,#1274);
#1137=AXIS2_PLACEMENT_3D('',#1595,#1275,#1276);
#1138=AXIS2_PLACEMENT_3D('',#1597,#1277,#1278);
#1139=AXIS2_PLACEMENT_3D('',#1599,#1279,#1280);
#1140=AXIS2_PLACEMENT_3D('',#1604,#1282,#1283);
#1141=AXIS2_PLACEMENT_3D('',#1607,#1285,#1286);
#1142=AXIS2_PLACEMENT_3D('',#1609,#1287,#1288);
#1143=AXIS2_PLACEMENT_3D('',#1611,#1289,#1290);
#1144=AXIS2_PLACEMENT_3D('',#1613,#1291,#1292);
#1145=AXIS2_PLACEMENT_3D('',#1615,#1293,#1294);
#1146=AXIS2_PLACEMENT_3D('',#1617,#1295,#1296);
#1147=AXIS2_PLACEMENT_3D('',#1619,#1297,#1298);
#1148=AXIS2_PLACEMENT_3D('',#1620,#1299,#1300);
#1149=AXIS2_PLACEMENT_3D('',#1621,#1301,#1302);
#1150=AXIS2_PLACEMENT_3D('',#1623,#1303,#1304);
#1151=AXIS2_PLACEMENT_3D('',#1625,#1306,#1307);
#1152=AXIS2_PLACEMENT_3D('',#1626,#1308,#1309);
#1153=AXIS2_PLACEMENT_3D('',#1628,#1310,#1311);
#1154=AXIS2_PLACEMENT_3D('',#1631,#1313,#1314);
#1155=AXIS2_PLACEMENT_3D('',#1632,#1315,#1316);
#1156=AXIS2_PLACEMENT_3D('',#1634,#1318,#1319);
#1157=AXIS2_PLACEMENT_3D('',#1636,#1321,#1322);
#1158=AXIS2_PLACEMENT_3D('',#1637,#1323,#1324);
#1159=AXIS2_PLACEMENT_3D('',#1640,#1326,#1327);
#1160=AXIS2_PLACEMENT_3D('',#1641,#1328,#1329);
#1161=AXIS2_PLACEMENT_3D('',#1644,#1331,#1332);
#1162=AXIS2_PLACEMENT_3D('',#1645,#1333,#1334);
#1163=AXIS2_PLACEMENT_3D('',#1648,#1336,#1337);
#1164=AXIS2_PLACEMENT_3D('',#1649,#1338,#1339);
#1165=AXIS2_PLACEMENT_3D('',#1652,#1341,#1342);
#1166=AXIS2_PLACEMENT_3D('',#1653,#1343,#1344);
#1167=AXIS2_PLACEMENT_3D('',#1656,#1346,#1347);
#1168=AXIS2_PLACEMENT_3D('',#1657,#1348,#1349);
#1169=AXIS2_PLACEMENT_3D('',#1660,#1351,#1352);
#1170=AXIS2_PLACEMENT_3D('',#1661,#1353,#1354);
#1171=AXIS2_PLACEMENT_3D('',#1665,#1356,#1357);
#1172=AXIS2_PLACEMENT_3D('',#1667,#1359,#1360);
#1173=AXIS2_PLACEMENT_3D('',#1671,#1363,#1364);
#1174=AXIS2_PLACEMENT_3D('',#1674,#1366,#1367);
#1175=AXIS2_PLACEMENT_3D('',#1675,#1368,#1369);
#1176=AXIS2_PLACEMENT_3D('',#1677,#1371,#1372);
#1177=AXIS2_PLACEMENT_3D('',#1686,#1377,#1378);
#1178=AXIS2_PLACEMENT_3D('',#1692,#1382,#1383);
#1179=AXIS2_PLACEMENT_3D('',#1698,#1387,#1388);
#1180=AXIS2_PLACEMENT_3D('',#1704,#1392,#1393);
#1181=AXIS2_PLACEMENT_3D('',#1710,#1397,#1398);
#1182=AXIS2_PLACEMENT_3D('',#1713,#1401,#1402);
#1183=AXIS2_PLACEMENT_3D('',#1715,#1403,#1404);
#1184=AXIS2_PLACEMENT_3D('',#1716,#1405,#1406);
#1185=AXIS2_PLACEMENT_3D('',#1725,#1411,#1412);
#1186=AXIS2_PLACEMENT_3D('',#1731,#1416,#1417);
#1187=AXIS2_PLACEMENT_3D('',#1737,#1421,#1422);
#1188=AXIS2_PLACEMENT_3D('',#1743,#1426,#1427);
#1189=AXIS2_PLACEMENT_3D('',#1749,#1431,#1432);
#1190=AXIS2_PLACEMENT_3D('',#1752,#1435,#1436);
#1191=AXIS2_PLACEMENT_3D('',#1754,#1437,#1438);
#1192=AXIS2_PLACEMENT_3D('',#1755,#1439,#1440);
#1193=AXIS2_PLACEMENT_3D('',#1757,#1441,#1442);
#1194=AXIS2_PLACEMENT_3D('',#1759,#1444,#1445);
#1195=AXIS2_PLACEMENT_3D('',#1761,#1446,#1447);
#1196=AXIS2_PLACEMENT_3D('',#1763,#1449,#1450);
#1197=AXIS2_PLACEMENT_3D('',#1766,#1452,#1453);
#1198=AXIS2_PLACEMENT_3D('',#1767,#1454,#1455);
#1199=AXIS2_PLACEMENT_3D('',#1770,#1457,#1458);
#1200=AXIS2_PLACEMENT_3D('',#1771,#1459,#1460);
#1201=AXIS2_PLACEMENT_3D('',#1774,#1462,#1463);
#1202=AXIS2_PLACEMENT_3D('',#1775,#1464,#1465);
#1203=AXIS2_PLACEMENT_3D('',#1778,#1467,#1468);
#1204=AXIS2_PLACEMENT_3D('',#1779,#1469,#1470);
#1205=AXIS2_PLACEMENT_3D('',#1790,#1477,#1478);
#1206=AXIS2_PLACEMENT_3D('',#1792,#1480,#1481);
#1207=AXIS2_PLACEMENT_3D('',#1794,#1483,#1484);
#1208=AXIS2_PLACEMENT_3D('',#1795,#1485,#1486);
#1209=AXIS2_PLACEMENT_3D('',#1796,#1487,#1488);
#1210=AXIS2_PLACEMENT_3D('',#1797,#1489,#1490);
#1211=AXIS2_PLACEMENT_3D('',#1798,#1491,#1492);
#1212=AXIS2_PLACEMENT_3D('',#1799,#1493,#1494);
#1213=AXIS2_PLACEMENT_3D('',#1809,#1500,#1501);
#1214=AXIS2_PLACEMENT_3D('',#1815,#1505,#1506);
#1215=AXIS2_PLACEMENT_3D('',#1819,#1509,#1510);
#1216=AXIS2_PLACEMENT_3D('',#1823,#1513,#1514);
#1217=AXIS2_PLACEMENT_3D('',#1825,#1516,#1517);
#1218=AXIS2_PLACEMENT_3D('',#1827,#1519,#1520);
#1219=DIRECTION('axis',(0.,0.,1.));
#1220=DIRECTION('refdir',(1.,0.,0.));
#1221=DIRECTION('center_axis',(1.,0.,0.));
#1222=DIRECTION('ref_axis',(0.,0.250207014881394,-0.96819236193235));
#1223=DIRECTION('center_axis',(1.,0.,0.));
#1224=DIRECTION('ref_axis',(0.,0.250207014881394,-0.96819236193235));
#1225=DIRECTION('',(-1.,0.,0.));
#1226=DIRECTION('center_axis',(-1.,0.,0.));
#1227=DIRECTION('ref_axis',(0.,0.250207014881394,-0.96819236193235));
#1228=DIRECTION('',(1.,0.,0.));
#1229=DIRECTION('center_axis',(1.,0.,0.));
#1230=DIRECTION('ref_axis',(0.,1.,0.));
#1231=DIRECTION('',(0.,-1.,0.));
#1232=DIRECTION('',(0.,0.,-1.));
#1233=DIRECTION('center_axis',(0.,-1.,0.));
#1234=DIRECTION('ref_axis',(0.,0.,-1.));
#1235=DIRECTION('',(1.,0.,0.));
#1236=DIRECTION('',(0.,0.,1.));
#1237=DIRECTION('',(1.,0.,0.));
#1238=DIRECTION('center_axis',(0.,1.,0.));
#1239=DIRECTION('ref_axis',(1.,0.,0.));
#1240=DIRECTION('',(1.,0.,0.));
#1241=DIRECTION('',(0.,0.,-1.));
#1242=DIRECTION('',(1.,0.,0.));
#1243=DIRECTION('',(0.,0.,1.));
#1244=DIRECTION('',(1.,0.,0.));
#1245=DIRECTION('center_axis',(1.,0.,0.));
#1246=DIRECTION('ref_axis',(0.,-0.96819236193235,-0.250207014881394));
#1247=DIRECTION('center_axis',(1.,0.,0.));
#1248=DIRECTION('ref_axis',(0.,-0.96819236193235,-0.250207014881394));
#1249=DIRECTION('',(1.,0.,0.));
#1250=DIRECTION('center_axis',(-1.,0.,0.));
#1251=DIRECTION('ref_axis',(0.,-0.96819236193235,-0.250207014881394));
#1252=DIRECTION('',(1.,0.,0.));
#1253=DIRECTION('center_axis',(1.,0.,0.));
#1254=DIRECTION('ref_axis',(0.,1.,0.));
#1255=DIRECTION('',(0.,0.,1.));
#1256=DIRECTION('',(0.,-1.,0.));
#1257=DIRECTION('center_axis',(0.,0.,1.));
#1258=DIRECTION('ref_axis',(0.,-1.,0.));
#1259=DIRECTION('',(0.,1.,0.));
#1260=DIRECTION('',(1.,0.,0.));
#1261=DIRECTION('',(0.,1.,0.));
#1262=DIRECTION('',(-1.,0.,0.));
#1263=DIRECTION('',(0.,-1.,0.));
#1264=DIRECTION('',(1.,0.,0.));
#1265=DIRECTION('',(0.,1.,0.));
#1266=DIRECTION('',(1.,0.,0.));
#1267=DIRECTION('',(0.,-1.,0.));
#1268=DIRECTION('',(-1.,0.,0.));
#1269=DIRECTION('',(0.,1.,0.));
#1270=DIRECTION('',(0.,-1.,0.));
#1271=DIRECTION('',(-1.,0.,0.));
#1272=DIRECTION('',(0.,1.,0.));
#1273=DIRECTION('center_axis',(0.,0.,-1.));
#1274=DIRECTION('ref_axis',(1.,0.,0.));
#1275=DIRECTION('center_axis',(0.,0.,-1.));
#1276=DIRECTION('ref_axis',(1.,0.,0.));
#1277=DIRECTION('center_axis',(0.,0.,-1.));
#1278=DIRECTION('ref_axis',(1.,0.,0.));
#1279=DIRECTION('center_axis',(0.,0.,-1.));
#1280=DIRECTION('ref_axis',(1.,0.,0.));
#1281=DIRECTION('',(-1.,0.,0.));
#1282=DIRECTION('center_axis',(0.,0.,1.));
#1283=DIRECTION('ref_axis',(-0.707106781186547,0.707106781186548,0.));
#1284=DIRECTION('',(1.,0.,0.));
#1285=DIRECTION('center_axis',(0.,0.,1.));
#1286=DIRECTION('ref_axis',(0.707106781186547,-0.707106781186548,0.));
#1287=DIRECTION('center_axis',(0.,0.,-1.));
#1288=DIRECTION('ref_axis',(1.,0.,0.));
#1289=DIRECTION('center_axis',(0.,0.,-1.));
#1290=DIRECTION('ref_axis',(1.,0.,0.));
#1291=DIRECTION('center_axis',(0.,0.,-1.));
#1292=DIRECTION('ref_axis',(1.,0.,0.));
#1293=DIRECTION('center_axis',(0.,0.,-1.));
#1294=DIRECTION('ref_axis',(1.,0.,0.));
#1295=DIRECTION('center_axis',(0.,0.,-1.));
#1296=DIRECTION('ref_axis',(1.,0.,0.));
#1297=DIRECTION('center_axis',(0.,0.,-1.));
#1298=DIRECTION('ref_axis',(1.,0.,0.));
#1299=DIRECTION('center_axis',(1.,0.,0.));
#1300=DIRECTION('ref_axis',(0.,0.250207014881394,-0.96819236193235));
#1301=DIRECTION('center_axis',(1.,0.,0.));
#1302=DIRECTION('ref_axis',(0.,0.250207014881394,-0.96819236193235));
#1303=DIRECTION('center_axis',(-1.,0.,0.));
#1304=DIRECTION('ref_axis',(0.,0.250207014881394,-0.96819236193235));
#1305=DIRECTION('',(1.,0.,0.));
#1306=DIRECTION('center_axis',(1.,0.,0.));
#1307=DIRECTION('ref_axis',(0.,1.,0.));
#1308=DIRECTION('center_axis',(1.,0.,0.));
#1309=DIRECTION('ref_axis',(0.,-0.96819236193235,-0.250207014881394));
#1310=DIRECTION('center_axis',(1.,0.,0.));
#1311=DIRECTION('ref_axis',(0.,-0.96819236193235,-0.250207014881394));
#1312=DIRECTION('',(1.,0.,0.));
#1313=DIRECTION('center_axis',(-1.,0.,0.));
#1314=DIRECTION('ref_axis',(0.,-0.96819236193235,-0.250207014881394));
#1315=DIRECTION('center_axis',(1.,0.,0.));
#1316=DIRECTION('ref_axis',(0.,1.,0.));
#1317=DIRECTION('',(0.,0.,-1.));
#1318=DIRECTION('center_axis',(0.,1.,0.));
#1319=DIRECTION('ref_axis',(0.,0.,1.));
#1320=DIRECTION('',(1.,0.,0.));
#1321=DIRECTION('center_axis',(0.,-1.,0.));
#1322=DIRECTION('ref_axis',(1.,0.,0.));
#1323=DIRECTION('center_axis',(0.,0.,-1.));
#1324=DIRECTION('ref_axis',(1.,0.,0.));
#1325=DIRECTION('',(0.,0.,-1.));
#1326=DIRECTION('center_axis',(0.,-5.20417042793042E-17,1.));
#1327=DIRECTION('ref_axis',(1.,0.,0.));
#1328=DIRECTION('center_axis',(0.,0.,-1.));
#1329=DIRECTION('ref_axis',(1.,0.,0.));
#1330=DIRECTION('',(0.,0.,-1.));
#1331=DIRECTION('center_axis',(0.,-5.20417042793042E-17,1.));
#1332=DIRECTION('ref_axis',(1.,0.,0.));
#1333=DIRECTION('center_axis',(0.,0.,-1.));
#1334=DIRECTION('ref_axis',(1.,0.,0.));
#1335=DIRECTION('',(0.,0.,-1.));
#1336=DIRECTION('center_axis',(0.,-5.20417042793042E-17,1.));
#1337=DIRECTION('ref_axis',(1.,0.,0.));
#1338=DIRECTION('center_axis',(0.,0.,-1.));
#1339=DIRECTION('ref_axis',(1.,0.,0.));
#1340=DIRECTION('',(0.,0.,-1.));
#1341=DIRECTION('center_axis',(0.,-5.20417042793042E-17,1.));
#1342=DIRECTION('ref_axis',(1.,0.,0.));
#1343=DIRECTION('center_axis',(0.,0.,-1.));
#1344=DIRECTION('ref_axis',(1.,0.,0.));
#1345=DIRECTION('',(0.,0.,-1.));
#1346=DIRECTION('center_axis',(0.,-5.20417042793042E-17,1.));
#1347=DIRECTION('ref_axis',(1.,0.,0.));
#1348=DIRECTION('center_axis',(0.,0.,-1.));
#1349=DIRECTION('ref_axis',(1.,0.,0.));
#1350=DIRECTION('',(0.,0.,-1.));
#1351=DIRECTION('center_axis',(0.,-5.20417042793042E-17,1.));
#1352=DIRECTION('ref_axis',(1.,0.,0.));
#1353=DIRECTION('center_axis',(0.,0.,-1.));
#1354=DIRECTION('ref_axis',(0.707106781186547,0.707106781186548,0.));
#1355=DIRECTION('',(0.,0.,-1.));
#1356=DIRECTION('center_axis',(0.,5.20417042793042E-17,-1.));
#1357=DIRECTION('ref_axis',(0.707106781186547,0.707106781186548,0.));
#1358=DIRECTION('',(0.,0.,1.));
#1359=DIRECTION('center_axis',(0.,1.,0.));
#1360=DIRECTION('ref_axis',(1.,0.,0.));
#1361=DIRECTION('',(0.,0.,1.));
#1362=DIRECTION('',(-1.,0.,0.));
#1363=DIRECTION('center_axis',(0.,0.,-1.));
#1364=DIRECTION('ref_axis',(-0.707106781186547,-0.707106781186548,0.));
#1365=DIRECTION('',(0.,0.,-1.));
#1366=DIRECTION('center_axis',(0.,5.20417042793042E-17,-1.));
#1367=DIRECTION('ref_axis',(-0.707106781186547,-0.707106781186548,0.));
#1368=DIRECTION('center_axis',(0.,-1.,0.));
#1369=DIRECTION('ref_axis',(-1.,0.,0.));
#1370=DIRECTION('',(1.,0.,0.));
#1371=DIRECTION('center_axis',(-0.865148735111801,-0.501515369788854,0.));
#1372=DIRECTION('ref_axis',(0.501515369788854,-0.865148735111801,0.));
#1373=DIRECTION('',(0.501515369788854,-0.865148735111801,-4.50238146303024E-17));
#1374=DIRECTION('',(0.,0.,1.));
#1375=DIRECTION('',(0.501515369788854,-0.865148735111801,0.));
#1376=DIRECTION('',(0.,0.,1.));
#1377=DIRECTION('center_axis',(0.0017506830695902,-0.999998467553221,0.));
#1378=DIRECTION('ref_axis',(0.999998467553221,0.0017506830695902,0.));
#1379=DIRECTION('',(0.999998467553221,0.0017506830695902,9.11085305943976E-20));
#1380=DIRECTION('',(0.999998467553221,0.0017506830695902,0.));
#1381=DIRECTION('',(0.,0.,1.));
#1382=DIRECTION('center_axis',(0.866899418181395,-0.498483097764367,0.));
#1383=DIRECTION('ref_axis',(0.498483097764367,0.866899418181395,0.));
#1384=DIRECTION('',(0.498483097764367,0.866899418181395,4.5114923160897E-17));
#1385=DIRECTION('',(0.498483097764367,0.866899418181395,0.));
#1386=DIRECTION('',(0.,0.,1.));
#1387=DIRECTION('center_axis',(0.865148735111801,0.501515369788854,0.));
#1388=DIRECTION('ref_axis',(-0.501515369788854,0.865148735111801,0.));
#1389=DIRECTION('',(-0.501515369788854,0.865148735111801,4.50238146303024E-17));
#1390=DIRECTION('',(-0.501515369788854,0.865148735111801,0.));
#1391=DIRECTION('',(0.,0.,-1.));
#1392=DIRECTION('center_axis',(-0.866899418181394,0.498483097764368,0.));
#1393=DIRECTION('ref_axis',(-0.498483097764368,-0.866899418181394,0.));
#1394=DIRECTION('',(-0.498483097764368,-0.866899418181394,-4.5114923160897E-17));
#1395=DIRECTION('',(0.,0.,1.));
#1396=DIRECTION('',(-0.498483097764368,-0.866899418181394,0.));
#1397=DIRECTION('center_axis',(-0.00175068306959453,0.999998467553221,0.));
#1398=DIRECTION('ref_axis',(-0.999998467553221,-0.00175068306959453,0.));
#1399=DIRECTION('',(-0.999998467553221,-0.00175068306959453,-9.1108530594623E-20));
#1400=DIRECTION('',(-0.999998467553221,-0.00175068306959453,0.));
#1401=DIRECTION('center_axis',(0.,0.,1.));
#1402=DIRECTION('ref_axis',(1.,0.,0.));
#1403=DIRECTION('center_axis',(0.,0.,-1.));
#1404=DIRECTION('ref_axis',(1.,0.,0.));
#1405=DIRECTION('center_axis',(0.865148735111802,-0.501515369788852,0.));
#1406=DIRECTION('ref_axis',(0.501515369788852,0.865148735111802,0.));
#1407=DIRECTION('',(0.501515369788852,0.865148735111802,4.50238146303025E-17));
#1408=DIRECTION('',(0.,0.,1.));
#1409=DIRECTION('',(0.501515369788852,0.865148735111802,0.));
#1410=DIRECTION('',(0.,0.,1.));
#1411=DIRECTION('center_axis',(0.866899418181395,0.498483097764367,0.));
#1412=DIRECTION('ref_axis',(-0.498483097764367,0.866899418181395,0.));
#1413=DIRECTION('',(-0.498483097764367,0.866899418181395,4.5114923160897E-17));
#1414=DIRECTION('',(-0.498483097764367,0.866899418181395,0.));
#1415=DIRECTION('',(0.,0.,1.));
#1416=DIRECTION('center_axis',(0.00175068306959453,0.999998467553221,0.));
#1417=DIRECTION('ref_axis',(-0.999998467553221,0.00175068306959453,0.));
#1418=DIRECTION('',(-0.999998467553221,0.00175068306959453,9.11085305946231E-20));
#1419=DIRECTION('',(-0.999998467553221,0.00175068306959453,0.));
#1420=DIRECTION('',(0.,0.,1.));
#1421=DIRECTION('center_axis',(-0.865148735111802,0.501515369788852,0.));
#1422=DIRECTION('ref_axis',(-0.501515369788852,-0.865148735111802,0.));
#1423=DIRECTION('',(-0.501515369788852,-0.865148735111802,-4.50238146303025E-17));
#1424=DIRECTION('',(-0.501515369788852,-0.865148735111802,0.));
#1425=DIRECTION('',(0.,0.,-1.));
#1426=DIRECTION('center_axis',(-0.00175068306959453,-0.999998467553221,
0.));
#1427=DIRECTION('ref_axis',(0.999998467553221,-0.00175068306959453,0.));
#1428=DIRECTION('',(0.999998467553221,-0.00175068306959453,-9.11085305946231E-20));
#1429=DIRECTION('',(0.,0.,1.));
#1430=DIRECTION('',(0.999998467553221,-0.00175068306959453,0.));
#1431=DIRECTION('center_axis',(-0.866899418181395,-0.498483097764366,0.));
#1432=DIRECTION('ref_axis',(0.498483097764366,-0.866899418181395,0.));
#1433=DIRECTION('',(0.498483097764366,-0.866899418181395,-4.5114923160897E-17));
#1434=DIRECTION('',(0.498483097764366,-0.866899418181395,0.));
#1435=DIRECTION('center_axis',(0.,0.,1.));
#1436=DIRECTION('ref_axis',(1.,0.,0.));
#1437=DIRECTION('center_axis',(0.,0.,-1.));
#1438=DIRECTION('ref_axis',(1.,0.,0.));
#1439=DIRECTION('center_axis',(0.,0.,-1.));
#1440=DIRECTION('ref_axis',(1.,0.,0.));
#1441=DIRECTION('center_axis',(0.,0.,-1.));
#1442=DIRECTION('ref_axis',(-1.,0.,0.));
#1443=DIRECTION('',(0.,0.,-1.));
#1444=DIRECTION('center_axis',(0.,0.,-1.));
#1445=DIRECTION('ref_axis',(1.,0.,0.));
#1446=DIRECTION('center_axis',(0.,0.,-1.));
#1447=DIRECTION('ref_axis',(-1.,0.,0.));
#1448=DIRECTION('',(0.,0.,-1.));
#1449=DIRECTION('center_axis',(0.,0.,-1.));
#1450=DIRECTION('ref_axis',(1.,0.,0.));
#1451=DIRECTION('',(0.,0.,-1.));
#1452=DIRECTION('center_axis',(0.,-5.20417042793042E-17,1.));
#1453=DIRECTION('ref_axis',(1.,0.,0.));
#1454=DIRECTION('center_axis',(0.,0.,-1.));
#1455=DIRECTION('ref_axis',(1.,0.,0.));
#1456=DIRECTION('',(0.,0.,-1.));
#1457=DIRECTION('center_axis',(0.,-5.20417042793042E-17,1.));
#1458=DIRECTION('ref_axis',(1.,0.,0.));
#1459=DIRECTION('center_axis',(0.,0.,-1.));
#1460=DIRECTION('ref_axis',(1.,0.,0.));
#1461=DIRECTION('',(0.,0.,-1.));
#1462=DIRECTION('center_axis',(0.,-5.20417042793042E-17,1.));
#1463=DIRECTION('ref_axis',(1.,0.,0.));
#1464=DIRECTION('center_axis',(0.,0.,-1.));
#1465=DIRECTION('ref_axis',(1.,0.,0.));
#1466=DIRECTION('',(0.,0.,-1.));
#1467=DIRECTION('center_axis',(0.,-5.20417042793042E-17,1.));
#1468=DIRECTION('ref_axis',(1.,0.,0.));
#1469=DIRECTION('center_axis',(0.,0.,1.));
#1470=DIRECTION('ref_axis',(0.,-1.,0.));
#1471=DIRECTION('',(0.,-1.,0.));
#1472=DIRECTION('',(-1.,0.,0.));
#1473=DIRECTION('',(0.,1.,0.));
#1474=DIRECTION('',(0.,1.,0.));
#1475=DIRECTION('',(1.,0.,0.));
#1476=DIRECTION('',(0.,-1.,0.));
#1477=DIRECTION('center_axis',(-1.,0.,0.));
#1478=DIRECTION('ref_axis',(0.,0.,1.));
#1479=DIRECTION('',(0.,0.,1.));
#1480=DIRECTION('center_axis',(0.,-1.,0.));
#1481=DIRECTION('ref_axis',(0.,0.,-1.));
#1482=DIRECTION('',(0.,0.,-1.));
#1483=DIRECTION('center_axis',(1.,0.,0.));
#1484=DIRECTION('ref_axis',(0.,0.,-1.));
#1485=DIRECTION('center_axis',(0.,1.,0.));
#1486=DIRECTION('ref_axis',(-1.83697019872103E-16,0.,1.));
#1487=DIRECTION('center_axis',(0.,1.,0.));
#1488=DIRECTION('ref_axis',(1.,0.,0.));
#1489=DIRECTION('center_axis',(0.,1.,0.));
#1490=DIRECTION('ref_axis',(6.12323399573676E-17,0.,1.));
#1491=DIRECTION('center_axis',(0.,-1.,0.));
#1492=DIRECTION('ref_axis',(1.,0.,0.));
#1493=DIRECTION('center_axis',(-1.,0.,0.));
#1494=DIRECTION('ref_axis',(0.,0.,1.));
#1495=DIRECTION('',(0.,1.,0.));
#1496=DIRECTION('',(0.,0.,-1.));
#1497=DIRECTION('',(0.,-1.,-5.20417042793042E-17));
#1498=DIRECTION('',(0.,0.,1.));
#1499=DIRECTION('',(0.,1.,0.));
#1500=DIRECTION('center_axis',(0.,1.,0.));
#1501=DIRECTION('ref_axis',(0.,0.,1.));
#1502=DIRECTION('',(-1.,0.,0.));
#1503=DIRECTION('',(0.,0.,1.));
#1504=DIRECTION('',(1.,0.,0.));
#1505=DIRECTION('center_axis',(0.,5.20417042793042E-17,-1.));
#1506=DIRECTION('ref_axis',(0.,1.,5.20417042793042E-17));
#1507=DIRECTION('',(0.,1.,5.20417042793042E-17));
#1508=DIRECTION('',(1.,0.,0.));
#1509=DIRECTION('center_axis',(0.,-1.,0.));
#1510=DIRECTION('ref_axis',(0.,0.,-1.));
#1511=DIRECTION('',(0.,0.,-1.));
#1512=DIRECTION('',(1.,0.,0.));
#1513=DIRECTION('center_axis',(0.,0.,1.));
#1514=DIRECTION('ref_axis',(0.,-1.,0.));
#1515=DIRECTION('',(0.,-1.,0.));
#1516=DIRECTION('center_axis',(0.,0.,1.));
#1517=DIRECTION('ref_axis',(0.,-1.,0.));
#1518=DIRECTION('',(0.,-1.,0.));
#1519=DIRECTION('center_axis',(1.,0.,0.));
#1520=DIRECTION('ref_axis',(0.,0.,-1.));
#1521=CARTESIAN_POINT('',(0.,0.,0.));
#1522=CARTESIAN_POINT('Origin',(-35.,75.8333333333333,74.1666666666667));
#1523=CARTESIAN_POINT('',(-35.,95.,0.));
#1524=CARTESIAN_POINT('',(-35.,150.,55.));
#1525=CARTESIAN_POINT('Origin',(-35.,75.8333333333333,74.1666666666667));
#1526=CARTESIAN_POINT('',(-32.,95.,0.));
#1527=CARTESIAN_POINT('',(-35.,94.9999999999999,-8.88178419700125E-15));
#1528=CARTESIAN_POINT('',(-32.,150.,55.));
#1529=CARTESIAN_POINT('Origin',(-32.,75.8333333333333,74.1666666666667));
#1530=CARTESIAN_POINT('',(0.,150.,55.));
#1531=CARTESIAN_POINT('Origin',(-32.,122.5,27.5));
#1532=CARTESIAN_POINT('',(-32.,150.,0.));
#1533=CARTESIAN_POINT('',(-32.,136.25,-8.88178419700125E-15));
#1534=CARTESIAN_POINT('',(-32.,150.,41.25));
#1535=CARTESIAN_POINT('Origin',(0.,150.,55.));
#1536=CARTESIAN_POINT('',(-30.,150.,-8.56028112604E-15));
#1537=CARTESIAN_POINT('',(0.,150.,-8.56028112604E-15));
#1538=CARTESIAN_POINT('',(-30.,150.,18.75));
#1539=CARTESIAN_POINT('',(-30.,150.,32.1875));
#1540=CARTESIAN_POINT('',(-29.9739470207045,150.,18.75));
#1541=CARTESIAN_POINT('',(0.,150.,18.75));
#1542=CARTESIAN_POINT('',(29.9739470207045,150.,18.75));
#1543=CARTESIAN_POINT('Origin',(0.,150.,20.));
#1544=CARTESIAN_POINT('',(30.,150.,18.75));
#1545=CARTESIAN_POINT('',(0.,150.,18.75));
#1546=CARTESIAN_POINT('',(30.,150.,-8.56028112604E-15));
#1547=CARTESIAN_POINT('',(30.,150.,32.1875));
#1548=CARTESIAN_POINT('',(32.,150.,0.));
#1549=CARTESIAN_POINT('',(0.,150.,-8.56028112604E-15));
#1550=CARTESIAN_POINT('',(32.,150.,55.));
#1551=CARTESIAN_POINT('',(32.,150.,41.25));
#1552=CARTESIAN_POINT('',(0.,150.,55.));
#1553=CARTESIAN_POINT('Origin',(-35.,74.1666666666667,74.1666666666667));
#1554=CARTESIAN_POINT('',(-35.,0.,55.));
#1555=CARTESIAN_POINT('',(-35.,55.,0.));
#1556=CARTESIAN_POINT('Origin',(-35.,74.1666666666667,74.1666666666667));
#1557=CARTESIAN_POINT('',(-32.,0.,55.));
#1558=CARTESIAN_POINT('',(0.,0.,55.));
#1559=CARTESIAN_POINT('',(-32.,55.,0.));
#1560=CARTESIAN_POINT('Origin',(-32.,74.1666666666667,74.1666666666667));
#1561=CARTESIAN_POINT('',(-35.,55.0000000000001,-8.88178419700125E-15));
#1562=CARTESIAN_POINT('Origin',(-32.,27.5,27.5));
#1563=CARTESIAN_POINT('',(-32.,0.,0.));
#1564=CARTESIAN_POINT('',(-32.,0.,13.75));
#1565=CARTESIAN_POINT('',(-32.,88.75,-8.88178419700125E-15));
#1566=CARTESIAN_POINT('Origin',(0.,150.,-8.56028112604E-15));
#1567=CARTESIAN_POINT('',(-35.,155.,-8.56028112604E-15));
#1568=CARTESIAN_POINT('',(-22.3606797749979,0.,0.));
#1569=CARTESIAN_POINT('',(0.,0.,0.));
#1570=CARTESIAN_POINT('',(-22.3606797749979,-5.,0.));
#1571=CARTESIAN_POINT('',(-22.3606797749979,0.,0.));
#1572=CARTESIAN_POINT('',(22.3606797749979,-5.,0.));
#1573=CARTESIAN_POINT('',(11.1803398874989,-5.,0.));
#1574=CARTESIAN_POINT('',(22.3606797749979,0.,-8.88178419700125E-15));
#1575=CARTESIAN_POINT('',(22.3606797749979,0.,-8.88178419700125E-15));
#1576=CARTESIAN_POINT('',(32.,0.,0.));
#1577=CARTESIAN_POINT('',(0.,0.,0.));
#1578=CARTESIAN_POINT('',(32.,55.,0.));
#1579=CARTESIAN_POINT('',(32.,88.75,-8.88178419700125E-15));
#1580=CARTESIAN_POINT('',(35.,55.,0.));
#1581=CARTESIAN_POINT('',(32.,55.0000000000001,-8.88178419700125E-15));
#1582=CARTESIAN_POINT('',(35.,95.,0.));
#1583=CARTESIAN_POINT('',(35.,155.,-8.56028112604E-15));
#1584=CARTESIAN_POINT('',(32.,95.,0.));
#1585=CARTESIAN_POINT('',(32.,94.9999999999999,-8.88178419700125E-15));
#1586=CARTESIAN_POINT('',(32.,136.25,-8.88178419700125E-15));
#1587=CARTESIAN_POINT('',(30.,141.8,-8.88178419700125E-15));
#1588=CARTESIAN_POINT('',(30.,149.2,-8.32667268468867E-15));
#1589=CARTESIAN_POINT('',(-30.,141.8,-8.88178419700125E-15));
#1590=CARTESIAN_POINT('',(0.,141.8,-8.88178419700125E-15));
#1591=CARTESIAN_POINT('',(-30.,149.2,-8.32667268468867E-15));
#1592=CARTESIAN_POINT('',(13.375,30.5,-8.88178419700125E-15));
#1593=CARTESIAN_POINT('Origin',(15.,30.5,-8.88178419700125E-15));
#1594=CARTESIAN_POINT('',(-16.625,6.5,-8.88178419700125E-15));
#1595=CARTESIAN_POINT('Origin',(-15.,6.5,-8.88178419700125E-15));
#1596=CARTESIAN_POINT('',(-16.625,30.5,-8.88178419700125E-15));
#1597=CARTESIAN_POINT('Origin',(-15.,30.5,-8.88178419700125E-15));
#1598=CARTESIAN_POINT('',(13.375,6.5,-8.88178419700125E-15));
#1599=CARTESIAN_POINT('Origin',(15.,6.5,-8.88178419700125E-15));
#1600=CARTESIAN_POINT('',(13.75,68.5,-8.56028112604E-15));
#1601=CARTESIAN_POINT('',(-0.250000000000004,68.5,-8.56028112604E-15));
#1602=CARTESIAN_POINT('',(10.125,68.5,-8.56028112604E-15));
#1603=CARTESIAN_POINT('',(-0.250000000000002,81.5,-8.56028112604E-15));
#1604=CARTESIAN_POINT('Origin',(-0.250000000000002,75.,-8.56028112604E-15));
#1605=CARTESIAN_POINT('',(13.75,81.5,-8.56028112604E-15));
#1606=CARTESIAN_POINT('',(-3.375,81.5,-8.56028112604E-15));
#1607=CARTESIAN_POINT('Origin',(13.75,75.,-8.56028112604E-15));
#1608=CARTESIAN_POINT('',(18.5483937586588,82.75,-8.88178419700125E-15));
#1609=CARTESIAN_POINT('Origin',(20.1733937586588,82.75,-8.88178419700125E-15));
#1610=CARTESIAN_POINT('',(-8.2983937586588,82.75,-8.88178419700125E-15));
#1611=CARTESIAN_POINT('Origin',(-6.6733937586588,82.75,-8.88178419700125E-15));
#1612=CARTESIAN_POINT('',(5.125,59.5,-8.88178419700125E-15));
#1613=CARTESIAN_POINT('Origin',(6.75,59.5,-8.88178419700125E-15));
#1614=CARTESIAN_POINT('',(-8.2983937586588,67.25,-8.88178419700125E-15));
#1615=CARTESIAN_POINT('Origin',(-6.6733937586588,67.25,-8.88178419700125E-15));
#1616=CARTESIAN_POINT('',(18.5483937586588,67.25,-8.88178419700125E-15));
#1617=CARTESIAN_POINT('Origin',(20.1733937586588,67.25,-8.88178419700125E-15));
#1618=CARTESIAN_POINT('',(5.12500000000001,90.5,-8.88178419700125E-15));
#1619=CARTESIAN_POINT('Origin',(6.75000000000001,90.5,-8.88178419700125E-15));
#1620=CARTESIAN_POINT('Origin',(32.,75.8333333333333,74.1666666666667));
#1621=CARTESIAN_POINT('Origin',(32.,75.8333333333333,74.1666666666667));
#1622=CARTESIAN_POINT('',(35.,150.,55.));
#1623=CARTESIAN_POINT('Origin',(35.,75.8333333333333,74.1666666666667));
#1624=CARTESIAN_POINT('',(0.,150.,55.));
#1625=CARTESIAN_POINT('Origin',(32.,122.5,27.5));
#1626=CARTESIAN_POINT('Origin',(32.,74.1666666666667,74.1666666666667));
#1627=CARTESIAN_POINT('',(32.,0.,55.));
#1628=CARTESIAN_POINT('Origin',(32.,74.1666666666667,74.1666666666667));
#1629=CARTESIAN_POINT('',(35.,0.,55.));
#1630=CARTESIAN_POINT('',(0.,0.,55.));
#1631=CARTESIAN_POINT('Origin',(35.,74.1666666666667,74.1666666666667));
#1632=CARTESIAN_POINT('Origin',(32.,27.5,27.5));
#1633=CARTESIAN_POINT('',(32.,0.,13.75));
#1634=CARTESIAN_POINT('Origin',(0.,0.,0.));
#1635=CARTESIAN_POINT('',(0.,0.,55.));
#1636=CARTESIAN_POINT('Origin',(0.,0.,20.));
#1637=CARTESIAN_POINT('Origin',(6.75000000000001,90.5,-10.));
#1638=CARTESIAN_POINT('',(5.12500000000001,90.5,-5.));
#1639=CARTESIAN_POINT('',(5.12500000000001,90.5,-10.));
#1640=CARTESIAN_POINT('Origin',(6.75000000000001,90.5,-5.));
#1641=CARTESIAN_POINT('Origin',(20.1733937586588,67.25,-10.));
#1642=CARTESIAN_POINT('',(18.5483937586588,67.25,-5.));
#1643=CARTESIAN_POINT('',(18.5483937586588,67.25,-10.));
#1644=CARTESIAN_POINT('Origin',(20.1733937586588,67.25,-5.));
#1645=CARTESIAN_POINT('Origin',(-6.6733937586588,67.25,-10.));
#1646=CARTESIAN_POINT('',(-8.2983937586588,67.25,-5.));
#1647=CARTESIAN_POINT('',(-8.2983937586588,67.25,-10.));
#1648=CARTESIAN_POINT('Origin',(-6.6733937586588,67.25,-5.));
#1649=CARTESIAN_POINT('Origin',(6.75,59.5,-10.));
#1650=CARTESIAN_POINT('',(5.125,59.5,-5.));
#1651=CARTESIAN_POINT('',(5.125,59.5,-10.));
#1652=CARTESIAN_POINT('Origin',(6.75,59.5,-5.));
#1653=CARTESIAN_POINT('Origin',(-6.6733937586588,82.75,-10.));
#1654=CARTESIAN_POINT('',(-8.2983937586588,82.75,-5.));
#1655=CARTESIAN_POINT('',(-8.2983937586588,82.75,-10.));
#1656=CARTESIAN_POINT('Origin',(-6.6733937586588,82.75,-5.));
#1657=CARTESIAN_POINT('Origin',(20.1733937586588,82.75,-10.));
#1658=CARTESIAN_POINT('',(18.5483937586588,82.75,-5.));
#1659=CARTESIAN_POINT('',(18.5483937586588,82.75,-10.));
#1660=CARTESIAN_POINT('Origin',(20.1733937586588,82.75,-5.));
#1661=CARTESIAN_POINT('Origin',(13.75,75.,0.));
#1662=CARTESIAN_POINT('',(13.75,81.5,-5.));
#1663=CARTESIAN_POINT('',(13.75,81.5,0.));
#1664=CARTESIAN_POINT('',(13.75,68.5,-5.));
#1665=CARTESIAN_POINT('Origin',(13.75,75.,-5.));
#1666=CARTESIAN_POINT('',(13.75,68.5,0.));
#1667=CARTESIAN_POINT('Origin',(-6.75,81.5,0.));
#1668=CARTESIAN_POINT('',(-0.250000000000002,81.5,-5.));
#1669=CARTESIAN_POINT('',(-0.250000000000002,81.5,0.));
#1670=CARTESIAN_POINT('',(-3.375,81.5,-5.));
#1671=CARTESIAN_POINT('Origin',(-0.250000000000004,75.,0.));
#1672=CARTESIAN_POINT('',(-0.250000000000004,68.5,-5.));
#1673=CARTESIAN_POINT('',(-0.250000000000004,68.5,0.));
#1674=CARTESIAN_POINT('Origin',(-0.250000000000004,75.,-5.));
#1675=CARTESIAN_POINT('Origin',(20.25,68.5,0.));
#1676=CARTESIAN_POINT('',(10.125,68.5,-5.));
#1677=CARTESIAN_POINT('Origin',(16.351579506619,148.261006055534,0.));
#1678=CARTESIAN_POINT('',(16.351579506619,148.261006055534,-4.99999999999999));
#1679=CARTESIAN_POINT('',(18.4073847462464,144.714599684283,-4.99999999999999));
#1680=CARTESIAN_POINT('',(47.5440794734885,94.4517840118039,-4.99999999999999));
#1681=CARTESIAN_POINT('',(16.351579506619,148.261006055534,12.));
#1682=CARTESIAN_POINT('',(16.351579506619,148.261006055534,0.));
#1683=CARTESIAN_POINT('',(18.4073847462464,144.714599684283,12.));
#1684=CARTESIAN_POINT('',(16.351579506619,148.261006055534,12.));
#1685=CARTESIAN_POINT('',(18.4073847462464,144.714599684283,0.));
#1686=CARTESIAN_POINT('Origin',(18.4073847462464,144.714599684283,0.));
#1687=CARTESIAN_POINT('',(22.5065653757069,144.721776061407,-4.99999999999999));
#1688=CARTESIAN_POINT('',(9.07266937479947,144.698257531079,-4.99999999999999));
#1689=CARTESIAN_POINT('',(22.5065653757069,144.721776061407,12.));
#1690=CARTESIAN_POINT('',(18.4073847462464,144.714599684283,12.));
#1691=CARTESIAN_POINT('',(22.5065653757069,144.721776061407,0.));
#1692=CARTESIAN_POINT('Origin',(22.5065653757069,144.721776061407,0.));
#1693=CARTESIAN_POINT('',(24.5499407655402,148.275358809784,-4.99999999999999));
#1694=CARTESIAN_POINT('',(-12.6396990070448,83.5997916224097,-4.99999999999999));
#1695=CARTESIAN_POINT('',(24.5499407655402,148.275358809784,12.));
#1696=CARTESIAN_POINT('',(22.5065653757069,144.721776061407,12.));
#1697=CARTESIAN_POINT('',(24.5499407655402,148.275358809784,0.));
#1698=CARTESIAN_POINT('Origin',(24.5499407655402,148.275358809784,0.));
#1699=CARTESIAN_POINT('',(22.4941355259128,151.821765181035,-4.99999999999999));
#1700=CARTESIAN_POINT('',(54.714538112596,96.2393399516789,-4.99999999999999));
#1701=CARTESIAN_POINT('',(22.4941355259128,151.821765181035,12.));
#1702=CARTESIAN_POINT('',(24.5499407655402,148.275358809784,12.));
#1703=CARTESIAN_POINT('',(22.4941355259128,151.821765181035,0.));
#1704=CARTESIAN_POINT('Origin',(18.3949548964522,151.814588803911,0.));
#1705=CARTESIAN_POINT('',(18.3949548964522,151.814588803911,-4.99999999999999));
#1706=CARTESIAN_POINT('',(-17.7729971812162,88.9158129907249,-4.99999999999999));
#1707=CARTESIAN_POINT('',(18.3949548964522,151.814588803911,12.));
#1708=CARTESIAN_POINT('',(18.3949548964522,151.814588803911,0.));
#1709=CARTESIAN_POINT('',(18.3949548964522,151.814588803911,12.));
#1710=CARTESIAN_POINT('Origin',(22.4941355259128,151.821765181035,0.));
#1711=CARTESIAN_POINT('',(11.1098298397353,151.801834839269,-4.99999999999999));
#1712=CARTESIAN_POINT('',(22.4941355259128,151.821765181035,12.));
#1713=CARTESIAN_POINT('Origin',(20.4507601360796,148.268182432659,12.));
#1714=CARTESIAN_POINT('',(18.3257601360796,148.268182432659,12.));
#1715=CARTESIAN_POINT('Origin',(20.4507601360796,148.268182432659,12.));
#1716=CARTESIAN_POINT('Origin',(-19.5058644740872,144.714599684283,0.));
#1717=CARTESIAN_POINT('',(-19.5058644740872,144.714599684283,-4.99999999999999));
#1718=CARTESIAN_POINT('',(-17.4500592344598,148.261006055534,-4.99999999999999));
#1719=CARTESIAN_POINT('',(-49.5323182924217,92.9168879775368,-4.99999999999999));
#1720=CARTESIAN_POINT('',(-19.5058644740872,144.714599684283,12.));
#1721=CARTESIAN_POINT('',(-19.5058644740872,144.714599684283,0.));
#1722=CARTESIAN_POINT('',(-17.4500592344598,148.261006055534,12.));
#1723=CARTESIAN_POINT('',(-17.4500592344598,148.261006055534,12.));
#1724=CARTESIAN_POINT('',(-17.4500592344598,148.261006055534,0.));
#1725=CARTESIAN_POINT('Origin',(-17.4500592344598,148.261006055534,0.));
#1726=CARTESIAN_POINT('',(-19.4934346242931,151.814588803911,-4.99999999999999));
#1727=CARTESIAN_POINT('',(17.8326832348913,86.9016760086352,-4.99999999999999));
#1728=CARTESIAN_POINT('',(-19.4934346242931,151.814588803911,12.));
#1729=CARTESIAN_POINT('',(-19.4934346242931,151.814588803911,12.));
#1730=CARTESIAN_POINT('',(-19.4934346242931,151.814588803911,0.));
#1731=CARTESIAN_POINT('Origin',(-19.4934346242931,151.814588803911,0.));
#1732=CARTESIAN_POINT('',(-23.5926152537536,151.821765181035,-4.99999999999999));
#1733=CARTESIAN_POINT('',(-9.60948107228587,151.79728510725,-4.99999999999999));
#1734=CARTESIAN_POINT('',(-23.5926152537536,151.821765181035,12.));
#1735=CARTESIAN_POINT('',(-23.5926152537536,151.821765181035,12.));
#1736=CARTESIAN_POINT('',(-23.5926152537536,151.821765181035,0.));
#1737=CARTESIAN_POINT('Origin',(-23.5926152537536,151.821765181035,0.));
#1738=CARTESIAN_POINT('',(-25.648420493381,148.275358809784,-4.99999999999999));
#1739=CARTESIAN_POINT('',(-54.6469716919018,98.2508502886635,-4.99999999999999));
#1740=CARTESIAN_POINT('',(-25.648420493381,148.275358809784,12.));
#1741=CARTESIAN_POINT('',(-25.648420493381,148.275358809784,12.));
#1742=CARTESIAN_POINT('',(-25.648420493381,148.275358809784,0.));
#1743=CARTESIAN_POINT('Origin',(-23.6050451035478,144.721776061407,0.));
#1744=CARTESIAN_POINT('',(-23.6050451035478,144.721776061407,-4.99999999999999));
#1745=CARTESIAN_POINT('',(-11.6715012368103,144.700884176184,-4.99999999999999));
#1746=CARTESIAN_POINT('',(-23.6050451035478,144.721776061407,12.));
#1747=CARTESIAN_POINT('',(-23.6050451035478,144.721776061407,0.));
#1748=CARTESIAN_POINT('',(-19.5058644740872,144.714599684283,12.));
#1749=CARTESIAN_POINT('Origin',(-25.648420493381,148.275358809784,0.));
#1750=CARTESIAN_POINT('',(10.6560096708867,85.1392373886963,-4.99999999999999));
#1751=CARTESIAN_POINT('',(-23.6050451035478,144.721776061407,12.));
#1752=CARTESIAN_POINT('Origin',(-21.5492398639204,148.268182432659,12.));
#1753=CARTESIAN_POINT('',(-23.6742398639204,148.268182432659,12.));
#1754=CARTESIAN_POINT('Origin',(-21.5492398639204,148.268182432659,12.));
#1755=CARTESIAN_POINT('Origin',(-21.5492398639204,148.268182432659,-2.75));
#1756=CARTESIAN_POINT('',(-23.6742398639204,148.268182432659,18.75));
#1757=CARTESIAN_POINT('Origin',(-21.5492398639204,148.268182432659,18.75));
#1758=CARTESIAN_POINT('',(-23.6742398639204,148.268182432659,-2.75));
#1759=CARTESIAN_POINT('Origin',(20.4507601360796,148.268182432659,-2.75));
#1760=CARTESIAN_POINT('',(18.3257601360796,148.268182432659,18.75));
#1761=CARTESIAN_POINT('Origin',(20.4507601360796,148.268182432659,18.75));
#1762=CARTESIAN_POINT('',(18.3257601360796,148.268182432659,-2.75));
#1763=CARTESIAN_POINT('Origin',(15.,6.5,-12.5));
#1764=CARTESIAN_POINT('',(13.375,6.5,-5.));
#1765=CARTESIAN_POINT('',(13.375,6.5,-12.5));
#1766=CARTESIAN_POINT('Origin',(15.,6.5,-5.));
#1767=CARTESIAN_POINT('Origin',(-15.,30.5,-12.5));
#1768=CARTESIAN_POINT('',(-16.625,30.5,-5.));
#1769=CARTESIAN_POINT('',(-16.625,30.5,-12.5));
#1770=CARTESIAN_POINT('Origin',(-15.,30.5,-5.));
#1771=CARTESIAN_POINT('Origin',(-15.,6.5,-12.5));
#1772=CARTESIAN_POINT('',(-16.625,6.5,-5.));
#1773=CARTESIAN_POINT('',(-16.625,6.5,-12.5));
#1774=CARTESIAN_POINT('Origin',(-15.,6.5,-5.));
#1775=CARTESIAN_POINT('Origin',(15.,30.5,-12.5));
#1776=CARTESIAN_POINT('',(13.375,30.5,-5.));
#1777=CARTESIAN_POINT('',(13.375,30.5,-12.5));
#1778=CARTESIAN_POINT('Origin',(15.,30.5,-5.));
#1779=CARTESIAN_POINT('Origin',(0.,155.,18.75));
#1780=CARTESIAN_POINT('',(29.9739470207045,155.,18.75));
#1781=CARTESIAN_POINT('',(29.9739470207045,0.,18.75));
#1782=CARTESIAN_POINT('',(-29.9739470207045,155.,18.75));
#1783=CARTESIAN_POINT('',(0.,155.,18.75));
#1784=CARTESIAN_POINT('',(-29.9739470207045,0.,18.75));
#1785=CARTESIAN_POINT('',(-30.,141.8,18.75));
#1786=CARTESIAN_POINT('',(-30.,141.8,18.75));
#1787=CARTESIAN_POINT('',(30.,141.8,18.75));
#1788=CARTESIAN_POINT('',(0.,141.8,18.75));
#1789=CARTESIAN_POINT('',(30.,141.8,18.75));
#1790=CARTESIAN_POINT('Origin',(-30.,148.4,9.37499999999999));
#1791=CARTESIAN_POINT('',(-30.,141.8,-8.56028112604E-15));
#1792=CARTESIAN_POINT('Origin',(0.,141.8,18.75));
#1793=CARTESIAN_POINT('',(30.,141.8,-8.56028112604E-15));
#1794=CARTESIAN_POINT('Origin',(30.,148.4,9.37499999999999));
#1795=CARTESIAN_POINT('Origin',(0.,0.,20.));
#1796=CARTESIAN_POINT('Origin',(0.,-5.,20.));
#1797=CARTESIAN_POINT('Origin',(0.,0.,20.));
#1798=CARTESIAN_POINT('Origin',(0.,155.,20.));
#1799=CARTESIAN_POINT('Origin',(-35.,75.,25.));
#1800=CARTESIAN_POINT('',(-35.,155.,55.));
#1801=CARTESIAN_POINT('',(-35.,155.,55.));
#1802=CARTESIAN_POINT('',(-35.,155.,-4.99999999999999));
#1803=CARTESIAN_POINT('',(-35.,155.,-4.99999999999999));
#1804=CARTESIAN_POINT('',(-35.,-5.,-5.));
#1805=CARTESIAN_POINT('',(-35.,-5.,-5.));
#1806=CARTESIAN_POINT('',(-35.,-5.,55.));
#1807=CARTESIAN_POINT('',(-35.,-5.,55.));
#1808=CARTESIAN_POINT('',(-35.,0.,55.));
#1809=CARTESIAN_POINT('Origin',(0.,155.,-4.99999999999999));
#1810=CARTESIAN_POINT('',(35.,155.,55.));
#1811=CARTESIAN_POINT('',(0.,155.,55.));
#1812=CARTESIAN_POINT('',(35.,155.,-4.99999999999999));
#1813=CARTESIAN_POINT('',(35.,155.,-4.99999999999999));
#1814=CARTESIAN_POINT('',(0.,155.,-4.99999999999999));
#1815=CARTESIAN_POINT('Origin',(0.,-5.,-5.));
#1816=CARTESIAN_POINT('',(35.,-5.,-5.));
#1817=CARTESIAN_POINT('',(35.,-5.,-5.));
#1818=CARTESIAN_POINT('',(0.,-5.,-5.));
#1819=CARTESIAN_POINT('Origin',(0.,-5.,55.));
#1820=CARTESIAN_POINT('',(35.,-5.,55.));
#1821=CARTESIAN_POINT('',(35.,-5.,55.));
#1822=CARTESIAN_POINT('',(0.,-5.,55.));
#1823=CARTESIAN_POINT('Origin',(0.,0.,55.));
#1824=CARTESIAN_POINT('',(35.,0.,55.));
#1825=CARTESIAN_POINT('Origin',(0.,155.,55.));
#1826=CARTESIAN_POINT('',(35.,155.,55.));
#1827=CARTESIAN_POINT('Origin',(35.,75.,25.));
#1828=UNCERTAINTY_MEASURE_WITH_UNIT(LENGTH_MEASURE(0.01),#1832,
'DISTANCE_ACCURACY_VALUE',
'Maximum model space distance between geometric entities at asserted c
onnectivities');
#1829=UNCERTAINTY_MEASURE_WITH_UNIT(LENGTH_MEASURE(0.01),#1832,
'DISTANCE_ACCURACY_VALUE',
'Maximum model space distance between geometric entities at asserted c
onnectivities');
#1830=(
GEOMETRIC_REPRESENTATION_CONTEXT(3)
GLOBAL_UNCERTAINTY_ASSIGNED_CONTEXT((#1828))
GLOBAL_UNIT_ASSIGNED_CONTEXT((#1832,#1834,#1835))
REPRESENTATION_CONTEXT('','3D')
);
#1831=(
GEOMETRIC_REPRESENTATION_CONTEXT(3)
GLOBAL_UNCERTAINTY_ASSIGNED_CONTEXT((#1829))
GLOBAL_UNIT_ASSIGNED_CONTEXT((#1832,#1834,#1835))
REPRESENTATION_CONTEXT('','3D')
);
#1832=(
LENGTH_UNIT()
NAMED_UNIT(*)
SI_UNIT(.MILLI.,.METRE.)
);
#1833=(
LENGTH_UNIT()
NAMED_UNIT(*)
SI_UNIT($,.METRE.)
);
#1834=(
NAMED_UNIT(*)
PLANE_ANGLE_UNIT()
SI_UNIT($,.RADIAN.)
);
#1835=(
NAMED_UNIT(*)
SI_UNIT($,.STERADIAN.)
SOLID_ANGLE_UNIT()
);
#1836=SHAPE_DEFINITION_REPRESENTATION(#1837,#1838);
#1837=PRODUCT_DEFINITION_SHAPE('',$,#1840);
#1838=SHAPE_REPRESENTATION('',(#1124),#1830);
#1839=PRODUCT_DEFINITION_CONTEXT('part definition',#1844,'design');
#1840=PRODUCT_DEFINITION('Design 2','Design 2 v3',#1841,#1839);
#1841=PRODUCT_DEFINITION_FORMATION('',$,#1846);
#1842=PRODUCT_RELATED_PRODUCT_CATEGORY('Design 2 v3','Design 2 v3',(#1846));
#1843=APPLICATION_PROTOCOL_DEFINITION('international standard',
'automotive_design',2009,#1844);
#1844=APPLICATION_CONTEXT(
'Core Data for Automotive Mechanical Design Process');
#1845=PRODUCT_CONTEXT('part definition',#1844,'mechanical');
#1846=PRODUCT('Design 2','Design 2 v3',$,(#1845));
#1847=PRESENTATION_STYLE_ASSIGNMENT((#1849));
#1848=PRESENTATION_STYLE_ASSIGNMENT((#1850));
#1849=SURFACE_STYLE_USAGE(.BOTH.,#1851);
#1850=SURFACE_STYLE_USAGE(.BOTH.,#1852);
#1851=SURFACE_SIDE_STYLE('',(#1853));
#1852=SURFACE_SIDE_STYLE('',(#1854));
#1853=SURFACE_STYLE_FILL_AREA(#1855);
#1854=SURFACE_STYLE_FILL_AREA(#1856);
#1855=FILL_AREA_STYLE('Steel - Satin',(#1857));
#1856=FILL_AREA_STYLE('Steel - Satin (1)',(#1858));
#1857=FILL_AREA_STYLE_COLOUR('Steel - Satin',#1859);
#1858=FILL_AREA_STYLE_COLOUR('Steel - Satin (1)',#1860);
#1859=COLOUR_RGB('Steel - Satin',0.627450980392157,0.627450980392157,0.627450980392157);
#1860=COLOUR_RGB('Steel - Satin (1)',0.843137254901961,0.0823529411764706,
0.0823529411764706);
ENDSEC;
END-ISO-10303-21;
