ISO-10303-21;
HEADER;
/* Generated by software containing ST-Developer
 * from STEP Tools, Inc. (www.steptools.com) 
 */

FILE_DESCRIPTION(
/* description */ (''),
/* implementation_level */ '2;1');

FILE_NAME(
/* name */ 'Stand - Motor side.step',
/* time_stamp */ '2026-07-20T22:02:21+07:00',
/* author */ (''),
/* organization */ (''),
/* preprocessor_version */ 'ST-DEVELOPER v20.1',
/* originating_system */ 'Autodesk Translation Framework v15.8.0.0',
/* authorisation */ '');

FILE_SCHEMA (('AUTOMOTIVE_DESIGN { 1 0 10303 214 3 1 1 }'));
ENDSEC;

DATA;
#10=MECHANICAL_DESIGN_GEOMETRIC_PRESENTATION_REPRESENTATION('',(#13),#798);
#11=SHAPE_REPRESENTATION_RELATIONSHIP('SRR','None',#805,#12);
#12=ADVANCED_BREP_SHAPE_REPRESENTATION('',(#14),#797);
#13=STYLED_ITEM('',(#814),#14);
#14=MANIFOLD_SOLID_BREP('Body1',#456);
#15=FACE_BOUND('',#77,.T.);
#16=FACE_BOUND('',#78,.T.);
#17=FACE_BOUND('',#79,.T.);
#18=FACE_BOUND('',#80,.T.);
#19=FACE_BOUND('',#81,.T.);
#20=FACE_BOUND('',#89,.T.);
#21=FACE_BOUND('',#90,.T.);
#22=FACE_BOUND('',#91,.T.);
#23=FACE_BOUND('',#92,.T.);
#24=FACE_BOUND('',#93,.T.);
#25=CIRCLE('',#475,3.125);
#26=CIRCLE('',#476,3.125);
#27=CIRCLE('',#478,1.625);
#28=CIRCLE('',#479,1.625);
#29=CIRCLE('',#480,1.625);
#30=CIRCLE('',#481,1.625);
#31=CIRCLE('',#487,1.625);
#32=CIRCLE('',#488,1.625);
#33=CIRCLE('',#489,1.625);
#34=CIRCLE('',#490,1.625);
#35=CYLINDRICAL_SURFACE('',#474,3.125);
#36=CYLINDRICAL_SURFACE('',#491,1.625);
#37=CYLINDRICAL_SURFACE('',#492,1.625);
#38=CYLINDRICAL_SURFACE('',#493,1.625);
#39=CYLINDRICAL_SURFACE('',#494,1.625);
#40=B_SPLINE_SURFACE_WITH_KNOTS('',3,3,((#629,#630,#631,#632),(#633,#634,
#635,#636),(#637,#638,#639,#640),(#641,#642,#643,#644)),.UNSPECIFIED.,.F.,
 .F.,.F.,(4,4),(4,4),(0.,1.),(0.,1.),.UNSPECIFIED.);
#41=B_SPLINE_SURFACE_WITH_KNOTS('',3,3,((#650,#651,#652,#653),(#654,#655,
#656,#657),(#658,#659,#660,#661),(#662,#663,#664,#665)),.UNSPECIFIED.,.F.,
 .F.,.F.,(4,4),(4,4),(0.,1.),(0.,1.),.UNSPECIFIED.);
#42=B_SPLINE_SURFACE_WITH_KNOTS('',3,3,((#707,#708,#709,#710),(#711,#712,
#713,#714),(#715,#716,#717,#718),(#719,#720,#721,#722)),.UNSPECIFIED.,.F.,
 .F.,.F.,(4,4),(4,4),(0.,1.),(0.,1.),.UNSPECIFIED.);
#43=B_SPLINE_SURFACE_WITH_KNOTS('',3,3,((#728,#729,#730,#731),(#732,#733,
#734,#735),(#736,#737,#738,#739),(#740,#741,#742,#743)),.UNSPECIFIED.,.F.,
 .F.,.F.,(4,4),(4,4),(0.,1.),(0.,1.),.UNSPECIFIED.);
#44=FACE_OUTER_BOUND('',#69,.T.);
#45=FACE_OUTER_BOUND('',#70,.T.);
#46=FACE_OUTER_BOUND('',#71,.T.);
#47=FACE_OUTER_BOUND('',#72,.T.);
#48=FACE_OUTER_BOUND('',#73,.T.);
#49=FACE_OUTER_BOUND('',#74,.T.);
#50=FACE_OUTER_BOUND('',#75,.T.);
#51=FACE_OUTER_BOUND('',#76,.T.);
#52=FACE_OUTER_BOUND('',#82,.T.);
#53=FACE_OUTER_BOUND('',#83,.T.);
#54=FACE_OUTER_BOUND('',#84,.T.);
#55=FACE_OUTER_BOUND('',#85,.T.);
#56=FACE_OUTER_BOUND('',#86,.T.);
#57=FACE_OUTER_BOUND('',#87,.T.);
#58=FACE_OUTER_BOUND('',#88,.T.);
#59=FACE_OUTER_BOUND('',#94,.T.);
#60=FACE_OUTER_BOUND('',#95,.T.);
#61=FACE_OUTER_BOUND('',#96,.T.);
#62=FACE_OUTER_BOUND('',#97,.T.);
#63=FACE_OUTER_BOUND('',#98,.T.);
#64=FACE_OUTER_BOUND('',#99,.T.);
#65=FACE_OUTER_BOUND('',#100,.T.);
#66=FACE_OUTER_BOUND('',#101,.T.);
#67=FACE_OUTER_BOUND('',#102,.T.);
#68=FACE_OUTER_BOUND('',#103,.T.);
#69=EDGE_LOOP('',(#297,#298,#299));
#70=EDGE_LOOP('',(#300,#301,#302));
#71=EDGE_LOOP('',(#303,#304,#305,#306));
#72=EDGE_LOOP('',(#307,#308,#309,#310));
#73=EDGE_LOOP('',(#311,#312,#313,#314));
#74=EDGE_LOOP('',(#315,#316,#317,#318));
#75=EDGE_LOOP('',(#319,#320,#321,#322));
#76=EDGE_LOOP('',(#323,#324,#325,#326));
#77=EDGE_LOOP('',(#327));
#78=EDGE_LOOP('',(#328));
#79=EDGE_LOOP('',(#329));
#80=EDGE_LOOP('',(#330));
#81=EDGE_LOOP('',(#331));
#82=EDGE_LOOP('',(#332,#333,#334));
#83=EDGE_LOOP('',(#335,#336,#337));
#84=EDGE_LOOP('',(#338,#339,#340,#341));
#85=EDGE_LOOP('',(#342,#343,#344,#345));
#86=EDGE_LOOP('',(#346,#347,#348,#349));
#87=EDGE_LOOP('',(#350,#351,#352,#353,#354,#355));
#88=EDGE_LOOP('',(#356,#357,#358,#359,#360,#361,#362,#363));
#89=EDGE_LOOP('',(#364));
#90=EDGE_LOOP('',(#365));
#91=EDGE_LOOP('',(#366));
#92=EDGE_LOOP('',(#367));
#93=EDGE_LOOP('',(#368));
#94=EDGE_LOOP('',(#369,#370,#371,#372));
#95=EDGE_LOOP('',(#373,#374,#375,#376));
#96=EDGE_LOOP('',(#377,#378,#379,#380));
#97=EDGE_LOOP('',(#381,#382,#383,#384));
#98=EDGE_LOOP('',(#385,#386,#387,#388));
#99=EDGE_LOOP('',(#389,#390,#391,#392,#393,#394,#395,#396));
#100=EDGE_LOOP('',(#397,#398,#399,#400));
#101=EDGE_LOOP('',(#401,#402,#403,#404,#405));
#102=EDGE_LOOP('',(#406,#407,#408,#409));
#103=EDGE_LOOP('',(#410,#411,#412,#413,#414));
#104=LINE('',#618,#153);
#105=LINE('',#620,#154);
#106=LINE('',#621,#155);
#107=LINE('',#625,#156);
#108=LINE('',#627,#157);
#109=LINE('',#628,#158);
#110=LINE('',#646,#159);
#111=LINE('',#648,#160);
#112=LINE('',#649,#161);
#113=LINE('',#666,#162);
#114=LINE('',#667,#163);
#115=LINE('',#670,#164);
#116=LINE('',#672,#165);
#117=LINE('',#673,#166);
#118=LINE('',#676,#167);
#119=LINE('',#678,#168);
#120=LINE('',#679,#169);
#121=LINE('',#684,#170);
#122=LINE('',#688,#171);
#123=LINE('',#689,#172);
#124=LINE('',#699,#173);
#125=LINE('',#703,#174);
#126=LINE('',#705,#175);
#127=LINE('',#706,#176);
#128=LINE('',#724,#177);
#129=LINE('',#726,#178);
#130=LINE('',#727,#179);
#131=LINE('',#744,#180);
#132=LINE('',#745,#181);
#133=LINE('',#748,#182);
#134=LINE('',#750,#183);
#135=LINE('',#751,#184);
#136=LINE('',#754,#185);
#137=LINE('',#756,#186);
#138=LINE('',#757,#187);
#139=LINE('',#760,#188);
#140=LINE('',#762,#189);
#141=LINE('',#763,#190);
#142=LINE('',#765,#191);
#143=LINE('',#767,#192);
#144=LINE('',#768,#193);
#145=LINE('',#778,#194);
#146=LINE('',#780,#195);
#147=LINE('',#782,#196);
#148=LINE('',#784,#197);
#149=LINE('',#786,#198);
#150=LINE('',#788,#199);
#151=LINE('',#791,#200);
#152=LINE('',#793,#201);
#153=VECTOR('',#505,10.);
#154=VECTOR('',#506,10.);
#155=VECTOR('',#507,152.151240547029);
#156=VECTOR('',#510,10.);
#157=VECTOR('',#511,152.151240547029);
#158=VECTOR('',#512,10.);
#159=VECTOR('',#513,10.);
#160=VECTOR('',#514,152.927353974627);
#161=VECTOR('',#515,10.);
#162=VECTOR('',#516,10.);
#163=VECTOR('',#517,10.);
#164=VECTOR('',#520,10.);
#165=VECTOR('',#521,10.);
#166=VECTOR('',#522,10.);
#167=VECTOR('',#525,10.);
#168=VECTOR('',#526,10.);
#169=VECTOR('',#527,10.);
#170=VECTOR('',#532,3.125);
#171=VECTOR('',#537,10.);
#172=VECTOR('',#538,10.);
#173=VECTOR('',#549,152.151240547029);
#174=VECTOR('',#552,10.);
#175=VECTOR('',#553,10.);
#176=VECTOR('',#554,152.151240547029);
#177=VECTOR('',#555,10.);
#178=VECTOR('',#556,10.);
#179=VECTOR('',#557,152.927353974627);
#180=VECTOR('',#558,10.);
#181=VECTOR('',#559,10.);
#182=VECTOR('',#562,10.);
#183=VECTOR('',#563,10.);
#184=VECTOR('',#564,10.);
#185=VECTOR('',#567,10.);
#186=VECTOR('',#568,10.);
#187=VECTOR('',#569,10.);
#188=VECTOR('',#572,10.);
#189=VECTOR('',#573,10.);
#190=VECTOR('',#574,10.);
#191=VECTOR('',#575,10.);
#192=VECTOR('',#576,10.);
#193=VECTOR('',#577,10.);
#194=VECTOR('',#588,1.625);
#195=VECTOR('',#591,1.625);
#196=VECTOR('',#594,1.625);
#197=VECTOR('',#597,1.625);
#198=VECTOR('',#600,10.);
#199=VECTOR('',#603,10.);
#200=VECTOR('',#608,10.);
#201=VECTOR('',#611,10.);
#202=VERTEX_POINT('',#616);
#203=VERTEX_POINT('',#617);
#204=VERTEX_POINT('',#619);
#205=VERTEX_POINT('',#623);
#206=VERTEX_POINT('',#624);
#207=VERTEX_POINT('',#626);
#208=VERTEX_POINT('',#645);
#209=VERTEX_POINT('',#647);
#210=VERTEX_POINT('',#669);
#211=VERTEX_POINT('',#671);
#212=VERTEX_POINT('',#675);
#213=VERTEX_POINT('',#677);
#214=VERTEX_POINT('',#681);
#215=VERTEX_POINT('',#683);
#216=VERTEX_POINT('',#687);
#217=VERTEX_POINT('',#690);
#218=VERTEX_POINT('',#692);
#219=VERTEX_POINT('',#694);
#220=VERTEX_POINT('',#696);
#221=VERTEX_POINT('',#701);
#222=VERTEX_POINT('',#702);
#223=VERTEX_POINT('',#704);
#224=VERTEX_POINT('',#723);
#225=VERTEX_POINT('',#725);
#226=VERTEX_POINT('',#747);
#227=VERTEX_POINT('',#749);
#228=VERTEX_POINT('',#753);
#229=VERTEX_POINT('',#755);
#230=VERTEX_POINT('',#759);
#231=VERTEX_POINT('',#761);
#232=VERTEX_POINT('',#764);
#233=VERTEX_POINT('',#766);
#234=VERTEX_POINT('',#769);
#235=VERTEX_POINT('',#771);
#236=VERTEX_POINT('',#773);
#237=VERTEX_POINT('',#775);
#238=EDGE_CURVE('',#202,#203,#104,.T.);
#239=EDGE_CURVE('',#204,#202,#105,.T.);
#240=EDGE_CURVE('',#203,#204,#106,.T.);
#241=EDGE_CURVE('',#205,#206,#107,.T.);
#242=EDGE_CURVE('',#205,#207,#108,.T.);
#243=EDGE_CURVE('',#206,#207,#109,.T.);
#244=EDGE_CURVE('',#208,#205,#110,.T.);
#245=EDGE_CURVE('',#208,#209,#111,.T.);
#246=EDGE_CURVE('',#207,#209,#112,.T.);
#247=EDGE_CURVE('',#203,#208,#113,.T.);
#248=EDGE_CURVE('',#209,#204,#114,.T.);
#249=EDGE_CURVE('',#210,#202,#115,.T.);
#250=EDGE_CURVE('',#210,#211,#116,.T.);
#251=EDGE_CURVE('',#204,#211,#117,.T.);
#252=EDGE_CURVE('',#212,#207,#118,.T.);
#253=EDGE_CURVE('',#212,#213,#119,.T.);
#254=EDGE_CURVE('',#213,#206,#120,.T.);
#255=EDGE_CURVE('',#214,#214,#25,.T.);
#256=EDGE_CURVE('',#214,#215,#121,.T.);
#257=EDGE_CURVE('',#215,#215,#26,.T.);
#258=EDGE_CURVE('',#203,#216,#122,.T.);
#259=EDGE_CURVE('',#216,#210,#123,.T.);
#260=EDGE_CURVE('',#217,#217,#27,.T.);
#261=EDGE_CURVE('',#218,#218,#28,.T.);
#262=EDGE_CURVE('',#219,#219,#29,.T.);
#263=EDGE_CURVE('',#220,#220,#30,.T.);
#264=EDGE_CURVE('',#216,#211,#124,.T.);
#265=EDGE_CURVE('',#221,#222,#125,.T.);
#266=EDGE_CURVE('',#223,#221,#126,.T.);
#267=EDGE_CURVE('',#222,#223,#127,.T.);
#268=EDGE_CURVE('',#222,#224,#128,.T.);
#269=EDGE_CURVE('',#223,#225,#129,.T.);
#270=EDGE_CURVE('',#224,#225,#130,.T.);
#271=EDGE_CURVE('',#224,#216,#131,.T.);
#272=EDGE_CURVE('',#211,#225,#132,.T.);
#273=EDGE_CURVE('',#226,#221,#133,.T.);
#274=EDGE_CURVE('',#226,#227,#134,.T.);
#275=EDGE_CURVE('',#227,#223,#135,.T.);
#276=EDGE_CURVE('',#225,#228,#136,.T.);
#277=EDGE_CURVE('',#228,#229,#137,.T.);
#278=EDGE_CURVE('',#229,#209,#138,.T.);
#279=EDGE_CURVE('',#230,#226,#139,.T.);
#280=EDGE_CURVE('',#231,#230,#140,.T.);
#281=EDGE_CURVE('',#213,#231,#141,.T.);
#282=EDGE_CURVE('',#232,#212,#142,.T.);
#283=EDGE_CURVE('',#233,#232,#143,.T.);
#284=EDGE_CURVE('',#227,#233,#144,.T.);
#285=EDGE_CURVE('',#234,#234,#31,.T.);
#286=EDGE_CURVE('',#235,#235,#32,.T.);
#287=EDGE_CURVE('',#236,#236,#33,.T.);
#288=EDGE_CURVE('',#237,#237,#34,.T.);
#289=EDGE_CURVE('',#237,#220,#145,.T.);
#290=EDGE_CURVE('',#236,#219,#146,.T.);
#291=EDGE_CURVE('',#235,#218,#147,.T.);
#292=EDGE_CURVE('',#234,#217,#148,.T.);
#293=EDGE_CURVE('',#230,#222,#149,.T.);
#294=EDGE_CURVE('',#231,#205,#150,.T.);
#295=EDGE_CURVE('',#232,#229,#151,.T.);
#296=EDGE_CURVE('',#233,#228,#152,.T.);
#297=ORIENTED_EDGE('',*,*,#238,.F.);
#298=ORIENTED_EDGE('',*,*,#239,.F.);
#299=ORIENTED_EDGE('',*,*,#240,.F.);
#300=ORIENTED_EDGE('',*,*,#241,.F.);
#301=ORIENTED_EDGE('',*,*,#242,.T.);
#302=ORIENTED_EDGE('',*,*,#243,.F.);
#303=ORIENTED_EDGE('',*,*,#244,.F.);
#304=ORIENTED_EDGE('',*,*,#245,.T.);
#305=ORIENTED_EDGE('',*,*,#246,.F.);
#306=ORIENTED_EDGE('',*,*,#242,.F.);
#307=ORIENTED_EDGE('',*,*,#247,.F.);
#308=ORIENTED_EDGE('',*,*,#240,.T.);
#309=ORIENTED_EDGE('',*,*,#248,.F.);
#310=ORIENTED_EDGE('',*,*,#245,.F.);
#311=ORIENTED_EDGE('',*,*,#239,.T.);
#312=ORIENTED_EDGE('',*,*,#249,.F.);
#313=ORIENTED_EDGE('',*,*,#250,.T.);
#314=ORIENTED_EDGE('',*,*,#251,.F.);
#315=ORIENTED_EDGE('',*,*,#243,.T.);
#316=ORIENTED_EDGE('',*,*,#252,.F.);
#317=ORIENTED_EDGE('',*,*,#253,.T.);
#318=ORIENTED_EDGE('',*,*,#254,.T.);
#319=ORIENTED_EDGE('',*,*,#255,.F.);
#320=ORIENTED_EDGE('',*,*,#256,.T.);
#321=ORIENTED_EDGE('',*,*,#257,.F.);
#322=ORIENTED_EDGE('',*,*,#256,.F.);
#323=ORIENTED_EDGE('',*,*,#238,.T.);
#324=ORIENTED_EDGE('',*,*,#258,.T.);
#325=ORIENTED_EDGE('',*,*,#259,.T.);
#326=ORIENTED_EDGE('',*,*,#249,.T.);
#327=ORIENTED_EDGE('',*,*,#257,.T.);
#328=ORIENTED_EDGE('',*,*,#260,.T.);
#329=ORIENTED_EDGE('',*,*,#261,.T.);
#330=ORIENTED_EDGE('',*,*,#262,.T.);
#331=ORIENTED_EDGE('',*,*,#263,.T.);
#332=ORIENTED_EDGE('',*,*,#259,.F.);
#333=ORIENTED_EDGE('',*,*,#264,.T.);
#334=ORIENTED_EDGE('',*,*,#250,.F.);
#335=ORIENTED_EDGE('',*,*,#265,.F.);
#336=ORIENTED_EDGE('',*,*,#266,.F.);
#337=ORIENTED_EDGE('',*,*,#267,.F.);
#338=ORIENTED_EDGE('',*,*,#268,.F.);
#339=ORIENTED_EDGE('',*,*,#267,.T.);
#340=ORIENTED_EDGE('',*,*,#269,.T.);
#341=ORIENTED_EDGE('',*,*,#270,.F.);
#342=ORIENTED_EDGE('',*,*,#271,.F.);
#343=ORIENTED_EDGE('',*,*,#270,.T.);
#344=ORIENTED_EDGE('',*,*,#272,.F.);
#345=ORIENTED_EDGE('',*,*,#264,.F.);
#346=ORIENTED_EDGE('',*,*,#266,.T.);
#347=ORIENTED_EDGE('',*,*,#273,.F.);
#348=ORIENTED_EDGE('',*,*,#274,.T.);
#349=ORIENTED_EDGE('',*,*,#275,.T.);
#350=ORIENTED_EDGE('',*,*,#276,.T.);
#351=ORIENTED_EDGE('',*,*,#277,.T.);
#352=ORIENTED_EDGE('',*,*,#278,.T.);
#353=ORIENTED_EDGE('',*,*,#248,.T.);
#354=ORIENTED_EDGE('',*,*,#251,.T.);
#355=ORIENTED_EDGE('',*,*,#272,.T.);
#356=ORIENTED_EDGE('',*,*,#279,.F.);
#357=ORIENTED_EDGE('',*,*,#280,.F.);
#358=ORIENTED_EDGE('',*,*,#281,.F.);
#359=ORIENTED_EDGE('',*,*,#253,.F.);
#360=ORIENTED_EDGE('',*,*,#282,.F.);
#361=ORIENTED_EDGE('',*,*,#283,.F.);
#362=ORIENTED_EDGE('',*,*,#284,.F.);
#363=ORIENTED_EDGE('',*,*,#274,.F.);
#364=ORIENTED_EDGE('',*,*,#255,.T.);
#365=ORIENTED_EDGE('',*,*,#285,.T.);
#366=ORIENTED_EDGE('',*,*,#286,.T.);
#367=ORIENTED_EDGE('',*,*,#287,.T.);
#368=ORIENTED_EDGE('',*,*,#288,.T.);
#369=ORIENTED_EDGE('',*,*,#288,.F.);
#370=ORIENTED_EDGE('',*,*,#289,.T.);
#371=ORIENTED_EDGE('',*,*,#263,.F.);
#372=ORIENTED_EDGE('',*,*,#289,.F.);
#373=ORIENTED_EDGE('',*,*,#287,.F.);
#374=ORIENTED_EDGE('',*,*,#290,.T.);
#375=ORIENTED_EDGE('',*,*,#262,.F.);
#376=ORIENTED_EDGE('',*,*,#290,.F.);
#377=ORIENTED_EDGE('',*,*,#286,.F.);
#378=ORIENTED_EDGE('',*,*,#291,.T.);
#379=ORIENTED_EDGE('',*,*,#261,.F.);
#380=ORIENTED_EDGE('',*,*,#291,.F.);
#381=ORIENTED_EDGE('',*,*,#285,.F.);
#382=ORIENTED_EDGE('',*,*,#292,.T.);
#383=ORIENTED_EDGE('',*,*,#260,.F.);
#384=ORIENTED_EDGE('',*,*,#292,.F.);
#385=ORIENTED_EDGE('',*,*,#265,.T.);
#386=ORIENTED_EDGE('',*,*,#293,.F.);
#387=ORIENTED_EDGE('',*,*,#279,.T.);
#388=ORIENTED_EDGE('',*,*,#273,.T.);
#389=ORIENTED_EDGE('',*,*,#247,.T.);
#390=ORIENTED_EDGE('',*,*,#244,.T.);
#391=ORIENTED_EDGE('',*,*,#294,.F.);
#392=ORIENTED_EDGE('',*,*,#280,.T.);
#393=ORIENTED_EDGE('',*,*,#293,.T.);
#394=ORIENTED_EDGE('',*,*,#268,.T.);
#395=ORIENTED_EDGE('',*,*,#271,.T.);
#396=ORIENTED_EDGE('',*,*,#258,.F.);
#397=ORIENTED_EDGE('',*,*,#241,.T.);
#398=ORIENTED_EDGE('',*,*,#254,.F.);
#399=ORIENTED_EDGE('',*,*,#281,.T.);
#400=ORIENTED_EDGE('',*,*,#294,.T.);
#401=ORIENTED_EDGE('',*,*,#282,.T.);
#402=ORIENTED_EDGE('',*,*,#252,.T.);
#403=ORIENTED_EDGE('',*,*,#246,.T.);
#404=ORIENTED_EDGE('',*,*,#278,.F.);
#405=ORIENTED_EDGE('',*,*,#295,.F.);
#406=ORIENTED_EDGE('',*,*,#283,.T.);
#407=ORIENTED_EDGE('',*,*,#295,.T.);
#408=ORIENTED_EDGE('',*,*,#277,.F.);
#409=ORIENTED_EDGE('',*,*,#296,.F.);
#410=ORIENTED_EDGE('',*,*,#284,.T.);
#411=ORIENTED_EDGE('',*,*,#296,.T.);
#412=ORIENTED_EDGE('',*,*,#276,.F.);
#413=ORIENTED_EDGE('',*,*,#269,.F.);
#414=ORIENTED_EDGE('',*,*,#275,.F.);
#415=PLANE('',#470);
#416=PLANE('',#471);
#417=PLANE('',#472);
#418=PLANE('',#473);
#419=PLANE('',#477);
#420=PLANE('',#482);
#421=PLANE('',#483);
#422=PLANE('',#484);
#423=PLANE('',#485);
#424=PLANE('',#486);
#425=PLANE('',#495);
#426=PLANE('',#496);
#427=PLANE('',#497);
#428=PLANE('',#498);
#429=PLANE('',#499);
#430=PLANE('',#500);
#431=ADVANCED_FACE('',(#44),#415,.T.);
#432=ADVANCED_FACE('',(#45),#416,.T.);
#433=ADVANCED_FACE('',(#46),#40,.T.);
#434=ADVANCED_FACE('',(#47),#41,.T.);
#435=ADVANCED_FACE('',(#48),#417,.T.);
#436=ADVANCED_FACE('',(#49),#418,.T.);
#437=ADVANCED_FACE('',(#50),#35,.F.);
#438=ADVANCED_FACE('',(#51,#15,#16,#17,#18,#19),#419,.T.);
#439=ADVANCED_FACE('',(#52),#420,.F.);
#440=ADVANCED_FACE('',(#53),#421,.F.);
#441=ADVANCED_FACE('',(#54),#42,.F.);
#442=ADVANCED_FACE('',(#55),#43,.F.);
#443=ADVANCED_FACE('',(#56),#422,.T.);
#444=ADVANCED_FACE('',(#57),#423,.T.);
#445=ADVANCED_FACE('',(#58,#20,#21,#22,#23,#24),#424,.F.);
#446=ADVANCED_FACE('',(#59),#36,.F.);
#447=ADVANCED_FACE('',(#60),#37,.F.);
#448=ADVANCED_FACE('',(#61),#38,.F.);
#449=ADVANCED_FACE('',(#62),#39,.F.);
#450=ADVANCED_FACE('',(#63),#425,.T.);
#451=ADVANCED_FACE('',(#64),#426,.T.);
#452=ADVANCED_FACE('',(#65),#427,.T.);
#453=ADVANCED_FACE('',(#66),#428,.T.);
#454=ADVANCED_FACE('',(#67),#429,.T.);
#455=ADVANCED_FACE('',(#68),#430,.T.);
#456=CLOSED_SHELL('',(#431,#432,#433,#434,#435,#436,#437,#438,#439,#440,
#441,#442,#443,#444,#445,#446,#447,#448,#449,#450,#451,#452,#453,#454,#455));
#457=DERIVED_UNIT_ELEMENT(#459,1.);
#458=DERIVED_UNIT_ELEMENT(#800,-3.);
#459=(
MASS_UNIT()
NAMED_UNIT(*)
SI_UNIT(.KILO.,.GRAM.)
);
#460=DERIVED_UNIT((#457,#458));
#461=MEASURE_REPRESENTATION_ITEM('density measure',
POSITIVE_RATIO_MEASURE(7850.),#460);
#462=PROPERTY_DEFINITION_REPRESENTATION(#467,#464);
#463=PROPERTY_DEFINITION_REPRESENTATION(#468,#465);
#464=REPRESENTATION('material name',(#466),#797);
#465=REPRESENTATION('density',(#461),#797);
#466=DESCRIPTIVE_REPRESENTATION_ITEM('Steel','Steel');
#467=PROPERTY_DEFINITION('material property','material name',#807);
#468=PROPERTY_DEFINITION('material property','density of part',#807);
#469=AXIS2_PLACEMENT_3D('',#614,#501,#502);
#470=AXIS2_PLACEMENT_3D('',#615,#503,#504);
#471=AXIS2_PLACEMENT_3D('',#622,#508,#509);
#472=AXIS2_PLACEMENT_3D('',#668,#518,#519);
#473=AXIS2_PLACEMENT_3D('',#674,#523,#524);
#474=AXIS2_PLACEMENT_3D('',#680,#528,#529);
#475=AXIS2_PLACEMENT_3D('',#682,#530,#531);
#476=AXIS2_PLACEMENT_3D('',#685,#533,#534);
#477=AXIS2_PLACEMENT_3D('',#686,#535,#536);
#478=AXIS2_PLACEMENT_3D('',#691,#539,#540);
#479=AXIS2_PLACEMENT_3D('',#693,#541,#542);
#480=AXIS2_PLACEMENT_3D('',#695,#543,#544);
#481=AXIS2_PLACEMENT_3D('',#697,#545,#546);
#482=AXIS2_PLACEMENT_3D('',#698,#547,#548);
#483=AXIS2_PLACEMENT_3D('',#700,#550,#551);
#484=AXIS2_PLACEMENT_3D('',#746,#560,#561);
#485=AXIS2_PLACEMENT_3D('',#752,#565,#566);
#486=AXIS2_PLACEMENT_3D('',#758,#570,#571);
#487=AXIS2_PLACEMENT_3D('',#770,#578,#579);
#488=AXIS2_PLACEMENT_3D('',#772,#580,#581);
#489=AXIS2_PLACEMENT_3D('',#774,#582,#583);
#490=AXIS2_PLACEMENT_3D('',#776,#584,#585);
#491=AXIS2_PLACEMENT_3D('',#777,#586,#587);
#492=AXIS2_PLACEMENT_3D('',#779,#589,#590);
#493=AXIS2_PLACEMENT_3D('',#781,#592,#593);
#494=AXIS2_PLACEMENT_3D('',#783,#595,#596);
#495=AXIS2_PLACEMENT_3D('',#785,#598,#599);
#496=AXIS2_PLACEMENT_3D('',#787,#601,#602);
#497=AXIS2_PLACEMENT_3D('',#789,#604,#605);
#498=AXIS2_PLACEMENT_3D('',#790,#606,#607);
#499=AXIS2_PLACEMENT_3D('',#792,#609,#610);
#500=AXIS2_PLACEMENT_3D('',#794,#612,#613);
#501=DIRECTION('axis',(0.,0.,1.));
#502=DIRECTION('refdir',(1.,0.,0.));
#503=DIRECTION('center_axis',(0.759256602365297,0.650791373455968,-1.79385161471564E-16));
#504=DIRECTION('ref_axis',(-2.36264210166536E-16,0.,-1.));
#505=DIRECTION('',(0.,0.,1.));
#506=DIRECTION('',(0.650791373455968,-0.759256602365297,0.));
#507=DIRECTION('',(-0.197172233970233,0.230034272965271,-0.952999130856124));
#508=DIRECTION('center_axis',(-0.759256602365297,-0.650791373455968,-1.59453476863613E-16));
#509=DIRECTION('ref_axis',(-2.10012631259143E-16,0.,1.));
#510=DIRECTION('',(0.,0.,-1.));
#511=DIRECTION('',(-0.197172233970233,0.230034272965271,-0.952999130856124));
#512=DIRECTION('',(-0.650791373455968,0.759256602365297,0.));
#513=DIRECTION('',(-0.650791373455966,-0.759256602365299,0.));
#514=DIRECTION('',(-0.20776524600028,0.240460508620396,-0.948162615983389));
#515=DIRECTION('',(0.,1.,0.));
#516=DIRECTION('',(-0.650791373455966,-0.759256602365299,0.));
#517=DIRECTION('',(1.,0.,0.));
#518=DIRECTION('center_axis',(0.,0.,1.));
#519=DIRECTION('ref_axis',(1.,0.,0.));
#520=DIRECTION('',(-1.,0.,0.));
#521=DIRECTION('',(0.650791373455968,0.759256602365297,0.));
#522=DIRECTION('',(1.,0.,0.));
#523=DIRECTION('center_axis',(0.,0.,1.));
#524=DIRECTION('ref_axis',(1.,0.,0.));
#525=DIRECTION('',(0.,1.,0.));
#526=DIRECTION('',(1.,0.,0.));
#527=DIRECTION('',(0.,1.,0.));
#528=DIRECTION('center_axis',(0.,1.,0.));
#529=DIRECTION('ref_axis',(-1.,0.,0.));
#530=DIRECTION('center_axis',(0.,1.,0.));
#531=DIRECTION('ref_axis',(-1.,0.,0.));
#532=DIRECTION('',(0.,1.,0.));
#533=DIRECTION('center_axis',(0.,-1.,0.));
#534=DIRECTION('ref_axis',(-1.,0.,0.));
#535=DIRECTION('center_axis',(0.,1.,0.));
#536=DIRECTION('ref_axis',(0.,0.,1.));
#537=DIRECTION('',(1.,0.,0.));
#538=DIRECTION('',(2.22740669517273E-16,0.,-1.));
#539=DIRECTION('center_axis',(0.,-1.,0.));
#540=DIRECTION('ref_axis',(0.,0.,-1.));
#541=DIRECTION('center_axis',(0.,-1.,0.));
#542=DIRECTION('ref_axis',(0.,0.,-1.));
#543=DIRECTION('center_axis',(0.,-1.,0.));
#544=DIRECTION('ref_axis',(0.,0.,-1.));
#545=DIRECTION('center_axis',(0.,-1.,0.));
#546=DIRECTION('ref_axis',(0.,0.,-1.));
#547=DIRECTION('center_axis',(0.759256602365297,-0.650791373455968,1.79385161471564E-16));
#548=DIRECTION('ref_axis',(2.36264210166536E-16,0.,-1.));
#549=DIRECTION('',(0.197172233970233,0.230034272965271,-0.952999130856124));
#550=DIRECTION('center_axis',(-0.759256602365297,0.650791373455968,1.59453476863613E-16));
#551=DIRECTION('ref_axis',(2.10012631259143E-16,0.,1.));
#552=DIRECTION('',(0.,-2.5986411443682E-16,1.));
#553=DIRECTION('',(-0.650791373455968,-0.759256602365297,0.));
#554=DIRECTION('',(0.197172233970233,0.230034272965271,-0.952999130856124));
#555=DIRECTION('',(-0.650791373455966,0.759256602365299,0.));
#556=DIRECTION('',(0.,1.,0.));
#557=DIRECTION('',(0.20776524600028,0.240460508620396,-0.948162615983389));
#558=DIRECTION('',(-0.650791373455966,0.759256602365299,0.));
#559=DIRECTION('',(1.,0.,0.));
#560=DIRECTION('center_axis',(0.,0.,1.));
#561=DIRECTION('ref_axis',(1.,0.,0.));
#562=DIRECTION('',(0.,1.,0.));
#563=DIRECTION('',(1.,0.,0.));
#564=DIRECTION('',(0.,1.,0.));
#565=DIRECTION('center_axis',(0.,1.,0.));
#566=DIRECTION('ref_axis',(0.,0.,1.));
#567=DIRECTION('',(0.,0.,-1.));
#568=DIRECTION('',(-1.,0.,5.55111512312578E-17));
#569=DIRECTION('',(0.,0.,1.));
#570=DIRECTION('center_axis',(0.,1.,0.));
#571=DIRECTION('ref_axis',(-1.,0.,0.));
#572=DIRECTION('',(0.,0.,-1.));
#573=DIRECTION('',(1.,0.,0.));
#574=DIRECTION('',(0.,0.,1.));
#575=DIRECTION('',(0.,0.,1.));
#576=DIRECTION('',(-1.,0.,5.55111512312578E-17));
#577=DIRECTION('',(0.,0.,-1.));
#578=DIRECTION('center_axis',(0.,1.,0.));
#579=DIRECTION('ref_axis',(0.,0.,-1.));
#580=DIRECTION('center_axis',(0.,1.,0.));
#581=DIRECTION('ref_axis',(0.,0.,-1.));
#582=DIRECTION('center_axis',(0.,1.,0.));
#583=DIRECTION('ref_axis',(0.,0.,-1.));
#584=DIRECTION('center_axis',(0.,1.,0.));
#585=DIRECTION('ref_axis',(0.,0.,-1.));
#586=DIRECTION('center_axis',(0.,1.,0.));
#587=DIRECTION('ref_axis',(0.,0.,-1.));
#588=DIRECTION('',(0.,1.,0.));
#589=DIRECTION('center_axis',(0.,1.,0.));
#590=DIRECTION('ref_axis',(0.,0.,-1.));
#591=DIRECTION('',(0.,1.,0.));
#592=DIRECTION('center_axis',(0.,1.,0.));
#593=DIRECTION('ref_axis',(0.,0.,-1.));
#594=DIRECTION('',(0.,1.,0.));
#595=DIRECTION('center_axis',(0.,1.,0.));
#596=DIRECTION('ref_axis',(0.,0.,-1.));
#597=DIRECTION('',(0.,1.,0.));
#598=DIRECTION('center_axis',(1.,0.,0.));
#599=DIRECTION('ref_axis',(0.,0.,-1.));
#600=DIRECTION('',(0.,1.,0.));
#601=DIRECTION('center_axis',(0.,0.,1.));
#602=DIRECTION('ref_axis',(1.,0.,0.));
#603=DIRECTION('',(0.,1.,0.));
#604=DIRECTION('center_axis',(-1.,0.,0.));
#605=DIRECTION('ref_axis',(0.,0.,1.));
#606=DIRECTION('center_axis',(-1.,0.,0.));
#607=DIRECTION('ref_axis',(0.,0.,1.));
#608=DIRECTION('',(0.,1.,0.));
#609=DIRECTION('center_axis',(-5.55111512312578E-17,0.,-1.));
#610=DIRECTION('ref_axis',(-1.,0.,5.55111512312578E-17));
#611=DIRECTION('',(0.,1.,0.));
#612=DIRECTION('center_axis',(1.,0.,0.));
#613=DIRECTION('ref_axis',(0.,0.,-1.));
#614=CARTESIAN_POINT('',(0.,0.,0.));
#615=CARTESIAN_POINT('Origin',(-46.7073055509668,25.,150.));
#616=CARTESIAN_POINT('',(-46.7073055509668,25.,5.));
#617=CARTESIAN_POINT('',(-46.7073055509668,25.,150.));
#618=CARTESIAN_POINT('',(-46.7073055509668,25.,40.));
#619=CARTESIAN_POINT('',(-76.7073055509668,60.,4.99999999999999));
#620=CARTESIAN_POINT('',(-47.5810526107621,26.0193715697611,5.));
#621=CARTESIAN_POINT('',(-46.7073055509668,25.,150.));
#622=CARTESIAN_POINT('Origin',(-50.,21.1585231427946,5.));
#623=CARTESIAN_POINT('',(-50.,21.1585231427946,150.));
#624=CARTESIAN_POINT('',(-50.,21.1585231427946,5.));
#625=CARTESIAN_POINT('',(-50.,21.1585231427946,5.));
#626=CARTESIAN_POINT('',(-80.0000000000001,56.1585231427946,5.));
#627=CARTESIAN_POINT('',(-50.,21.1585231427946,150.));
#628=CARTESIAN_POINT('',(-51.1255413411919,22.4716547075185,5.));
#629=CARTESIAN_POINT('Ctrl Pts',(-50.,21.1585231427946,150.));
#630=CARTESIAN_POINT('Ctrl Pts',(-60.,32.8251898094613,101.666666666667));
#631=CARTESIAN_POINT('Ctrl Pts',(-70.,44.4918564761279,53.3333333333333));
#632=CARTESIAN_POINT('Ctrl Pts',(-80.0000000000001,56.1585231427946,5.));
#633=CARTESIAN_POINT('Ctrl Pts',(-49.4090035604299,21.8480189889597,150.));
#634=CARTESIAN_POINT('Ctrl Pts',(-59.60600237362,33.7116844688164,101.666666666667));
#635=CARTESIAN_POINT('Ctrl Pts',(-69.80300118681,45.5753499486731,53.3333333333333));
#636=CARTESIAN_POINT('Ctrl Pts',(-80.0000000000001,57.4390154285297,5.));
#637=CARTESIAN_POINT('Ctrl Pts',(-48.8180071208599,22.5375148351247,150.));
#638=CARTESIAN_POINT('Ctrl Pts',(-59.2120047472399,34.5981791281715,101.666666666667));
#639=CARTESIAN_POINT('Ctrl Pts',(-69.60600237362,46.6588434212182,53.3333333333333));
#640=CARTESIAN_POINT('Ctrl Pts',(-80.0000000000001,58.7195077142649,5.));
#641=CARTESIAN_POINT('Ctrl Pts',(-48.2270106812898,23.2270106812898,150.));
#642=CARTESIAN_POINT('Ctrl Pts',(-58.8180071208599,35.4846737875265,101.666666666667));
#643=CARTESIAN_POINT('Ctrl Pts',(-69.40900356043,47.7423368937633,53.3333333333333));
#644=CARTESIAN_POINT('Ctrl Pts',(-80.0000000000001,60.,5.));
#645=CARTESIAN_POINT('',(-48.2270106812898,23.2270106812898,150.));
#646=CARTESIAN_POINT('',(-55.2273998352787,15.0598900016361,150.));
#647=CARTESIAN_POINT('',(-80.0000000000001,60.,5.));
#648=CARTESIAN_POINT('',(-48.2270106812898,23.2270106812898,150.));
#649=CARTESIAN_POINT('',(-80.0000000000001,0.,5.));
#650=CARTESIAN_POINT('Ctrl Pts',(-48.2270106812898,23.2270106812898,150.));
#651=CARTESIAN_POINT('Ctrl Pts',(-58.8180071208599,35.4846737875265,101.666666666667));
#652=CARTESIAN_POINT('Ctrl Pts',(-69.40900356043,47.7423368937633,53.3333333333333));
#653=CARTESIAN_POINT('Ctrl Pts',(-80.0000000000001,60.,4.99999999999999));
#654=CARTESIAN_POINT('Ctrl Pts',(-47.7204423045155,23.8180071208599,150.));
#655=CARTESIAN_POINT('Ctrl Pts',(-58.1144399308955,35.8786714139066,101.666666666667));
#656=CARTESIAN_POINT('Ctrl Pts',(-68.5084375572756,47.9393357069533,53.3333333333333));
#657=CARTESIAN_POINT('Ctrl Pts',(-78.9024351836557,60.,4.99999999999999));
#658=CARTESIAN_POINT('Ctrl Pts',(-47.2138739277411,24.4090035604299,150.));
#659=CARTESIAN_POINT('Ctrl Pts',(-57.4108727409312,36.2726690402866,101.666666666667));
#660=CARTESIAN_POINT('Ctrl Pts',(-67.6078715541212,48.1363345201433,53.3333333333333));
#661=CARTESIAN_POINT('Ctrl Pts',(-77.8048703673113,60.,4.99999999999999));
#662=CARTESIAN_POINT('Ctrl Pts',(-46.7073055509668,25.,150.));
#663=CARTESIAN_POINT('Ctrl Pts',(-56.7073055509668,36.6666666666667,101.666666666667));
#664=CARTESIAN_POINT('Ctrl Pts',(-66.7073055509668,48.3333333333333,53.3333333333333));
#665=CARTESIAN_POINT('Ctrl Pts',(-76.7073055509668,60.,4.99999999999999));
#666=CARTESIAN_POINT('',(-55.2273998352787,15.0598900016361,150.));
#667=CARTESIAN_POINT('',(-80.0000000000001,60.,5.));
#668=CARTESIAN_POINT('Origin',(-80.0000000000001,0.,5.));
#669=CARTESIAN_POINT('',(46.7073055509668,25.,5.));
#670=CARTESIAN_POINT('',(-40.,25.,5.));
#671=CARTESIAN_POINT('',(76.7073055509668,60.,4.99999999999999));
#672=CARTESIAN_POINT('',(13.6986996695856,-13.5100401949448,5.00000000000001));
#673=CARTESIAN_POINT('',(-80.0000000000001,60.,5.));
#674=CARTESIAN_POINT('Origin',(-80.0000000000001,0.,5.));
#675=CARTESIAN_POINT('',(-80.0000000000001,0.,5.));
#676=CARTESIAN_POINT('',(-80.0000000000001,0.,5.));
#677=CARTESIAN_POINT('',(-50.,0.,5.));
#678=CARTESIAN_POINT('',(-80.0000000000001,0.,5.));
#679=CARTESIAN_POINT('',(-50.,0.,5.));
#680=CARTESIAN_POINT('Origin',(0.,0.,110.));
#681=CARTESIAN_POINT('',(3.125,0.,110.));
#682=CARTESIAN_POINT('Origin',(0.,0.,110.));
#683=CARTESIAN_POINT('',(3.125,25.,110.));
#684=CARTESIAN_POINT('',(3.125,0.,110.));
#685=CARTESIAN_POINT('Origin',(0.,25.,110.));
#686=CARTESIAN_POINT('Origin',(0.,25.,75.));
#687=CARTESIAN_POINT('',(46.7073055509668,25.,150.));
#688=CARTESIAN_POINT('',(-50.,25.,150.));
#689=CARTESIAN_POINT('',(46.7073055509668,25.,40.));
#690=CARTESIAN_POINT('',(-5.5,25.,106.125));
#691=CARTESIAN_POINT('Origin',(-5.5,25.,104.5));
#692=CARTESIAN_POINT('',(5.5,25.,117.125));
#693=CARTESIAN_POINT('Origin',(5.5,25.,115.5));
#694=CARTESIAN_POINT('',(-5.5,25.,117.125));
#695=CARTESIAN_POINT('Origin',(-5.5,25.,115.5));
#696=CARTESIAN_POINT('',(5.5,25.,106.125));
#697=CARTESIAN_POINT('Origin',(5.5,25.,104.5));
#698=CARTESIAN_POINT('Origin',(46.7073055509668,25.,150.));
#699=CARTESIAN_POINT('',(46.7073055509668,25.,150.));
#700=CARTESIAN_POINT('Origin',(50.,21.1585231427946,5.));
#701=CARTESIAN_POINT('',(50.,21.1585231427946,5.));
#702=CARTESIAN_POINT('',(50.,21.1585231427946,150.));
#703=CARTESIAN_POINT('',(50.,21.1585231427946,77.5));
#704=CARTESIAN_POINT('',(80.0000000000001,56.1585231427946,5.));
#705=CARTESIAN_POINT('',(17.2431884000155,-17.0577570571874,5.));
#706=CARTESIAN_POINT('',(50.,21.1585231427946,150.));
#707=CARTESIAN_POINT('Ctrl Pts',(50.,21.1585231427946,150.));
#708=CARTESIAN_POINT('Ctrl Pts',(60.,32.8251898094613,101.666666666667));
#709=CARTESIAN_POINT('Ctrl Pts',(70.,44.4918564761279,53.3333333333333));
#710=CARTESIAN_POINT('Ctrl Pts',(80.0000000000001,56.1585231427946,5.));
#711=CARTESIAN_POINT('Ctrl Pts',(49.4090035604299,21.8480189889597,150.));
#712=CARTESIAN_POINT('Ctrl Pts',(59.60600237362,33.7116844688164,101.666666666667));
#713=CARTESIAN_POINT('Ctrl Pts',(69.80300118681,45.5753499486731,53.3333333333333));
#714=CARTESIAN_POINT('Ctrl Pts',(80.0000000000001,57.4390154285297,5.));
#715=CARTESIAN_POINT('Ctrl Pts',(48.8180071208599,22.5375148351247,150.));
#716=CARTESIAN_POINT('Ctrl Pts',(59.2120047472399,34.5981791281715,101.666666666667));
#717=CARTESIAN_POINT('Ctrl Pts',(69.60600237362,46.6588434212182,53.3333333333333));
#718=CARTESIAN_POINT('Ctrl Pts',(80.0000000000001,58.7195077142649,5.));
#719=CARTESIAN_POINT('Ctrl Pts',(48.2270106812898,23.2270106812898,150.));
#720=CARTESIAN_POINT('Ctrl Pts',(58.8180071208599,35.4846737875265,101.666666666667));
#721=CARTESIAN_POINT('Ctrl Pts',(69.40900356043,47.7423368937633,53.3333333333333));
#722=CARTESIAN_POINT('Ctrl Pts',(80.0000000000001,60.,5.));
#723=CARTESIAN_POINT('',(48.2270106812898,23.2270106812898,150.));
#724=CARTESIAN_POINT('',(32.4045820225269,41.68651078318,150.));
#725=CARTESIAN_POINT('',(80.0000000000001,60.,5.));
#726=CARTESIAN_POINT('',(80.0000000000001,0.,5.));
#727=CARTESIAN_POINT('',(48.2270106812898,23.2270106812898,150.));
#728=CARTESIAN_POINT('Ctrl Pts',(48.2270106812898,23.2270106812898,150.));
#729=CARTESIAN_POINT('Ctrl Pts',(58.8180071208599,35.4846737875265,101.666666666667));
#730=CARTESIAN_POINT('Ctrl Pts',(69.40900356043,47.7423368937633,53.3333333333333));
#731=CARTESIAN_POINT('Ctrl Pts',(80.0000000000001,60.,4.99999999999999));
#732=CARTESIAN_POINT('Ctrl Pts',(47.7204423045155,23.8180071208599,150.));
#733=CARTESIAN_POINT('Ctrl Pts',(58.1144399308955,35.8786714139066,101.666666666667));
#734=CARTESIAN_POINT('Ctrl Pts',(68.5084375572756,47.9393357069533,53.3333333333333));
#735=CARTESIAN_POINT('Ctrl Pts',(78.9024351836557,60.,4.99999999999999));
#736=CARTESIAN_POINT('Ctrl Pts',(47.2138739277411,24.4090035604299,150.));
#737=CARTESIAN_POINT('Ctrl Pts',(57.4108727409312,36.2726690402866,101.666666666667));
#738=CARTESIAN_POINT('Ctrl Pts',(67.6078715541212,48.1363345201433,53.3333333333333));
#739=CARTESIAN_POINT('Ctrl Pts',(77.8048703673113,60.,4.99999999999999));
#740=CARTESIAN_POINT('Ctrl Pts',(46.7073055509668,25.,150.));
#741=CARTESIAN_POINT('Ctrl Pts',(56.7073055509668,36.6666666666667,101.666666666667));
#742=CARTESIAN_POINT('Ctrl Pts',(66.7073055509668,48.3333333333333,53.3333333333333));
#743=CARTESIAN_POINT('Ctrl Pts',(76.7073055509668,60.,4.99999999999999));
#744=CARTESIAN_POINT('',(32.4045820225269,41.68651078318,150.));
#745=CARTESIAN_POINT('',(-80.0000000000001,60.,5.));
#746=CARTESIAN_POINT('Origin',(-80.0000000000001,0.,5.));
#747=CARTESIAN_POINT('',(50.,0.,5.));
#748=CARTESIAN_POINT('',(50.,0.,5.));
#749=CARTESIAN_POINT('',(80.0000000000001,0.,5.));
#750=CARTESIAN_POINT('',(-80.0000000000001,0.,5.));
#751=CARTESIAN_POINT('',(80.0000000000001,0.,5.));
#752=CARTESIAN_POINT('Origin',(0.,60.,2.5));
#753=CARTESIAN_POINT('',(80.0000000000001,60.,0.));
#754=CARTESIAN_POINT('',(80.0000000000001,60.,5.));
#755=CARTESIAN_POINT('',(-80.0000000000001,60.,8.88178419700125E-15));
#756=CARTESIAN_POINT('',(80.0000000000001,60.,0.));
#757=CARTESIAN_POINT('',(-80.0000000000001,60.,8.88178419700125E-15));
#758=CARTESIAN_POINT('Origin',(0.,0.,75.));
#759=CARTESIAN_POINT('',(50.,0.,150.));
#760=CARTESIAN_POINT('',(50.,0.,150.));
#761=CARTESIAN_POINT('',(-50.,0.,150.));
#762=CARTESIAN_POINT('',(-50.,0.,150.));
#763=CARTESIAN_POINT('',(-50.,0.,0.));
#764=CARTESIAN_POINT('',(-80.0000000000001,0.,8.88178419700125E-15));
#765=CARTESIAN_POINT('',(-80.0000000000001,0.,8.88178419700125E-15));
#766=CARTESIAN_POINT('',(80.0000000000001,0.,0.));
#767=CARTESIAN_POINT('',(80.0000000000001,0.,0.));
#768=CARTESIAN_POINT('',(80.0000000000001,0.,5.));
#769=CARTESIAN_POINT('',(-5.5,0.,106.125));
#770=CARTESIAN_POINT('Origin',(-5.5,0.,104.5));
#771=CARTESIAN_POINT('',(5.5,0.,117.125));
#772=CARTESIAN_POINT('Origin',(5.5,0.,115.5));
#773=CARTESIAN_POINT('',(-5.5,0.,117.125));
#774=CARTESIAN_POINT('Origin',(-5.5,0.,115.5));
#775=CARTESIAN_POINT('',(5.5,0.,106.125));
#776=CARTESIAN_POINT('Origin',(5.5,0.,104.5));
#777=CARTESIAN_POINT('Origin',(5.5,30.,104.5));
#778=CARTESIAN_POINT('',(5.5,30.,106.125));
#779=CARTESIAN_POINT('Origin',(-5.5,30.,115.5));
#780=CARTESIAN_POINT('',(-5.5,30.,117.125));
#781=CARTESIAN_POINT('Origin',(5.5,30.,115.5));
#782=CARTESIAN_POINT('',(5.5,30.,117.125));
#783=CARTESIAN_POINT('Origin',(-5.5,30.,104.5));
#784=CARTESIAN_POINT('',(-5.5,30.,106.125));
#785=CARTESIAN_POINT('Origin',(50.,0.,150.));
#786=CARTESIAN_POINT('',(50.,0.,150.));
#787=CARTESIAN_POINT('Origin',(-50.,0.,150.));
#788=CARTESIAN_POINT('',(-50.,0.,150.));
#789=CARTESIAN_POINT('Origin',(-50.,0.,5.));
#790=CARTESIAN_POINT('Origin',(-80.0000000000001,0.,8.88178419700125E-15));
#791=CARTESIAN_POINT('',(-80.0000000000001,0.,8.88178419700125E-15));
#792=CARTESIAN_POINT('Origin',(80.0000000000001,0.,0.));
#793=CARTESIAN_POINT('',(80.0000000000001,0.,0.));
#794=CARTESIAN_POINT('Origin',(80.0000000000001,0.,5.));
#795=UNCERTAINTY_MEASURE_WITH_UNIT(LENGTH_MEASURE(0.01),#799,
'DISTANCE_ACCURACY_VALUE',
'Maximum model space distance between geometric entities at asserted c
onnectivities');
#796=UNCERTAINTY_MEASURE_WITH_UNIT(LENGTH_MEASURE(0.01),#799,
'DISTANCE_ACCURACY_VALUE',
'Maximum model space distance between geometric entities at asserted c
onnectivities');
#797=(
GEOMETRIC_REPRESENTATION_CONTEXT(3)
GLOBAL_UNCERTAINTY_ASSIGNED_CONTEXT((#795))
GLOBAL_UNIT_ASSIGNED_CONTEXT((#799,#801,#802))
REPRESENTATION_CONTEXT('','3D')
);
#798=(
GEOMETRIC_REPRESENTATION_CONTEXT(3)
GLOBAL_UNCERTAINTY_ASSIGNED_CONTEXT((#796))
GLOBAL_UNIT_ASSIGNED_CONTEXT((#799,#801,#802))
REPRESENTATION_CONTEXT('','3D')
);
#799=(
LENGTH_UNIT()
NAMED_UNIT(*)
SI_UNIT(.MILLI.,.METRE.)
);
#800=(
LENGTH_UNIT()
NAMED_UNIT(*)
SI_UNIT($,.METRE.)
);
#801=(
NAMED_UNIT(*)
PLANE_ANGLE_UNIT()
SI_UNIT($,.RADIAN.)
);
#802=(
NAMED_UNIT(*)
SI_UNIT($,.STERADIAN.)
SOLID_ANGLE_UNIT()
);
#803=SHAPE_DEFINITION_REPRESENTATION(#804,#805);
#804=PRODUCT_DEFINITION_SHAPE('',$,#807);
#805=SHAPE_REPRESENTATION('',(#469),#797);
#806=PRODUCT_DEFINITION_CONTEXT('part definition',#811,'design');
#807=PRODUCT_DEFINITION('Stand - Motor side','Stand - Motor side v3',#808,
#806);
#808=PRODUCT_DEFINITION_FORMATION('',$,#813);
#809=PRODUCT_RELATED_PRODUCT_CATEGORY('Stand - Motor side v3',
'Stand - Motor side v3',(#813));
#810=APPLICATION_PROTOCOL_DEFINITION('international standard',
'automotive_design',2009,#811);
#811=APPLICATION_CONTEXT(
'Core Data for Automotive Mechanical Design Process');
#812=PRODUCT_CONTEXT('part definition',#811,'mechanical');
#813=PRODUCT('Stand - Motor side','Stand - Motor side v3',$,(#812));
#814=PRESENTATION_STYLE_ASSIGNMENT((#815));
#815=SURFACE_STYLE_USAGE(.BOTH.,#816);
#816=SURFACE_SIDE_STYLE('',(#817));
#817=SURFACE_STYLE_FILL_AREA(#818);
#818=FILL_AREA_STYLE('Steel - Satin',(#819));
#819=FILL_AREA_STYLE_COLOUR('Steel - Satin',#820);
#820=COLOUR_RGB('Steel - Satin',0.627450980392157,0.627450980392157,0.627450980392157);
ENDSEC;
END-ISO-10303-21;
