ISO-10303-21;
HEADER;
/* Generated by software containing ST-Developer
 * from STEP Tools, Inc. (www.steptools.com) 
 */

FILE_DESCRIPTION(
/* description */ (''),
/* implementation_level */ '2;1');

FILE_NAME(
/* name */ 'Stand - hello side.step',
/* time_stamp */ '2026-07-20T22:02:27+07:00',
/* author */ (''),
/* organization */ (''),
/* preprocessor_version */ 'ST-DEVELOPER v20.1',
/* originating_system */ 'Autodesk Translation Framework v15.8.0.0',
/* authorisation */ '');

FILE_SCHEMA (('AUTOMOTIVE_DESIGN { 1 0 10303 214 3 1 1 }'));
ENDSEC;

DATA;
#10=MECHANICAL_DESIGN_GEOMETRIC_PRESENTATION_REPRESENTATION('',(#13),#850);
#11=SHAPE_REPRESENTATION_RELATIONSHIP('SRR','None',#857,#12);
#12=ADVANCED_BREP_SHAPE_REPRESENTATION('',(#14),#849);
#13=STYLED_ITEM('',(#866),#14);
#14=MANIFOLD_SOLID_BREP('Body1',#496);
#15=CYLINDRICAL_SURFACE('',#522,4.125);
#16=B_SPLINE_SURFACE_WITH_KNOTS('',3,3,((#707,#708,#709,#710),(#711,#712,
#713,#714),(#715,#716,#717,#718),(#719,#720,#721,#722)),.UNSPECIFIED.,.F.,
 .F.,.F.,(4,4),(4,4),(0.,1.),(0.,1.),.UNSPECIFIED.);
#17=B_SPLINE_SURFACE_WITH_KNOTS('',3,3,((#728,#729,#730,#731),(#732,#733,
#734,#735),(#736,#737,#738,#739),(#740,#741,#742,#743)),.UNSPECIFIED.,.F.,
 .F.,.F.,(4,4),(4,4),(0.,1.),(0.,1.),.UNSPECIFIED.);
#18=B_SPLINE_SURFACE_WITH_KNOTS('',3,3,((#775,#776,#777,#778),(#779,#780,
#781,#782),(#783,#784,#785,#786),(#787,#788,#789,#790)),.UNSPECIFIED.,.F.,
 .F.,.F.,(4,4),(4,4),(0.,1.),(0.,1.),.UNSPECIFIED.);
#19=B_SPLINE_SURFACE_WITH_KNOTS('',3,3,((#796,#797,#798,#799),(#800,#801,
#802,#803),(#804,#805,#806,#807),(#808,#809,#810,#811)),.UNSPECIFIED.,.F.,
 .F.,.F.,(4,4),(4,4),(0.,1.),(0.,1.),.UNSPECIFIED.);
#20=FACE_BOUND('',#60,.T.);
#21=FACE_BOUND('',#69,.T.);
#22=FACE_BOUND('',#77,.T.);
#23=CIRCLE('',#517,4.125);
#24=CIRCLE('',#523,4.125);
#25=FACE_OUTER_BOUND('',#53,.T.);
#26=FACE_OUTER_BOUND('',#54,.T.);
#27=FACE_OUTER_BOUND('',#55,.T.);
#28=FACE_OUTER_BOUND('',#56,.T.);
#29=FACE_OUTER_BOUND('',#57,.T.);
#30=FACE_OUTER_BOUND('',#58,.T.);
#31=FACE_OUTER_BOUND('',#59,.T.);
#32=FACE_OUTER_BOUND('',#61,.T.);
#33=FACE_OUTER_BOUND('',#62,.T.);
#34=FACE_OUTER_BOUND('',#63,.T.);
#35=FACE_OUTER_BOUND('',#64,.T.);
#36=FACE_OUTER_BOUND('',#65,.T.);
#37=FACE_OUTER_BOUND('',#66,.T.);
#38=FACE_OUTER_BOUND('',#67,.T.);
#39=FACE_OUTER_BOUND('',#68,.T.);
#40=FACE_OUTER_BOUND('',#70,.T.);
#41=FACE_OUTER_BOUND('',#71,.T.);
#42=FACE_OUTER_BOUND('',#72,.T.);
#43=FACE_OUTER_BOUND('',#73,.T.);
#44=FACE_OUTER_BOUND('',#74,.T.);
#45=FACE_OUTER_BOUND('',#75,.T.);
#46=FACE_OUTER_BOUND('',#76,.T.);
#47=FACE_OUTER_BOUND('',#78,.T.);
#48=FACE_OUTER_BOUND('',#79,.T.);
#49=FACE_OUTER_BOUND('',#80,.T.);
#50=FACE_OUTER_BOUND('',#81,.T.);
#51=FACE_OUTER_BOUND('',#82,.T.);
#52=FACE_OUTER_BOUND('',#83,.T.);
#53=EDGE_LOOP('',(#315,#316,#317,#318));
#54=EDGE_LOOP('',(#319,#320,#321,#322));
#55=EDGE_LOOP('',(#323,#324,#325,#326));
#56=EDGE_LOOP('',(#327,#328,#329,#330));
#57=EDGE_LOOP('',(#331,#332,#333,#334));
#58=EDGE_LOOP('',(#335,#336,#337,#338));
#59=EDGE_LOOP('',(#339,#340,#341,#342,#343,#344));
#60=EDGE_LOOP('',(#345));
#61=EDGE_LOOP('',(#346,#347,#348));
#62=EDGE_LOOP('',(#349,#350,#351));
#63=EDGE_LOOP('',(#352,#353,#354,#355));
#64=EDGE_LOOP('',(#356,#357,#358,#359));
#65=EDGE_LOOP('',(#360,#361,#362,#363));
#66=EDGE_LOOP('',(#364,#365,#366,#367));
#67=EDGE_LOOP('',(#368,#369,#370,#371));
#68=EDGE_LOOP('',(#372,#373,#374,#375));
#69=EDGE_LOOP('',(#376));
#70=EDGE_LOOP('',(#377,#378,#379));
#71=EDGE_LOOP('',(#380,#381,#382));
#72=EDGE_LOOP('',(#383,#384,#385,#386));
#73=EDGE_LOOP('',(#387,#388,#389,#390));
#74=EDGE_LOOP('',(#391,#392,#393,#394));
#75=EDGE_LOOP('',(#395,#396,#397,#398,#399,#400));
#76=EDGE_LOOP('',(#401,#402,#403,#404,#405,#406,#407,#408));
#77=EDGE_LOOP('',(#409,#410,#411,#412,#413,#414));
#78=EDGE_LOOP('',(#415,#416,#417,#418));
#79=EDGE_LOOP('',(#419,#420,#421,#422,#423,#424,#425,#426));
#80=EDGE_LOOP('',(#427,#428,#429,#430));
#81=EDGE_LOOP('',(#431,#432,#433,#434,#435));
#82=EDGE_LOOP('',(#436,#437,#438,#439));
#83=EDGE_LOOP('',(#440,#441,#442,#443,#444));
#84=LINE('',#657,#147);
#85=LINE('',#659,#148);
#86=LINE('',#661,#149);
#87=LINE('',#662,#150);
#88=LINE('',#665,#151);
#89=LINE('',#667,#152);
#90=LINE('',#668,#153);
#91=LINE('',#671,#154);
#92=LINE('',#673,#155);
#93=LINE('',#674,#156);
#94=LINE('',#677,#157);
#95=LINE('',#679,#158);
#96=LINE('',#680,#159);
#97=LINE('',#683,#160);
#98=LINE('',#685,#161);
#99=LINE('',#686,#162);
#100=LINE('',#688,#163);
#101=LINE('',#689,#164);
#102=LINE('',#696,#165);
#103=LINE('',#698,#166);
#104=LINE('',#699,#167);
#105=LINE('',#703,#168);
#106=LINE('',#705,#169);
#107=LINE('',#706,#170);
#108=LINE('',#724,#171);
#109=LINE('',#726,#172);
#110=LINE('',#727,#173);
#111=LINE('',#744,#174);
#112=LINE('',#745,#175);
#113=LINE('',#748,#176);
#114=LINE('',#750,#177);
#115=LINE('',#751,#178);
#116=LINE('',#754,#179);
#117=LINE('',#756,#180);
#118=LINE('',#757,#181);
#119=LINE('',#760,#182);
#120=LINE('',#764,#183);
#121=LINE('',#765,#184);
#122=LINE('',#767,#185);
#123=LINE('',#771,#186);
#124=LINE('',#773,#187);
#125=LINE('',#774,#188);
#126=LINE('',#792,#189);
#127=LINE('',#794,#190);
#128=LINE('',#795,#191);
#129=LINE('',#812,#192);
#130=LINE('',#813,#193);
#131=LINE('',#816,#194);
#132=LINE('',#818,#195);
#133=LINE('',#819,#196);
#134=LINE('',#822,#197);
#135=LINE('',#824,#198);
#136=LINE('',#825,#199);
#137=LINE('',#828,#200);
#138=LINE('',#830,#201);
#139=LINE('',#831,#202);
#140=LINE('',#833,#203);
#141=LINE('',#835,#204);
#142=LINE('',#836,#205);
#143=LINE('',#838,#206);
#144=LINE('',#840,#207);
#145=LINE('',#843,#208);
#146=LINE('',#845,#209);
#147=VECTOR('',#540,10.);
#148=VECTOR('',#541,10.);
#149=VECTOR('',#542,10.);
#150=VECTOR('',#543,10.);
#151=VECTOR('',#546,10.);
#152=VECTOR('',#547,10.);
#153=VECTOR('',#548,10.);
#154=VECTOR('',#551,10.);
#155=VECTOR('',#552,10.);
#156=VECTOR('',#553,10.);
#157=VECTOR('',#556,10.);
#158=VECTOR('',#557,10.);
#159=VECTOR('',#558,10.);
#160=VECTOR('',#561,10.);
#161=VECTOR('',#562,10.);
#162=VECTOR('',#563,10.);
#163=VECTOR('',#566,10.);
#164=VECTOR('',#567,10.);
#165=VECTOR('',#574,10.);
#166=VECTOR('',#575,10.);
#167=VECTOR('',#576,152.151240547029);
#168=VECTOR('',#579,10.);
#169=VECTOR('',#580,152.151240547029);
#170=VECTOR('',#581,10.);
#171=VECTOR('',#582,10.);
#172=VECTOR('',#583,152.927353974627);
#173=VECTOR('',#584,10.);
#174=VECTOR('',#585,10.);
#175=VECTOR('',#586,10.);
#176=VECTOR('',#589,10.);
#177=VECTOR('',#590,10.);
#178=VECTOR('',#591,10.);
#179=VECTOR('',#594,10.);
#180=VECTOR('',#595,10.);
#181=VECTOR('',#596,10.);
#182=VECTOR('',#599,4.125);
#183=VECTOR('',#604,10.);
#184=VECTOR('',#605,10.);
#185=VECTOR('',#608,152.151240547029);
#186=VECTOR('',#611,10.);
#187=VECTOR('',#612,10.);
#188=VECTOR('',#613,152.151240547029);
#189=VECTOR('',#614,10.);
#190=VECTOR('',#615,10.);
#191=VECTOR('',#616,152.927353974627);
#192=VECTOR('',#617,10.);
#193=VECTOR('',#618,10.);
#194=VECTOR('',#621,10.);
#195=VECTOR('',#622,10.);
#196=VECTOR('',#623,10.);
#197=VECTOR('',#626,10.);
#198=VECTOR('',#627,10.);
#199=VECTOR('',#628,10.);
#200=VECTOR('',#631,10.);
#201=VECTOR('',#632,10.);
#202=VECTOR('',#633,10.);
#203=VECTOR('',#634,10.);
#204=VECTOR('',#635,10.);
#205=VECTOR('',#636,10.);
#206=VECTOR('',#639,10.);
#207=VECTOR('',#642,10.);
#208=VECTOR('',#647,10.);
#209=VECTOR('',#650,10.);
#210=VERTEX_POINT('',#655);
#211=VERTEX_POINT('',#656);
#212=VERTEX_POINT('',#658);
#213=VERTEX_POINT('',#660);
#214=VERTEX_POINT('',#664);
#215=VERTEX_POINT('',#666);
#216=VERTEX_POINT('',#670);
#217=VERTEX_POINT('',#672);
#218=VERTEX_POINT('',#676);
#219=VERTEX_POINT('',#678);
#220=VERTEX_POINT('',#682);
#221=VERTEX_POINT('',#684);
#222=VERTEX_POINT('',#691);
#223=VERTEX_POINT('',#694);
#224=VERTEX_POINT('',#695);
#225=VERTEX_POINT('',#697);
#226=VERTEX_POINT('',#701);
#227=VERTEX_POINT('',#702);
#228=VERTEX_POINT('',#704);
#229=VERTEX_POINT('',#723);
#230=VERTEX_POINT('',#725);
#231=VERTEX_POINT('',#747);
#232=VERTEX_POINT('',#749);
#233=VERTEX_POINT('',#753);
#234=VERTEX_POINT('',#755);
#235=VERTEX_POINT('',#759);
#236=VERTEX_POINT('',#763);
#237=VERTEX_POINT('',#769);
#238=VERTEX_POINT('',#770);
#239=VERTEX_POINT('',#772);
#240=VERTEX_POINT('',#791);
#241=VERTEX_POINT('',#793);
#242=VERTEX_POINT('',#815);
#243=VERTEX_POINT('',#817);
#244=VERTEX_POINT('',#821);
#245=VERTEX_POINT('',#823);
#246=VERTEX_POINT('',#827);
#247=VERTEX_POINT('',#829);
#248=VERTEX_POINT('',#832);
#249=VERTEX_POINT('',#834);
#250=EDGE_CURVE('',#210,#211,#84,.T.);
#251=EDGE_CURVE('',#210,#212,#85,.T.);
#252=EDGE_CURVE('',#212,#213,#86,.T.);
#253=EDGE_CURVE('',#211,#213,#87,.T.);
#254=EDGE_CURVE('',#214,#210,#88,.T.);
#255=EDGE_CURVE('',#214,#215,#89,.T.);
#256=EDGE_CURVE('',#215,#212,#90,.T.);
#257=EDGE_CURVE('',#216,#214,#91,.T.);
#258=EDGE_CURVE('',#216,#217,#92,.T.);
#259=EDGE_CURVE('',#217,#215,#93,.T.);
#260=EDGE_CURVE('',#218,#216,#94,.T.);
#261=EDGE_CURVE('',#218,#219,#95,.T.);
#262=EDGE_CURVE('',#219,#217,#96,.T.);
#263=EDGE_CURVE('',#220,#218,#97,.T.);
#264=EDGE_CURVE('',#220,#221,#98,.T.);
#265=EDGE_CURVE('',#221,#219,#99,.T.);
#266=EDGE_CURVE('',#211,#220,#100,.T.);
#267=EDGE_CURVE('',#213,#221,#101,.T.);
#268=EDGE_CURVE('',#222,#222,#23,.T.);
#269=EDGE_CURVE('',#223,#224,#102,.T.);
#270=EDGE_CURVE('',#225,#223,#103,.T.);
#271=EDGE_CURVE('',#224,#225,#104,.T.);
#272=EDGE_CURVE('',#226,#227,#105,.T.);
#273=EDGE_CURVE('',#226,#228,#106,.T.);
#274=EDGE_CURVE('',#227,#228,#107,.T.);
#275=EDGE_CURVE('',#229,#226,#108,.T.);
#276=EDGE_CURVE('',#229,#230,#109,.T.);
#277=EDGE_CURVE('',#228,#230,#110,.T.);
#278=EDGE_CURVE('',#224,#229,#111,.T.);
#279=EDGE_CURVE('',#230,#225,#112,.T.);
#280=EDGE_CURVE('',#231,#223,#113,.T.);
#281=EDGE_CURVE('',#231,#232,#114,.T.);
#282=EDGE_CURVE('',#225,#232,#115,.T.);
#283=EDGE_CURVE('',#233,#228,#116,.T.);
#284=EDGE_CURVE('',#233,#234,#117,.T.);
#285=EDGE_CURVE('',#234,#227,#118,.T.);
#286=EDGE_CURVE('',#222,#235,#119,.T.);
#287=EDGE_CURVE('',#235,#235,#24,.T.);
#288=EDGE_CURVE('',#224,#236,#120,.T.);
#289=EDGE_CURVE('',#236,#231,#121,.T.);
#290=EDGE_CURVE('',#236,#232,#122,.T.);
#291=EDGE_CURVE('',#237,#238,#123,.T.);
#292=EDGE_CURVE('',#239,#237,#124,.T.);
#293=EDGE_CURVE('',#238,#239,#125,.T.);
#294=EDGE_CURVE('',#238,#240,#126,.T.);
#295=EDGE_CURVE('',#239,#241,#127,.T.);
#296=EDGE_CURVE('',#240,#241,#128,.T.);
#297=EDGE_CURVE('',#240,#236,#129,.T.);
#298=EDGE_CURVE('',#232,#241,#130,.T.);
#299=EDGE_CURVE('',#242,#237,#131,.T.);
#300=EDGE_CURVE('',#242,#243,#132,.T.);
#301=EDGE_CURVE('',#243,#239,#133,.T.);
#302=EDGE_CURVE('',#241,#244,#134,.T.);
#303=EDGE_CURVE('',#244,#245,#135,.T.);
#304=EDGE_CURVE('',#245,#230,#136,.T.);
#305=EDGE_CURVE('',#246,#242,#137,.T.);
#306=EDGE_CURVE('',#247,#246,#138,.T.);
#307=EDGE_CURVE('',#234,#247,#139,.T.);
#308=EDGE_CURVE('',#248,#233,#140,.T.);
#309=EDGE_CURVE('',#249,#248,#141,.T.);
#310=EDGE_CURVE('',#243,#249,#142,.T.);
#311=EDGE_CURVE('',#246,#238,#143,.T.);
#312=EDGE_CURVE('',#247,#226,#144,.T.);
#313=EDGE_CURVE('',#248,#245,#145,.T.);
#314=EDGE_CURVE('',#249,#244,#146,.T.);
#315=ORIENTED_EDGE('',*,*,#250,.F.);
#316=ORIENTED_EDGE('',*,*,#251,.T.);
#317=ORIENTED_EDGE('',*,*,#252,.T.);
#318=ORIENTED_EDGE('',*,*,#253,.F.);
#319=ORIENTED_EDGE('',*,*,#254,.F.);
#320=ORIENTED_EDGE('',*,*,#255,.T.);
#321=ORIENTED_EDGE('',*,*,#256,.T.);
#322=ORIENTED_EDGE('',*,*,#251,.F.);
#323=ORIENTED_EDGE('',*,*,#257,.F.);
#324=ORIENTED_EDGE('',*,*,#258,.T.);
#325=ORIENTED_EDGE('',*,*,#259,.T.);
#326=ORIENTED_EDGE('',*,*,#255,.F.);
#327=ORIENTED_EDGE('',*,*,#260,.F.);
#328=ORIENTED_EDGE('',*,*,#261,.T.);
#329=ORIENTED_EDGE('',*,*,#262,.T.);
#330=ORIENTED_EDGE('',*,*,#258,.F.);
#331=ORIENTED_EDGE('',*,*,#263,.F.);
#332=ORIENTED_EDGE('',*,*,#264,.T.);
#333=ORIENTED_EDGE('',*,*,#265,.T.);
#334=ORIENTED_EDGE('',*,*,#261,.F.);
#335=ORIENTED_EDGE('',*,*,#266,.F.);
#336=ORIENTED_EDGE('',*,*,#253,.T.);
#337=ORIENTED_EDGE('',*,*,#267,.T.);
#338=ORIENTED_EDGE('',*,*,#264,.F.);
#339=ORIENTED_EDGE('',*,*,#267,.F.);
#340=ORIENTED_EDGE('',*,*,#252,.F.);
#341=ORIENTED_EDGE('',*,*,#256,.F.);
#342=ORIENTED_EDGE('',*,*,#259,.F.);
#343=ORIENTED_EDGE('',*,*,#262,.F.);
#344=ORIENTED_EDGE('',*,*,#265,.F.);
#345=ORIENTED_EDGE('',*,*,#268,.F.);
#346=ORIENTED_EDGE('',*,*,#269,.F.);
#347=ORIENTED_EDGE('',*,*,#270,.F.);
#348=ORIENTED_EDGE('',*,*,#271,.F.);
#349=ORIENTED_EDGE('',*,*,#272,.F.);
#350=ORIENTED_EDGE('',*,*,#273,.T.);
#351=ORIENTED_EDGE('',*,*,#274,.F.);
#352=ORIENTED_EDGE('',*,*,#275,.F.);
#353=ORIENTED_EDGE('',*,*,#276,.T.);
#354=ORIENTED_EDGE('',*,*,#277,.F.);
#355=ORIENTED_EDGE('',*,*,#273,.F.);
#356=ORIENTED_EDGE('',*,*,#278,.F.);
#357=ORIENTED_EDGE('',*,*,#271,.T.);
#358=ORIENTED_EDGE('',*,*,#279,.F.);
#359=ORIENTED_EDGE('',*,*,#276,.F.);
#360=ORIENTED_EDGE('',*,*,#270,.T.);
#361=ORIENTED_EDGE('',*,*,#280,.F.);
#362=ORIENTED_EDGE('',*,*,#281,.T.);
#363=ORIENTED_EDGE('',*,*,#282,.F.);
#364=ORIENTED_EDGE('',*,*,#274,.T.);
#365=ORIENTED_EDGE('',*,*,#283,.F.);
#366=ORIENTED_EDGE('',*,*,#284,.T.);
#367=ORIENTED_EDGE('',*,*,#285,.T.);
#368=ORIENTED_EDGE('',*,*,#268,.T.);
#369=ORIENTED_EDGE('',*,*,#286,.T.);
#370=ORIENTED_EDGE('',*,*,#287,.F.);
#371=ORIENTED_EDGE('',*,*,#286,.F.);
#372=ORIENTED_EDGE('',*,*,#269,.T.);
#373=ORIENTED_EDGE('',*,*,#288,.T.);
#374=ORIENTED_EDGE('',*,*,#289,.T.);
#375=ORIENTED_EDGE('',*,*,#280,.T.);
#376=ORIENTED_EDGE('',*,*,#287,.T.);
#377=ORIENTED_EDGE('',*,*,#289,.F.);
#378=ORIENTED_EDGE('',*,*,#290,.T.);
#379=ORIENTED_EDGE('',*,*,#281,.F.);
#380=ORIENTED_EDGE('',*,*,#291,.F.);
#381=ORIENTED_EDGE('',*,*,#292,.F.);
#382=ORIENTED_EDGE('',*,*,#293,.F.);
#383=ORIENTED_EDGE('',*,*,#294,.F.);
#384=ORIENTED_EDGE('',*,*,#293,.T.);
#385=ORIENTED_EDGE('',*,*,#295,.T.);
#386=ORIENTED_EDGE('',*,*,#296,.F.);
#387=ORIENTED_EDGE('',*,*,#297,.F.);
#388=ORIENTED_EDGE('',*,*,#296,.T.);
#389=ORIENTED_EDGE('',*,*,#298,.F.);
#390=ORIENTED_EDGE('',*,*,#290,.F.);
#391=ORIENTED_EDGE('',*,*,#292,.T.);
#392=ORIENTED_EDGE('',*,*,#299,.F.);
#393=ORIENTED_EDGE('',*,*,#300,.T.);
#394=ORIENTED_EDGE('',*,*,#301,.T.);
#395=ORIENTED_EDGE('',*,*,#302,.T.);
#396=ORIENTED_EDGE('',*,*,#303,.T.);
#397=ORIENTED_EDGE('',*,*,#304,.T.);
#398=ORIENTED_EDGE('',*,*,#279,.T.);
#399=ORIENTED_EDGE('',*,*,#282,.T.);
#400=ORIENTED_EDGE('',*,*,#298,.T.);
#401=ORIENTED_EDGE('',*,*,#305,.F.);
#402=ORIENTED_EDGE('',*,*,#306,.F.);
#403=ORIENTED_EDGE('',*,*,#307,.F.);
#404=ORIENTED_EDGE('',*,*,#284,.F.);
#405=ORIENTED_EDGE('',*,*,#308,.F.);
#406=ORIENTED_EDGE('',*,*,#309,.F.);
#407=ORIENTED_EDGE('',*,*,#310,.F.);
#408=ORIENTED_EDGE('',*,*,#300,.F.);
#409=ORIENTED_EDGE('',*,*,#250,.T.);
#410=ORIENTED_EDGE('',*,*,#266,.T.);
#411=ORIENTED_EDGE('',*,*,#263,.T.);
#412=ORIENTED_EDGE('',*,*,#260,.T.);
#413=ORIENTED_EDGE('',*,*,#257,.T.);
#414=ORIENTED_EDGE('',*,*,#254,.T.);
#415=ORIENTED_EDGE('',*,*,#291,.T.);
#416=ORIENTED_EDGE('',*,*,#311,.F.);
#417=ORIENTED_EDGE('',*,*,#305,.T.);
#418=ORIENTED_EDGE('',*,*,#299,.T.);
#419=ORIENTED_EDGE('',*,*,#278,.T.);
#420=ORIENTED_EDGE('',*,*,#275,.T.);
#421=ORIENTED_EDGE('',*,*,#312,.F.);
#422=ORIENTED_EDGE('',*,*,#306,.T.);
#423=ORIENTED_EDGE('',*,*,#311,.T.);
#424=ORIENTED_EDGE('',*,*,#294,.T.);
#425=ORIENTED_EDGE('',*,*,#297,.T.);
#426=ORIENTED_EDGE('',*,*,#288,.F.);
#427=ORIENTED_EDGE('',*,*,#272,.T.);
#428=ORIENTED_EDGE('',*,*,#285,.F.);
#429=ORIENTED_EDGE('',*,*,#307,.T.);
#430=ORIENTED_EDGE('',*,*,#312,.T.);
#431=ORIENTED_EDGE('',*,*,#308,.T.);
#432=ORIENTED_EDGE('',*,*,#283,.T.);
#433=ORIENTED_EDGE('',*,*,#277,.T.);
#434=ORIENTED_EDGE('',*,*,#304,.F.);
#435=ORIENTED_EDGE('',*,*,#313,.F.);
#436=ORIENTED_EDGE('',*,*,#309,.T.);
#437=ORIENTED_EDGE('',*,*,#313,.T.);
#438=ORIENTED_EDGE('',*,*,#303,.F.);
#439=ORIENTED_EDGE('',*,*,#314,.F.);
#440=ORIENTED_EDGE('',*,*,#310,.T.);
#441=ORIENTED_EDGE('',*,*,#314,.T.);
#442=ORIENTED_EDGE('',*,*,#302,.F.);
#443=ORIENTED_EDGE('',*,*,#295,.F.);
#444=ORIENTED_EDGE('',*,*,#301,.F.);
#445=PLANE('',#510);
#446=PLANE('',#511);
#447=PLANE('',#512);
#448=PLANE('',#513);
#449=PLANE('',#514);
#450=PLANE('',#515);
#451=PLANE('',#516);
#452=PLANE('',#518);
#453=PLANE('',#519);
#454=PLANE('',#520);
#455=PLANE('',#521);
#456=PLANE('',#524);
#457=PLANE('',#525);
#458=PLANE('',#526);
#459=PLANE('',#527);
#460=PLANE('',#528);
#461=PLANE('',#529);
#462=PLANE('',#530);
#463=PLANE('',#531);
#464=PLANE('',#532);
#465=PLANE('',#533);
#466=PLANE('',#534);
#467=PLANE('',#535);
#468=ADVANCED_FACE('',(#25),#445,.F.);
#469=ADVANCED_FACE('',(#26),#446,.F.);
#470=ADVANCED_FACE('',(#27),#447,.F.);
#471=ADVANCED_FACE('',(#28),#448,.F.);
#472=ADVANCED_FACE('',(#29),#449,.F.);
#473=ADVANCED_FACE('',(#30),#450,.F.);
#474=ADVANCED_FACE('',(#31,#20),#451,.F.);
#475=ADVANCED_FACE('',(#32),#452,.T.);
#476=ADVANCED_FACE('',(#33),#453,.T.);
#477=ADVANCED_FACE('',(#34),#16,.T.);
#478=ADVANCED_FACE('',(#35),#17,.T.);
#479=ADVANCED_FACE('',(#36),#454,.T.);
#480=ADVANCED_FACE('',(#37),#455,.T.);
#481=ADVANCED_FACE('',(#38),#15,.F.);
#482=ADVANCED_FACE('',(#39,#21),#456,.T.);
#483=ADVANCED_FACE('',(#40),#457,.F.);
#484=ADVANCED_FACE('',(#41),#458,.F.);
#485=ADVANCED_FACE('',(#42),#18,.F.);
#486=ADVANCED_FACE('',(#43),#19,.F.);
#487=ADVANCED_FACE('',(#44),#459,.T.);
#488=ADVANCED_FACE('',(#45),#460,.T.);
#489=ADVANCED_FACE('',(#46,#22),#461,.F.);
#490=ADVANCED_FACE('',(#47),#462,.T.);
#491=ADVANCED_FACE('',(#48),#463,.T.);
#492=ADVANCED_FACE('',(#49),#464,.T.);
#493=ADVANCED_FACE('',(#50),#465,.T.);
#494=ADVANCED_FACE('',(#51),#466,.T.);
#495=ADVANCED_FACE('',(#52),#467,.T.);
#496=CLOSED_SHELL('',(#468,#469,#470,#471,#472,#473,#474,#475,#476,#477,
#478,#479,#480,#481,#482,#483,#484,#485,#486,#487,#488,#489,#490,#491,#492,
#493,#494,#495));
#497=DERIVED_UNIT_ELEMENT(#499,1.);
#498=DERIVED_UNIT_ELEMENT(#852,-3.);
#499=(
MASS_UNIT()
NAMED_UNIT(*)
SI_UNIT(.KILO.,.GRAM.)
);
#500=DERIVED_UNIT((#497,#498));
#501=MEASURE_REPRESENTATION_ITEM('density measure',
POSITIVE_RATIO_MEASURE(7850.),#500);
#502=PROPERTY_DEFINITION_REPRESENTATION(#507,#504);
#503=PROPERTY_DEFINITION_REPRESENTATION(#508,#505);
#504=REPRESENTATION('material name',(#506),#849);
#505=REPRESENTATION('density',(#501),#849);
#506=DESCRIPTIVE_REPRESENTATION_ITEM('Steel','Steel');
#507=PROPERTY_DEFINITION('material property','material name',#859);
#508=PROPERTY_DEFINITION('material property','density of part',#859);
#509=AXIS2_PLACEMENT_3D('',#653,#536,#537);
#510=AXIS2_PLACEMENT_3D('',#654,#538,#539);
#511=AXIS2_PLACEMENT_3D('',#663,#544,#545);
#512=AXIS2_PLACEMENT_3D('',#669,#549,#550);
#513=AXIS2_PLACEMENT_3D('',#675,#554,#555);
#514=AXIS2_PLACEMENT_3D('',#681,#559,#560);
#515=AXIS2_PLACEMENT_3D('',#687,#564,#565);
#516=AXIS2_PLACEMENT_3D('',#690,#568,#569);
#517=AXIS2_PLACEMENT_3D('',#692,#570,#571);
#518=AXIS2_PLACEMENT_3D('',#693,#572,#573);
#519=AXIS2_PLACEMENT_3D('',#700,#577,#578);
#520=AXIS2_PLACEMENT_3D('',#746,#587,#588);
#521=AXIS2_PLACEMENT_3D('',#752,#592,#593);
#522=AXIS2_PLACEMENT_3D('',#758,#597,#598);
#523=AXIS2_PLACEMENT_3D('',#761,#600,#601);
#524=AXIS2_PLACEMENT_3D('',#762,#602,#603);
#525=AXIS2_PLACEMENT_3D('',#766,#606,#607);
#526=AXIS2_PLACEMENT_3D('',#768,#609,#610);
#527=AXIS2_PLACEMENT_3D('',#814,#619,#620);
#528=AXIS2_PLACEMENT_3D('',#820,#624,#625);
#529=AXIS2_PLACEMENT_3D('',#826,#629,#630);
#530=AXIS2_PLACEMENT_3D('',#837,#637,#638);
#531=AXIS2_PLACEMENT_3D('',#839,#640,#641);
#532=AXIS2_PLACEMENT_3D('',#841,#643,#644);
#533=AXIS2_PLACEMENT_3D('',#842,#645,#646);
#534=AXIS2_PLACEMENT_3D('',#844,#648,#649);
#535=AXIS2_PLACEMENT_3D('',#846,#651,#652);
#536=DIRECTION('axis',(0.,0.,1.));
#537=DIRECTION('refdir',(1.,0.,0.));
#538=DIRECTION('center_axis',(0.866025403784439,0.,-0.5));
#539=DIRECTION('ref_axis',(-0.5,0.,-0.866025403784439));
#540=DIRECTION('',(-0.5,0.,-0.866025403784439));
#541=DIRECTION('',(0.,1.,0.));
#542=DIRECTION('',(-0.5,0.,-0.866025403784439));
#543=DIRECTION('',(0.,1.,0.));
#544=DIRECTION('center_axis',(0.866025403784439,0.,0.5));
#545=DIRECTION('ref_axis',(0.5,0.,-0.866025403784439));
#546=DIRECTION('',(0.5,0.,-0.866025403784439));
#547=DIRECTION('',(0.,1.,0.));
#548=DIRECTION('',(0.5,0.,-0.866025403784439));
#549=DIRECTION('center_axis',(0.,0.,1.));
#550=DIRECTION('ref_axis',(1.,0.,0.));
#551=DIRECTION('',(1.,0.,0.));
#552=DIRECTION('',(0.,1.,0.));
#553=DIRECTION('',(1.,0.,0.));
#554=DIRECTION('center_axis',(-0.866025403784439,0.,0.5));
#555=DIRECTION('ref_axis',(0.5,0.,0.866025403784439));
#556=DIRECTION('',(0.5,0.,0.866025403784439));
#557=DIRECTION('',(0.,1.,0.));
#558=DIRECTION('',(0.5,0.,0.866025403784439));
#559=DIRECTION('center_axis',(-0.866025403784439,0.,-0.5));
#560=DIRECTION('ref_axis',(-0.5,0.,0.866025403784439));
#561=DIRECTION('',(-0.5,0.,0.866025403784439));
#562=DIRECTION('',(0.,1.,0.));
#563=DIRECTION('',(-0.5,0.,0.866025403784439));
#564=DIRECTION('center_axis',(0.,0.,-1.));
#565=DIRECTION('ref_axis',(-1.,0.,0.));
#566=DIRECTION('',(-1.,0.,0.));
#567=DIRECTION('',(-1.,0.,0.));
#568=DIRECTION('center_axis',(0.,1.,0.));
#569=DIRECTION('ref_axis',(-1.,0.,0.));
#570=DIRECTION('center_axis',(0.,-1.,0.));
#571=DIRECTION('ref_axis',(-1.,0.,0.));
#572=DIRECTION('center_axis',(0.759256602365297,0.650791373455968,-1.79385161471564E-16));
#573=DIRECTION('ref_axis',(-2.36264210166536E-16,0.,-1.));
#574=DIRECTION('',(0.,0.,1.));
#575=DIRECTION('',(0.650791373455968,-0.759256602365297,0.));
#576=DIRECTION('',(-0.197172233970233,0.230034272965271,-0.952999130856124));
#577=DIRECTION('center_axis',(-0.759256602365297,-0.650791373455968,-1.59453476863613E-16));
#578=DIRECTION('ref_axis',(-2.10012631259143E-16,0.,1.));
#579=DIRECTION('',(0.,0.,-1.));
#580=DIRECTION('',(-0.197172233970233,0.230034272965271,-0.952999130856124));
#581=DIRECTION('',(-0.650791373455968,0.759256602365297,0.));
#582=DIRECTION('',(-0.650791373455966,-0.759256602365299,0.));
#583=DIRECTION('',(-0.20776524600028,0.240460508620396,-0.948162615983389));
#584=DIRECTION('',(0.,1.,0.));
#585=DIRECTION('',(-0.650791373455966,-0.759256602365299,0.));
#586=DIRECTION('',(1.,0.,0.));
#587=DIRECTION('center_axis',(0.,0.,1.));
#588=DIRECTION('ref_axis',(1.,0.,0.));
#589=DIRECTION('',(-1.,0.,0.));
#590=DIRECTION('',(0.650791373455968,0.759256602365297,0.));
#591=DIRECTION('',(1.,0.,0.));
#592=DIRECTION('center_axis',(0.,0.,1.));
#593=DIRECTION('ref_axis',(1.,0.,0.));
#594=DIRECTION('',(0.,1.,0.));
#595=DIRECTION('',(1.,0.,0.));
#596=DIRECTION('',(0.,1.,0.));
#597=DIRECTION('center_axis',(0.,1.,0.));
#598=DIRECTION('ref_axis',(-1.,0.,0.));
#599=DIRECTION('',(0.,1.,0.));
#600=DIRECTION('center_axis',(0.,-1.,0.));
#601=DIRECTION('ref_axis',(-1.,0.,0.));
#602=DIRECTION('center_axis',(0.,1.,0.));
#603=DIRECTION('ref_axis',(0.,0.,1.));
#604=DIRECTION('',(1.,0.,0.));
#605=DIRECTION('',(2.22740669517273E-16,0.,-1.));
#606=DIRECTION('center_axis',(0.759256602365297,-0.650791373455968,1.79385161471564E-16));
#607=DIRECTION('ref_axis',(2.36264210166536E-16,0.,-1.));
#608=DIRECTION('',(0.197172233970233,0.230034272965271,-0.952999130856124));
#609=DIRECTION('center_axis',(-0.759256602365297,0.650791373455968,1.59453476863613E-16));
#610=DIRECTION('ref_axis',(2.10012631259143E-16,0.,1.));
#611=DIRECTION('',(0.,-2.5986411443682E-16,1.));
#612=DIRECTION('',(-0.650791373455968,-0.759256602365297,0.));
#613=DIRECTION('',(0.197172233970233,0.230034272965271,-0.952999130856124));
#614=DIRECTION('',(-0.650791373455966,0.759256602365299,0.));
#615=DIRECTION('',(0.,1.,0.));
#616=DIRECTION('',(0.20776524600028,0.240460508620396,-0.948162615983389));
#617=DIRECTION('',(-0.650791373455966,0.759256602365299,0.));
#618=DIRECTION('',(1.,0.,0.));
#619=DIRECTION('center_axis',(0.,0.,1.));
#620=DIRECTION('ref_axis',(1.,0.,0.));
#621=DIRECTION('',(0.,1.,0.));
#622=DIRECTION('',(1.,0.,0.));
#623=DIRECTION('',(0.,1.,0.));
#624=DIRECTION('center_axis',(0.,1.,0.));
#625=DIRECTION('ref_axis',(0.,0.,1.));
#626=DIRECTION('',(0.,0.,-1.));
#627=DIRECTION('',(-1.,0.,5.55111512312578E-17));
#628=DIRECTION('',(0.,0.,1.));
#629=DIRECTION('center_axis',(0.,1.,0.));
#630=DIRECTION('ref_axis',(-1.,0.,0.));
#631=DIRECTION('',(0.,0.,-1.));
#632=DIRECTION('',(1.,0.,0.));
#633=DIRECTION('',(0.,0.,1.));
#634=DIRECTION('',(0.,0.,1.));
#635=DIRECTION('',(-1.,0.,5.55111512312578E-17));
#636=DIRECTION('',(0.,0.,-1.));
#637=DIRECTION('center_axis',(1.,0.,0.));
#638=DIRECTION('ref_axis',(0.,0.,-1.));
#639=DIRECTION('',(0.,1.,0.));
#640=DIRECTION('center_axis',(0.,0.,1.));
#641=DIRECTION('ref_axis',(1.,0.,0.));
#642=DIRECTION('',(0.,1.,0.));
#643=DIRECTION('center_axis',(-1.,0.,0.));
#644=DIRECTION('ref_axis',(0.,0.,1.));
#645=DIRECTION('center_axis',(-1.,0.,0.));
#646=DIRECTION('ref_axis',(0.,0.,1.));
#647=DIRECTION('',(0.,1.,0.));
#648=DIRECTION('center_axis',(-5.55111512312578E-17,0.,-1.));
#649=DIRECTION('ref_axis',(-1.,0.,5.55111512312578E-17));
#650=DIRECTION('',(0.,1.,0.));
#651=DIRECTION('center_axis',(1.,0.,0.));
#652=DIRECTION('ref_axis',(0.,0.,-1.));
#653=CARTESIAN_POINT('',(0.,0.,0.));
#654=CARTESIAN_POINT('Origin',(7.50555349946514,0.,109.546066095133));
#655=CARTESIAN_POINT('',(7.50555349946514,0.,109.546066095133));
#656=CARTESIAN_POINT('',(3.75277674973257,0.,103.046066095133));
#657=CARTESIAN_POINT('',(-0.912083397768437,0.,94.9662913094583));
#658=CARTESIAN_POINT('',(7.50555349946514,6.3,109.546066095133));
#659=CARTESIAN_POINT('',(7.50555349946514,0.,109.546066095133));
#660=CARTESIAN_POINT('',(3.75277674973257,6.3,103.046066095133));
#661=CARTESIAN_POINT('',(7.50555349946514,6.3,109.546066095133));
#662=CARTESIAN_POINT('',(3.75277674973257,0.,103.046066095133));
#663=CARTESIAN_POINT('Origin',(3.75277674973257,0.,116.046066095133));
#664=CARTESIAN_POINT('',(3.75277674973257,0.,116.046066095133));
#665=CARTESIAN_POINT('',(12.1704136469661,0.,101.466291309458));
#666=CARTESIAN_POINT('',(3.75277674973257,6.3,116.046066095133));
#667=CARTESIAN_POINT('',(3.75277674973257,0.,116.046066095133));
#668=CARTESIAN_POINT('',(3.75277674973257,6.3,116.046066095133));
#669=CARTESIAN_POINT('Origin',(-3.75277674973257,0.,116.046066095133));
#670=CARTESIAN_POINT('',(-3.75277674973257,0.,116.046066095133));
#671=CARTESIAN_POINT('',(-1.87638837486629,0.,116.046066095133));
#672=CARTESIAN_POINT('',(-3.75277674973257,6.3,116.046066095133));
#673=CARTESIAN_POINT('',(-3.75277674973257,0.,116.046066095133));
#674=CARTESIAN_POINT('',(-3.75277674973257,6.3,116.046066095133));
#675=CARTESIAN_POINT('Origin',(-7.50555349946514,0.,109.546066095133));
#676=CARTESIAN_POINT('',(-7.50555349946514,0.,109.546066095133));
#677=CARTESIAN_POINT('',(-14.0468020218324,0.,98.2162913094583));
#678=CARTESIAN_POINT('',(-7.50555349946514,6.3,109.546066095133));
#679=CARTESIAN_POINT('',(-7.50555349946514,0.,109.546066095133));
#680=CARTESIAN_POINT('',(-7.50555349946514,6.3,109.546066095133));
#681=CARTESIAN_POINT('Origin',(-3.75277674973257,0.,103.046066095133));
#682=CARTESIAN_POINT('',(-3.75277674973257,0.,103.046066095133));
#683=CARTESIAN_POINT('',(2.78847177263472,0.,91.7162913094583));
#684=CARTESIAN_POINT('',(-3.75277674973257,6.3,103.046066095133));
#685=CARTESIAN_POINT('',(-3.75277674973257,0.,103.046066095133));
#686=CARTESIAN_POINT('',(-3.75277674973257,6.3,103.046066095133));
#687=CARTESIAN_POINT('Origin',(3.75277674973257,0.,103.046066095133));
#688=CARTESIAN_POINT('',(1.87638837486629,0.,103.046066095133));
#689=CARTESIAN_POINT('',(3.75277674973257,6.3,103.046066095133));
#690=CARTESIAN_POINT('Origin',(-1.11022302462516E-15,6.3,109.546066095133));
#691=CARTESIAN_POINT('',(4.125,6.3,109.546066095133));
#692=CARTESIAN_POINT('Origin',(0.,6.3,109.546066095133));
#693=CARTESIAN_POINT('Origin',(-46.7073055509668,25.,150.));
#694=CARTESIAN_POINT('',(-46.7073055509668,25.,5.));
#695=CARTESIAN_POINT('',(-46.7073055509668,25.,150.));
#696=CARTESIAN_POINT('',(-46.7073055509668,25.,40.));
#697=CARTESIAN_POINT('',(-76.7073055509668,60.,4.99999999999999));
#698=CARTESIAN_POINT('',(-47.5810526107621,26.0193715697611,5.));
#699=CARTESIAN_POINT('',(-46.7073055509668,25.,150.));
#700=CARTESIAN_POINT('Origin',(-50.,21.1585231427946,5.));
#701=CARTESIAN_POINT('',(-50.,21.1585231427946,150.));
#702=CARTESIAN_POINT('',(-50.,21.1585231427946,5.));
#703=CARTESIAN_POINT('',(-50.,21.1585231427946,5.));
#704=CARTESIAN_POINT('',(-80.0000000000001,56.1585231427946,5.));
#705=CARTESIAN_POINT('',(-50.,21.1585231427946,150.));
#706=CARTESIAN_POINT('',(-51.1255413411919,22.4716547075185,5.));
#707=CARTESIAN_POINT('Ctrl Pts',(-50.,21.1585231427946,150.));
#708=CARTESIAN_POINT('Ctrl Pts',(-60.,32.8251898094613,101.666666666667));
#709=CARTESIAN_POINT('Ctrl Pts',(-70.,44.4918564761279,53.3333333333333));
#710=CARTESIAN_POINT('Ctrl Pts',(-80.0000000000001,56.1585231427946,5.));
#711=CARTESIAN_POINT('Ctrl Pts',(-49.4090035604299,21.8480189889597,150.));
#712=CARTESIAN_POINT('Ctrl Pts',(-59.60600237362,33.7116844688164,101.666666666667));
#713=CARTESIAN_POINT('Ctrl Pts',(-69.80300118681,45.5753499486731,53.3333333333333));
#714=CARTESIAN_POINT('Ctrl Pts',(-80.0000000000001,57.4390154285297,5.));
#715=CARTESIAN_POINT('Ctrl Pts',(-48.8180071208599,22.5375148351247,150.));
#716=CARTESIAN_POINT('Ctrl Pts',(-59.2120047472399,34.5981791281715,101.666666666667));
#717=CARTESIAN_POINT('Ctrl Pts',(-69.60600237362,46.6588434212182,53.3333333333333));
#718=CARTESIAN_POINT('Ctrl Pts',(-80.0000000000001,58.7195077142649,5.));
#719=CARTESIAN_POINT('Ctrl Pts',(-48.2270106812898,23.2270106812898,150.));
#720=CARTESIAN_POINT('Ctrl Pts',(-58.8180071208599,35.4846737875265,101.666666666667));
#721=CARTESIAN_POINT('Ctrl Pts',(-69.40900356043,47.7423368937633,53.3333333333333));
#722=CARTESIAN_POINT('Ctrl Pts',(-80.0000000000001,60.,5.));
#723=CARTESIAN_POINT('',(-48.2270106812898,23.2270106812898,150.));
#724=CARTESIAN_POINT('',(-55.2273998352787,15.0598900016361,150.));
#725=CARTESIAN_POINT('',(-80.0000000000001,60.,5.));
#726=CARTESIAN_POINT('',(-48.2270106812898,23.2270106812898,150.));
#727=CARTESIAN_POINT('',(-80.0000000000001,0.,5.));
#728=CARTESIAN_POINT('Ctrl Pts',(-48.2270106812898,23.2270106812898,150.));
#729=CARTESIAN_POINT('Ctrl Pts',(-58.8180071208599,35.4846737875265,101.666666666667));
#730=CARTESIAN_POINT('Ctrl Pts',(-69.40900356043,47.7423368937633,53.3333333333333));
#731=CARTESIAN_POINT('Ctrl Pts',(-80.0000000000001,60.,4.99999999999999));
#732=CARTESIAN_POINT('Ctrl Pts',(-47.7204423045155,23.8180071208599,150.));
#733=CARTESIAN_POINT('Ctrl Pts',(-58.1144399308955,35.8786714139066,101.666666666667));
#734=CARTESIAN_POINT('Ctrl Pts',(-68.5084375572756,47.9393357069533,53.3333333333333));
#735=CARTESIAN_POINT('Ctrl Pts',(-78.9024351836557,60.,4.99999999999999));
#736=CARTESIAN_POINT('Ctrl Pts',(-47.2138739277411,24.4090035604299,150.));
#737=CARTESIAN_POINT('Ctrl Pts',(-57.4108727409312,36.2726690402866,101.666666666667));
#738=CARTESIAN_POINT('Ctrl Pts',(-67.6078715541212,48.1363345201433,53.3333333333333));
#739=CARTESIAN_POINT('Ctrl Pts',(-77.8048703673113,60.,4.99999999999999));
#740=CARTESIAN_POINT('Ctrl Pts',(-46.7073055509668,25.,150.));
#741=CARTESIAN_POINT('Ctrl Pts',(-56.7073055509668,36.6666666666667,101.666666666667));
#742=CARTESIAN_POINT('Ctrl Pts',(-66.7073055509668,48.3333333333333,53.3333333333333));
#743=CARTESIAN_POINT('Ctrl Pts',(-76.7073055509668,60.,4.99999999999999));
#744=CARTESIAN_POINT('',(-55.2273998352787,15.0598900016361,150.));
#745=CARTESIAN_POINT('',(-80.0000000000001,60.,5.));
#746=CARTESIAN_POINT('Origin',(-80.0000000000001,0.,5.));
#747=CARTESIAN_POINT('',(46.7073055509668,25.,5.));
#748=CARTESIAN_POINT('',(-40.,25.,5.));
#749=CARTESIAN_POINT('',(76.7073055509668,60.,4.99999999999999));
#750=CARTESIAN_POINT('',(13.6986996695856,-13.5100401949448,5.00000000000001));
#751=CARTESIAN_POINT('',(-80.0000000000001,60.,5.));
#752=CARTESIAN_POINT('Origin',(-80.0000000000001,0.,5.));
#753=CARTESIAN_POINT('',(-80.0000000000001,0.,5.));
#754=CARTESIAN_POINT('',(-80.0000000000001,0.,5.));
#755=CARTESIAN_POINT('',(-50.,0.,5.));
#756=CARTESIAN_POINT('',(-80.0000000000001,0.,5.));
#757=CARTESIAN_POINT('',(-50.,0.,5.));
#758=CARTESIAN_POINT('Origin',(0.,0.,109.546066095133));
#759=CARTESIAN_POINT('',(4.125,25.,109.546066095133));
#760=CARTESIAN_POINT('',(4.125,0.,109.546066095133));
#761=CARTESIAN_POINT('Origin',(0.,25.,109.546066095133));
#762=CARTESIAN_POINT('Origin',(0.,25.,75.));
#763=CARTESIAN_POINT('',(46.7073055509668,25.,150.));
#764=CARTESIAN_POINT('',(-50.,25.,150.));
#765=CARTESIAN_POINT('',(46.7073055509668,25.,40.));
#766=CARTESIAN_POINT('Origin',(46.7073055509668,25.,150.));
#767=CARTESIAN_POINT('',(46.7073055509668,25.,150.));
#768=CARTESIAN_POINT('Origin',(50.,21.1585231427946,5.));
#769=CARTESIAN_POINT('',(50.,21.1585231427946,5.));
#770=CARTESIAN_POINT('',(50.,21.1585231427946,150.));
#771=CARTESIAN_POINT('',(50.,21.1585231427946,77.5));
#772=CARTESIAN_POINT('',(80.0000000000001,56.1585231427946,5.));
#773=CARTESIAN_POINT('',(17.2431884000155,-17.0577570571874,5.));
#774=CARTESIAN_POINT('',(50.,21.1585231427946,150.));
#775=CARTESIAN_POINT('Ctrl Pts',(50.,21.1585231427946,150.));
#776=CARTESIAN_POINT('Ctrl Pts',(60.,32.8251898094613,101.666666666667));
#777=CARTESIAN_POINT('Ctrl Pts',(70.,44.4918564761279,53.3333333333333));
#778=CARTESIAN_POINT('Ctrl Pts',(80.0000000000001,56.1585231427946,5.));
#779=CARTESIAN_POINT('Ctrl Pts',(49.4090035604299,21.8480189889597,150.));
#780=CARTESIAN_POINT('Ctrl Pts',(59.60600237362,33.7116844688164,101.666666666667));
#781=CARTESIAN_POINT('Ctrl Pts',(69.80300118681,45.5753499486731,53.3333333333333));
#782=CARTESIAN_POINT('Ctrl Pts',(80.0000000000001,57.4390154285297,5.));
#783=CARTESIAN_POINT('Ctrl Pts',(48.8180071208599,22.5375148351247,150.));
#784=CARTESIAN_POINT('Ctrl Pts',(59.2120047472399,34.5981791281715,101.666666666667));
#785=CARTESIAN_POINT('Ctrl Pts',(69.60600237362,46.6588434212182,53.3333333333333));
#786=CARTESIAN_POINT('Ctrl Pts',(80.0000000000001,58.7195077142649,5.));
#787=CARTESIAN_POINT('Ctrl Pts',(48.2270106812898,23.2270106812898,150.));
#788=CARTESIAN_POINT('Ctrl Pts',(58.8180071208599,35.4846737875265,101.666666666667));
#789=CARTESIAN_POINT('Ctrl Pts',(69.40900356043,47.7423368937633,53.3333333333333));
#790=CARTESIAN_POINT('Ctrl Pts',(80.0000000000001,60.,5.));
#791=CARTESIAN_POINT('',(48.2270106812898,23.2270106812898,150.));
#792=CARTESIAN_POINT('',(32.4045820225269,41.68651078318,150.));
#793=CARTESIAN_POINT('',(80.0000000000001,60.,5.));
#794=CARTESIAN_POINT('',(80.0000000000001,0.,5.));
#795=CARTESIAN_POINT('',(48.2270106812898,23.2270106812898,150.));
#796=CARTESIAN_POINT('Ctrl Pts',(48.2270106812898,23.2270106812898,150.));
#797=CARTESIAN_POINT('Ctrl Pts',(58.8180071208599,35.4846737875265,101.666666666667));
#798=CARTESIAN_POINT('Ctrl Pts',(69.40900356043,47.7423368937633,53.3333333333333));
#799=CARTESIAN_POINT('Ctrl Pts',(80.0000000000001,60.,4.99999999999999));
#800=CARTESIAN_POINT('Ctrl Pts',(47.7204423045155,23.8180071208599,150.));
#801=CARTESIAN_POINT('Ctrl Pts',(58.1144399308955,35.8786714139066,101.666666666667));
#802=CARTESIAN_POINT('Ctrl Pts',(68.5084375572756,47.9393357069533,53.3333333333333));
#803=CARTESIAN_POINT('Ctrl Pts',(78.9024351836557,60.,4.99999999999999));
#804=CARTESIAN_POINT('Ctrl Pts',(47.2138739277411,24.4090035604299,150.));
#805=CARTESIAN_POINT('Ctrl Pts',(57.4108727409312,36.2726690402866,101.666666666667));
#806=CARTESIAN_POINT('Ctrl Pts',(67.6078715541212,48.1363345201433,53.3333333333333));
#807=CARTESIAN_POINT('Ctrl Pts',(77.8048703673113,60.,4.99999999999999));
#808=CARTESIAN_POINT('Ctrl Pts',(46.7073055509668,25.,150.));
#809=CARTESIAN_POINT('Ctrl Pts',(56.7073055509668,36.6666666666667,101.666666666667));
#810=CARTESIAN_POINT('Ctrl Pts',(66.7073055509668,48.3333333333333,53.3333333333333));
#811=CARTESIAN_POINT('Ctrl Pts',(76.7073055509668,60.,4.99999999999999));
#812=CARTESIAN_POINT('',(32.4045820225269,41.68651078318,150.));
#813=CARTESIAN_POINT('',(-80.0000000000001,60.,5.));
#814=CARTESIAN_POINT('Origin',(-80.0000000000001,0.,5.));
#815=CARTESIAN_POINT('',(50.,0.,5.));
#816=CARTESIAN_POINT('',(50.,0.,5.));
#817=CARTESIAN_POINT('',(80.0000000000001,0.,5.));
#818=CARTESIAN_POINT('',(-80.0000000000001,0.,5.));
#819=CARTESIAN_POINT('',(80.0000000000001,0.,5.));
#820=CARTESIAN_POINT('Origin',(0.,60.,2.5));
#821=CARTESIAN_POINT('',(80.0000000000001,60.,0.));
#822=CARTESIAN_POINT('',(80.0000000000001,60.,5.));
#823=CARTESIAN_POINT('',(-80.0000000000001,60.,8.88178419700125E-15));
#824=CARTESIAN_POINT('',(80.0000000000001,60.,0.));
#825=CARTESIAN_POINT('',(-80.0000000000001,60.,8.88178419700125E-15));
#826=CARTESIAN_POINT('Origin',(0.,0.,75.));
#827=CARTESIAN_POINT('',(50.,0.,150.));
#828=CARTESIAN_POINT('',(50.,0.,150.));
#829=CARTESIAN_POINT('',(-50.,0.,150.));
#830=CARTESIAN_POINT('',(-50.,0.,150.));
#831=CARTESIAN_POINT('',(-50.,0.,0.));
#832=CARTESIAN_POINT('',(-80.0000000000001,0.,8.88178419700125E-15));
#833=CARTESIAN_POINT('',(-80.0000000000001,0.,8.88178419700125E-15));
#834=CARTESIAN_POINT('',(80.0000000000001,0.,0.));
#835=CARTESIAN_POINT('',(80.0000000000001,0.,0.));
#836=CARTESIAN_POINT('',(80.0000000000001,0.,5.));
#837=CARTESIAN_POINT('Origin',(50.,0.,150.));
#838=CARTESIAN_POINT('',(50.,0.,150.));
#839=CARTESIAN_POINT('Origin',(-50.,0.,150.));
#840=CARTESIAN_POINT('',(-50.,0.,150.));
#841=CARTESIAN_POINT('Origin',(-50.,0.,5.));
#842=CARTESIAN_POINT('Origin',(-80.0000000000001,0.,8.88178419700125E-15));
#843=CARTESIAN_POINT('',(-80.0000000000001,0.,8.88178419700125E-15));
#844=CARTESIAN_POINT('Origin',(80.0000000000001,0.,0.));
#845=CARTESIAN_POINT('',(80.0000000000001,0.,0.));
#846=CARTESIAN_POINT('Origin',(80.0000000000001,0.,5.));
#847=UNCERTAINTY_MEASURE_WITH_UNIT(LENGTH_MEASURE(0.01),#851,
'DISTANCE_ACCURACY_VALUE',
'Maximum model space distance between geometric entities at asserted c
onnectivities');
#848=UNCERTAINTY_MEASURE_WITH_UNIT(LENGTH_MEASURE(0.01),#851,
'DISTANCE_ACCURACY_VALUE',
'Maximum model space distance between geometric entities at asserted c
onnectivities');
#849=(
GEOMETRIC_REPRESENTATION_CONTEXT(3)
GLOBAL_UNCERTAINTY_ASSIGNED_CONTEXT((#847))
GLOBAL_UNIT_ASSIGNED_CONTEXT((#851,#853,#854))
REPRESENTATION_CONTEXT('','3D')
);
#850=(
GEOMETRIC_REPRESENTATION_CONTEXT(3)
GLOBAL_UNCERTAINTY_ASSIGNED_CONTEXT((#848))
GLOBAL_UNIT_ASSIGNED_CONTEXT((#851,#853,#854))
REPRESENTATION_CONTEXT('','3D')
);
#851=(
LENGTH_UNIT()
NAMED_UNIT(*)
SI_UNIT(.MILLI.,.METRE.)
);
#852=(
LENGTH_UNIT()
NAMED_UNIT(*)
SI_UNIT($,.METRE.)
);
#853=(
NAMED_UNIT(*)
PLANE_ANGLE_UNIT()
SI_UNIT($,.RADIAN.)
);
#854=(
NAMED_UNIT(*)
SI_UNIT($,.STERADIAN.)
SOLID_ANGLE_UNIT()
);
#855=SHAPE_DEFINITION_REPRESENTATION(#856,#857);
#856=PRODUCT_DEFINITION_SHAPE('',$,#859);
#857=SHAPE_REPRESENTATION('',(#509),#849);
#858=PRODUCT_DEFINITION_CONTEXT('part definition',#863,'design');
#859=PRODUCT_DEFINITION('Stand - hello side','Stand - hello side v3',#860,
#858);
#860=PRODUCT_DEFINITION_FORMATION('',$,#865);
#861=PRODUCT_RELATED_PRODUCT_CATEGORY('Stand - hello side v3',
'Stand - hello side v3',(#865));
#862=APPLICATION_PROTOCOL_DEFINITION('international standard',
'automotive_design',2009,#863);
#863=APPLICATION_CONTEXT(
'Core Data for Automotive Mechanical Design Process');
#864=PRODUCT_CONTEXT('part definition',#863,'mechanical');
#865=PRODUCT('Stand - hello side','Stand - hello side v3',$,(#864));
#866=PRESENTATION_STYLE_ASSIGNMENT((#867));
#867=SURFACE_STYLE_USAGE(.BOTH.,#868);
#868=SURFACE_SIDE_STYLE('',(#869));
#869=SURFACE_STYLE_FILL_AREA(#870);
#870=FILL_AREA_STYLE('Steel - Satin',(#871));
#871=FILL_AREA_STYLE_COLOUR('Steel - Satin',#872);
#872=COLOUR_RGB('Steel - Satin',0.627450980392157,0.627450980392157,0.627450980392157);
ENDSEC;
END-ISO-10303-21;
