ISO-10303-21;
HEADER;
/* Generated by software containing ST-Developer
 * from STEP Tools, Inc. (www.steptools.com) 
 */

FILE_DESCRIPTION(
/* description */ (''),
/* implementation_level */ '2;1');

FILE_NAME(
/* name */ 'TestFace.step',
/* time_stamp */ '2026-06-30T22:43:52+07:00',
/* author */ (''),
/* organization */ (''),
/* preprocessor_version */ 'ST-DEVELOPER v20.1',
/* originating_system */ 'Autodesk Translation Framework v15.8.0.0',
/* authorisation */ '');

FILE_SCHEMA (('AUTOMOTIVE_DESIGN { 1 0 10303 214 3 1 1 }'));
ENDSEC;

DATA;
#10=MECHANICAL_DESIGN_GEOMETRIC_PRESENTATION_REPRESENTATION('',(#13),#460);
#11=SHAPE_REPRESENTATION_RELATIONSHIP('SRR','None',#467,#12);
#12=ADVANCED_BREP_SHAPE_REPRESENTATION('',(#14),#459);
#13=STYLED_ITEM('',(#476),#14);
#14=MANIFOLD_SOLID_BREP('Body1',#264);
#15=FACE_BOUND('',#58,.T.);
#16=FACE_BOUND('',#59,.T.);
#17=FACE_BOUND('',#60,.T.);
#18=FACE_BOUND('',#61,.T.);
#19=FACE_BOUND('',#62,.T.);
#20=FACE_BOUND('',#63,.T.);
#21=FACE_BOUND('',#64,.T.);
#22=FACE_BOUND('',#66,.T.);
#23=FACE_BOUND('',#67,.T.);
#24=FACE_BOUND('',#68,.T.);
#25=FACE_BOUND('',#69,.T.);
#26=FACE_BOUND('',#70,.T.);
#27=FACE_BOUND('',#71,.T.);
#28=FACE_BOUND('',#72,.T.);
#29=PLANE('',#296);
#30=PLANE('',#300);
#31=PLANE('',#307);
#32=PLANE('',#308);
#33=FACE_OUTER_BOUND('',#46,.T.);
#34=FACE_OUTER_BOUND('',#47,.T.);
#35=FACE_OUTER_BOUND('',#48,.T.);
#36=FACE_OUTER_BOUND('',#49,.T.);
#37=FACE_OUTER_BOUND('',#50,.T.);
#38=FACE_OUTER_BOUND('',#51,.T.);
#39=FACE_OUTER_BOUND('',#52,.T.);
#40=FACE_OUTER_BOUND('',#53,.T.);
#41=FACE_OUTER_BOUND('',#54,.T.);
#42=FACE_OUTER_BOUND('',#55,.T.);
#43=FACE_OUTER_BOUND('',#56,.T.);
#44=FACE_OUTER_BOUND('',#57,.T.);
#45=FACE_OUTER_BOUND('',#65,.T.);
#46=EDGE_LOOP('',(#176,#177,#178,#179));
#47=EDGE_LOOP('',(#180,#181,#182,#183));
#48=EDGE_LOOP('',(#184,#185,#186,#187));
#49=EDGE_LOOP('',(#188,#189,#190,#191));
#50=EDGE_LOOP('',(#192,#193,#194,#195));
#51=EDGE_LOOP('',(#196,#197,#198,#199));
#52=EDGE_LOOP('',(#200,#201,#202,#203));
#53=EDGE_LOOP('',(#204,#205,#206,#207));
#54=EDGE_LOOP('',(#208,#209,#210,#211));
#55=EDGE_LOOP('',(#212,#213,#214,#215));
#56=EDGE_LOOP('',(#216,#217,#218,#219));
#57=EDGE_LOOP('',(#220));
#58=EDGE_LOOP('',(#221,#222,#223,#224));
#59=EDGE_LOOP('',(#225));
#60=EDGE_LOOP('',(#226));
#61=EDGE_LOOP('',(#227));
#62=EDGE_LOOP('',(#228));
#63=EDGE_LOOP('',(#229));
#64=EDGE_LOOP('',(#230));
#65=EDGE_LOOP('',(#231));
#66=EDGE_LOOP('',(#232,#233,#234,#235));
#67=EDGE_LOOP('',(#236));
#68=EDGE_LOOP('',(#237));
#69=EDGE_LOOP('',(#238));
#70=EDGE_LOOP('',(#239));
#71=EDGE_LOOP('',(#240));
#72=EDGE_LOOP('',(#241));
#73=LINE('',#393,#88);
#74=LINE('',#399,#89);
#75=LINE('',#405,#90);
#76=LINE('',#411,#91);
#77=LINE('',#417,#92);
#78=LINE('',#423,#93);
#79=LINE('',#428,#94);
#80=LINE('',#430,#95);
#81=LINE('',#432,#96);
#82=LINE('',#433,#97);
#83=LINE('',#439,#98);
#84=LINE('',#442,#99);
#85=LINE('',#444,#100);
#86=LINE('',#445,#101);
#87=LINE('',#453,#102);
#88=VECTOR('',#315,1.625);
#89=VECTOR('',#322,1.625);
#90=VECTOR('',#329,1.625);
#91=VECTOR('',#336,1.625);
#92=VECTOR('',#343,1.625);
#93=VECTOR('',#350,1.625);
#94=VECTOR('',#355,10.);
#95=VECTOR('',#356,10.);
#96=VECTOR('',#357,10.);
#97=VECTOR('',#358,10.);
#98=VECTOR('',#365,10.);
#99=VECTOR('',#368,10.);
#100=VECTOR('',#369,10.);
#101=VECTOR('',#370,10.);
#102=VECTOR('',#381,25.6124973313873);
#103=CIRCLE('',#279,1.625);
#104=CIRCLE('',#280,1.625);
#105=CIRCLE('',#282,1.625);
#106=CIRCLE('',#283,1.625);
#107=CIRCLE('',#285,1.625);
#108=CIRCLE('',#286,1.625);
#109=CIRCLE('',#288,1.625);
#110=CIRCLE('',#289,1.625);
#111=CIRCLE('',#291,1.625);
#112=CIRCLE('',#292,1.625);
#113=CIRCLE('',#294,1.625);
#114=CIRCLE('',#295,1.625);
#115=CIRCLE('',#298,6.5);
#116=CIRCLE('',#299,6.5);
#117=CIRCLE('',#302,6.5);
#118=CIRCLE('',#303,6.5);
#119=CIRCLE('',#305,25.6124973313873);
#120=CIRCLE('',#306,25.6124973313873);
#121=VERTEX_POINT('',#390);
#122=VERTEX_POINT('',#392);
#123=VERTEX_POINT('',#396);
#124=VERTEX_POINT('',#398);
#125=VERTEX_POINT('',#402);
#126=VERTEX_POINT('',#404);
#127=VERTEX_POINT('',#408);
#128=VERTEX_POINT('',#410);
#129=VERTEX_POINT('',#414);
#130=VERTEX_POINT('',#416);
#131=VERTEX_POINT('',#420);
#132=VERTEX_POINT('',#422);
#133=VERTEX_POINT('',#426);
#134=VERTEX_POINT('',#427);
#135=VERTEX_POINT('',#429);
#136=VERTEX_POINT('',#431);
#137=VERTEX_POINT('',#435);
#138=VERTEX_POINT('',#437);
#139=VERTEX_POINT('',#441);
#140=VERTEX_POINT('',#443);
#141=VERTEX_POINT('',#450);
#142=VERTEX_POINT('',#452);
#143=EDGE_CURVE('',#121,#121,#103,.T.);
#144=EDGE_CURVE('',#121,#122,#73,.T.);
#145=EDGE_CURVE('',#122,#122,#104,.T.);
#146=EDGE_CURVE('',#123,#123,#105,.T.);
#147=EDGE_CURVE('',#123,#124,#74,.T.);
#148=EDGE_CURVE('',#124,#124,#106,.T.);
#149=EDGE_CURVE('',#125,#125,#107,.T.);
#150=EDGE_CURVE('',#125,#126,#75,.T.);
#151=EDGE_CURVE('',#126,#126,#108,.T.);
#152=EDGE_CURVE('',#127,#127,#109,.T.);
#153=EDGE_CURVE('',#127,#128,#76,.T.);
#154=EDGE_CURVE('',#128,#128,#110,.T.);
#155=EDGE_CURVE('',#129,#129,#111,.T.);
#156=EDGE_CURVE('',#129,#130,#77,.T.);
#157=EDGE_CURVE('',#130,#130,#112,.T.);
#158=EDGE_CURVE('',#131,#131,#113,.T.);
#159=EDGE_CURVE('',#131,#132,#78,.T.);
#160=EDGE_CURVE('',#132,#132,#114,.T.);
#161=EDGE_CURVE('',#133,#134,#79,.T.);
#162=EDGE_CURVE('',#133,#135,#80,.T.);
#163=EDGE_CURVE('',#136,#135,#81,.T.);
#164=EDGE_CURVE('',#134,#136,#82,.T.);
#165=EDGE_CURVE('',#137,#133,#115,.T.);
#166=EDGE_CURVE('',#134,#138,#116,.T.);
#167=EDGE_CURVE('',#138,#137,#83,.T.);
#168=EDGE_CURVE('',#139,#138,#84,.T.);
#169=EDGE_CURVE('',#140,#139,#85,.T.);
#170=EDGE_CURVE('',#140,#137,#86,.T.);
#171=EDGE_CURVE('',#135,#140,#117,.T.);
#172=EDGE_CURVE('',#139,#136,#118,.T.);
#173=EDGE_CURVE('',#141,#141,#119,.T.);
#174=EDGE_CURVE('',#141,#142,#87,.T.);
#175=EDGE_CURVE('',#142,#142,#120,.T.);
#176=ORIENTED_EDGE('',*,*,#143,.F.);
#177=ORIENTED_EDGE('',*,*,#144,.T.);
#178=ORIENTED_EDGE('',*,*,#145,.F.);
#179=ORIENTED_EDGE('',*,*,#144,.F.);
#180=ORIENTED_EDGE('',*,*,#146,.F.);
#181=ORIENTED_EDGE('',*,*,#147,.T.);
#182=ORIENTED_EDGE('',*,*,#148,.F.);
#183=ORIENTED_EDGE('',*,*,#147,.F.);
#184=ORIENTED_EDGE('',*,*,#149,.F.);
#185=ORIENTED_EDGE('',*,*,#150,.T.);
#186=ORIENTED_EDGE('',*,*,#151,.F.);
#187=ORIENTED_EDGE('',*,*,#150,.F.);
#188=ORIENTED_EDGE('',*,*,#152,.F.);
#189=ORIENTED_EDGE('',*,*,#153,.T.);
#190=ORIENTED_EDGE('',*,*,#154,.F.);
#191=ORIENTED_EDGE('',*,*,#153,.F.);
#192=ORIENTED_EDGE('',*,*,#155,.F.);
#193=ORIENTED_EDGE('',*,*,#156,.T.);
#194=ORIENTED_EDGE('',*,*,#157,.F.);
#195=ORIENTED_EDGE('',*,*,#156,.F.);
#196=ORIENTED_EDGE('',*,*,#158,.F.);
#197=ORIENTED_EDGE('',*,*,#159,.T.);
#198=ORIENTED_EDGE('',*,*,#160,.F.);
#199=ORIENTED_EDGE('',*,*,#159,.F.);
#200=ORIENTED_EDGE('',*,*,#161,.F.);
#201=ORIENTED_EDGE('',*,*,#162,.T.);
#202=ORIENTED_EDGE('',*,*,#163,.F.);
#203=ORIENTED_EDGE('',*,*,#164,.F.);
#204=ORIENTED_EDGE('',*,*,#165,.T.);
#205=ORIENTED_EDGE('',*,*,#161,.T.);
#206=ORIENTED_EDGE('',*,*,#166,.T.);
#207=ORIENTED_EDGE('',*,*,#167,.T.);
#208=ORIENTED_EDGE('',*,*,#167,.F.);
#209=ORIENTED_EDGE('',*,*,#168,.F.);
#210=ORIENTED_EDGE('',*,*,#169,.F.);
#211=ORIENTED_EDGE('',*,*,#170,.T.);
#212=ORIENTED_EDGE('',*,*,#171,.T.);
#213=ORIENTED_EDGE('',*,*,#169,.T.);
#214=ORIENTED_EDGE('',*,*,#172,.T.);
#215=ORIENTED_EDGE('',*,*,#163,.T.);
#216=ORIENTED_EDGE('',*,*,#173,.F.);
#217=ORIENTED_EDGE('',*,*,#174,.T.);
#218=ORIENTED_EDGE('',*,*,#175,.T.);
#219=ORIENTED_EDGE('',*,*,#174,.F.);
#220=ORIENTED_EDGE('',*,*,#173,.T.);
#221=ORIENTED_EDGE('',*,*,#164,.T.);
#222=ORIENTED_EDGE('',*,*,#172,.F.);
#223=ORIENTED_EDGE('',*,*,#168,.T.);
#224=ORIENTED_EDGE('',*,*,#166,.F.);
#225=ORIENTED_EDGE('',*,*,#160,.T.);
#226=ORIENTED_EDGE('',*,*,#157,.T.);
#227=ORIENTED_EDGE('',*,*,#154,.T.);
#228=ORIENTED_EDGE('',*,*,#151,.T.);
#229=ORIENTED_EDGE('',*,*,#148,.T.);
#230=ORIENTED_EDGE('',*,*,#145,.T.);
#231=ORIENTED_EDGE('',*,*,#175,.F.);
#232=ORIENTED_EDGE('',*,*,#165,.F.);
#233=ORIENTED_EDGE('',*,*,#170,.F.);
#234=ORIENTED_EDGE('',*,*,#171,.F.);
#235=ORIENTED_EDGE('',*,*,#162,.F.);
#236=ORIENTED_EDGE('',*,*,#158,.T.);
#237=ORIENTED_EDGE('',*,*,#155,.T.);
#238=ORIENTED_EDGE('',*,*,#152,.T.);
#239=ORIENTED_EDGE('',*,*,#149,.T.);
#240=ORIENTED_EDGE('',*,*,#146,.T.);
#241=ORIENTED_EDGE('',*,*,#143,.T.);
#242=CYLINDRICAL_SURFACE('',#278,1.625);
#243=CYLINDRICAL_SURFACE('',#281,1.625);
#244=CYLINDRICAL_SURFACE('',#284,1.625);
#245=CYLINDRICAL_SURFACE('',#287,1.625);
#246=CYLINDRICAL_SURFACE('',#290,1.625);
#247=CYLINDRICAL_SURFACE('',#293,1.625);
#248=CYLINDRICAL_SURFACE('',#297,6.5);
#249=CYLINDRICAL_SURFACE('',#301,6.5);
#250=CYLINDRICAL_SURFACE('',#304,25.6124973313873);
#251=ADVANCED_FACE('',(#33),#242,.F.);
#252=ADVANCED_FACE('',(#34),#243,.F.);
#253=ADVANCED_FACE('',(#35),#244,.F.);
#254=ADVANCED_FACE('',(#36),#245,.F.);
#255=ADVANCED_FACE('',(#37),#246,.F.);
#256=ADVANCED_FACE('',(#38),#247,.F.);
#257=ADVANCED_FACE('',(#39),#29,.T.);
#258=ADVANCED_FACE('',(#40),#248,.F.);
#259=ADVANCED_FACE('',(#41),#30,.T.);
#260=ADVANCED_FACE('',(#42),#249,.F.);
#261=ADVANCED_FACE('',(#43),#250,.T.);
#262=ADVANCED_FACE('',(#44,#15,#16,#17,#18,#19,#20,#21),#31,.T.);
#263=ADVANCED_FACE('',(#45,#22,#23,#24,#25,#26,#27,#28),#32,.F.);
#264=CLOSED_SHELL('',(#251,#252,#253,#254,#255,#256,#257,#258,#259,#260,
#261,#262,#263));
#265=DERIVED_UNIT_ELEMENT(#267,1.);
#266=DERIVED_UNIT_ELEMENT(#462,-3.);
#267=(
MASS_UNIT()
NAMED_UNIT(*)
SI_UNIT(.KILO.,.GRAM.)
);
#268=DERIVED_UNIT((#265,#266));
#269=MEASURE_REPRESENTATION_ITEM('density measure',
POSITIVE_RATIO_MEASURE(7850.),#268);
#270=PROPERTY_DEFINITION_REPRESENTATION(#275,#272);
#271=PROPERTY_DEFINITION_REPRESENTATION(#276,#273);
#272=REPRESENTATION('material name',(#274),#459);
#273=REPRESENTATION('density',(#269),#459);
#274=DESCRIPTIVE_REPRESENTATION_ITEM('Steel','Steel');
#275=PROPERTY_DEFINITION('material property','material name',#469);
#276=PROPERTY_DEFINITION('material property','density of part',#469);
#277=AXIS2_PLACEMENT_3D('',#388,#309,#310);
#278=AXIS2_PLACEMENT_3D('',#389,#311,#312);
#279=AXIS2_PLACEMENT_3D('',#391,#313,#314);
#280=AXIS2_PLACEMENT_3D('',#394,#316,#317);
#281=AXIS2_PLACEMENT_3D('',#395,#318,#319);
#282=AXIS2_PLACEMENT_3D('',#397,#320,#321);
#283=AXIS2_PLACEMENT_3D('',#400,#323,#324);
#284=AXIS2_PLACEMENT_3D('',#401,#325,#326);
#285=AXIS2_PLACEMENT_3D('',#403,#327,#328);
#286=AXIS2_PLACEMENT_3D('',#406,#330,#331);
#287=AXIS2_PLACEMENT_3D('',#407,#332,#333);
#288=AXIS2_PLACEMENT_3D('',#409,#334,#335);
#289=AXIS2_PLACEMENT_3D('',#412,#337,#338);
#290=AXIS2_PLACEMENT_3D('',#413,#339,#340);
#291=AXIS2_PLACEMENT_3D('',#415,#341,#342);
#292=AXIS2_PLACEMENT_3D('',#418,#344,#345);
#293=AXIS2_PLACEMENT_3D('',#419,#346,#347);
#294=AXIS2_PLACEMENT_3D('',#421,#348,#349);
#295=AXIS2_PLACEMENT_3D('',#424,#351,#352);
#296=AXIS2_PLACEMENT_3D('',#425,#353,#354);
#297=AXIS2_PLACEMENT_3D('',#434,#359,#360);
#298=AXIS2_PLACEMENT_3D('',#436,#361,#362);
#299=AXIS2_PLACEMENT_3D('',#438,#363,#364);
#300=AXIS2_PLACEMENT_3D('',#440,#366,#367);
#301=AXIS2_PLACEMENT_3D('',#446,#371,#372);
#302=AXIS2_PLACEMENT_3D('',#447,#373,#374);
#303=AXIS2_PLACEMENT_3D('',#448,#375,#376);
#304=AXIS2_PLACEMENT_3D('',#449,#377,#378);
#305=AXIS2_PLACEMENT_3D('',#451,#379,#380);
#306=AXIS2_PLACEMENT_3D('',#454,#382,#383);
#307=AXIS2_PLACEMENT_3D('',#455,#384,#385);
#308=AXIS2_PLACEMENT_3D('',#456,#386,#387);
#309=DIRECTION('axis',(0.,0.,1.));
#310=DIRECTION('refdir',(1.,0.,0.));
#311=DIRECTION('center_axis',(0.,0.,1.));
#312=DIRECTION('ref_axis',(-1.,0.,0.));
#313=DIRECTION('center_axis',(0.,0.,1.));
#314=DIRECTION('ref_axis',(-1.,0.,0.));
#315=DIRECTION('',(0.,0.,1.));
#316=DIRECTION('center_axis',(0.,0.,-1.));
#317=DIRECTION('ref_axis',(-1.,0.,0.));
#318=DIRECTION('center_axis',(0.,0.,1.));
#319=DIRECTION('ref_axis',(-1.,0.,0.));
#320=DIRECTION('center_axis',(0.,0.,1.));
#321=DIRECTION('ref_axis',(-1.,0.,0.));
#322=DIRECTION('',(0.,0.,1.));
#323=DIRECTION('center_axis',(0.,0.,-1.));
#324=DIRECTION('ref_axis',(-1.,0.,0.));
#325=DIRECTION('center_axis',(0.,0.,1.));
#326=DIRECTION('ref_axis',(-1.,0.,0.));
#327=DIRECTION('center_axis',(0.,0.,1.));
#328=DIRECTION('ref_axis',(-1.,0.,0.));
#329=DIRECTION('',(0.,0.,1.));
#330=DIRECTION('center_axis',(0.,0.,-1.));
#331=DIRECTION('ref_axis',(-1.,0.,0.));
#332=DIRECTION('center_axis',(0.,0.,1.));
#333=DIRECTION('ref_axis',(-1.,0.,0.));
#334=DIRECTION('center_axis',(0.,0.,1.));
#335=DIRECTION('ref_axis',(-1.,0.,0.));
#336=DIRECTION('',(0.,0.,1.));
#337=DIRECTION('center_axis',(0.,0.,-1.));
#338=DIRECTION('ref_axis',(-1.,0.,0.));
#339=DIRECTION('center_axis',(0.,0.,1.));
#340=DIRECTION('ref_axis',(-1.,0.,0.));
#341=DIRECTION('center_axis',(0.,0.,1.));
#342=DIRECTION('ref_axis',(-1.,0.,0.));
#343=DIRECTION('',(0.,0.,1.));
#344=DIRECTION('center_axis',(0.,0.,-1.));
#345=DIRECTION('ref_axis',(-1.,0.,0.));
#346=DIRECTION('center_axis',(0.,0.,1.));
#347=DIRECTION('ref_axis',(-1.,0.,0.));
#348=DIRECTION('center_axis',(0.,0.,1.));
#349=DIRECTION('ref_axis',(-1.,0.,0.));
#350=DIRECTION('',(0.,0.,1.));
#351=DIRECTION('center_axis',(0.,0.,-1.));
#352=DIRECTION('ref_axis',(-1.,0.,0.));
#353=DIRECTION('center_axis',(-1.,0.,0.));
#354=DIRECTION('ref_axis',(0.,-1.,0.));
#355=DIRECTION('',(0.,0.,1.));
#356=DIRECTION('',(0.,-1.,0.));
#357=DIRECTION('',(0.,0.,-1.));
#358=DIRECTION('',(0.,-1.,0.));
#359=DIRECTION('center_axis',(0.,0.,1.));
#360=DIRECTION('ref_axis',(-0.707106781186547,0.707106781186548,0.));
#361=DIRECTION('center_axis',(0.,0.,-1.));
#362=DIRECTION('ref_axis',(-0.707106781186547,0.707106781186548,0.));
#363=DIRECTION('center_axis',(0.,0.,1.));
#364=DIRECTION('ref_axis',(0.707106781186548,0.707106781186548,0.));
#365=DIRECTION('',(0.,0.,-1.));
#366=DIRECTION('center_axis',(1.,0.,0.));
#367=DIRECTION('ref_axis',(0.,1.,0.));
#368=DIRECTION('',(0.,1.,0.));
#369=DIRECTION('',(0.,0.,1.));
#370=DIRECTION('',(0.,1.,0.));
#371=DIRECTION('center_axis',(0.,0.,1.));
#372=DIRECTION('ref_axis',(0.707106781186547,-0.707106781186548,0.));
#373=DIRECTION('center_axis',(0.,0.,-1.));
#374=DIRECTION('ref_axis',(0.707106781186547,-0.707106781186548,0.));
#375=DIRECTION('center_axis',(0.,0.,1.));
#376=DIRECTION('ref_axis',(-0.707106781186548,-0.707106781186547,0.));
#377=DIRECTION('center_axis',(0.,0.,1.));
#378=DIRECTION('ref_axis',(1.,0.,0.));
#379=DIRECTION('center_axis',(0.,0.,1.));
#380=DIRECTION('ref_axis',(1.,0.,0.));
#381=DIRECTION('',(0.,0.,-1.));
#382=DIRECTION('center_axis',(0.,0.,1.));
#383=DIRECTION('ref_axis',(1.,0.,0.));
#384=DIRECTION('center_axis',(0.,0.,1.));
#385=DIRECTION('ref_axis',(1.,0.,0.));
#386=DIRECTION('center_axis',(0.,0.,1.));
#387=DIRECTION('ref_axis',(1.,0.,0.));
#388=CARTESIAN_POINT('',(0.,0.,0.));
#389=CARTESIAN_POINT('Origin',(15.5,0.,9.));
#390=CARTESIAN_POINT('',(17.125,1.99005104861445E-16,0.));
#391=CARTESIAN_POINT('Origin',(15.5,0.,0.));
#392=CARTESIAN_POINT('',(17.125,-1.99005104861445E-16,3.));
#393=CARTESIAN_POINT('',(17.125,1.99005104861445E-16,9.));
#394=CARTESIAN_POINT('Origin',(15.5,0.,3.));
#395=CARTESIAN_POINT('Origin',(-7.75,13.4233937586588,9.));
#396=CARTESIAN_POINT('',(-6.125,13.4233937586588,0.));
#397=CARTESIAN_POINT('Origin',(-7.75,13.4233937586588,0.));
#398=CARTESIAN_POINT('',(-6.125,13.4233937586588,3.));
#399=CARTESIAN_POINT('',(-6.125,13.4233937586588,9.));
#400=CARTESIAN_POINT('Origin',(-7.75,13.4233937586588,3.));
#401=CARTESIAN_POINT('Origin',(-7.75000000000001,-13.4233937586588,9.));
#402=CARTESIAN_POINT('',(-6.12500000000001,-13.4233937586588,0.));
#403=CARTESIAN_POINT('Origin',(-7.75000000000001,-13.4233937586588,0.));
#404=CARTESIAN_POINT('',(-6.12500000000001,-13.4233937586588,3.));
#405=CARTESIAN_POINT('',(-6.12500000000001,-13.4233937586588,9.));
#406=CARTESIAN_POINT('Origin',(-7.75000000000001,-13.4233937586588,3.));
#407=CARTESIAN_POINT('Origin',(-15.5,6.66133814775094E-15,9.));
#408=CARTESIAN_POINT('',(-13.875,6.86034325261238E-15,0.));
#409=CARTESIAN_POINT('Origin',(-15.5,6.66133814775094E-15,0.));
#410=CARTESIAN_POINT('',(-13.875,6.46233304288949E-15,3.));
#411=CARTESIAN_POINT('',(-13.875,6.86034325261238E-15,9.));
#412=CARTESIAN_POINT('Origin',(-15.5,6.66133814775094E-15,3.));
#413=CARTESIAN_POINT('Origin',(7.75,13.4233937586588,9.));
#414=CARTESIAN_POINT('',(9.375,13.4233937586588,0.));
#415=CARTESIAN_POINT('Origin',(7.75,13.4233937586588,0.));
#416=CARTESIAN_POINT('',(9.375,13.4233937586588,3.));
#417=CARTESIAN_POINT('',(9.375,13.4233937586588,9.));
#418=CARTESIAN_POINT('Origin',(7.75,13.4233937586588,3.));
#419=CARTESIAN_POINT('Origin',(7.75,-13.4233937586588,9.));
#420=CARTESIAN_POINT('',(9.375,-13.4233937586588,0.));
#421=CARTESIAN_POINT('Origin',(7.75,-13.4233937586588,0.));
#422=CARTESIAN_POINT('',(9.375,-13.4233937586588,3.));
#423=CARTESIAN_POINT('',(9.375,-13.4233937586588,9.));
#424=CARTESIAN_POINT('Origin',(7.75,-13.4233937586588,3.));
#425=CARTESIAN_POINT('Origin',(6.5,13.4233937586588,0.));
#426=CARTESIAN_POINT('',(6.5,6.9233937586588,0.));
#427=CARTESIAN_POINT('',(6.5,6.9233937586588,3.));
#428=CARTESIAN_POINT('',(6.5,6.9233937586588,0.));
#429=CARTESIAN_POINT('',(6.5,-6.9233937586588,0.));
#430=CARTESIAN_POINT('',(6.5,13.5,0.));
#431=CARTESIAN_POINT('',(6.5,-6.9233937586588,3.));
#432=CARTESIAN_POINT('',(6.5,-6.9233937586588,0.));
#433=CARTESIAN_POINT('',(6.5,13.5,3.));
#434=CARTESIAN_POINT('Origin',(0.,6.9233937586588,0.));
#435=CARTESIAN_POINT('',(-6.5,6.9233937586588,0.));
#436=CARTESIAN_POINT('Origin',(0.,6.9233937586588,0.));
#437=CARTESIAN_POINT('',(-6.5,6.9233937586588,3.));
#438=CARTESIAN_POINT('Origin',(0.,6.9233937586588,3.));
#439=CARTESIAN_POINT('',(-6.5,6.9233937586588,0.));
#440=CARTESIAN_POINT('Origin',(-6.5,-13.4233937586588,0.));
#441=CARTESIAN_POINT('',(-6.5,-6.9233937586588,3.));
#442=CARTESIAN_POINT('',(-6.5,-13.5,3.));
#443=CARTESIAN_POINT('',(-6.5,-6.9233937586588,0.));
#444=CARTESIAN_POINT('',(-6.5,-6.9233937586588,0.));
#445=CARTESIAN_POINT('',(-6.5,-13.5,0.));
#446=CARTESIAN_POINT('Origin',(0.,-6.9233937586588,0.));
#447=CARTESIAN_POINT('Origin',(0.,-6.9233937586588,0.));
#448=CARTESIAN_POINT('Origin',(0.,-6.9233937586588,3.));
#449=CARTESIAN_POINT('Origin',(0.,0.,0.));
#450=CARTESIAN_POINT('',(-25.6124973313873,-2.22044604925031E-15,3.));
#451=CARTESIAN_POINT('Origin',(0.,0.,3.));
#452=CARTESIAN_POINT('',(-25.6124973313873,-3.13662628750536E-15,0.));
#453=CARTESIAN_POINT('',(-25.6124973313873,-3.13662628750536E-15,0.));
#454=CARTESIAN_POINT('Origin',(0.,0.,0.));
#455=CARTESIAN_POINT('Origin',(0.,0.,3.));
#456=CARTESIAN_POINT('Origin',(0.,0.,0.));
#457=UNCERTAINTY_MEASURE_WITH_UNIT(LENGTH_MEASURE(0.01),#461,
'DISTANCE_ACCURACY_VALUE',
'Maximum model space distance between geometric entities at asserted c
onnectivities');
#458=UNCERTAINTY_MEASURE_WITH_UNIT(LENGTH_MEASURE(0.01),#461,
'DISTANCE_ACCURACY_VALUE',
'Maximum model space distance between geometric entities at asserted c
onnectivities');
#459=(
GEOMETRIC_REPRESENTATION_CONTEXT(3)
GLOBAL_UNCERTAINTY_ASSIGNED_CONTEXT((#457))
GLOBAL_UNIT_ASSIGNED_CONTEXT((#461,#463,#464))
REPRESENTATION_CONTEXT('','3D')
);
#460=(
GEOMETRIC_REPRESENTATION_CONTEXT(3)
GLOBAL_UNCERTAINTY_ASSIGNED_CONTEXT((#458))
GLOBAL_UNIT_ASSIGNED_CONTEXT((#461,#463,#464))
REPRESENTATION_CONTEXT('','3D')
);
#461=(
LENGTH_UNIT()
NAMED_UNIT(*)
SI_UNIT(.MILLI.,.METRE.)
);
#462=(
LENGTH_UNIT()
NAMED_UNIT(*)
SI_UNIT($,.METRE.)
);
#463=(
NAMED_UNIT(*)
PLANE_ANGLE_UNIT()
SI_UNIT($,.RADIAN.)
);
#464=(
NAMED_UNIT(*)
SI_UNIT($,.STERADIAN.)
SOLID_ANGLE_UNIT()
);
#465=SHAPE_DEFINITION_REPRESENTATION(#466,#467);
#466=PRODUCT_DEFINITION_SHAPE('',$,#469);
#467=SHAPE_REPRESENTATION('',(#277),#459);
#468=PRODUCT_DEFINITION_CONTEXT('part definition',#473,'design');
#469=PRODUCT_DEFINITION('(Unsaved)','(Unsaved)',#470,#468);
#470=PRODUCT_DEFINITION_FORMATION('',$,#475);
#471=PRODUCT_RELATED_PRODUCT_CATEGORY('(Unsaved)','(Unsaved)',(#475));
#472=APPLICATION_PROTOCOL_DEFINITION('international standard',
'automotive_design',2009,#473);
#473=APPLICATION_CONTEXT(
'Core Data for Automotive Mechanical Design Process');
#474=PRODUCT_CONTEXT('part definition',#473,'mechanical');
#475=PRODUCT('(Unsaved)','(Unsaved)',$,(#474));
#476=PRESENTATION_STYLE_ASSIGNMENT((#477));
#477=SURFACE_STYLE_USAGE(.BOTH.,#478);
#478=SURFACE_SIDE_STYLE('',(#479));
#479=SURFACE_STYLE_FILL_AREA(#480);
#480=FILL_AREA_STYLE('Steel - Satin',(#481));
#481=FILL_AREA_STYLE_COLOUR('Steel - Satin',#482);
#482=COLOUR_RGB('Steel - Satin',0.627450980392157,0.627450980392157,0.627450980392157);
ENDSEC;
END-ISO-10303-21;
