%TF.GenerationSoftware,KiCad,Pcbnew,10.0.1*%
%TF.CreationDate,2026-08-03T17:12:42+07:00*%
%TF.ProjectId,Power_Monitor,506f7765-725f-44d6-9f6e-69746f722e6b,rev?*%
%TF.SameCoordinates,Original*%
%TF.FileFunction,Legend,Bot*%
%TF.FilePolarity,Positive*%
%FSLAX46Y46*%
G04 Gerber Fmt 4.6, Leading zero omitted, Abs format (unit mm)*
G04 Created by KiCad (PCBNEW 10.0.1) date 2026-08-03 17:12:42*
%MOMM*%
%LPD*%
G01*
G04 APERTURE LIST*
%ADD10C,0.175000*%
%ADD11C,0.340000*%
%ADD12C,0.300000*%
%ADD13C,0.000000*%
G04 APERTURE END LIST*
D10*
X128651535Y-123419566D02*
X128651535Y-122019566D01*
X128651535Y-122019566D02*
X128184869Y-123019566D01*
X128184869Y-123019566D02*
X127718202Y-122019566D01*
X127718202Y-122019566D02*
X127718202Y-123419566D01*
X126518202Y-123352900D02*
X126651535Y-123419566D01*
X126651535Y-123419566D02*
X126918202Y-123419566D01*
X126918202Y-123419566D02*
X127051535Y-123352900D01*
X127051535Y-123352900D02*
X127118202Y-123219566D01*
X127118202Y-123219566D02*
X127118202Y-122686233D01*
X127118202Y-122686233D02*
X127051535Y-122552900D01*
X127051535Y-122552900D02*
X126918202Y-122486233D01*
X126918202Y-122486233D02*
X126651535Y-122486233D01*
X126651535Y-122486233D02*
X126518202Y-122552900D01*
X126518202Y-122552900D02*
X126451535Y-122686233D01*
X126451535Y-122686233D02*
X126451535Y-122819566D01*
X126451535Y-122819566D02*
X127118202Y-122952900D01*
X126051535Y-122486233D02*
X125518202Y-122486233D01*
X125851535Y-122019566D02*
X125851535Y-123219566D01*
X125851535Y-123219566D02*
X125784869Y-123352900D01*
X125784869Y-123352900D02*
X125651535Y-123419566D01*
X125651535Y-123419566D02*
X125518202Y-123419566D01*
X125051535Y-123419566D02*
X125051535Y-122486233D01*
X125051535Y-122752900D02*
X124984869Y-122619566D01*
X124984869Y-122619566D02*
X124918202Y-122552900D01*
X124918202Y-122552900D02*
X124784869Y-122486233D01*
X124784869Y-122486233D02*
X124651535Y-122486233D01*
X123984868Y-123419566D02*
X124118202Y-123352900D01*
X124118202Y-123352900D02*
X124184868Y-123286233D01*
X124184868Y-123286233D02*
X124251535Y-123152900D01*
X124251535Y-123152900D02*
X124251535Y-122752900D01*
X124251535Y-122752900D02*
X124184868Y-122619566D01*
X124184868Y-122619566D02*
X124118202Y-122552900D01*
X124118202Y-122552900D02*
X123984868Y-122486233D01*
X123984868Y-122486233D02*
X123784868Y-122486233D01*
X123784868Y-122486233D02*
X123651535Y-122552900D01*
X123651535Y-122552900D02*
X123584868Y-122619566D01*
X123584868Y-122619566D02*
X123518202Y-122752900D01*
X123518202Y-122752900D02*
X123518202Y-123152900D01*
X123518202Y-123152900D02*
X123584868Y-123286233D01*
X123584868Y-123286233D02*
X123651535Y-123352900D01*
X123651535Y-123352900D02*
X123784868Y-123419566D01*
X123784868Y-123419566D02*
X123984868Y-123419566D01*
X122718201Y-123419566D02*
X122851535Y-123352900D01*
X122851535Y-123352900D02*
X122918201Y-123219566D01*
X122918201Y-123219566D02*
X122918201Y-122019566D01*
X121984868Y-123419566D02*
X122118202Y-123352900D01*
X122118202Y-123352900D02*
X122184868Y-123286233D01*
X122184868Y-123286233D02*
X122251535Y-123152900D01*
X122251535Y-123152900D02*
X122251535Y-122752900D01*
X122251535Y-122752900D02*
X122184868Y-122619566D01*
X122184868Y-122619566D02*
X122118202Y-122552900D01*
X122118202Y-122552900D02*
X121984868Y-122486233D01*
X121984868Y-122486233D02*
X121784868Y-122486233D01*
X121784868Y-122486233D02*
X121651535Y-122552900D01*
X121651535Y-122552900D02*
X121584868Y-122619566D01*
X121584868Y-122619566D02*
X121518202Y-122752900D01*
X121518202Y-122752900D02*
X121518202Y-123152900D01*
X121518202Y-123152900D02*
X121584868Y-123286233D01*
X121584868Y-123286233D02*
X121651535Y-123352900D01*
X121651535Y-123352900D02*
X121784868Y-123419566D01*
X121784868Y-123419566D02*
X121984868Y-123419566D01*
X120318201Y-122486233D02*
X120318201Y-123619566D01*
X120318201Y-123619566D02*
X120384868Y-123752900D01*
X120384868Y-123752900D02*
X120451535Y-123819566D01*
X120451535Y-123819566D02*
X120584868Y-123886233D01*
X120584868Y-123886233D02*
X120784868Y-123886233D01*
X120784868Y-123886233D02*
X120918201Y-123819566D01*
X120318201Y-123352900D02*
X120451535Y-123419566D01*
X120451535Y-123419566D02*
X120718201Y-123419566D01*
X120718201Y-123419566D02*
X120851535Y-123352900D01*
X120851535Y-123352900D02*
X120918201Y-123286233D01*
X120918201Y-123286233D02*
X120984868Y-123152900D01*
X120984868Y-123152900D02*
X120984868Y-122752900D01*
X120984868Y-122752900D02*
X120918201Y-122619566D01*
X120918201Y-122619566D02*
X120851535Y-122552900D01*
X120851535Y-122552900D02*
X120718201Y-122486233D01*
X120718201Y-122486233D02*
X120451535Y-122486233D01*
X120451535Y-122486233D02*
X120318201Y-122552900D01*
X119784868Y-122486233D02*
X119451534Y-123419566D01*
X119118201Y-122486233D02*
X119451534Y-123419566D01*
X119451534Y-123419566D02*
X119584868Y-123752900D01*
X119584868Y-123752900D02*
X119651534Y-123819566D01*
X119651534Y-123819566D02*
X119784868Y-123886233D01*
X116851534Y-123419566D02*
X117518200Y-123419566D01*
X117518200Y-123419566D02*
X117518200Y-122019566D01*
X115784867Y-123419566D02*
X115784867Y-122686233D01*
X115784867Y-122686233D02*
X115851534Y-122552900D01*
X115851534Y-122552900D02*
X115984867Y-122486233D01*
X115984867Y-122486233D02*
X116251534Y-122486233D01*
X116251534Y-122486233D02*
X116384867Y-122552900D01*
X115784867Y-123352900D02*
X115918201Y-123419566D01*
X115918201Y-123419566D02*
X116251534Y-123419566D01*
X116251534Y-123419566D02*
X116384867Y-123352900D01*
X116384867Y-123352900D02*
X116451534Y-123219566D01*
X116451534Y-123219566D02*
X116451534Y-123086233D01*
X116451534Y-123086233D02*
X116384867Y-122952900D01*
X116384867Y-122952900D02*
X116251534Y-122886233D01*
X116251534Y-122886233D02*
X115918201Y-122886233D01*
X115918201Y-122886233D02*
X115784867Y-122819566D01*
X115118200Y-123419566D02*
X115118200Y-122019566D01*
X115118200Y-122552900D02*
X114984867Y-122486233D01*
X114984867Y-122486233D02*
X114718200Y-122486233D01*
X114718200Y-122486233D02*
X114584867Y-122552900D01*
X114584867Y-122552900D02*
X114518200Y-122619566D01*
X114518200Y-122619566D02*
X114451534Y-122752900D01*
X114451534Y-122752900D02*
X114451534Y-123152900D01*
X114451534Y-123152900D02*
X114518200Y-123286233D01*
X114518200Y-123286233D02*
X114584867Y-123352900D01*
X114584867Y-123352900D02*
X114718200Y-123419566D01*
X114718200Y-123419566D02*
X114984867Y-123419566D01*
X114984867Y-123419566D02*
X115118200Y-123352900D01*
D11*
G36*
X115211510Y-119948602D02*
G01*
X115249173Y-120023928D01*
X115249173Y-120100238D01*
X114787646Y-120007933D01*
X114817312Y-119948602D01*
X114892638Y-119910940D01*
X115136184Y-119910940D01*
X115211510Y-119948602D01*
G37*
G36*
X118232758Y-119961608D02*
G01*
X118274695Y-120003544D01*
X118325363Y-120104880D01*
X118325363Y-120510331D01*
X118274694Y-120611668D01*
X118232758Y-120653604D01*
X118131421Y-120704273D01*
X117968828Y-120704273D01*
X117867492Y-120653605D01*
X117825555Y-120611668D01*
X117774887Y-120510331D01*
X117774887Y-120104880D01*
X117825554Y-120003544D01*
X117867491Y-119961608D01*
X117968828Y-119910940D01*
X118131421Y-119910940D01*
X118232758Y-119961608D01*
G37*
G36*
X120996792Y-120704273D02*
G01*
X120789617Y-120704273D01*
X120611003Y-120644735D01*
X120496983Y-120530715D01*
X120436712Y-120410174D01*
X120365363Y-120124774D01*
X120365363Y-119923770D01*
X120436712Y-119638370D01*
X120496983Y-119517830D01*
X120611003Y-119403810D01*
X120789617Y-119344273D01*
X120996792Y-119344273D01*
X120996792Y-120704273D01*
G37*
G36*
X128108949Y-119394941D02*
G01*
X128218050Y-119504042D01*
X128282506Y-119761866D01*
X128282506Y-120286679D01*
X128218050Y-120544503D01*
X128108949Y-120653604D01*
X128007612Y-120704273D01*
X127764067Y-120704273D01*
X127662729Y-120653604D01*
X127553628Y-120544503D01*
X127489173Y-120286679D01*
X127489173Y-119761866D01*
X127553628Y-119504042D01*
X127662729Y-119394941D01*
X127764067Y-119344273D01*
X128007612Y-119344273D01*
X128108949Y-119394941D01*
G37*
G36*
X123992030Y-119894749D02*
G01*
X123554543Y-119894749D01*
X123453205Y-119844080D01*
X123411269Y-119802144D01*
X123360601Y-119700808D01*
X123360601Y-119538214D01*
X123411269Y-119436878D01*
X123453205Y-119394941D01*
X123554543Y-119344273D01*
X123992030Y-119344273D01*
X123992030Y-119894749D01*
G37*
G36*
X128811395Y-121233162D02*
G01*
X114250760Y-121233162D01*
X114250760Y-119983797D01*
X114439649Y-119983797D01*
X114439649Y-120145701D01*
X114442916Y-120178866D01*
X114449288Y-120194251D01*
X114452521Y-120210593D01*
X114461858Y-120224599D01*
X114468299Y-120240148D01*
X114480076Y-120251925D01*
X114489315Y-120265783D01*
X114503298Y-120275147D01*
X114515202Y-120287051D01*
X114530591Y-120293425D01*
X114544429Y-120302692D01*
X114576309Y-120312400D01*
X115249173Y-120446972D01*
X115249173Y-120591284D01*
X115211510Y-120666610D01*
X115136184Y-120704273D01*
X114892638Y-120704273D01*
X114766628Y-120641268D01*
X114735504Y-120629359D01*
X114669340Y-120624656D01*
X114606413Y-120645631D01*
X114556303Y-120689092D01*
X114526640Y-120748419D01*
X114521937Y-120814583D01*
X114542912Y-120877510D01*
X114586373Y-120927620D01*
X114614576Y-120945374D01*
X114776480Y-121026326D01*
X114807604Y-121038235D01*
X114813696Y-121038668D01*
X114819341Y-121041006D01*
X114852506Y-121044273D01*
X115176316Y-121044273D01*
X115209481Y-121041006D01*
X115215125Y-121038667D01*
X115221217Y-121038235D01*
X115252342Y-121026326D01*
X115414247Y-120945374D01*
X115419793Y-120941882D01*
X115422411Y-120941010D01*
X115425671Y-120938182D01*
X115442450Y-120927620D01*
X115456416Y-120911516D01*
X115472520Y-120897550D01*
X115483082Y-120880771D01*
X115485910Y-120877511D01*
X115486782Y-120874893D01*
X115490274Y-120869347D01*
X115571226Y-120707442D01*
X115583135Y-120676317D01*
X115583567Y-120670225D01*
X115585906Y-120664581D01*
X115589173Y-120631416D01*
X115589173Y-119983797D01*
X115977744Y-119983797D01*
X115977744Y-120874273D01*
X115981011Y-120907438D01*
X116006394Y-120968720D01*
X116053297Y-121015623D01*
X116114579Y-121041006D01*
X116180909Y-121041006D01*
X116242191Y-121015623D01*
X116289094Y-120968720D01*
X116314477Y-120907438D01*
X116317744Y-120874273D01*
X116317744Y-120023928D01*
X116355407Y-119948602D01*
X116430733Y-119910940D01*
X116593326Y-119910940D01*
X116694663Y-119961608D01*
X116706316Y-119973260D01*
X116706316Y-120874273D01*
X116709583Y-120907438D01*
X116734966Y-120968720D01*
X116781869Y-121015623D01*
X116843151Y-121041006D01*
X116909481Y-121041006D01*
X116970763Y-121015623D01*
X117017666Y-120968720D01*
X117043049Y-120907438D01*
X117046316Y-120874273D01*
X117046316Y-120064749D01*
X117434887Y-120064749D01*
X117434887Y-120550463D01*
X117438154Y-120583628D01*
X117440492Y-120589272D01*
X117440925Y-120595364D01*
X117452834Y-120626489D01*
X117533786Y-120788394D01*
X117542773Y-120802670D01*
X117544490Y-120806815D01*
X117548320Y-120811482D01*
X117551540Y-120816597D01*
X117554931Y-120819538D01*
X117565631Y-120832576D01*
X117646584Y-120913529D01*
X117659621Y-120924227D01*
X117662563Y-120927620D01*
X117667677Y-120930839D01*
X117672345Y-120934670D01*
X117676489Y-120936386D01*
X117690766Y-120945374D01*
X117852670Y-121026326D01*
X117883794Y-121038235D01*
X117889886Y-121038668D01*
X117895531Y-121041006D01*
X117928696Y-121044273D01*
X118171553Y-121044273D01*
X118204718Y-121041006D01*
X118210362Y-121038667D01*
X118216454Y-121038235D01*
X118247579Y-121026326D01*
X118409484Y-120945374D01*
X118423760Y-120936386D01*
X118427905Y-120934670D01*
X118432572Y-120930839D01*
X118437687Y-120927620D01*
X118440628Y-120924228D01*
X118453666Y-120913529D01*
X118534619Y-120832576D01*
X118545318Y-120819538D01*
X118548710Y-120816597D01*
X118551929Y-120811482D01*
X118555760Y-120806815D01*
X118557476Y-120802670D01*
X118566464Y-120788394D01*
X118647416Y-120626489D01*
X118659325Y-120595364D01*
X118659757Y-120589272D01*
X118662096Y-120583628D01*
X118665363Y-120550463D01*
X118665363Y-120064749D01*
X118662096Y-120031584D01*
X118659757Y-120025939D01*
X118659325Y-120019848D01*
X118647416Y-119988723D01*
X118566464Y-119826818D01*
X118557477Y-119812543D01*
X118555760Y-119808396D01*
X118551927Y-119803726D01*
X118548710Y-119798615D01*
X118545319Y-119795674D01*
X118534618Y-119782635D01*
X118459757Y-119707775D01*
X118814344Y-119707775D01*
X118814344Y-119774105D01*
X118839727Y-119835387D01*
X118886630Y-119882290D01*
X118947912Y-119907673D01*
X118981077Y-119910940D01*
X119102850Y-119910940D01*
X119204187Y-119961608D01*
X119246124Y-120003545D01*
X119296792Y-120104880D01*
X119296792Y-120874273D01*
X119300059Y-120907438D01*
X119325442Y-120968720D01*
X119372345Y-121015623D01*
X119433627Y-121041006D01*
X119499957Y-121041006D01*
X119561239Y-121015623D01*
X119608142Y-120968720D01*
X119633525Y-120907438D01*
X119636792Y-120874273D01*
X119636792Y-119902844D01*
X120025363Y-119902844D01*
X120025363Y-120145701D01*
X120025933Y-120151489D01*
X120025565Y-120153965D01*
X120027399Y-120166370D01*
X120028630Y-120178866D01*
X120029588Y-120181180D01*
X120030439Y-120186932D01*
X120111391Y-120510742D01*
X120112266Y-120513191D01*
X120112353Y-120514413D01*
X120117629Y-120528202D01*
X120122604Y-120542125D01*
X120123334Y-120543110D01*
X120124263Y-120545538D01*
X120205216Y-120707443D01*
X120214201Y-120721717D01*
X120215919Y-120725863D01*
X120219750Y-120730532D01*
X120222970Y-120735646D01*
X120226361Y-120738587D01*
X120237060Y-120751624D01*
X120398965Y-120913529D01*
X120424726Y-120934670D01*
X120430368Y-120937007D01*
X120434984Y-120941010D01*
X120465414Y-120954597D01*
X120708272Y-121035549D01*
X120724719Y-121039288D01*
X120728865Y-121041006D01*
X120734874Y-121041598D01*
X120740768Y-121042938D01*
X120745246Y-121042619D01*
X120762030Y-121044273D01*
X121166792Y-121044273D01*
X121199957Y-121041006D01*
X121261239Y-121015623D01*
X121308142Y-120968720D01*
X121333525Y-120907438D01*
X121336792Y-120874273D01*
X121336792Y-119498082D01*
X123020601Y-119498082D01*
X123020601Y-119740940D01*
X123023868Y-119774105D01*
X123026205Y-119779749D01*
X123026639Y-119785842D01*
X123038548Y-119816966D01*
X123119500Y-119978870D01*
X123128487Y-119993146D01*
X123130204Y-119997291D01*
X123134034Y-120001958D01*
X123137254Y-120007073D01*
X123140645Y-120010014D01*
X123151345Y-120023052D01*
X123232298Y-120104005D01*
X123245335Y-120114704D01*
X123248277Y-120118096D01*
X123253391Y-120121315D01*
X123258059Y-120125146D01*
X123262203Y-120126862D01*
X123276480Y-120135850D01*
X123438385Y-120216802D01*
X123469510Y-120228711D01*
X123475601Y-120229143D01*
X123481246Y-120231482D01*
X123514411Y-120234749D01*
X123992030Y-120234749D01*
X123992030Y-120874273D01*
X123995297Y-120907438D01*
X124020680Y-120968720D01*
X124067583Y-121015623D01*
X124128865Y-121041006D01*
X124195195Y-121041006D01*
X124256477Y-121015623D01*
X124303380Y-120968720D01*
X124328763Y-120907438D01*
X124332030Y-120874273D01*
X124332030Y-120388559D01*
X124720601Y-120388559D01*
X124720601Y-120550463D01*
X124723868Y-120583628D01*
X124726205Y-120589272D01*
X124726639Y-120595365D01*
X124738549Y-120626490D01*
X124819502Y-120788395D01*
X124828486Y-120802666D01*
X124830204Y-120806814D01*
X124834037Y-120811485D01*
X124837256Y-120816598D01*
X124840646Y-120819538D01*
X124851345Y-120832575D01*
X124932297Y-120913528D01*
X124945336Y-120924229D01*
X124948277Y-120927620D01*
X124953388Y-120930837D01*
X124958058Y-120934670D01*
X124962205Y-120936387D01*
X124976480Y-120945374D01*
X125138385Y-121026326D01*
X125169510Y-121038235D01*
X125175601Y-121038667D01*
X125181246Y-121041006D01*
X125214411Y-121044273D01*
X125619173Y-121044273D01*
X125635956Y-121042619D01*
X125640435Y-121042938D01*
X125646328Y-121041597D01*
X125652338Y-121041006D01*
X125656483Y-121039289D01*
X125672932Y-121035549D01*
X125915789Y-120954597D01*
X125946219Y-120941010D01*
X125996329Y-120897551D01*
X126025993Y-120838223D01*
X126030695Y-120772059D01*
X126009720Y-120709132D01*
X125966260Y-120659022D01*
X125906932Y-120629358D01*
X125840768Y-120624656D01*
X125808272Y-120632045D01*
X125591586Y-120704273D01*
X125254543Y-120704273D01*
X125153206Y-120653605D01*
X125111269Y-120611668D01*
X125060601Y-120510331D01*
X125060601Y-120428690D01*
X125111269Y-120327353D01*
X125153206Y-120285416D01*
X125273747Y-120225146D01*
X125579451Y-120148721D01*
X125581900Y-120147845D01*
X125583122Y-120147759D01*
X125596911Y-120142482D01*
X125610834Y-120137508D01*
X125611819Y-120136777D01*
X125614247Y-120135849D01*
X125776152Y-120054896D01*
X125790423Y-120045911D01*
X125794571Y-120044194D01*
X125799242Y-120040360D01*
X125804355Y-120037142D01*
X125807295Y-120033751D01*
X125820332Y-120023053D01*
X125901285Y-119942101D01*
X125911986Y-119929061D01*
X125915377Y-119926121D01*
X125918594Y-119921009D01*
X125922427Y-119916340D01*
X125924144Y-119912192D01*
X125933131Y-119897918D01*
X126014083Y-119736013D01*
X126025992Y-119704888D01*
X126026424Y-119698796D01*
X126028763Y-119693152D01*
X126032030Y-119659987D01*
X126032030Y-119498082D01*
X126028763Y-119464917D01*
X126026425Y-119459272D01*
X126025992Y-119453180D01*
X126014083Y-119422056D01*
X125933131Y-119260152D01*
X125924143Y-119245875D01*
X125922427Y-119241731D01*
X125918596Y-119237063D01*
X125915377Y-119231949D01*
X125911984Y-119229007D01*
X125901286Y-119215970D01*
X125859589Y-119174273D01*
X126420602Y-119174273D01*
X126420602Y-120874273D01*
X126423869Y-120907438D01*
X126449252Y-120968720D01*
X126496155Y-121015623D01*
X126557437Y-121041006D01*
X126623767Y-121041006D01*
X126685049Y-121015623D01*
X126731952Y-120968720D01*
X126757335Y-120907438D01*
X126760602Y-120874273D01*
X126760602Y-119740940D01*
X127149173Y-119740940D01*
X127149173Y-120307606D01*
X127149743Y-120313394D01*
X127149375Y-120315870D01*
X127151209Y-120328275D01*
X127152440Y-120340771D01*
X127153398Y-120343085D01*
X127154249Y-120348837D01*
X127235201Y-120672647D01*
X127246414Y-120704030D01*
X127253939Y-120714186D01*
X127258776Y-120725863D01*
X127279917Y-120751624D01*
X127441822Y-120913529D01*
X127454859Y-120924228D01*
X127457801Y-120927620D01*
X127462915Y-120930839D01*
X127467583Y-120934670D01*
X127471727Y-120936386D01*
X127486004Y-120945374D01*
X127647909Y-121026326D01*
X127679034Y-121038235D01*
X127685125Y-121038667D01*
X127690770Y-121041006D01*
X127723935Y-121044273D01*
X128047744Y-121044273D01*
X128080909Y-121041006D01*
X128086553Y-121038667D01*
X128092645Y-121038235D01*
X128123770Y-121026326D01*
X128285675Y-120945374D01*
X128299951Y-120936386D01*
X128304096Y-120934670D01*
X128308763Y-120930839D01*
X128313878Y-120927620D01*
X128316819Y-120924228D01*
X128329857Y-120913529D01*
X128491762Y-120751624D01*
X128512903Y-120725863D01*
X128517740Y-120714184D01*
X128525265Y-120704029D01*
X128536478Y-120672647D01*
X128617430Y-120348836D01*
X128618280Y-120343085D01*
X128619239Y-120340771D01*
X128620468Y-120328285D01*
X128622305Y-120315869D01*
X128621936Y-120313390D01*
X128622506Y-120307606D01*
X128622506Y-119740940D01*
X128621936Y-119735155D01*
X128622305Y-119732677D01*
X128620468Y-119720260D01*
X128619239Y-119707775D01*
X128618280Y-119705460D01*
X128617430Y-119699710D01*
X128536478Y-119375899D01*
X128525265Y-119344517D01*
X128517740Y-119334361D01*
X128512903Y-119322683D01*
X128491762Y-119296922D01*
X128329857Y-119135017D01*
X128316819Y-119124317D01*
X128313878Y-119120926D01*
X128308763Y-119117706D01*
X128304096Y-119113876D01*
X128299951Y-119112159D01*
X128285675Y-119103172D01*
X128123770Y-119022220D01*
X128092645Y-119010311D01*
X128086553Y-119009878D01*
X128080909Y-119007540D01*
X128047744Y-119004273D01*
X127723935Y-119004273D01*
X127690770Y-119007540D01*
X127685125Y-119009878D01*
X127679034Y-119010311D01*
X127647909Y-119022220D01*
X127486004Y-119103172D01*
X127471727Y-119112159D01*
X127467583Y-119113876D01*
X127462915Y-119117706D01*
X127457801Y-119120926D01*
X127454859Y-119124317D01*
X127441822Y-119135017D01*
X127279917Y-119296922D01*
X127258776Y-119322683D01*
X127253939Y-119334359D01*
X127246414Y-119344516D01*
X127235201Y-119375899D01*
X127154249Y-119699709D01*
X127153398Y-119705460D01*
X127152440Y-119707775D01*
X127151209Y-119720270D01*
X127149375Y-119732676D01*
X127149743Y-119735151D01*
X127149173Y-119740940D01*
X126760602Y-119740940D01*
X126760602Y-119174273D01*
X126757335Y-119141108D01*
X126731952Y-119079826D01*
X126685049Y-119032923D01*
X126623767Y-119007540D01*
X126557437Y-119007540D01*
X126496155Y-119032923D01*
X126449252Y-119079826D01*
X126423869Y-119141108D01*
X126420602Y-119174273D01*
X125859589Y-119174273D01*
X125820333Y-119135017D01*
X125807295Y-119124317D01*
X125804354Y-119120926D01*
X125799239Y-119117706D01*
X125794572Y-119113876D01*
X125790427Y-119112159D01*
X125776151Y-119103172D01*
X125614246Y-119022220D01*
X125583121Y-119010311D01*
X125577029Y-119009878D01*
X125571385Y-119007540D01*
X125538220Y-119004273D01*
X125133459Y-119004273D01*
X125116675Y-119005926D01*
X125112197Y-119005608D01*
X125106303Y-119006947D01*
X125100294Y-119007540D01*
X125096148Y-119009257D01*
X125079701Y-119012997D01*
X124836843Y-119093949D01*
X124806413Y-119107536D01*
X124756302Y-119150995D01*
X124726638Y-119210323D01*
X124721936Y-119276487D01*
X124742912Y-119339413D01*
X124786371Y-119389524D01*
X124845699Y-119419188D01*
X124911863Y-119423890D01*
X124944359Y-119416501D01*
X125161046Y-119344273D01*
X125498088Y-119344273D01*
X125599425Y-119394941D01*
X125641362Y-119436878D01*
X125692030Y-119538214D01*
X125692030Y-119619855D01*
X125641362Y-119721191D01*
X125599425Y-119763128D01*
X125478884Y-119823399D01*
X125173180Y-119899825D01*
X125170730Y-119900700D01*
X125169510Y-119900787D01*
X125155709Y-119906067D01*
X125141798Y-119911038D01*
X125140815Y-119911766D01*
X125138385Y-119912696D01*
X124976480Y-119993648D01*
X124962205Y-120002634D01*
X124958058Y-120004352D01*
X124953388Y-120008184D01*
X124948277Y-120011402D01*
X124945336Y-120014792D01*
X124932297Y-120025494D01*
X124851345Y-120106447D01*
X124840646Y-120119483D01*
X124837256Y-120122424D01*
X124834037Y-120127536D01*
X124830204Y-120132208D01*
X124828486Y-120136355D01*
X124819502Y-120150627D01*
X124738549Y-120312532D01*
X124726639Y-120343657D01*
X124726205Y-120349749D01*
X124723868Y-120355394D01*
X124720601Y-120388559D01*
X124332030Y-120388559D01*
X124332030Y-119174273D01*
X124328763Y-119141108D01*
X124303380Y-119079826D01*
X124256477Y-119032923D01*
X124195195Y-119007540D01*
X124162030Y-119004273D01*
X123514411Y-119004273D01*
X123481246Y-119007540D01*
X123475601Y-119009878D01*
X123469510Y-119010311D01*
X123438385Y-119022220D01*
X123276480Y-119103172D01*
X123262203Y-119112159D01*
X123258059Y-119113876D01*
X123253391Y-119117706D01*
X123248277Y-119120926D01*
X123245335Y-119124317D01*
X123232298Y-119135017D01*
X123151345Y-119215970D01*
X123140645Y-119229007D01*
X123137254Y-119231949D01*
X123134034Y-119237063D01*
X123130204Y-119241731D01*
X123128487Y-119245875D01*
X123119500Y-119260152D01*
X123038548Y-119422056D01*
X123026639Y-119453180D01*
X123026205Y-119459272D01*
X123023868Y-119464917D01*
X123020601Y-119498082D01*
X121336792Y-119498082D01*
X121336792Y-119174273D01*
X121333525Y-119141108D01*
X121308142Y-119079826D01*
X121261239Y-119032923D01*
X121199957Y-119007540D01*
X121166792Y-119004273D01*
X120762030Y-119004273D01*
X120745246Y-119005926D01*
X120740768Y-119005608D01*
X120734874Y-119006947D01*
X120728865Y-119007540D01*
X120724719Y-119009257D01*
X120708272Y-119012997D01*
X120465414Y-119093949D01*
X120434984Y-119107536D01*
X120430368Y-119111538D01*
X120424726Y-119113876D01*
X120398965Y-119135017D01*
X120237060Y-119296922D01*
X120226361Y-119309958D01*
X120222970Y-119312900D01*
X120219750Y-119318013D01*
X120215919Y-119322683D01*
X120214201Y-119326828D01*
X120205216Y-119341103D01*
X120124263Y-119503008D01*
X120123334Y-119505435D01*
X120122604Y-119506421D01*
X120117629Y-119520343D01*
X120112353Y-119534133D01*
X120112266Y-119535354D01*
X120111391Y-119537804D01*
X120030439Y-119861613D01*
X120029588Y-119867364D01*
X120028630Y-119869679D01*
X120027399Y-119882174D01*
X120025565Y-119894580D01*
X120025933Y-119897055D01*
X120025363Y-119902844D01*
X119636792Y-119902844D01*
X119636792Y-119740940D01*
X119633525Y-119707775D01*
X119608142Y-119646493D01*
X119561239Y-119599590D01*
X119499957Y-119574207D01*
X119433627Y-119574207D01*
X119372345Y-119599590D01*
X119328368Y-119643566D01*
X119219008Y-119588887D01*
X119187883Y-119576978D01*
X119181791Y-119576545D01*
X119176147Y-119574207D01*
X119142982Y-119570940D01*
X118981077Y-119570940D01*
X118947912Y-119574207D01*
X118886630Y-119599590D01*
X118839727Y-119646493D01*
X118814344Y-119707775D01*
X118459757Y-119707775D01*
X118453665Y-119701683D01*
X118440628Y-119690984D01*
X118437687Y-119687593D01*
X118432573Y-119684373D01*
X118427904Y-119680542D01*
X118423758Y-119678824D01*
X118409484Y-119669839D01*
X118247579Y-119588887D01*
X118216454Y-119576978D01*
X118210362Y-119576545D01*
X118204718Y-119574207D01*
X118171553Y-119570940D01*
X117928696Y-119570940D01*
X117895531Y-119574207D01*
X117889886Y-119576544D01*
X117883794Y-119576978D01*
X117852670Y-119588887D01*
X117690766Y-119669839D01*
X117676491Y-119678824D01*
X117672346Y-119680542D01*
X117667676Y-119684373D01*
X117662563Y-119687593D01*
X117659621Y-119690984D01*
X117646585Y-119701683D01*
X117565632Y-119782635D01*
X117554930Y-119795674D01*
X117551540Y-119798615D01*
X117548322Y-119803726D01*
X117544490Y-119808396D01*
X117542772Y-119812542D01*
X117533786Y-119826818D01*
X117452834Y-119988723D01*
X117440925Y-120019848D01*
X117440492Y-120025939D01*
X117438154Y-120031584D01*
X117434887Y-120064749D01*
X117046316Y-120064749D01*
X117046316Y-119740940D01*
X117043049Y-119707775D01*
X117017666Y-119646493D01*
X116970763Y-119599590D01*
X116909481Y-119574207D01*
X116843151Y-119574207D01*
X116781869Y-119599590D01*
X116764876Y-119616582D01*
X116709484Y-119588887D01*
X116678359Y-119576978D01*
X116672267Y-119576545D01*
X116666623Y-119574207D01*
X116633458Y-119570940D01*
X116390601Y-119570940D01*
X116357436Y-119574207D01*
X116351791Y-119576544D01*
X116345699Y-119576978D01*
X116314575Y-119588887D01*
X116152671Y-119669839D01*
X116147127Y-119673328D01*
X116144508Y-119674202D01*
X116141246Y-119677031D01*
X116124468Y-119687593D01*
X116110501Y-119703695D01*
X116094399Y-119717662D01*
X116083837Y-119734439D01*
X116081007Y-119737703D01*
X116080133Y-119740323D01*
X116076645Y-119745865D01*
X115995692Y-119907770D01*
X115983782Y-119938895D01*
X115983348Y-119944987D01*
X115981011Y-119950632D01*
X115977744Y-119983797D01*
X115589173Y-119983797D01*
X115585906Y-119950632D01*
X115583567Y-119944987D01*
X115583135Y-119938896D01*
X115571226Y-119907771D01*
X115490274Y-119745866D01*
X115486782Y-119740319D01*
X115485910Y-119737702D01*
X115483082Y-119734441D01*
X115472520Y-119717663D01*
X115456416Y-119703696D01*
X115442450Y-119687593D01*
X115425671Y-119677030D01*
X115422411Y-119674203D01*
X115419793Y-119673330D01*
X115414247Y-119669839D01*
X115252342Y-119588887D01*
X115221217Y-119576978D01*
X115215125Y-119576545D01*
X115209481Y-119574207D01*
X115176316Y-119570940D01*
X114852506Y-119570940D01*
X114819341Y-119574207D01*
X114813696Y-119576544D01*
X114807604Y-119576978D01*
X114776480Y-119588887D01*
X114614576Y-119669839D01*
X114609032Y-119673328D01*
X114606413Y-119674202D01*
X114603151Y-119677031D01*
X114586373Y-119687593D01*
X114572406Y-119703695D01*
X114556304Y-119717662D01*
X114545742Y-119734439D01*
X114542912Y-119737703D01*
X114542038Y-119740323D01*
X114538550Y-119745865D01*
X114457597Y-119907770D01*
X114445687Y-119938895D01*
X114445253Y-119944987D01*
X114442916Y-119950632D01*
X114439649Y-119983797D01*
X114250760Y-119983797D01*
X114250760Y-118815384D01*
X128811395Y-118815384D01*
X128811395Y-121233162D01*
G37*
%TO.C,G\u002A\u002A\u002A*%
D12*
X132579571Y-125297090D02*
G75*
G02*
X130428569Y-118702899I1070429J3997090D01*
G01*
X135535685Y-117500519D02*
G75*
G02*
X134264225Y-125371023I-1785684J-3749480D01*
G01*
D13*
G36*
X134912405Y-118007010D02*
G01*
X135421826Y-118164020D01*
X135485912Y-118255940D01*
X135503812Y-118281963D01*
X135527070Y-118318198D01*
X135541165Y-118345291D01*
X135548129Y-118367462D01*
X135550000Y-118388930D01*
X135550000Y-118430000D01*
X134850000Y-118430000D01*
X134150000Y-118430000D01*
X134150000Y-118140000D01*
X134150000Y-117850000D01*
X134276492Y-117850001D01*
X134402984Y-117850000D01*
X134912405Y-118007010D01*
G37*
G36*
X134530000Y-120085000D02*
G01*
X134530000Y-120640000D01*
X134590000Y-120640000D01*
X134650001Y-120640000D01*
X134650000Y-120795000D01*
X134650000Y-120950001D01*
X134590000Y-120950000D01*
X134530000Y-120950000D01*
X134530000Y-121590000D01*
X134530000Y-122230000D01*
X134340000Y-122230000D01*
X134150000Y-122230000D01*
X134150000Y-120880000D01*
X134150000Y-119530000D01*
X134340000Y-119530000D01*
X134530000Y-119530000D01*
X134530000Y-120085000D01*
G37*
G36*
X135100000Y-117344422D02*
G01*
X135099496Y-117352473D01*
X135087480Y-117392014D01*
X135059494Y-117443448D01*
X135018988Y-117508051D01*
X134856994Y-117564206D01*
X134814008Y-117579057D01*
X134739832Y-117604533D01*
X134658805Y-117632222D01*
X134578128Y-117659666D01*
X134505001Y-117684406D01*
X134455053Y-117701123D01*
X134399118Y-117719233D01*
X134355656Y-117732131D01*
X134320966Y-117740699D01*
X134291345Y-117745817D01*
X134263090Y-117748366D01*
X134232500Y-117749227D01*
X134150000Y-117750000D01*
X134150000Y-117530000D01*
X134150000Y-117310000D01*
X134624999Y-117310000D01*
X135100000Y-117310000D01*
X135100000Y-117344422D01*
G37*
G36*
X132720000Y-120020000D02*
G01*
X132720000Y-120520000D01*
X132530153Y-120520000D01*
X132340306Y-120520000D01*
X131589973Y-120255255D01*
X131549952Y-120241130D01*
X131433899Y-120200117D01*
X131323574Y-120161054D01*
X131220434Y-120124459D01*
X131125942Y-120090856D01*
X131041556Y-120060764D01*
X130968737Y-120034705D01*
X130908943Y-120013200D01*
X130863636Y-119996770D01*
X130834276Y-119985938D01*
X130822321Y-119981223D01*
X130815409Y-119974532D01*
X130798621Y-119952581D01*
X130775315Y-119918667D01*
X130747580Y-119875855D01*
X130717500Y-119827210D01*
X130630000Y-119682485D01*
X130630000Y-119601242D01*
X130630000Y-119520000D01*
X131674999Y-119520000D01*
X132720000Y-119520000D01*
X132720000Y-120020000D01*
G37*
G36*
X134889441Y-120523110D02*
G01*
X134920495Y-120530204D01*
X134931819Y-120535356D01*
X134948119Y-120546122D01*
X134960303Y-120561286D01*
X134968957Y-120583447D01*
X134974668Y-120615202D01*
X134978021Y-120659153D01*
X134979604Y-120717897D01*
X134980000Y-120794032D01*
X134979906Y-120837011D01*
X134979010Y-120903273D01*
X134976718Y-120953554D01*
X134972484Y-120990462D01*
X134965764Y-121016609D01*
X134956013Y-121034603D01*
X134942688Y-121047057D01*
X134925243Y-121056582D01*
X134916188Y-121059938D01*
X134879054Y-121066447D01*
X134832238Y-121067159D01*
X134815583Y-121066141D01*
X134783537Y-121061706D01*
X134761484Y-121052728D01*
X134742237Y-121036782D01*
X134715000Y-121009545D01*
X134715000Y-120795000D01*
X134715000Y-120580454D01*
X134742058Y-120553397D01*
X134744672Y-120550836D01*
X134765428Y-120535285D01*
X134791252Y-120526553D01*
X134829581Y-120521966D01*
X134847361Y-120521154D01*
X134889441Y-120523110D01*
G37*
G36*
X132876698Y-117060834D02*
G01*
X132965114Y-117061713D01*
X133036437Y-117063118D01*
X133089944Y-117065031D01*
X133124907Y-117067439D01*
X133140601Y-117070320D01*
X133141396Y-117070765D01*
X133156928Y-117080749D01*
X133185578Y-117100163D01*
X133224497Y-117127039D01*
X133270834Y-117159414D01*
X133321745Y-117195320D01*
X133483606Y-117310000D01*
X133746802Y-117310000D01*
X134010000Y-117310000D01*
X134010000Y-120915000D01*
X134010000Y-124520000D01*
X133825000Y-124520000D01*
X133640000Y-124520000D01*
X133640000Y-125040000D01*
X133640000Y-125560000D01*
X133612500Y-125559912D01*
X133610410Y-125559896D01*
X133582200Y-125558857D01*
X133540142Y-125556482D01*
X133489067Y-125553128D01*
X133433806Y-125549155D01*
X133379188Y-125544922D01*
X133330044Y-125540788D01*
X133291205Y-125537113D01*
X133267500Y-125534254D01*
X133230000Y-125528242D01*
X133230000Y-125024121D01*
X133230000Y-124520000D01*
X133050000Y-124520000D01*
X132870000Y-124520000D01*
X132870000Y-124340001D01*
X132870000Y-124159999D01*
X132870000Y-124135000D01*
X132870000Y-124110000D01*
X132870000Y-123934999D01*
X132870000Y-123760000D01*
X132869726Y-123732042D01*
X132870000Y-123700000D01*
X132870000Y-123535000D01*
X132870000Y-123480000D01*
X133150000Y-123480000D01*
X133430000Y-123480000D01*
X133430000Y-123325000D01*
X133430000Y-123280000D01*
X133150000Y-123279999D01*
X132870000Y-123279999D01*
X132870000Y-123105000D01*
X132870000Y-122930000D01*
X132869726Y-122911166D01*
X132870000Y-122870000D01*
X132870001Y-122700000D01*
X132870000Y-122530000D01*
X132869726Y-122497577D01*
X132870000Y-122470000D01*
X132870000Y-122295000D01*
X132870000Y-122230000D01*
X133150000Y-122230000D01*
X133430000Y-122230000D01*
X133430000Y-122075000D01*
X133430000Y-122030000D01*
X133150000Y-122030000D01*
X132870000Y-122030000D01*
X132870000Y-121850000D01*
X132870001Y-121670000D01*
X132870000Y-121640000D01*
X132870000Y-121610000D01*
X132870000Y-121440000D01*
X132870000Y-121270000D01*
X132870136Y-121239975D01*
X132870000Y-121209999D01*
X132870000Y-121040000D01*
X132870000Y-120980000D01*
X133150000Y-120980000D01*
X133430140Y-120980000D01*
X133430000Y-120825000D01*
X133430000Y-120780000D01*
X133149999Y-120780000D01*
X132870001Y-120780000D01*
X132870000Y-120610000D01*
X132870000Y-120440000D01*
X132869546Y-120413314D01*
X132870000Y-120380000D01*
X132870000Y-120205000D01*
X132870000Y-120029999D01*
X132869956Y-120005816D01*
X132870000Y-119980000D01*
X132870000Y-119800000D01*
X132870000Y-119730000D01*
X133150000Y-119730000D01*
X133430000Y-119730000D01*
X133430000Y-119575000D01*
X133430000Y-119530000D01*
X133150067Y-119529999D01*
X132870134Y-119529999D01*
X132867567Y-118817499D01*
X132865000Y-118105000D01*
X131737500Y-118102457D01*
X130610000Y-118099914D01*
X130610478Y-118002457D01*
X130610957Y-117905000D01*
X130702979Y-117755731D01*
X130795000Y-117606462D01*
X131565000Y-117333750D01*
X132334999Y-117061037D01*
X132728158Y-117060518D01*
X132771913Y-117060499D01*
X132876698Y-117060834D01*
G37*
%TD*%
M02*
