%TF.GenerationSoftware,KiCad,Pcbnew,10.0.1*%
%TF.CreationDate,2026-08-03T17:12:42+07:00*%
%TF.ProjectId,Power_Monitor,506f7765-725f-44d6-9f6e-69746f722e6b,rev?*%
%TF.SameCoordinates,Original*%
%TF.FileFunction,Paste,Top*%
%TF.FilePolarity,Positive*%
%FSLAX46Y46*%
G04 Gerber Fmt 4.6, Leading zero omitted, Abs format (unit mm)*
G04 Created by KiCad (PCBNEW 10.0.1) date 2026-08-03 17:12:42*
%MOMM*%
%LPD*%
G01*
G04 APERTURE LIST*
G04 Aperture macros list*
%AMRoundRect*
0 Rectangle with rounded corners*
0 $1 Rounding radius*
0 $2 $3 $4 $5 $6 $7 $8 $9 X,Y pos of 4 corners*
0 Add a 4 corners polygon primitive as box body*
4,1,4,$2,$3,$4,$5,$6,$7,$8,$9,$2,$3,0*
0 Add four circle primitives for the rounded corners*
1,1,$1+$1,$2,$3*
1,1,$1+$1,$4,$5*
1,1,$1+$1,$6,$7*
1,1,$1+$1,$8,$9*
0 Add four rect primitives between the rounded corners*
20,1,$1+$1,$2,$3,$4,$5,0*
20,1,$1+$1,$4,$5,$6,$7,0*
20,1,$1+$1,$6,$7,$8,$9,0*
20,1,$1+$1,$8,$9,$2,$3,0*%
G04 Aperture macros list end*
%ADD10RoundRect,0.135000X-0.135000X-0.185000X0.135000X-0.185000X0.135000X0.185000X-0.135000X0.185000X0*%
%ADD11RoundRect,0.135000X-0.185000X0.135000X-0.185000X-0.135000X0.185000X-0.135000X0.185000X0.135000X0*%
%ADD12RoundRect,0.140000X-0.140000X-0.170000X0.140000X-0.170000X0.140000X0.170000X-0.140000X0.170000X0*%
%ADD13RoundRect,0.250000X1.000000X0.650000X-1.000000X0.650000X-1.000000X-0.650000X1.000000X-0.650000X0*%
%ADD14RoundRect,0.075000X0.075000X-0.650000X0.075000X0.650000X-0.075000X0.650000X-0.075000X-0.650000X0*%
%ADD15RoundRect,0.250000X1.425000X-0.362500X1.425000X0.362500X-1.425000X0.362500X-1.425000X-0.362500X0*%
%ADD16RoundRect,0.140000X0.170000X-0.140000X0.170000X0.140000X-0.170000X0.140000X-0.170000X-0.140000X0*%
%ADD17RoundRect,0.135000X0.185000X-0.135000X0.185000X0.135000X-0.185000X0.135000X-0.185000X-0.135000X0*%
%ADD18RoundRect,0.140000X-0.170000X0.140000X-0.170000X-0.140000X0.170000X-0.140000X0.170000X0.140000X0*%
%ADD19RoundRect,0.315000X1.185000X-0.735000X1.185000X0.735000X-1.185000X0.735000X-1.185000X-0.735000X0*%
%ADD20RoundRect,0.120000X0.680000X-0.280000X0.680000X0.280000X-0.680000X0.280000X-0.680000X-0.280000X0*%
G04 APERTURE END LIST*
D10*
%TO.C,R1*%
X110880000Y-121400000D03*
X111900000Y-121400000D03*
%TD*%
D11*
%TO.C,R7*%
X134700000Y-119390001D03*
X134700000Y-120409999D03*
%TD*%
D12*
%TO.C,C1*%
X113320000Y-118800000D03*
X114280000Y-118800000D03*
%TD*%
D13*
%TO.C,D2*%
X117900001Y-105800000D03*
X113899999Y-105800000D03*
%TD*%
D11*
%TO.C,R5*%
X114300000Y-116780002D03*
X114300000Y-117800000D03*
%TD*%
%TO.C,R4*%
X113300000Y-116790001D03*
X113300000Y-117809999D03*
%TD*%
D14*
%TO.C,U1*%
X113300000Y-124750000D03*
X113800000Y-124750000D03*
X114300000Y-124750001D03*
X114800000Y-124750000D03*
X115300000Y-124750000D03*
X115300000Y-120450000D03*
X114800000Y-120450000D03*
X114300000Y-120449999D03*
X113800000Y-120450000D03*
X113300000Y-120450000D03*
%TD*%
D15*
%TO.C,R3*%
X125515000Y-105725000D03*
X125515000Y-99800000D03*
%TD*%
D16*
%TO.C,C2*%
X116400000Y-120100000D03*
X116400000Y-119140000D03*
%TD*%
D17*
%TO.C,R8*%
X134700000Y-118009999D03*
X134700000Y-116990001D03*
%TD*%
D18*
%TO.C,C3*%
X111900000Y-122620000D03*
X111900000Y-123580000D03*
%TD*%
D15*
%TO.C,R2*%
X121600000Y-105725000D03*
X121600000Y-99800000D03*
%TD*%
D17*
%TO.C,R6*%
X116600000Y-123009999D03*
X116600000Y-121990001D03*
%TD*%
D19*
%TO.C,J2*%
X139475000Y-124375000D03*
X139475000Y-115525000D03*
D20*
X136575000Y-121825000D03*
X136575000Y-120575001D03*
X136575000Y-119325000D03*
X136575000Y-118075001D03*
%TD*%
M02*
