M48
; DRILL file KiCad 10.0.1 date 2026-08-03T17:12:41
; FORMAT={-:-/ absolute / metric / decimal}
; #@! TF.CreationDate,2026-08-03T17:12:41+07:00
; #@! TF.GenerationSoftware,Kicad,Pcbnew,10.0.1
; #@! TF.FileFunction,Plated,1,2,PTH
FMAT,2
METRIC
; #@! TA.AperFunction,Plated,PTH,ViaDrill
T1C0.300
; #@! TA.AperFunction,Plated,PTH,ViaDrill
T2C0.400
; #@! TA.AperFunction,Plated,PTH,ComponentDrill
T3C0.600
; #@! TA.AperFunction,Plated,PTH,ComponentDrill
T4C2.700
; #@! TA.AperFunction,Plated,PTH,ComponentDrill
T5C3.000
; #@! TA.AperFunction,Plated,PTH,ComponentDrill
T6C3.200
%
G90
G05
T1
X110.0Y-117.5
X110.0Y-124.0
X111.9Y-123.58
X112.0Y-94.0
X112.0Y-96.0
X112.0Y-98.0
X112.0Y-100.0
X112.0Y-102.0
X113.3Y-116.79
X114.0Y-93.0
X114.0Y-95.0
X114.0Y-97.0
X114.0Y-99.0
X114.0Y-101.0
X114.0Y-103.0
X114.3Y-116.78
X116.0Y-94.0
X116.0Y-96.0
X116.4Y-119.14
X117.9Y-105.8
X118.0Y-93.0
X118.0Y-95.0
X118.0Y-97.0
X120.0Y-94.0
X120.0Y-96.0
X120.0Y-98.0
X120.6Y-103.4
X121.0Y-100.0
X122.0Y-93.0
X122.0Y-95.0
X122.0Y-97.0
X122.0Y-99.0
X122.5Y-117.5
X122.5Y-120.0
X123.0Y-100.0
X124.0Y-94.0
X124.0Y-96.0
X124.0Y-98.0
X125.0Y-117.5
X125.0Y-120.0
X126.0Y-93.0
X126.0Y-95.0
X127.5Y-117.5
X127.5Y-120.0
X129.0Y-96.0
X129.0Y-98.0
X129.0Y-100.0
X129.0Y-102.0
X129.0Y-104.0
X129.0Y-106.0
X130.0Y-97.0
X130.0Y-99.0
X130.0Y-101.0
X130.0Y-103.0
X130.0Y-105.0
X131.0Y-96.0
X131.0Y-98.0
X131.0Y-104.0
X131.0Y-106.0
X132.0Y-97.0
X132.0Y-105.0
X132.0Y-107.0
X133.0Y-96.0
X133.0Y-106.0
X134.0Y-97.0
X134.0Y-105.0
X134.0Y-107.0
X135.0Y-96.0
X135.0Y-106.0
X135.0Y-125.0
X136.0Y-97.0
X136.0Y-99.0
X136.0Y-101.0
X136.0Y-103.0
X136.0Y-105.0
X137.0Y-96.0
X137.0Y-98.0
X137.0Y-100.0
X137.0Y-102.0
X137.0Y-104.0
X138.0Y-97.0
X138.0Y-99.0
X138.0Y-101.0
X138.0Y-103.0
X140.0Y-117.5
X140.0Y-120.0
X140.0Y-122.5
T2
X116.6Y-121.99
X120.5Y-105.75
X121.0Y-106.75
X121.75Y-105.75
X122.5Y-106.75
X123.0Y-105.75
X123.75Y-106.75
X136.575Y-120.575
X136.575Y-121.825
T4
X121.8Y-109.3
X129.0Y-109.3
T6
X112.4Y-110.45
X138.4Y-110.45
T3
G00X118.65Y-115.85
M15
G01X118.65Y-114.75
M16
G05
G00X132.15Y-115.85
M15
G01X132.15Y-114.75
M16
G05
T5
G00X117.4Y-100.4
M15
G01X117.4Y-102.0
M16
G05
G00X133.4Y-101.95
M15
G01X133.4Y-100.45
M16
G05
M30
