%TF.GenerationSoftware,KiCad,Pcbnew,10.0.1*%
%TF.CreationDate,2026-08-03T17:12:41+07:00*%
%TF.ProjectId,Power_Monitor,506f7765-725f-44d6-9f6e-69746f722e6b,rev?*%
%TF.SameCoordinates,Original*%
%TF.FileFunction,Copper,L1,Top*%
%TF.FilePolarity,Positive*%
%FSLAX46Y46*%
G04 Gerber Fmt 4.6, Leading zero omitted, Abs format (unit mm)*
G04 Created by KiCad (PCBNEW 10.0.1) date 2026-08-03 17:12:41*
%MOMM*%
%LPD*%
G01*
G04 APERTURE LIST*
G04 Aperture macros list*
%AMRoundRect*
0 Rectangle with rounded corners*
0 $1 Rounding radius*
0 $2 $3 $4 $5 $6 $7 $8 $9 X,Y pos of 4 corners*
0 Add a 4 corners polygon primitive as box body*
4,1,4,$2,$3,$4,$5,$6,$7,$8,$9,$2,$3,0*
0 Add four circle primitives for the rounded corners*
1,1,$1+$1,$2,$3*
1,1,$1+$1,$4,$5*
1,1,$1+$1,$6,$7*
1,1,$1+$1,$8,$9*
0 Add four rect primitives between the rounded corners*
20,1,$1+$1,$2,$3,$4,$5,0*
20,1,$1+$1,$4,$5,$6,$7,0*
20,1,$1+$1,$6,$7,$8,$9,0*
20,1,$1+$1,$8,$9,$2,$3,0*%
G04 Aperture macros list end*
%TA.AperFunction,EtchedComponent*%
%ADD10C,0.000000*%
%TD*%
%TA.AperFunction,SMDPad,CuDef*%
%ADD11RoundRect,0.135000X-0.135000X-0.185000X0.135000X-0.185000X0.135000X0.185000X-0.135000X0.185000X0*%
%TD*%
%TA.AperFunction,ComponentPad*%
%ADD12RoundRect,0.787402X-1.212598X-2.212598X1.212598X-2.212598X1.212598X2.212598X-1.212598X2.212598X0*%
%TD*%
%TA.AperFunction,SMDPad,CuDef*%
%ADD13RoundRect,0.135000X-0.185000X0.135000X-0.185000X-0.135000X0.185000X-0.135000X0.185000X0.135000X0*%
%TD*%
%TA.AperFunction,SMDPad,CuDef*%
%ADD14C,0.500000*%
%TD*%
%TA.AperFunction,ComponentPad*%
%ADD15C,5.600000*%
%TD*%
%TA.AperFunction,SMDPad,CuDef*%
%ADD16RoundRect,0.140000X-0.140000X-0.170000X0.140000X-0.170000X0.140000X0.170000X-0.140000X0.170000X0*%
%TD*%
%TA.AperFunction,SMDPad,CuDef*%
%ADD17RoundRect,0.250000X1.000000X0.650000X-1.000000X0.650000X-1.000000X-0.650000X1.000000X-0.650000X0*%
%TD*%
%TA.AperFunction,SMDPad,CuDef*%
%ADD18RoundRect,0.075000X0.075000X-0.650000X0.075000X0.650000X-0.075000X0.650000X-0.075000X-0.650000X0*%
%TD*%
%TA.AperFunction,SMDPad,CuDef*%
%ADD19RoundRect,0.250000X1.425000X-0.362500X1.425000X0.362500X-1.425000X0.362500X-1.425000X-0.362500X0*%
%TD*%
%TA.AperFunction,SMDPad,CuDef*%
%ADD20RoundRect,0.140000X0.170000X-0.140000X0.170000X0.140000X-0.170000X0.140000X-0.170000X-0.140000X0*%
%TD*%
%TA.AperFunction,SMDPad,CuDef*%
%ADD21RoundRect,0.135000X0.185000X-0.135000X0.185000X0.135000X-0.185000X0.135000X-0.185000X-0.135000X0*%
%TD*%
%TA.AperFunction,ComponentPad*%
%ADD22RoundRect,0.787402X1.212598X2.212598X-1.212598X2.212598X-1.212598X-2.212598X1.212598X-2.212598X0*%
%TD*%
%TA.AperFunction,SMDPad,CuDef*%
%ADD23RoundRect,0.140000X-0.170000X0.140000X-0.170000X-0.140000X0.170000X-0.140000X0.170000X0.140000X0*%
%TD*%
%TA.AperFunction,ComponentPad*%
%ADD24R,0.900000X2.000000*%
%TD*%
%TA.AperFunction,ComponentPad*%
%ADD25RoundRect,1.025000X1.025000X1.025000X-1.025000X1.025000X-1.025000X-1.025000X1.025000X-1.025000X0*%
%TD*%
%TA.AperFunction,ComponentPad*%
%ADD26C,4.100000*%
%TD*%
%TA.AperFunction,SMDPad,CuDef*%
%ADD27RoundRect,0.315000X1.185000X-0.735000X1.185000X0.735000X-1.185000X0.735000X-1.185000X-0.735000X0*%
%TD*%
%TA.AperFunction,SMDPad,CuDef*%
%ADD28RoundRect,0.120000X0.680000X-0.280000X0.680000X0.280000X-0.680000X0.280000X-0.680000X-0.280000X0*%
%TD*%
%TA.AperFunction,ViaPad*%
%ADD29C,0.800000*%
%TD*%
%TA.AperFunction,ViaPad*%
%ADD30C,0.500000*%
%TD*%
%TA.AperFunction,Conductor*%
%ADD31C,0.300000*%
%TD*%
%TA.AperFunction,Conductor*%
%ADD32C,0.500000*%
%TD*%
%TA.AperFunction,Conductor*%
%ADD33C,2.000000*%
%TD*%
G04 APERTURE END LIST*
D10*
%TA.AperFunction,EtchedComponent*%
%TO.C,NT1*%
G36*
X125000000Y-114950000D02*
G01*
X124500000Y-114950000D01*
X124500000Y-113950000D01*
X125000000Y-113950000D01*
X125000000Y-114950000D01*
G37*
%TD.AperFunction*%
%TD*%
D11*
%TO.P,R1,1*%
%TO.N,Net-(D2-A1)*%
X110880000Y-121400000D03*
%TO.P,R1,2*%
%TO.N,Net-(U1-Vbus)*%
X111900000Y-121400000D03*
%TD*%
D12*
%TO.P,J3,1,Pin_1_1*%
%TO.N,Net-(J3-Pin_1)*%
X117400000Y-101200000D03*
%TD*%
D13*
%TO.P,R7,1*%
%TO.N,/SCL*%
X134700000Y-119390001D03*
%TO.P,R7,2*%
%TO.N,+3V3*%
X134700000Y-120409999D03*
%TD*%
D14*
%TO.P,NT1,1,1_1*%
%TO.N,GND1*%
X124750000Y-113950001D03*
%TO.P,NT1,2,2_2*%
%TO.N,GND2*%
X124750000Y-114949999D03*
%TD*%
D15*
%TO.P,H1,1*%
%TO.N,N/C*%
X112400000Y-110450000D03*
%TD*%
D16*
%TO.P,C1,1*%
%TO.N,Net-(U1-Vin+)*%
X113320000Y-118800000D03*
%TO.P,C1,2*%
%TO.N,Net-(U1-Vin-)*%
X114280000Y-118800000D03*
%TD*%
D15*
%TO.P,H2,1*%
%TO.N,N/C*%
X138400000Y-110450000D03*
%TD*%
D17*
%TO.P,D2,1,A1_1*%
%TO.N,Net-(D2-A1)*%
X117900001Y-105800000D03*
%TO.P,D2,2,A2_2*%
%TO.N,GND1*%
X113899999Y-105800000D03*
%TD*%
D13*
%TO.P,R5,1*%
%TO.N,Net-(J3-Pin_1)*%
X114300000Y-116780002D03*
%TO.P,R5,2*%
%TO.N,Net-(U1-Vin-)*%
X114300000Y-117800000D03*
%TD*%
%TO.P,R4,1*%
%TO.N,Net-(D2-A1)*%
X113300000Y-116790001D03*
%TO.P,R4,2*%
%TO.N,Net-(U1-Vin+)*%
X113300000Y-117809999D03*
%TD*%
D18*
%TO.P,U1,1,A1_1*%
%TO.N,unconnected-(U1-A1-Pad1)*%
X113300000Y-124750000D03*
%TO.P,U1,2,A0_2*%
%TO.N,unconnected-(U1-A0-Pad2)*%
X113800000Y-124750000D03*
%TO.P,U1,3,~{Alert}_3*%
%TO.N,Net-(U1-~{Alert})*%
X114300000Y-124750001D03*
%TO.P,U1,4,SDA_4*%
%TO.N,/SDA*%
X114800000Y-124750000D03*
%TO.P,U1,5,SCL_5*%
%TO.N,/SCL*%
X115300000Y-124750000D03*
%TO.P,U1,6,VS_6*%
%TO.N,+3V3*%
X115300000Y-120450000D03*
%TO.P,U1,7,GND_7*%
%TO.N,GND2*%
X114800000Y-120450000D03*
%TO.P,U1,8,Vbus_8*%
%TO.N,Net-(U1-Vbus)*%
X114300000Y-120449999D03*
%TO.P,U1,9,Vin-_9*%
%TO.N,Net-(U1-Vin-)*%
X113800000Y-120450000D03*
%TO.P,U1,10,Vin+_10*%
%TO.N,Net-(U1-Vin+)*%
X113300000Y-120450000D03*
%TD*%
D19*
%TO.P,R3,1*%
%TO.N,Net-(D2-A1)*%
X125515000Y-105725000D03*
%TO.P,R3,2*%
%TO.N,Net-(J3-Pin_1)*%
X125515000Y-99800000D03*
%TD*%
D20*
%TO.P,C2,1*%
%TO.N,+3V3*%
X116400000Y-120100000D03*
%TO.P,C2,2*%
%TO.N,GND2*%
X116400000Y-119140000D03*
%TD*%
D21*
%TO.P,R8,1*%
%TO.N,/SDA*%
X134700000Y-118009999D03*
%TO.P,R8,2*%
%TO.N,+3V3*%
X134700000Y-116990001D03*
%TD*%
D22*
%TO.P,J4,1,Pin_1_1*%
%TO.N,GND1*%
X133400000Y-101200000D03*
%TD*%
D23*
%TO.P,C3,1*%
%TO.N,Net-(U1-Vbus)*%
X111900000Y-122620000D03*
%TO.P,C3,2*%
%TO.N,GND2*%
X111900000Y-123580000D03*
%TD*%
D19*
%TO.P,R2,1*%
%TO.N,Net-(D2-A1)*%
X121600000Y-105725000D03*
%TO.P,R2,2*%
%TO.N,Net-(J3-Pin_1)*%
X121600000Y-99800000D03*
%TD*%
D21*
%TO.P,R6,1*%
%TO.N,Net-(U1-~{Alert})*%
X116600000Y-123009999D03*
%TO.P,R6,2*%
%TO.N,+3V3*%
X116600000Y-121990001D03*
%TD*%
D24*
%TO.P,J1,*%
%TO.N,*%
X132150000Y-115300000D03*
X118650000Y-115300000D03*
D25*
%TO.P,J1,1,Pin_1_1*%
%TO.N,GND1*%
X129000000Y-109300000D03*
D26*
%TO.P,J1,2,Pin_2_2*%
%TO.N,Net-(D2-A1)*%
X121800000Y-109300000D03*
%TD*%
D27*
%TO.P,J2,*%
%TO.N,*%
X139475000Y-124375000D03*
X139475000Y-115525000D03*
D28*
%TO.P,J2,1,Pin_1_1*%
%TO.N,+3V3*%
X136575000Y-121825000D03*
%TO.P,J2,2,Pin_2_2*%
%TO.N,GND2*%
X136575000Y-120575001D03*
%TO.P,J2,3,Pin_3_3*%
%TO.N,/SCL*%
X136575000Y-119325000D03*
%TO.P,J2,4,Pin_4_4*%
%TO.N,/SDA*%
X136575000Y-118075001D03*
%TD*%
D29*
%TO.N,Net-(D2-A1)*%
X122500000Y-106750000D03*
X121750000Y-105750000D03*
X123000000Y-105750000D03*
X123750000Y-106750000D03*
X121000000Y-106750000D03*
D30*
X117900001Y-105800000D03*
D29*
X120500000Y-105750000D03*
D30*
X113300000Y-116790001D03*
%TO.N,Net-(J3-Pin_1)*%
X126000000Y-93000000D03*
X112000000Y-96000000D03*
X114000000Y-95000000D03*
X114000000Y-93000000D03*
X118000000Y-93000000D03*
X112000000Y-98000000D03*
X114000000Y-99000000D03*
X114000000Y-103000000D03*
X112000000Y-100000000D03*
X122000000Y-95000000D03*
X114300000Y-116780002D03*
X112000000Y-102000000D03*
X116000000Y-94000000D03*
X122000000Y-93000000D03*
X116000000Y-96000000D03*
X124000000Y-98000000D03*
X122000000Y-97000000D03*
X122000000Y-99000000D03*
X114000000Y-101000000D03*
X123000000Y-100000000D03*
X118000000Y-95000000D03*
X118000000Y-97000000D03*
X112000000Y-94000000D03*
X120000000Y-96000000D03*
X124000000Y-94000000D03*
X124000000Y-96000000D03*
X120000000Y-94000000D03*
X120600000Y-103400000D03*
X120000000Y-98000000D03*
X126000000Y-95000000D03*
X121000000Y-100000000D03*
X114000000Y-97000000D03*
D29*
%TO.N,+3V3*%
X136575000Y-121825000D03*
X116600000Y-121990001D03*
D30*
%TO.N,GND1*%
X138000000Y-97000000D03*
X134000000Y-105000000D03*
X131000000Y-104000000D03*
X137000000Y-98000000D03*
X129000000Y-104000000D03*
X133000000Y-96000000D03*
X134000000Y-97000000D03*
X136000000Y-105000000D03*
X138000000Y-103000000D03*
X137000000Y-102000000D03*
X137000000Y-96000000D03*
X129000000Y-96000000D03*
X132000000Y-97000000D03*
X136000000Y-97000000D03*
X137000000Y-100000000D03*
X136000000Y-101000000D03*
X137000000Y-104000000D03*
X130000000Y-99000000D03*
X136000000Y-99000000D03*
X130000000Y-101000000D03*
X131000000Y-96000000D03*
X136000000Y-103000000D03*
X138000000Y-101000000D03*
X129000000Y-102000000D03*
X132000000Y-107000000D03*
X134000000Y-107000000D03*
X135000000Y-96000000D03*
X129000000Y-100000000D03*
X131000000Y-98000000D03*
X133000000Y-106000000D03*
X132000000Y-105000000D03*
X130000000Y-97000000D03*
X131000000Y-106000000D03*
X130000000Y-103000000D03*
X129000000Y-106000000D03*
X129000000Y-98000000D03*
X130000000Y-105000000D03*
X135000000Y-106000000D03*
X138000000Y-99000000D03*
%TO.N,GND2*%
X110000000Y-117500000D03*
X122500000Y-120000000D03*
X116400000Y-119140000D03*
D29*
X136575000Y-120575001D03*
D30*
X140000000Y-117500000D03*
X127500000Y-120000000D03*
X135000000Y-125000000D03*
X125000000Y-117500000D03*
X140000000Y-122500000D03*
X122500000Y-117500000D03*
X125000000Y-120000000D03*
X140000000Y-120000000D03*
X127500000Y-117500000D03*
X111900000Y-123580000D03*
X110000000Y-124000000D03*
%TD*%
%TO.N,Net-(D2-A1)*%
D31*
X110880000Y-119210001D02*
X113300000Y-116790001D01*
X110880000Y-121400000D02*
X110880000Y-119210001D01*
%TO.N,Net-(U1-Vbus)*%
X114300000Y-120449999D02*
X114300000Y-121278120D01*
X114300000Y-121278120D02*
X112958120Y-122620000D01*
X112958120Y-122620000D02*
X111900000Y-122620000D01*
X111900000Y-121400000D02*
X111900000Y-122620000D01*
%TO.N,Net-(J3-Pin_1)*%
X120600000Y-100800000D02*
X120600000Y-103400000D01*
X121600000Y-99800000D02*
X120600000Y-100800000D01*
%TO.N,/SCL*%
X134309999Y-119390001D02*
X133500000Y-120200000D01*
X133500000Y-123200000D02*
X131950000Y-124750000D01*
X134700000Y-119390001D02*
X134309999Y-119390001D01*
X133500000Y-120200000D02*
X133500000Y-123200000D01*
X136575000Y-119325000D02*
X134765001Y-119325000D01*
X131950000Y-124750000D02*
X115300000Y-124750000D01*
X134765001Y-119325000D02*
X134700000Y-119390001D01*
%TO.N,+3V3*%
D32*
X115750000Y-120100000D02*
X115400000Y-120450000D01*
X134700000Y-116990001D02*
X137790001Y-116990001D01*
X138700000Y-117900000D02*
X138700000Y-121000000D01*
X135845002Y-121825000D02*
X136575000Y-121825000D01*
X116400000Y-120100000D02*
X115750000Y-120100000D01*
X134700000Y-120409999D02*
X134700000Y-120679998D01*
X137790001Y-116990001D02*
X138700000Y-117900000D01*
X134700000Y-120679998D02*
X135845002Y-121825000D01*
X138700000Y-121000000D02*
X137875000Y-121825000D01*
X116600000Y-121990001D02*
X116600000Y-120300000D01*
X137875000Y-121825000D02*
X136575000Y-121825000D01*
X116600000Y-120300000D02*
X116400000Y-120100000D01*
%TO.N,GND1*%
D33*
X117000000Y-111100000D02*
X119000000Y-113100000D01*
X113899999Y-105800000D02*
X117000000Y-108900001D01*
X117000000Y-108900001D02*
X117000000Y-111100000D01*
X125200000Y-113100000D02*
X129000000Y-109300000D01*
X119000000Y-113100000D02*
X125200000Y-113100000D01*
%TO.N,GND2*%
D31*
X114800000Y-119600000D02*
X115260000Y-119140000D01*
X115260000Y-119140000D02*
X116400000Y-119140000D01*
X114800000Y-120450000D02*
X114800000Y-119600000D01*
%TO.N,Net-(U1-Vin+)*%
D32*
X113300000Y-117809999D02*
X113300000Y-118780000D01*
X113300000Y-118780000D02*
X113320000Y-118800000D01*
D31*
X113300000Y-118820000D02*
X113320000Y-118800000D01*
X113300000Y-120450000D02*
X113300000Y-118820000D01*
%TO.N,Net-(U1-Vin-)*%
X114300000Y-118780000D02*
X114280000Y-118800000D01*
X114280000Y-118800000D02*
X114280000Y-119141879D01*
X114300000Y-117800000D02*
X114300000Y-118780000D01*
X113800000Y-119621879D02*
X113800000Y-120450000D01*
X114280000Y-119141879D02*
X113800000Y-119621879D01*
%TO.N,Net-(U1-~{Alert})*%
X114790001Y-123009999D02*
X114300000Y-123500000D01*
X114300000Y-123500000D02*
X114300000Y-124750001D01*
X116600000Y-123009999D02*
X114790001Y-123009999D01*
%TO.N,/SDA*%
X114800000Y-124750000D02*
X114800000Y-123921880D01*
X136575000Y-118075001D02*
X134765002Y-118075001D01*
X134765002Y-118075001D02*
X134700000Y-118009999D01*
X115046880Y-123675000D02*
X131325000Y-123675000D01*
X133590001Y-118009999D02*
X134700000Y-118009999D01*
X114800000Y-123921880D02*
X115046880Y-123675000D01*
X132300000Y-119300000D02*
X133590001Y-118009999D01*
X132300000Y-122700000D02*
X132300000Y-119300000D01*
X131325000Y-123675000D02*
X132300000Y-122700000D01*
%TD*%
%TA.AperFunction,Conductor*%
%TO.N,Net-(J3-Pin_1)*%
G36*
X126895903Y-92200264D02*
G01*
X126904033Y-92200797D01*
X126912074Y-92201589D01*
X127005173Y-92213846D01*
X127021065Y-92217007D01*
X127036645Y-92221181D01*
X127051995Y-92226392D01*
X127127411Y-92257630D01*
X127141953Y-92264802D01*
X127155914Y-92272862D01*
X127169403Y-92281875D01*
X127234154Y-92331561D01*
X127246348Y-92342255D01*
X127257742Y-92353649D01*
X127268437Y-92365844D01*
X127318126Y-92430600D01*
X127327137Y-92444086D01*
X127335194Y-92458041D01*
X127342368Y-92472589D01*
X127373603Y-92547998D01*
X127378815Y-92563351D01*
X127382988Y-92578922D01*
X127386154Y-92594836D01*
X127398409Y-92687921D01*
X127399204Y-92695982D01*
X127399734Y-92704080D01*
X127400000Y-92712178D01*
X127400000Y-100087819D01*
X127399734Y-100095938D01*
X127399204Y-100104015D01*
X127398409Y-100112082D01*
X127386154Y-100205163D01*
X127382988Y-100221076D01*
X127378815Y-100236647D01*
X127373603Y-100252000D01*
X127342368Y-100327409D01*
X127335194Y-100341957D01*
X127327137Y-100355912D01*
X127318126Y-100369398D01*
X127268437Y-100434154D01*
X127257742Y-100446349D01*
X127246349Y-100457742D01*
X127234154Y-100468437D01*
X127169398Y-100518126D01*
X127155912Y-100527137D01*
X127141957Y-100535194D01*
X127127409Y-100542368D01*
X127052000Y-100573603D01*
X127036647Y-100578815D01*
X127021076Y-100582988D01*
X127005163Y-100586154D01*
X126921084Y-100597224D01*
X126919398Y-100597446D01*
X126918060Y-100597622D01*
X126912063Y-100598411D01*
X126904015Y-100599204D01*
X126903484Y-100599238D01*
X126895919Y-100599734D01*
X126887819Y-100600000D01*
X119812179Y-100600000D01*
X119804073Y-100599734D01*
X119795996Y-100599204D01*
X119787931Y-100598410D01*
X119778921Y-100597224D01*
X119778918Y-100597224D01*
X119694835Y-100586154D01*
X119678922Y-100582988D01*
X119663351Y-100578815D01*
X119647998Y-100573603D01*
X119572589Y-100542368D01*
X119558041Y-100535194D01*
X119544086Y-100527137D01*
X119530600Y-100518126D01*
X119465844Y-100468437D01*
X119453649Y-100457742D01*
X119442256Y-100446349D01*
X119431561Y-100434154D01*
X119381872Y-100369398D01*
X119372861Y-100355912D01*
X119364804Y-100341957D01*
X119357630Y-100327410D01*
X119326394Y-100252000D01*
X119321181Y-100236643D01*
X119317010Y-100221076D01*
X119317007Y-100221065D01*
X119313846Y-100205173D01*
X119301589Y-100112074D01*
X119300796Y-100104030D01*
X119300264Y-100095905D01*
X119300000Y-100087820D01*
X119300000Y-98600000D01*
X118800000Y-98600000D01*
X116100000Y-98600000D01*
X115600000Y-98600000D01*
X115600000Y-103187819D01*
X115599734Y-103195938D01*
X115599204Y-103204015D01*
X115598409Y-103212082D01*
X115586154Y-103305163D01*
X115582988Y-103321076D01*
X115578815Y-103336647D01*
X115573603Y-103352000D01*
X115542368Y-103427409D01*
X115535194Y-103441957D01*
X115527137Y-103455912D01*
X115518126Y-103469398D01*
X115468437Y-103534154D01*
X115457742Y-103546349D01*
X115446349Y-103557742D01*
X115434154Y-103568437D01*
X115369398Y-103618126D01*
X115355912Y-103627137D01*
X115341957Y-103635194D01*
X115327409Y-103642368D01*
X115252000Y-103673603D01*
X115236647Y-103678815D01*
X115221076Y-103682988D01*
X115205163Y-103686154D01*
X115121084Y-103697224D01*
X115119398Y-103697446D01*
X115118060Y-103697622D01*
X115112063Y-103698411D01*
X115104015Y-103699204D01*
X115103484Y-103699238D01*
X115095919Y-103699734D01*
X115087819Y-103700000D01*
X110912179Y-103700000D01*
X110904073Y-103699734D01*
X110895996Y-103699204D01*
X110887931Y-103698410D01*
X110878921Y-103697224D01*
X110878918Y-103697224D01*
X110794835Y-103686154D01*
X110778922Y-103682988D01*
X110763351Y-103678815D01*
X110747998Y-103673603D01*
X110672589Y-103642368D01*
X110658041Y-103635194D01*
X110644086Y-103627137D01*
X110630600Y-103618126D01*
X110565844Y-103568437D01*
X110553649Y-103557742D01*
X110542256Y-103546349D01*
X110531561Y-103534154D01*
X110481872Y-103469398D01*
X110472861Y-103455912D01*
X110464804Y-103441957D01*
X110457630Y-103427410D01*
X110426394Y-103352000D01*
X110421181Y-103336643D01*
X110417010Y-103321076D01*
X110417007Y-103321065D01*
X110413846Y-103305173D01*
X110401589Y-103212074D01*
X110400796Y-103204030D01*
X110400264Y-103195905D01*
X110400000Y-103187820D01*
X110400000Y-92712178D01*
X110400264Y-92704095D01*
X110400797Y-92695965D01*
X110401590Y-92687920D01*
X110413845Y-92594834D01*
X110417010Y-92578923D01*
X110421182Y-92563354D01*
X110426395Y-92547998D01*
X110457631Y-92472587D01*
X110464801Y-92458046D01*
X110464804Y-92458041D01*
X110472864Y-92444079D01*
X110481856Y-92430620D01*
X110531578Y-92365822D01*
X110542251Y-92353653D01*
X110553653Y-92342251D01*
X110565830Y-92331572D01*
X110630613Y-92281862D01*
X110644075Y-92272866D01*
X110658052Y-92264796D01*
X110672566Y-92257638D01*
X110748012Y-92226387D01*
X110763352Y-92221181D01*
X110778931Y-92217007D01*
X110794821Y-92213846D01*
X110887927Y-92201589D01*
X110895966Y-92200797D01*
X110904095Y-92200264D01*
X110912179Y-92200000D01*
X126887821Y-92200000D01*
X126895903Y-92200264D01*
G37*
%TD.AperFunction*%
%TD*%
%TA.AperFunction,Conductor*%
%TO.N,Net-(D2-A1)*%
G36*
X126895903Y-104900264D02*
G01*
X126904033Y-104900797D01*
X126912074Y-104901589D01*
X127005173Y-104913846D01*
X127021065Y-104917007D01*
X127036645Y-104921181D01*
X127051995Y-104926392D01*
X127127411Y-104957630D01*
X127141953Y-104964802D01*
X127155914Y-104972862D01*
X127169403Y-104981875D01*
X127234154Y-105031561D01*
X127246348Y-105042255D01*
X127257742Y-105053649D01*
X127268437Y-105065844D01*
X127318126Y-105130600D01*
X127327137Y-105144086D01*
X127335194Y-105158041D01*
X127342368Y-105172589D01*
X127373603Y-105247998D01*
X127378815Y-105263351D01*
X127382988Y-105278922D01*
X127386154Y-105294836D01*
X127398409Y-105387921D01*
X127399204Y-105395982D01*
X127399734Y-105404080D01*
X127400000Y-105412178D01*
X127400000Y-106119424D01*
X127399590Y-106129502D01*
X127398773Y-106139521D01*
X127397546Y-106149526D01*
X127378702Y-106264338D01*
X127373832Y-106283896D01*
X127367454Y-106302800D01*
X127359487Y-106321298D01*
X127312116Y-106410538D01*
X127301251Y-106427512D01*
X127289165Y-106443387D01*
X127275699Y-106458373D01*
X127191159Y-106538312D01*
X127183554Y-106544938D01*
X127175714Y-106551227D01*
X127167603Y-106557209D01*
X126877509Y-106753449D01*
X126561846Y-106966987D01*
X126200000Y-107211764D01*
X126200000Y-110262333D01*
X126199999Y-110262335D01*
X126200000Y-110262336D01*
X126194976Y-110297270D01*
X126187564Y-110322511D01*
X126156269Y-110375255D01*
X124730952Y-111800573D01*
X124702701Y-111821722D01*
X124679613Y-111834330D01*
X124620183Y-111849500D01*
X119926691Y-111849500D01*
X119912095Y-111848638D01*
X119907262Y-111848065D01*
X119906262Y-111847866D01*
X119905992Y-111847914D01*
X119898816Y-111847064D01*
X119895901Y-111845819D01*
X119883180Y-111844184D01*
X119883001Y-111844139D01*
X119851204Y-111831251D01*
X119844069Y-111827129D01*
X119830612Y-111818135D01*
X119765844Y-111768437D01*
X119753649Y-111757742D01*
X119742256Y-111746349D01*
X119731561Y-111734154D01*
X119681872Y-111669398D01*
X119672861Y-111655912D01*
X119664804Y-111641957D01*
X119657630Y-111627410D01*
X119626394Y-111552000D01*
X119621181Y-111536643D01*
X119617007Y-111521065D01*
X119613846Y-111505173D01*
X119601589Y-111412074D01*
X119600796Y-111404030D01*
X119600264Y-111395905D01*
X119600000Y-111387820D01*
X119600000Y-106900000D01*
X120100000Y-106900000D01*
X120100000Y-104900000D01*
X126887821Y-104900000D01*
X126895903Y-104900264D01*
G37*
%TD.AperFunction*%
%TD*%
%TA.AperFunction,Conductor*%
%TO.N,GND1*%
G36*
X138208059Y-95401061D02*
G01*
X138313223Y-95414906D01*
X138344491Y-95423284D01*
X138434918Y-95460740D01*
X138462952Y-95476925D01*
X138540602Y-95536509D01*
X138563491Y-95559398D01*
X138623074Y-95637048D01*
X138639259Y-95665081D01*
X138676715Y-95755508D01*
X138685093Y-95786775D01*
X138698939Y-95891939D01*
X138700000Y-95908125D01*
X138700000Y-103672340D01*
X138698827Y-103689358D01*
X138683523Y-103799814D01*
X138674269Y-103832566D01*
X138632978Y-103926790D01*
X138615169Y-103955793D01*
X138544333Y-104041908D01*
X138532617Y-104054305D01*
X135997771Y-106391118D01*
X132300000Y-109800000D01*
X132300000Y-111591874D01*
X132298939Y-111608059D01*
X132298939Y-111608060D01*
X132285093Y-111713224D01*
X132276715Y-111744491D01*
X132239259Y-111834918D01*
X132223074Y-111862951D01*
X132163491Y-111940601D01*
X132140601Y-111963491D01*
X132062951Y-112023074D01*
X132034918Y-112039259D01*
X131944491Y-112076715D01*
X131913224Y-112085093D01*
X131819398Y-112097446D01*
X131808058Y-112098939D01*
X131791874Y-112100000D01*
X127198126Y-112100000D01*
X127181941Y-112098939D01*
X127168917Y-112097224D01*
X127076775Y-112085093D01*
X127045508Y-112076715D01*
X126955081Y-112039259D01*
X126927048Y-112023074D01*
X126849398Y-111963491D01*
X126826508Y-111940601D01*
X126766925Y-111862951D01*
X126750740Y-111834918D01*
X126713284Y-111744491D01*
X126704906Y-111713223D01*
X126691061Y-111608059D01*
X126690000Y-111591874D01*
X126690000Y-107727420D01*
X126691620Y-107707443D01*
X126712720Y-107578257D01*
X126725435Y-107540370D01*
X126781783Y-107433627D01*
X126805894Y-107401754D01*
X126900661Y-107311450D01*
X126916232Y-107298850D01*
X128082066Y-106502319D01*
X128082065Y-106502319D01*
X128300000Y-106353420D01*
X128300000Y-95908125D01*
X128301061Y-95891940D01*
X128314906Y-95786776D01*
X128314906Y-95786775D01*
X128323284Y-95755508D01*
X128360740Y-95665081D01*
X128376923Y-95637050D01*
X128436513Y-95559392D01*
X128459392Y-95536513D01*
X128537050Y-95476923D01*
X128565079Y-95460740D01*
X128655509Y-95423283D01*
X128686775Y-95414906D01*
X128791941Y-95401061D01*
X128808126Y-95400000D01*
X138191874Y-95400000D01*
X138208059Y-95401061D01*
G37*
%TD.AperFunction*%
%TD*%
%TA.AperFunction,Conductor*%
%TO.N,Net-(D2-A1)*%
G36*
X120100000Y-106900000D02*
G01*
X116819835Y-106900000D01*
X116752796Y-106880315D01*
X116732154Y-106863681D01*
X116436319Y-106567846D01*
X116402834Y-106506523D01*
X116400000Y-106480165D01*
X116400000Y-105024000D01*
X116419685Y-104956961D01*
X116472489Y-104911206D01*
X116524000Y-104900000D01*
X120100000Y-104900000D01*
X120100000Y-106900000D01*
G37*
%TD.AperFunction*%
%TD*%
%TA.AperFunction,Conductor*%
%TO.N,GND2*%
G36*
X117892539Y-114919685D02*
G01*
X117938294Y-114972489D01*
X117949500Y-115024000D01*
X117949500Y-116324678D01*
X117964032Y-116397735D01*
X117964033Y-116397739D01*
X117977806Y-116418352D01*
X118019399Y-116480601D01*
X118098539Y-116533480D01*
X118102260Y-116535966D01*
X118102264Y-116535967D01*
X118175321Y-116550499D01*
X118175324Y-116550500D01*
X118175326Y-116550500D01*
X119124676Y-116550500D01*
X119124677Y-116550499D01*
X119197740Y-116535966D01*
X119280601Y-116480601D01*
X119335966Y-116397740D01*
X119350500Y-116324674D01*
X119350500Y-115627576D01*
X124425975Y-115627576D01*
X124531236Y-115671177D01*
X124531240Y-115671178D01*
X124676126Y-115699998D01*
X124676129Y-115699999D01*
X124823871Y-115699999D01*
X124823873Y-115699998D01*
X124968760Y-115671178D01*
X124968775Y-115671174D01*
X125074024Y-115627577D01*
X125074024Y-115627576D01*
X124750001Y-115303553D01*
X124750000Y-115303553D01*
X124425975Y-115627576D01*
X119350500Y-115627576D01*
X119350500Y-115024000D01*
X119370185Y-114956961D01*
X119422989Y-114911206D01*
X119474500Y-114900000D01*
X123876000Y-114900000D01*
X123943039Y-114919685D01*
X123988794Y-114972489D01*
X123998668Y-115017880D01*
X123999403Y-115017808D01*
X124000000Y-115023872D01*
X124028820Y-115168758D01*
X124028822Y-115168766D01*
X124072421Y-115274023D01*
X124446445Y-114900000D01*
X124700001Y-114900000D01*
X124749999Y-114949998D01*
X124799997Y-114900000D01*
X125053554Y-114900000D01*
X125427577Y-115274023D01*
X125427578Y-115274023D01*
X125471175Y-115168774D01*
X125471179Y-115168759D01*
X125499999Y-115023872D01*
X125500597Y-115017808D01*
X125501783Y-115017924D01*
X125519685Y-114956961D01*
X125572489Y-114911206D01*
X125624000Y-114900000D01*
X131325500Y-114900000D01*
X131392539Y-114919685D01*
X131438294Y-114972489D01*
X131449500Y-115024000D01*
X131449500Y-116324678D01*
X131464032Y-116397735D01*
X131464033Y-116397739D01*
X131477806Y-116418352D01*
X131519399Y-116480601D01*
X131598539Y-116533480D01*
X131602260Y-116535966D01*
X131602264Y-116535967D01*
X131675321Y-116550499D01*
X131675324Y-116550500D01*
X131675326Y-116550500D01*
X132624676Y-116550500D01*
X132624677Y-116550499D01*
X132697740Y-116535966D01*
X132780601Y-116480601D01*
X132835966Y-116397740D01*
X132850500Y-116324674D01*
X132850500Y-115024000D01*
X132870185Y-114956961D01*
X132922989Y-114911206D01*
X132974500Y-114900000D01*
X137600500Y-114900000D01*
X137667539Y-114919685D01*
X137713294Y-114972489D01*
X137724500Y-115024000D01*
X137724500Y-116297061D01*
X137724501Y-116297080D01*
X137731378Y-116349317D01*
X137720612Y-116418352D01*
X137674232Y-116470607D01*
X137608439Y-116489501D01*
X135043784Y-116489501D01*
X135006461Y-116480864D01*
X135005721Y-116483262D01*
X134996524Y-116480420D01*
X134996518Y-116480419D01*
X134921582Y-116469501D01*
X134478418Y-116469501D01*
X134403482Y-116480419D01*
X134403480Y-116480419D01*
X134403478Y-116480420D01*
X134287900Y-116536922D01*
X134287897Y-116536924D01*
X134196923Y-116627898D01*
X134196921Y-116627901D01*
X134140419Y-116743479D01*
X134140418Y-116743481D01*
X134140418Y-116743483D01*
X134129500Y-116818419D01*
X134129500Y-117161583D01*
X134140418Y-117236519D01*
X134140418Y-117236520D01*
X134140419Y-117236522D01*
X134196921Y-117352100D01*
X134196923Y-117352103D01*
X134242638Y-117397818D01*
X134276123Y-117459141D01*
X134271139Y-117528833D01*
X134229267Y-117584766D01*
X134163803Y-117609183D01*
X134154957Y-117609499D01*
X133537274Y-117609499D01*
X133435411Y-117636792D01*
X133344088Y-117689519D01*
X133344085Y-117689521D01*
X131979522Y-119054084D01*
X131979518Y-119054090D01*
X131926792Y-119145413D01*
X131926791Y-119145414D01*
X131913987Y-119193205D01*
X131899500Y-119247271D01*
X131899500Y-122482745D01*
X131879815Y-122549784D01*
X131863181Y-122570426D01*
X131195426Y-123238181D01*
X131134103Y-123271666D01*
X131107745Y-123274500D01*
X117294500Y-123274500D01*
X117227461Y-123254815D01*
X117181706Y-123202011D01*
X117170500Y-123150500D01*
X117170500Y-122838422D01*
X117170500Y-122838417D01*
X117159582Y-122763481D01*
X117154324Y-122752725D01*
X117103078Y-122647899D01*
X117103076Y-122647896D01*
X117070244Y-122615064D01*
X117036759Y-122553741D01*
X117041743Y-122484049D01*
X117070245Y-122439701D01*
X117105273Y-122404673D01*
X117105276Y-122404670D01*
X117176465Y-122298128D01*
X117225501Y-122179745D01*
X117250500Y-122054070D01*
X117250500Y-121925932D01*
X117250500Y-121925929D01*
X117225502Y-121800262D01*
X117225501Y-121800261D01*
X117225501Y-121800257D01*
X117176465Y-121681874D01*
X117176464Y-121681872D01*
X117176458Y-121681862D01*
X117121398Y-121599458D01*
X117100520Y-121532781D01*
X117100500Y-121530568D01*
X117100500Y-120234110D01*
X117100500Y-120234108D01*
X117066392Y-120106814D01*
X117000500Y-119992686D01*
X116993396Y-119985582D01*
X116983196Y-119966902D01*
X116969030Y-119951018D01*
X116961859Y-119927827D01*
X116959911Y-119924259D01*
X116958604Y-119917299D01*
X116951970Y-119875414D01*
X116960924Y-119806121D01*
X116986762Y-119768334D01*
X117079717Y-119675379D01*
X117079721Y-119675374D01*
X117162031Y-119536195D01*
X117204504Y-119390000D01*
X115595494Y-119390000D01*
X115564859Y-119430802D01*
X115555912Y-119437479D01*
X115550219Y-119447081D01*
X115528413Y-119458003D01*
X115508866Y-119472593D01*
X115496101Y-119474188D01*
X115487748Y-119478373D01*
X115456680Y-119479116D01*
X115452477Y-119479642D01*
X115450967Y-119479480D01*
X115413139Y-119474500D01*
X115404528Y-119474500D01*
X115397935Y-119473793D01*
X115371529Y-119462863D01*
X115344118Y-119454815D01*
X115337604Y-119448822D01*
X115333377Y-119447073D01*
X115329258Y-119441145D01*
X115312782Y-119425987D01*
X115285096Y-119389907D01*
X115164978Y-119297736D01*
X115025108Y-119239801D01*
X115025104Y-119239800D01*
X114928935Y-119227138D01*
X114949684Y-119282766D01*
X114950000Y-119291612D01*
X114950000Y-119592050D01*
X114947560Y-119603053D01*
X114948594Y-119610670D01*
X114938382Y-119644455D01*
X114912382Y-119700212D01*
X114866210Y-119752651D01*
X114799016Y-119771803D01*
X114732135Y-119751587D01*
X114687618Y-119700211D01*
X114661618Y-119644453D01*
X114650000Y-119592049D01*
X114650000Y-119343612D01*
X114669685Y-119276573D01*
X114686319Y-119255931D01*
X114738319Y-119203931D01*
X114799642Y-119170446D01*
X114823412Y-119172145D01*
X114817951Y-119162014D01*
X114801625Y-119137262D01*
X114800852Y-119130291D01*
X114798870Y-119126613D01*
X114798390Y-119108068D01*
X114796544Y-119091396D01*
X114796925Y-119086437D01*
X114810500Y-119000735D01*
X114810500Y-118890000D01*
X115595496Y-118890000D01*
X116150000Y-118890000D01*
X116650000Y-118890000D01*
X117204504Y-118890000D01*
X117162031Y-118743804D01*
X117079721Y-118604625D01*
X117079714Y-118604616D01*
X116965383Y-118490285D01*
X116965374Y-118490278D01*
X116826195Y-118407968D01*
X116826190Y-118407966D01*
X116670918Y-118362855D01*
X116670912Y-118362854D01*
X116650000Y-118361209D01*
X116650000Y-118890000D01*
X116150000Y-118890000D01*
X116150000Y-118361210D01*
X116149999Y-118361209D01*
X116129087Y-118362854D01*
X116129081Y-118362855D01*
X115973809Y-118407966D01*
X115973804Y-118407968D01*
X115834625Y-118490278D01*
X115834616Y-118490285D01*
X115720285Y-118604616D01*
X115720278Y-118604625D01*
X115637968Y-118743804D01*
X115595496Y-118890000D01*
X114810500Y-118890000D01*
X114810499Y-118599266D01*
X114810499Y-118599265D01*
X114810499Y-118599260D01*
X114796018Y-118507829D01*
X114796018Y-118507828D01*
X114796017Y-118507826D01*
X114796017Y-118507825D01*
X114739859Y-118397609D01*
X114739857Y-118397607D01*
X114734120Y-118389710D01*
X114735640Y-118388605D01*
X114707910Y-118337821D01*
X114712894Y-118268129D01*
X114741392Y-118223785D01*
X114803076Y-118162102D01*
X114803076Y-118162100D01*
X114803078Y-118162099D01*
X114847616Y-118070995D01*
X114859582Y-118046518D01*
X114870500Y-117971582D01*
X114870500Y-117628418D01*
X114859582Y-117553482D01*
X114833436Y-117500000D01*
X114803078Y-117437900D01*
X114803076Y-117437897D01*
X114742861Y-117377682D01*
X114709376Y-117316359D01*
X114714360Y-117246667D01*
X114742861Y-117202320D01*
X114803076Y-117142104D01*
X114803078Y-117142101D01*
X114854370Y-117037181D01*
X114859582Y-117026520D01*
X114870500Y-116951584D01*
X114870500Y-116608420D01*
X114859582Y-116533484D01*
X114835030Y-116483262D01*
X114803078Y-116417902D01*
X114803076Y-116417899D01*
X114712102Y-116326925D01*
X114712099Y-116326923D01*
X114596521Y-116270421D01*
X114596519Y-116270420D01*
X114596518Y-116270420D01*
X114521582Y-116259502D01*
X114078418Y-116259502D01*
X114003482Y-116270420D01*
X114003480Y-116270420D01*
X114003478Y-116270421D01*
X113887900Y-116326923D01*
X113887898Y-116326924D01*
X113882678Y-116332145D01*
X113821353Y-116365627D01*
X113751662Y-116360640D01*
X113721591Y-116341313D01*
X113720463Y-116342894D01*
X113712099Y-116336922D01*
X113596521Y-116280420D01*
X113596519Y-116280419D01*
X113596518Y-116280419D01*
X113521582Y-116269501D01*
X113078418Y-116269501D01*
X113003482Y-116280419D01*
X113003480Y-116280419D01*
X113003478Y-116280420D01*
X112887900Y-116336922D01*
X112887897Y-116336924D01*
X112796923Y-116427898D01*
X112796921Y-116427901D01*
X112740419Y-116543479D01*
X112740418Y-116543481D01*
X112740418Y-116543483D01*
X112729500Y-116618419D01*
X112729500Y-116618424D01*
X112729500Y-116742746D01*
X112709815Y-116809785D01*
X112693181Y-116830427D01*
X110559522Y-118964085D01*
X110559520Y-118964088D01*
X110506791Y-119055415D01*
X110489359Y-119120478D01*
X110479500Y-119157272D01*
X110479500Y-120883959D01*
X110459815Y-120950998D01*
X110443181Y-120971640D01*
X110426923Y-120987897D01*
X110426921Y-120987900D01*
X110370419Y-121103478D01*
X110370418Y-121103480D01*
X110370418Y-121103482D01*
X110359500Y-121178418D01*
X110359500Y-121621582D01*
X110370418Y-121696518D01*
X110370418Y-121696519D01*
X110370419Y-121696521D01*
X110426921Y-121812099D01*
X110426923Y-121812102D01*
X110517897Y-121903076D01*
X110517900Y-121903078D01*
X110585643Y-121936195D01*
X110633482Y-121959582D01*
X110708418Y-121970500D01*
X110708423Y-121970500D01*
X111051577Y-121970500D01*
X111051582Y-121970500D01*
X111126518Y-121959582D01*
X111195356Y-121925929D01*
X111242099Y-121903078D01*
X111242102Y-121903076D01*
X111287819Y-121857360D01*
X111307255Y-121846747D01*
X111323989Y-121832247D01*
X111337320Y-121830330D01*
X111349142Y-121823875D01*
X111371228Y-121825454D01*
X111393147Y-121822303D01*
X111405398Y-121827898D01*
X111418834Y-121828859D01*
X111436560Y-121842129D01*
X111456703Y-121851328D01*
X111463985Y-121862659D01*
X111474767Y-121870731D01*
X111482504Y-121891476D01*
X111494477Y-121910106D01*
X111497628Y-121932024D01*
X111499184Y-121936195D01*
X111499500Y-121945041D01*
X111499500Y-122106887D01*
X111479815Y-122173926D01*
X111463181Y-122194568D01*
X111410145Y-122247603D01*
X111410142Y-122247608D01*
X111410141Y-122247609D01*
X111391421Y-122284347D01*
X111353981Y-122357827D01*
X111353981Y-122357828D01*
X111339500Y-122449264D01*
X111339500Y-122790733D01*
X111348030Y-122844587D01*
X111339074Y-122913881D01*
X111313237Y-122951665D01*
X111220285Y-123044616D01*
X111220278Y-123044625D01*
X111137968Y-123183804D01*
X111095496Y-123330000D01*
X112704504Y-123330000D01*
X112660663Y-123179094D01*
X112660863Y-123109225D01*
X112698806Y-123050555D01*
X112762444Y-123021712D01*
X112779740Y-123020500D01*
X113010845Y-123020500D01*
X113010847Y-123020500D01*
X113112708Y-122993207D01*
X113204033Y-122940480D01*
X114452835Y-121691677D01*
X114514154Y-121658195D01*
X114566795Y-121659449D01*
X114566836Y-121659140D01*
X114569714Y-121659518D01*
X114572614Y-121659588D01*
X114574906Y-121660202D01*
X114649998Y-121670087D01*
X114650000Y-121670086D01*
X114650000Y-121506129D01*
X114654060Y-121474658D01*
X114658286Y-121458551D01*
X114673207Y-121432708D01*
X114700500Y-121330847D01*
X114700500Y-121297667D01*
X114706060Y-121276477D01*
X114711398Y-121267615D01*
X114720185Y-121237692D01*
X114739515Y-121220941D01*
X114742114Y-121216629D01*
X114747621Y-121213918D01*
X114772989Y-121191937D01*
X114800239Y-121188018D01*
X114804802Y-121185773D01*
X114810961Y-121186477D01*
X114842147Y-121181993D01*
X114865655Y-121192729D01*
X114874220Y-121193708D01*
X114882358Y-121200357D01*
X114905703Y-121211018D01*
X114922260Y-121232954D01*
X114928328Y-121237912D01*
X114930090Y-121243329D01*
X114936882Y-121252328D01*
X114938384Y-121255547D01*
X114947611Y-121297171D01*
X114949948Y-121304353D01*
X114949694Y-121306570D01*
X114950000Y-121307948D01*
X114950000Y-121670086D01*
X114950001Y-121670087D01*
X115025098Y-121660201D01*
X115025103Y-121660200D01*
X115164979Y-121602262D01*
X115164981Y-121602261D01*
X115285095Y-121510094D01*
X115312782Y-121474013D01*
X115369209Y-121432810D01*
X115409091Y-121425859D01*
X115409085Y-121425765D01*
X115409961Y-121425707D01*
X115411157Y-121425499D01*
X115413138Y-121425499D01*
X115460545Y-121419259D01*
X115564579Y-121370747D01*
X115645747Y-121289579D01*
X115694259Y-121185545D01*
X115700500Y-121138139D01*
X115700499Y-120908677D01*
X115709144Y-120879232D01*
X115715667Y-120849250D01*
X115719419Y-120844236D01*
X115720183Y-120841638D01*
X115736818Y-120820996D01*
X115887819Y-120669995D01*
X115949142Y-120636510D01*
X116018834Y-120641494D01*
X116074767Y-120683366D01*
X116099184Y-120748830D01*
X116099500Y-120757676D01*
X116099500Y-121530568D01*
X116079815Y-121597607D01*
X116078602Y-121599458D01*
X116023541Y-121681862D01*
X116023533Y-121681876D01*
X115974499Y-121800256D01*
X115974497Y-121800262D01*
X115949500Y-121925929D01*
X115949500Y-121925932D01*
X115949500Y-122054070D01*
X115949500Y-122054072D01*
X115949499Y-122054072D01*
X115974497Y-122179739D01*
X115974499Y-122179745D01*
X116023533Y-122298125D01*
X116023538Y-122298134D01*
X116094726Y-122404673D01*
X116096503Y-122406839D01*
X116097078Y-122408194D01*
X116098108Y-122409735D01*
X116097815Y-122409930D01*
X116123813Y-122471150D01*
X116112018Y-122540017D01*
X116064864Y-122591575D01*
X116000646Y-122609499D01*
X114737274Y-122609499D01*
X114635411Y-122636792D01*
X114544088Y-122689519D01*
X114544085Y-122689521D01*
X113979522Y-123254084D01*
X113979520Y-123254087D01*
X113926793Y-123345412D01*
X113909353Y-123410499D01*
X113909353Y-123410500D01*
X113899500Y-123447269D01*
X113899500Y-123650500D01*
X113879815Y-123717539D01*
X113827011Y-123763294D01*
X113794590Y-123773022D01*
X113785100Y-123774500D01*
X113686862Y-123774501D01*
X113639455Y-123780741D01*
X113586466Y-123805449D01*
X113569090Y-123808157D01*
X113551182Y-123805796D01*
X113533325Y-123808509D01*
X113502026Y-123799318D01*
X113499819Y-123799028D01*
X113499172Y-123798480D01*
X113497596Y-123798018D01*
X113460545Y-123780741D01*
X113460541Y-123780740D01*
X113413140Y-123774500D01*
X113186867Y-123774500D01*
X113171839Y-123776478D01*
X113139455Y-123780741D01*
X113139453Y-123780742D01*
X113139451Y-123780742D01*
X113035420Y-123829253D01*
X112954253Y-123910420D01*
X112954253Y-123910421D01*
X112905741Y-124014455D01*
X112902900Y-124036034D01*
X112902899Y-124036038D01*
X112899500Y-124061862D01*
X112899500Y-125438132D01*
X112899501Y-125438138D01*
X112905741Y-125485545D01*
X112905742Y-125485547D01*
X112905742Y-125485548D01*
X112935057Y-125548413D01*
X112954253Y-125589579D01*
X113035421Y-125670747D01*
X113139455Y-125719259D01*
X113186861Y-125725500D01*
X113413138Y-125725499D01*
X113460545Y-125719259D01*
X113497595Y-125701981D01*
X113566672Y-125691490D01*
X113602404Y-125701981D01*
X113639455Y-125719259D01*
X113686861Y-125725500D01*
X113913138Y-125725499D01*
X113960545Y-125719259D01*
X113997592Y-125701982D01*
X114066669Y-125691490D01*
X114102402Y-125701981D01*
X114139455Y-125719260D01*
X114186861Y-125725501D01*
X114413138Y-125725500D01*
X114460545Y-125719260D01*
X114497595Y-125701982D01*
X114566670Y-125691490D01*
X114602402Y-125701980D01*
X114639455Y-125719259D01*
X114686861Y-125725500D01*
X114913138Y-125725499D01*
X114960545Y-125719259D01*
X114997595Y-125701981D01*
X115066672Y-125691490D01*
X115102404Y-125701981D01*
X115139455Y-125719259D01*
X115186861Y-125725500D01*
X115413138Y-125725499D01*
X115460545Y-125719259D01*
X115564579Y-125670747D01*
X115645747Y-125589579D01*
X115694259Y-125485545D01*
X115700500Y-125438139D01*
X115700500Y-125274500D01*
X115720185Y-125207461D01*
X115772989Y-125161706D01*
X115824500Y-125150500D01*
X132002725Y-125150500D01*
X132002727Y-125150500D01*
X132104588Y-125123207D01*
X132195913Y-125070480D01*
X133820480Y-123445913D01*
X133873207Y-123354588D01*
X133900500Y-123252727D01*
X133900500Y-123147273D01*
X133900500Y-120701393D01*
X133920185Y-120634354D01*
X133972989Y-120588599D01*
X134042147Y-120578655D01*
X134105703Y-120607680D01*
X134135159Y-120645442D01*
X134140280Y-120655570D01*
X134140418Y-120656517D01*
X134196924Y-120772101D01*
X134201528Y-120776705D01*
X134208984Y-120791451D01*
X134210360Y-120798909D01*
X134218099Y-120815307D01*
X134233607Y-120873182D01*
X134233607Y-120873183D01*
X134261456Y-120921419D01*
X134299500Y-120987312D01*
X134299502Y-120987314D01*
X135530523Y-122218335D01*
X135554242Y-122251555D01*
X135589300Y-122323267D01*
X135676731Y-122410698D01*
X135676732Y-122410698D01*
X135676734Y-122410700D01*
X135787821Y-122465007D01*
X135859839Y-122475500D01*
X136510928Y-122475499D01*
X136510931Y-122475500D01*
X136639069Y-122475500D01*
X136639071Y-122475499D01*
X137290160Y-122475499D01*
X137362179Y-122465007D01*
X137473266Y-122410700D01*
X137522146Y-122361820D01*
X137583469Y-122328334D01*
X137609828Y-122325500D01*
X137940890Y-122325500D01*
X137940892Y-122325500D01*
X138068186Y-122291392D01*
X138182314Y-122225500D01*
X138997104Y-121410707D01*
X138997109Y-121410704D01*
X139007312Y-121400500D01*
X139007314Y-121400500D01*
X139100500Y-121307314D01*
X139166392Y-121193186D01*
X139171399Y-121174500D01*
X139200500Y-121065893D01*
X139200500Y-120934108D01*
X139200500Y-117834108D01*
X139166392Y-117706814D01*
X139100500Y-117592686D01*
X139007314Y-117499500D01*
X138544995Y-117037181D01*
X138511510Y-116975858D01*
X138516494Y-116906166D01*
X138558366Y-116850233D01*
X138623830Y-116825816D01*
X138632676Y-116825500D01*
X140697061Y-116825500D01*
X140697068Y-116825500D01*
X140807625Y-116810945D01*
X140945190Y-116753964D01*
X141063320Y-116663320D01*
X141153964Y-116545190D01*
X141210945Y-116407625D01*
X141225500Y-116297068D01*
X141225500Y-115024000D01*
X141245185Y-114956961D01*
X141297989Y-114911206D01*
X141349500Y-114900000D01*
X141825500Y-114900000D01*
X141892539Y-114919685D01*
X141938294Y-114972489D01*
X141949500Y-115024000D01*
X141949500Y-123496519D01*
X141949305Y-123503472D01*
X141932602Y-123800893D01*
X141931045Y-123814711D01*
X141881730Y-124104953D01*
X141878636Y-124118510D01*
X141797133Y-124401413D01*
X141792540Y-124414537D01*
X141679879Y-124686527D01*
X141673846Y-124699056D01*
X141531433Y-124956732D01*
X141524035Y-124968505D01*
X141451681Y-125070480D01*
X141450630Y-125071961D01*
X141395782Y-125115245D01*
X141326240Y-125122005D01*
X141264083Y-125090094D01*
X141229045Y-125029645D01*
X141225500Y-125000206D01*
X141225500Y-123602938D01*
X141225499Y-123602924D01*
X141224763Y-123597338D01*
X141210945Y-123492375D01*
X141153964Y-123354810D01*
X141063320Y-123236680D01*
X140945190Y-123146036D01*
X140945189Y-123146035D01*
X140945187Y-123146034D01*
X140807628Y-123089056D01*
X140807626Y-123089055D01*
X140807625Y-123089055D01*
X140793805Y-123087235D01*
X140697075Y-123074500D01*
X140697068Y-123074500D01*
X138252932Y-123074500D01*
X138252924Y-123074500D01*
X138142375Y-123089055D01*
X138142371Y-123089056D01*
X138004812Y-123146034D01*
X137886680Y-123236680D01*
X137796034Y-123354812D01*
X137739056Y-123492371D01*
X137739055Y-123492375D01*
X137724500Y-123602924D01*
X137724500Y-125147075D01*
X137739055Y-125257624D01*
X137739056Y-125257628D01*
X137796034Y-125395187D01*
X137796035Y-125395189D01*
X137796036Y-125395190D01*
X137886680Y-125513320D01*
X138004810Y-125603964D01*
X138142375Y-125660945D01*
X138252932Y-125675500D01*
X138252939Y-125675500D01*
X140458164Y-125675500D01*
X140462235Y-125676695D01*
X140466379Y-125675772D01*
X140495477Y-125686456D01*
X140525203Y-125695185D01*
X140527981Y-125698391D01*
X140531967Y-125699855D01*
X140550667Y-125724572D01*
X140570958Y-125747989D01*
X140571562Y-125752190D01*
X140574123Y-125755575D01*
X140576491Y-125786471D01*
X140580902Y-125817147D01*
X140579138Y-125821008D01*
X140579463Y-125825240D01*
X140564751Y-125852511D01*
X140551877Y-125880703D01*
X140547732Y-125884059D01*
X140546291Y-125886733D01*
X140518145Y-125908028D01*
X140399056Y-125973846D01*
X140386527Y-125979879D01*
X140114537Y-126092540D01*
X140101413Y-126097133D01*
X139818510Y-126178636D01*
X139804953Y-126181730D01*
X139514711Y-126231045D01*
X139500893Y-126232602D01*
X139203472Y-126249305D01*
X139196519Y-126249500D01*
X111603481Y-126249500D01*
X111596528Y-126249305D01*
X111299106Y-126232602D01*
X111285288Y-126231045D01*
X110995046Y-126181730D01*
X110981489Y-126178636D01*
X110698586Y-126097133D01*
X110685462Y-126092540D01*
X110413472Y-125979879D01*
X110400943Y-125973846D01*
X110143267Y-125831433D01*
X110131502Y-125824040D01*
X109891385Y-125653668D01*
X109880528Y-125645010D01*
X109834597Y-125603964D01*
X109661000Y-125448828D01*
X109651169Y-125438997D01*
X109454985Y-125219466D01*
X109446333Y-125208616D01*
X109275956Y-124968493D01*
X109268566Y-124956732D01*
X109126153Y-124699056D01*
X109120120Y-124686527D01*
X109007459Y-124414537D01*
X109002866Y-124401413D01*
X108921363Y-124118510D01*
X108918269Y-124104953D01*
X108913265Y-124075500D01*
X108871552Y-123830000D01*
X111095496Y-123830000D01*
X111137968Y-123976195D01*
X111220278Y-124115374D01*
X111220285Y-124115383D01*
X111334616Y-124229714D01*
X111334625Y-124229721D01*
X111473804Y-124312031D01*
X111629089Y-124357145D01*
X111650000Y-124358789D01*
X112150000Y-124358789D01*
X112170910Y-124357145D01*
X112326195Y-124312031D01*
X112465374Y-124229721D01*
X112465383Y-124229714D01*
X112579714Y-124115383D01*
X112579721Y-124115374D01*
X112662030Y-123976197D01*
X112662109Y-123975926D01*
X112662112Y-123975920D01*
X112662114Y-123975909D01*
X112679346Y-123916595D01*
X112704504Y-123830000D01*
X112150000Y-123830000D01*
X112150000Y-124358789D01*
X111650000Y-124358789D01*
X111650000Y-123830000D01*
X111095496Y-123830000D01*
X108871552Y-123830000D01*
X108868951Y-123814694D01*
X108867397Y-123800900D01*
X108850695Y-123503471D01*
X108850500Y-123496519D01*
X108850500Y-115024000D01*
X108870185Y-114956961D01*
X108922989Y-114911206D01*
X108974500Y-114900000D01*
X117825500Y-114900000D01*
X117892539Y-114919685D01*
G37*
%TD.AperFunction*%
%TA.AperFunction,Conductor*%
G36*
X137830702Y-117738962D02*
G01*
X137837180Y-117744994D01*
X138163181Y-118070995D01*
X138196666Y-118132318D01*
X138199500Y-118158676D01*
X138199500Y-120741324D01*
X138190855Y-120770764D01*
X138184332Y-120800751D01*
X138180577Y-120805766D01*
X138179815Y-120808363D01*
X138163181Y-120829005D01*
X138086681Y-120905505D01*
X138025358Y-120938990D01*
X137955666Y-120934006D01*
X137899733Y-120892134D01*
X137875316Y-120826670D01*
X137875265Y-120825266D01*
X137875000Y-120825001D01*
X136699000Y-120825001D01*
X136631961Y-120805316D01*
X136586206Y-120752512D01*
X136575000Y-120701001D01*
X136575000Y-120449001D01*
X136594685Y-120381962D01*
X136647489Y-120336207D01*
X136699000Y-120325001D01*
X137874999Y-120325001D01*
X137874999Y-120232397D01*
X137874998Y-120232375D01*
X137872234Y-120197244D01*
X137828530Y-120046811D01*
X137748792Y-119911981D01*
X137748785Y-119911972D01*
X137650605Y-119813792D01*
X137617120Y-119752469D01*
X137615582Y-119708233D01*
X137616751Y-119700211D01*
X137625500Y-119640161D01*
X137625499Y-119009840D01*
X137615007Y-118937821D01*
X137560700Y-118826734D01*
X137560698Y-118826732D01*
X137560698Y-118826731D01*
X137521648Y-118787681D01*
X137488163Y-118726358D01*
X137493147Y-118656666D01*
X137521649Y-118612318D01*
X137560698Y-118573269D01*
X137560700Y-118573267D01*
X137615007Y-118462180D01*
X137625500Y-118390162D01*
X137625499Y-117832674D01*
X137645183Y-117765636D01*
X137697987Y-117719881D01*
X137767146Y-117709937D01*
X137830702Y-117738962D01*
G37*
%TD.AperFunction*%
%TD*%
M02*
